M48
; DRILL file {KiCad (5.1.9)-1} date 04/03/21 09:42:34
; FORMAT={-:-/ absolute / inch / decimal}
; #@! TF.CreationDate,2021-04-03T09:42:34-07:00
; #@! TF.GenerationSoftware,Kicad,Pcbnew,(5.1.9)-1
; #@! TF.FileFunction,Plated,1,4,PTH
FMAT,2
INCH
T1C0.0157
T2C0.0256
T3C0.0276
T4C0.0315
T5C0.0394
%
G90
G05
T1
X6.437Y-2.4016
X6.4567Y-3.9567
X6.5354Y-4.0354
X6.5472Y-2.8346
X6.5748Y-2.5
X6.5906Y-3.7205
X6.5945Y-3.5433
X6.6Y-3.0709
X6.6535Y-3.4055
X6.7126Y-2.6772
X6.7126Y-3.3071
X6.7126Y-3.8386
X6.7323Y-3.0906
X6.752Y-3.1693
X6.7717Y-2.5197
X6.8071Y-2.9134
X6.811Y-3.5433
X6.8307Y-3.6614
X6.8701Y-3.5433
X6.8898Y-2.6575
X6.8898Y-3.2087
X6.9094Y-3.2874
X6.9291Y-3.9764
X6.9882Y-3.2589
X6.9882Y-3.3268
X6.9882Y-3.3858
X6.9884Y-3.621
X7.0276Y-3.9961
X7.0433Y-3.252
X7.0472Y-3.4055
X7.0669Y-2.5984
X7.1063Y-4.0945
X7.126Y-3.5669
X7.126Y-3.7205
X7.1654Y-2.437
X7.1654Y-3.4843
X7.185Y-2.9921
X7.2165Y-2.8504
X7.2441Y-3.937
X7.2835Y-2.7992
X7.3031Y-3.0512
X7.3228Y-3.189
X7.3976Y-3.4488
X7.4803Y-3.1496
X7.4803Y-4.1732
X7.5Y-2.4016
X7.5709Y-3.8976
X7.5787Y-2.7953
T2
X6.8472Y-4.0945
X6.8472Y-4.1445
X6.8972Y-4.0945
X6.8972Y-4.1445
X6.9472Y-4.0945
X6.9472Y-4.1445
X6.9972Y-4.0945
X6.9972Y-4.1445
X7.0472Y-4.0945
X7.0472Y-4.1445
T4
X6.8504Y-3.8071
X7.0425Y-3.8071
T5
X6.3701Y-2.9071
X6.3701Y-3.0071
X6.3701Y-3.1071
X6.3701Y-3.2071
X6.3701Y-3.3071
X6.3701Y-3.4071
X6.3701Y-3.5071
X6.3701Y-3.6071
X6.3701Y-3.7071
X6.3701Y-3.8071
X7.5701Y-2.9071
X7.5701Y-3.0071
X7.5701Y-3.1071
X7.5701Y-3.2071
X7.5701Y-3.3071
X7.5701Y-3.4071
X7.5701Y-3.5071
X7.5701Y-3.6071
X7.5701Y-3.7071
X7.5701Y-3.8071
T2
G00X6.8742Y-2.5073
M15
G01X6.8742Y-2.523
M16
G05
G00X7.0648Y-2.5073
M15
G01X7.0648Y-2.523
M16
G05
T3
G00X6.862Y-2.3872
M15
G01X6.862Y-2.4069
M16
G05
G00X7.077Y-2.3872
M15
G01X7.077Y-2.4069
M16
G05
T0
M30
