M48
; DRILL file {KiCad (5.1.9)-1} date 02/25/21 22:58:10
; FORMAT={-:-/ absolute / inch / decimal}
; #@! TF.CreationDate,2021-02-25T22:58:10-07:00
; #@! TF.GenerationSoftware,Kicad,Pcbnew,(5.1.9)-1
; #@! TF.FileFunction,Plated,1,2,PTH
FMAT,2
INCH
T1C0.0157
T2C0.0256
T3C0.0315
T4C0.0400
%
G90
G05
T1
X4.8583Y-4.1969
X4.8583Y-4.3465
X4.9567Y-4.2598
X5.0591Y-4.0512
X5.1142Y-4.0984
X5.1378Y-3.622
X5.1614Y-4.1417
X5.2165Y-4.1772
X5.2756Y-4.2047
X5.3307Y-4.3701
X5.3976Y-4.4882
X5.4646Y-4.4882
X5.4803Y-4.1417
X5.5157Y-3.6299
X5.5315Y-4.4882
X5.5945Y-4.4882
X5.6063Y-3.6457
X5.6102Y-3.3661
X5.6575Y-3.7756
X5.689Y-4.063
X5.7323Y-4.1181
X5.7402Y-3.9291
X5.7992Y-3.6772
X5.8031Y-4.315
X5.8189Y-4.9606
X5.8504Y-3.685
X5.8701Y-4.1929
X5.9291Y-3.685
X5.9409Y-3.9055
X5.9552Y-4.2229
X5.9567Y-4.9606
X6.0079Y-3.8701
X6.0354Y-4.1339
X6.0512Y-3.7756
X6.4016Y-3.7638
X6.4016Y-3.8386
X6.7874Y-3.8976
X6.7913Y-4.0197
T2
X5.6087Y-3.0709
X5.6087Y-3.1209
X5.6587Y-3.0709
X5.6587Y-3.1209
X5.7087Y-3.0709
X5.7087Y-3.1209
X5.7587Y-3.0709
X5.7587Y-3.1209
X5.8087Y-3.0709
X5.8087Y-3.1209
T3
X5.5934Y-3.5704
X5.7863Y-3.5704
T4
X4.252Y-3.2575
X4.252Y-3.3575
X4.252Y-3.4575
X4.252Y-3.5575
X4.252Y-3.6575
X4.252Y-3.7575
X4.252Y-3.8575
X4.252Y-3.9575
X4.252Y-4.0575
X4.252Y-4.1575
X4.252Y-4.2575
X4.252Y-4.3575
X4.252Y-4.4575
X4.252Y-4.5575
X4.252Y-4.6575
X4.252Y-4.7575
X5.6583Y-5.46
X5.7583Y-5.46
X6.9472Y-2.5591
X7.0472Y-2.5591
X7.1472Y-2.5591
X7.1654Y-3.2701
X7.1654Y-3.3701
X7.1654Y-3.4701
X7.1654Y-3.5701
X7.1654Y-3.6701
X7.1654Y-3.7701
X7.1654Y-3.8701
X7.1654Y-3.9701
X7.1654Y-4.0701
X7.1654Y-4.1701
X7.1654Y-4.2701
X7.1654Y-4.3701
X7.1654Y-4.4701
X7.1654Y-4.5701
X7.1654Y-4.6701
X7.1654Y-4.7701
T0
M30
