%TF.GenerationSoftware,KiCad,Pcbnew,(5.1.9)-1*%
%TF.CreationDate,2021-02-25T22:56:50-07:00*%
%TF.ProjectId,Avionics_Computer,4176696f-6e69-4637-935f-436f6d707574,rev?*%
%TF.SameCoordinates,Original*%
%TF.FileFunction,Soldermask,Top*%
%TF.FilePolarity,Negative*%
%FSLAX46Y46*%
G04 Gerber Fmt 4.6, Leading zero omitted, Abs format (unit mm)*
G04 Created by KiCad (PCBNEW (5.1.9)-1) date 2021-02-25 22:56:50*
%MOMM*%
%LPD*%
G01*
G04 APERTURE LIST*
%ADD10C,1.500000*%
%ADD11R,1.060000X0.650000*%
%ADD12R,1.600000X1.400000*%
%ADD13C,2.082800*%
%ADD14O,1.000000X1.000000*%
%ADD15R,1.000000X1.000000*%
G04 APERTURE END LIST*
%TO.C,U1*%
G36*
G01*
X148420000Y-99087500D02*
X149745000Y-99087500D01*
G75*
G02*
X149820000Y-99162500I0J-75000D01*
G01*
X149820000Y-99312500D01*
G75*
G02*
X149745000Y-99387500I-75000J0D01*
G01*
X148420000Y-99387500D01*
G75*
G02*
X148345000Y-99312500I0J75000D01*
G01*
X148345000Y-99162500D01*
G75*
G02*
X148420000Y-99087500I75000J0D01*
G01*
G37*
G36*
G01*
X148420000Y-99587500D02*
X149745000Y-99587500D01*
G75*
G02*
X149820000Y-99662500I0J-75000D01*
G01*
X149820000Y-99812500D01*
G75*
G02*
X149745000Y-99887500I-75000J0D01*
G01*
X148420000Y-99887500D01*
G75*
G02*
X148345000Y-99812500I0J75000D01*
G01*
X148345000Y-99662500D01*
G75*
G02*
X148420000Y-99587500I75000J0D01*
G01*
G37*
G36*
G01*
X148420000Y-100087500D02*
X149745000Y-100087500D01*
G75*
G02*
X149820000Y-100162500I0J-75000D01*
G01*
X149820000Y-100312500D01*
G75*
G02*
X149745000Y-100387500I-75000J0D01*
G01*
X148420000Y-100387500D01*
G75*
G02*
X148345000Y-100312500I0J75000D01*
G01*
X148345000Y-100162500D01*
G75*
G02*
X148420000Y-100087500I75000J0D01*
G01*
G37*
G36*
G01*
X148420000Y-100587500D02*
X149745000Y-100587500D01*
G75*
G02*
X149820000Y-100662500I0J-75000D01*
G01*
X149820000Y-100812500D01*
G75*
G02*
X149745000Y-100887500I-75000J0D01*
G01*
X148420000Y-100887500D01*
G75*
G02*
X148345000Y-100812500I0J75000D01*
G01*
X148345000Y-100662500D01*
G75*
G02*
X148420000Y-100587500I75000J0D01*
G01*
G37*
G36*
G01*
X148420000Y-101087500D02*
X149745000Y-101087500D01*
G75*
G02*
X149820000Y-101162500I0J-75000D01*
G01*
X149820000Y-101312500D01*
G75*
G02*
X149745000Y-101387500I-75000J0D01*
G01*
X148420000Y-101387500D01*
G75*
G02*
X148345000Y-101312500I0J75000D01*
G01*
X148345000Y-101162500D01*
G75*
G02*
X148420000Y-101087500I75000J0D01*
G01*
G37*
G36*
G01*
X148420000Y-101587500D02*
X149745000Y-101587500D01*
G75*
G02*
X149820000Y-101662500I0J-75000D01*
G01*
X149820000Y-101812500D01*
G75*
G02*
X149745000Y-101887500I-75000J0D01*
G01*
X148420000Y-101887500D01*
G75*
G02*
X148345000Y-101812500I0J75000D01*
G01*
X148345000Y-101662500D01*
G75*
G02*
X148420000Y-101587500I75000J0D01*
G01*
G37*
G36*
G01*
X148420000Y-102087500D02*
X149745000Y-102087500D01*
G75*
G02*
X149820000Y-102162500I0J-75000D01*
G01*
X149820000Y-102312500D01*
G75*
G02*
X149745000Y-102387500I-75000J0D01*
G01*
X148420000Y-102387500D01*
G75*
G02*
X148345000Y-102312500I0J75000D01*
G01*
X148345000Y-102162500D01*
G75*
G02*
X148420000Y-102087500I75000J0D01*
G01*
G37*
G36*
G01*
X148420000Y-102587500D02*
X149745000Y-102587500D01*
G75*
G02*
X149820000Y-102662500I0J-75000D01*
G01*
X149820000Y-102812500D01*
G75*
G02*
X149745000Y-102887500I-75000J0D01*
G01*
X148420000Y-102887500D01*
G75*
G02*
X148345000Y-102812500I0J75000D01*
G01*
X148345000Y-102662500D01*
G75*
G02*
X148420000Y-102587500I75000J0D01*
G01*
G37*
G36*
G01*
X148420000Y-103087500D02*
X149745000Y-103087500D01*
G75*
G02*
X149820000Y-103162500I0J-75000D01*
G01*
X149820000Y-103312500D01*
G75*
G02*
X149745000Y-103387500I-75000J0D01*
G01*
X148420000Y-103387500D01*
G75*
G02*
X148345000Y-103312500I0J75000D01*
G01*
X148345000Y-103162500D01*
G75*
G02*
X148420000Y-103087500I75000J0D01*
G01*
G37*
G36*
G01*
X148420000Y-103587500D02*
X149745000Y-103587500D01*
G75*
G02*
X149820000Y-103662500I0J-75000D01*
G01*
X149820000Y-103812500D01*
G75*
G02*
X149745000Y-103887500I-75000J0D01*
G01*
X148420000Y-103887500D01*
G75*
G02*
X148345000Y-103812500I0J75000D01*
G01*
X148345000Y-103662500D01*
G75*
G02*
X148420000Y-103587500I75000J0D01*
G01*
G37*
G36*
G01*
X148420000Y-104087500D02*
X149745000Y-104087500D01*
G75*
G02*
X149820000Y-104162500I0J-75000D01*
G01*
X149820000Y-104312500D01*
G75*
G02*
X149745000Y-104387500I-75000J0D01*
G01*
X148420000Y-104387500D01*
G75*
G02*
X148345000Y-104312500I0J75000D01*
G01*
X148345000Y-104162500D01*
G75*
G02*
X148420000Y-104087500I75000J0D01*
G01*
G37*
G36*
G01*
X148420000Y-104587500D02*
X149745000Y-104587500D01*
G75*
G02*
X149820000Y-104662500I0J-75000D01*
G01*
X149820000Y-104812500D01*
G75*
G02*
X149745000Y-104887500I-75000J0D01*
G01*
X148420000Y-104887500D01*
G75*
G02*
X148345000Y-104812500I0J75000D01*
G01*
X148345000Y-104662500D01*
G75*
G02*
X148420000Y-104587500I75000J0D01*
G01*
G37*
G36*
G01*
X147595000Y-105412500D02*
X147745000Y-105412500D01*
G75*
G02*
X147820000Y-105487500I0J-75000D01*
G01*
X147820000Y-106812500D01*
G75*
G02*
X147745000Y-106887500I-75000J0D01*
G01*
X147595000Y-106887500D01*
G75*
G02*
X147520000Y-106812500I0J75000D01*
G01*
X147520000Y-105487500D01*
G75*
G02*
X147595000Y-105412500I75000J0D01*
G01*
G37*
G36*
G01*
X147095000Y-105412500D02*
X147245000Y-105412500D01*
G75*
G02*
X147320000Y-105487500I0J-75000D01*
G01*
X147320000Y-106812500D01*
G75*
G02*
X147245000Y-106887500I-75000J0D01*
G01*
X147095000Y-106887500D01*
G75*
G02*
X147020000Y-106812500I0J75000D01*
G01*
X147020000Y-105487500D01*
G75*
G02*
X147095000Y-105412500I75000J0D01*
G01*
G37*
G36*
G01*
X146595000Y-105412500D02*
X146745000Y-105412500D01*
G75*
G02*
X146820000Y-105487500I0J-75000D01*
G01*
X146820000Y-106812500D01*
G75*
G02*
X146745000Y-106887500I-75000J0D01*
G01*
X146595000Y-106887500D01*
G75*
G02*
X146520000Y-106812500I0J75000D01*
G01*
X146520000Y-105487500D01*
G75*
G02*
X146595000Y-105412500I75000J0D01*
G01*
G37*
G36*
G01*
X146095000Y-105412500D02*
X146245000Y-105412500D01*
G75*
G02*
X146320000Y-105487500I0J-75000D01*
G01*
X146320000Y-106812500D01*
G75*
G02*
X146245000Y-106887500I-75000J0D01*
G01*
X146095000Y-106887500D01*
G75*
G02*
X146020000Y-106812500I0J75000D01*
G01*
X146020000Y-105487500D01*
G75*
G02*
X146095000Y-105412500I75000J0D01*
G01*
G37*
G36*
G01*
X145595000Y-105412500D02*
X145745000Y-105412500D01*
G75*
G02*
X145820000Y-105487500I0J-75000D01*
G01*
X145820000Y-106812500D01*
G75*
G02*
X145745000Y-106887500I-75000J0D01*
G01*
X145595000Y-106887500D01*
G75*
G02*
X145520000Y-106812500I0J75000D01*
G01*
X145520000Y-105487500D01*
G75*
G02*
X145595000Y-105412500I75000J0D01*
G01*
G37*
G36*
G01*
X145095000Y-105412500D02*
X145245000Y-105412500D01*
G75*
G02*
X145320000Y-105487500I0J-75000D01*
G01*
X145320000Y-106812500D01*
G75*
G02*
X145245000Y-106887500I-75000J0D01*
G01*
X145095000Y-106887500D01*
G75*
G02*
X145020000Y-106812500I0J75000D01*
G01*
X145020000Y-105487500D01*
G75*
G02*
X145095000Y-105412500I75000J0D01*
G01*
G37*
G36*
G01*
X144595000Y-105412500D02*
X144745000Y-105412500D01*
G75*
G02*
X144820000Y-105487500I0J-75000D01*
G01*
X144820000Y-106812500D01*
G75*
G02*
X144745000Y-106887500I-75000J0D01*
G01*
X144595000Y-106887500D01*
G75*
G02*
X144520000Y-106812500I0J75000D01*
G01*
X144520000Y-105487500D01*
G75*
G02*
X144595000Y-105412500I75000J0D01*
G01*
G37*
G36*
G01*
X144095000Y-105412500D02*
X144245000Y-105412500D01*
G75*
G02*
X144320000Y-105487500I0J-75000D01*
G01*
X144320000Y-106812500D01*
G75*
G02*
X144245000Y-106887500I-75000J0D01*
G01*
X144095000Y-106887500D01*
G75*
G02*
X144020000Y-106812500I0J75000D01*
G01*
X144020000Y-105487500D01*
G75*
G02*
X144095000Y-105412500I75000J0D01*
G01*
G37*
G36*
G01*
X143595000Y-105412500D02*
X143745000Y-105412500D01*
G75*
G02*
X143820000Y-105487500I0J-75000D01*
G01*
X143820000Y-106812500D01*
G75*
G02*
X143745000Y-106887500I-75000J0D01*
G01*
X143595000Y-106887500D01*
G75*
G02*
X143520000Y-106812500I0J75000D01*
G01*
X143520000Y-105487500D01*
G75*
G02*
X143595000Y-105412500I75000J0D01*
G01*
G37*
G36*
G01*
X143095000Y-105412500D02*
X143245000Y-105412500D01*
G75*
G02*
X143320000Y-105487500I0J-75000D01*
G01*
X143320000Y-106812500D01*
G75*
G02*
X143245000Y-106887500I-75000J0D01*
G01*
X143095000Y-106887500D01*
G75*
G02*
X143020000Y-106812500I0J75000D01*
G01*
X143020000Y-105487500D01*
G75*
G02*
X143095000Y-105412500I75000J0D01*
G01*
G37*
G36*
G01*
X142595000Y-105412500D02*
X142745000Y-105412500D01*
G75*
G02*
X142820000Y-105487500I0J-75000D01*
G01*
X142820000Y-106812500D01*
G75*
G02*
X142745000Y-106887500I-75000J0D01*
G01*
X142595000Y-106887500D01*
G75*
G02*
X142520000Y-106812500I0J75000D01*
G01*
X142520000Y-105487500D01*
G75*
G02*
X142595000Y-105412500I75000J0D01*
G01*
G37*
G36*
G01*
X142095000Y-105412500D02*
X142245000Y-105412500D01*
G75*
G02*
X142320000Y-105487500I0J-75000D01*
G01*
X142320000Y-106812500D01*
G75*
G02*
X142245000Y-106887500I-75000J0D01*
G01*
X142095000Y-106887500D01*
G75*
G02*
X142020000Y-106812500I0J75000D01*
G01*
X142020000Y-105487500D01*
G75*
G02*
X142095000Y-105412500I75000J0D01*
G01*
G37*
G36*
G01*
X140095000Y-104587500D02*
X141420000Y-104587500D01*
G75*
G02*
X141495000Y-104662500I0J-75000D01*
G01*
X141495000Y-104812500D01*
G75*
G02*
X141420000Y-104887500I-75000J0D01*
G01*
X140095000Y-104887500D01*
G75*
G02*
X140020000Y-104812500I0J75000D01*
G01*
X140020000Y-104662500D01*
G75*
G02*
X140095000Y-104587500I75000J0D01*
G01*
G37*
G36*
G01*
X140095000Y-104087500D02*
X141420000Y-104087500D01*
G75*
G02*
X141495000Y-104162500I0J-75000D01*
G01*
X141495000Y-104312500D01*
G75*
G02*
X141420000Y-104387500I-75000J0D01*
G01*
X140095000Y-104387500D01*
G75*
G02*
X140020000Y-104312500I0J75000D01*
G01*
X140020000Y-104162500D01*
G75*
G02*
X140095000Y-104087500I75000J0D01*
G01*
G37*
G36*
G01*
X140095000Y-103587500D02*
X141420000Y-103587500D01*
G75*
G02*
X141495000Y-103662500I0J-75000D01*
G01*
X141495000Y-103812500D01*
G75*
G02*
X141420000Y-103887500I-75000J0D01*
G01*
X140095000Y-103887500D01*
G75*
G02*
X140020000Y-103812500I0J75000D01*
G01*
X140020000Y-103662500D01*
G75*
G02*
X140095000Y-103587500I75000J0D01*
G01*
G37*
G36*
G01*
X140095000Y-103087500D02*
X141420000Y-103087500D01*
G75*
G02*
X141495000Y-103162500I0J-75000D01*
G01*
X141495000Y-103312500D01*
G75*
G02*
X141420000Y-103387500I-75000J0D01*
G01*
X140095000Y-103387500D01*
G75*
G02*
X140020000Y-103312500I0J75000D01*
G01*
X140020000Y-103162500D01*
G75*
G02*
X140095000Y-103087500I75000J0D01*
G01*
G37*
G36*
G01*
X140095000Y-102587500D02*
X141420000Y-102587500D01*
G75*
G02*
X141495000Y-102662500I0J-75000D01*
G01*
X141495000Y-102812500D01*
G75*
G02*
X141420000Y-102887500I-75000J0D01*
G01*
X140095000Y-102887500D01*
G75*
G02*
X140020000Y-102812500I0J75000D01*
G01*
X140020000Y-102662500D01*
G75*
G02*
X140095000Y-102587500I75000J0D01*
G01*
G37*
G36*
G01*
X140095000Y-102087500D02*
X141420000Y-102087500D01*
G75*
G02*
X141495000Y-102162500I0J-75000D01*
G01*
X141495000Y-102312500D01*
G75*
G02*
X141420000Y-102387500I-75000J0D01*
G01*
X140095000Y-102387500D01*
G75*
G02*
X140020000Y-102312500I0J75000D01*
G01*
X140020000Y-102162500D01*
G75*
G02*
X140095000Y-102087500I75000J0D01*
G01*
G37*
G36*
G01*
X140095000Y-101587500D02*
X141420000Y-101587500D01*
G75*
G02*
X141495000Y-101662500I0J-75000D01*
G01*
X141495000Y-101812500D01*
G75*
G02*
X141420000Y-101887500I-75000J0D01*
G01*
X140095000Y-101887500D01*
G75*
G02*
X140020000Y-101812500I0J75000D01*
G01*
X140020000Y-101662500D01*
G75*
G02*
X140095000Y-101587500I75000J0D01*
G01*
G37*
G36*
G01*
X140095000Y-101087500D02*
X141420000Y-101087500D01*
G75*
G02*
X141495000Y-101162500I0J-75000D01*
G01*
X141495000Y-101312500D01*
G75*
G02*
X141420000Y-101387500I-75000J0D01*
G01*
X140095000Y-101387500D01*
G75*
G02*
X140020000Y-101312500I0J75000D01*
G01*
X140020000Y-101162500D01*
G75*
G02*
X140095000Y-101087500I75000J0D01*
G01*
G37*
G36*
G01*
X140095000Y-100587500D02*
X141420000Y-100587500D01*
G75*
G02*
X141495000Y-100662500I0J-75000D01*
G01*
X141495000Y-100812500D01*
G75*
G02*
X141420000Y-100887500I-75000J0D01*
G01*
X140095000Y-100887500D01*
G75*
G02*
X140020000Y-100812500I0J75000D01*
G01*
X140020000Y-100662500D01*
G75*
G02*
X140095000Y-100587500I75000J0D01*
G01*
G37*
G36*
G01*
X140095000Y-100087500D02*
X141420000Y-100087500D01*
G75*
G02*
X141495000Y-100162500I0J-75000D01*
G01*
X141495000Y-100312500D01*
G75*
G02*
X141420000Y-100387500I-75000J0D01*
G01*
X140095000Y-100387500D01*
G75*
G02*
X140020000Y-100312500I0J75000D01*
G01*
X140020000Y-100162500D01*
G75*
G02*
X140095000Y-100087500I75000J0D01*
G01*
G37*
G36*
G01*
X140095000Y-99587500D02*
X141420000Y-99587500D01*
G75*
G02*
X141495000Y-99662500I0J-75000D01*
G01*
X141495000Y-99812500D01*
G75*
G02*
X141420000Y-99887500I-75000J0D01*
G01*
X140095000Y-99887500D01*
G75*
G02*
X140020000Y-99812500I0J75000D01*
G01*
X140020000Y-99662500D01*
G75*
G02*
X140095000Y-99587500I75000J0D01*
G01*
G37*
G36*
G01*
X140095000Y-99087500D02*
X141420000Y-99087500D01*
G75*
G02*
X141495000Y-99162500I0J-75000D01*
G01*
X141495000Y-99312500D01*
G75*
G02*
X141420000Y-99387500I-75000J0D01*
G01*
X140095000Y-99387500D01*
G75*
G02*
X140020000Y-99312500I0J75000D01*
G01*
X140020000Y-99162500D01*
G75*
G02*
X140095000Y-99087500I75000J0D01*
G01*
G37*
G36*
G01*
X142095000Y-97087500D02*
X142245000Y-97087500D01*
G75*
G02*
X142320000Y-97162500I0J-75000D01*
G01*
X142320000Y-98487500D01*
G75*
G02*
X142245000Y-98562500I-75000J0D01*
G01*
X142095000Y-98562500D01*
G75*
G02*
X142020000Y-98487500I0J75000D01*
G01*
X142020000Y-97162500D01*
G75*
G02*
X142095000Y-97087500I75000J0D01*
G01*
G37*
G36*
G01*
X142595000Y-97087500D02*
X142745000Y-97087500D01*
G75*
G02*
X142820000Y-97162500I0J-75000D01*
G01*
X142820000Y-98487500D01*
G75*
G02*
X142745000Y-98562500I-75000J0D01*
G01*
X142595000Y-98562500D01*
G75*
G02*
X142520000Y-98487500I0J75000D01*
G01*
X142520000Y-97162500D01*
G75*
G02*
X142595000Y-97087500I75000J0D01*
G01*
G37*
G36*
G01*
X143095000Y-97087500D02*
X143245000Y-97087500D01*
G75*
G02*
X143320000Y-97162500I0J-75000D01*
G01*
X143320000Y-98487500D01*
G75*
G02*
X143245000Y-98562500I-75000J0D01*
G01*
X143095000Y-98562500D01*
G75*
G02*
X143020000Y-98487500I0J75000D01*
G01*
X143020000Y-97162500D01*
G75*
G02*
X143095000Y-97087500I75000J0D01*
G01*
G37*
G36*
G01*
X143595000Y-97087500D02*
X143745000Y-97087500D01*
G75*
G02*
X143820000Y-97162500I0J-75000D01*
G01*
X143820000Y-98487500D01*
G75*
G02*
X143745000Y-98562500I-75000J0D01*
G01*
X143595000Y-98562500D01*
G75*
G02*
X143520000Y-98487500I0J75000D01*
G01*
X143520000Y-97162500D01*
G75*
G02*
X143595000Y-97087500I75000J0D01*
G01*
G37*
G36*
G01*
X144095000Y-97087500D02*
X144245000Y-97087500D01*
G75*
G02*
X144320000Y-97162500I0J-75000D01*
G01*
X144320000Y-98487500D01*
G75*
G02*
X144245000Y-98562500I-75000J0D01*
G01*
X144095000Y-98562500D01*
G75*
G02*
X144020000Y-98487500I0J75000D01*
G01*
X144020000Y-97162500D01*
G75*
G02*
X144095000Y-97087500I75000J0D01*
G01*
G37*
G36*
G01*
X144595000Y-97087500D02*
X144745000Y-97087500D01*
G75*
G02*
X144820000Y-97162500I0J-75000D01*
G01*
X144820000Y-98487500D01*
G75*
G02*
X144745000Y-98562500I-75000J0D01*
G01*
X144595000Y-98562500D01*
G75*
G02*
X144520000Y-98487500I0J75000D01*
G01*
X144520000Y-97162500D01*
G75*
G02*
X144595000Y-97087500I75000J0D01*
G01*
G37*
G36*
G01*
X145095000Y-97087500D02*
X145245000Y-97087500D01*
G75*
G02*
X145320000Y-97162500I0J-75000D01*
G01*
X145320000Y-98487500D01*
G75*
G02*
X145245000Y-98562500I-75000J0D01*
G01*
X145095000Y-98562500D01*
G75*
G02*
X145020000Y-98487500I0J75000D01*
G01*
X145020000Y-97162500D01*
G75*
G02*
X145095000Y-97087500I75000J0D01*
G01*
G37*
G36*
G01*
X145595000Y-97087500D02*
X145745000Y-97087500D01*
G75*
G02*
X145820000Y-97162500I0J-75000D01*
G01*
X145820000Y-98487500D01*
G75*
G02*
X145745000Y-98562500I-75000J0D01*
G01*
X145595000Y-98562500D01*
G75*
G02*
X145520000Y-98487500I0J75000D01*
G01*
X145520000Y-97162500D01*
G75*
G02*
X145595000Y-97087500I75000J0D01*
G01*
G37*
G36*
G01*
X146095000Y-97087500D02*
X146245000Y-97087500D01*
G75*
G02*
X146320000Y-97162500I0J-75000D01*
G01*
X146320000Y-98487500D01*
G75*
G02*
X146245000Y-98562500I-75000J0D01*
G01*
X146095000Y-98562500D01*
G75*
G02*
X146020000Y-98487500I0J75000D01*
G01*
X146020000Y-97162500D01*
G75*
G02*
X146095000Y-97087500I75000J0D01*
G01*
G37*
G36*
G01*
X146595000Y-97087500D02*
X146745000Y-97087500D01*
G75*
G02*
X146820000Y-97162500I0J-75000D01*
G01*
X146820000Y-98487500D01*
G75*
G02*
X146745000Y-98562500I-75000J0D01*
G01*
X146595000Y-98562500D01*
G75*
G02*
X146520000Y-98487500I0J75000D01*
G01*
X146520000Y-97162500D01*
G75*
G02*
X146595000Y-97087500I75000J0D01*
G01*
G37*
G36*
G01*
X147095000Y-97087500D02*
X147245000Y-97087500D01*
G75*
G02*
X147320000Y-97162500I0J-75000D01*
G01*
X147320000Y-98487500D01*
G75*
G02*
X147245000Y-98562500I-75000J0D01*
G01*
X147095000Y-98562500D01*
G75*
G02*
X147020000Y-98487500I0J75000D01*
G01*
X147020000Y-97162500D01*
G75*
G02*
X147095000Y-97087500I75000J0D01*
G01*
G37*
G36*
G01*
X147595000Y-97087500D02*
X147745000Y-97087500D01*
G75*
G02*
X147820000Y-97162500I0J-75000D01*
G01*
X147820000Y-98487500D01*
G75*
G02*
X147745000Y-98562500I-75000J0D01*
G01*
X147595000Y-98562500D01*
G75*
G02*
X147520000Y-98487500I0J75000D01*
G01*
X147520000Y-97162500D01*
G75*
G02*
X147595000Y-97087500I75000J0D01*
G01*
G37*
%TD*%
D10*
%TO.C,Y1*%
X142073000Y-90689000D03*
X146973000Y-90689000D03*
%TD*%
D11*
%TO.C,U2*%
X146473000Y-128591000D03*
X146473000Y-130491000D03*
X144273000Y-130491000D03*
X144273000Y-129541000D03*
X144273000Y-128591000D03*
%TD*%
D12*
%TO.C,S1*%
X112196000Y-72568000D03*
X120196000Y-72568000D03*
X112196000Y-68068000D03*
X120196000Y-68068000D03*
%TD*%
%TO.C,R4*%
G36*
G01*
X147335999Y-123868500D02*
X148236001Y-123868500D01*
G75*
G02*
X148486000Y-124118499I0J-249999D01*
G01*
X148486000Y-124643501D01*
G75*
G02*
X148236001Y-124893500I-249999J0D01*
G01*
X147335999Y-124893500D01*
G75*
G02*
X147086000Y-124643501I0J249999D01*
G01*
X147086000Y-124118499D01*
G75*
G02*
X147335999Y-123868500I249999J0D01*
G01*
G37*
G36*
G01*
X147335999Y-122043500D02*
X148236001Y-122043500D01*
G75*
G02*
X148486000Y-122293499I0J-249999D01*
G01*
X148486000Y-122818501D01*
G75*
G02*
X148236001Y-123068500I-249999J0D01*
G01*
X147335999Y-123068500D01*
G75*
G02*
X147086000Y-122818501I0J249999D01*
G01*
X147086000Y-122293499D01*
G75*
G02*
X147335999Y-122043500I249999J0D01*
G01*
G37*
%TD*%
%TO.C,R3*%
G36*
G01*
X124584001Y-68580500D02*
X123683999Y-68580500D01*
G75*
G02*
X123434000Y-68330501I0J249999D01*
G01*
X123434000Y-67805499D01*
G75*
G02*
X123683999Y-67555500I249999J0D01*
G01*
X124584001Y-67555500D01*
G75*
G02*
X124834000Y-67805499I0J-249999D01*
G01*
X124834000Y-68330501D01*
G75*
G02*
X124584001Y-68580500I-249999J0D01*
G01*
G37*
G36*
G01*
X124584001Y-70405500D02*
X123683999Y-70405500D01*
G75*
G02*
X123434000Y-70155501I0J249999D01*
G01*
X123434000Y-69630499D01*
G75*
G02*
X123683999Y-69380500I249999J0D01*
G01*
X124584001Y-69380500D01*
G75*
G02*
X124834000Y-69630499I0J-249999D01*
G01*
X124834000Y-70155501D01*
G75*
G02*
X124584001Y-70405500I-249999J0D01*
G01*
G37*
%TD*%
%TO.C,R2*%
G36*
G01*
X145876500Y-133547001D02*
X145876500Y-132646999D01*
G75*
G02*
X146126499Y-132397000I249999J0D01*
G01*
X146651501Y-132397000D01*
G75*
G02*
X146901500Y-132646999I0J-249999D01*
G01*
X146901500Y-133547001D01*
G75*
G02*
X146651501Y-133797000I-249999J0D01*
G01*
X146126499Y-133797000D01*
G75*
G02*
X145876500Y-133547001I0J249999D01*
G01*
G37*
G36*
G01*
X144051500Y-133547001D02*
X144051500Y-132646999D01*
G75*
G02*
X144301499Y-132397000I249999J0D01*
G01*
X144826501Y-132397000D01*
G75*
G02*
X145076500Y-132646999I0J-249999D01*
G01*
X145076500Y-133547001D01*
G75*
G02*
X144826501Y-133797000I-249999J0D01*
G01*
X144301499Y-133797000D01*
G75*
G02*
X144051500Y-133547001I0J249999D01*
G01*
G37*
%TD*%
D13*
%TO.C,J5*%
X143722000Y-138685000D03*
X146262000Y-138685000D03*
%TD*%
%TO.C,J4*%
X181540000Y-65000000D03*
X179000000Y-65000000D03*
X176460000Y-65000000D03*
%TD*%
%TO.C,J3*%
X182000000Y-83060000D03*
X182000000Y-85600000D03*
X182000000Y-88140000D03*
X182000000Y-90680000D03*
X182000000Y-93220000D03*
X182000000Y-95760000D03*
X182000000Y-98300000D03*
X182000000Y-100840000D03*
X182000000Y-103380000D03*
X182000000Y-105920000D03*
X182000000Y-108460000D03*
X182000000Y-111000000D03*
X182000000Y-113540000D03*
X182000000Y-116080000D03*
X182000000Y-118620000D03*
X182000000Y-121160000D03*
%TD*%
%TO.C,J2*%
X108000000Y-120840000D03*
X108000000Y-118300000D03*
X108000000Y-115760000D03*
X108000000Y-113220000D03*
X108000000Y-110680000D03*
X108000000Y-108140000D03*
X108000000Y-105600000D03*
X108000000Y-103060000D03*
X108000000Y-100520000D03*
X108000000Y-97980000D03*
X108000000Y-95440000D03*
X108000000Y-92900000D03*
X108000000Y-90360000D03*
X108000000Y-87820000D03*
X108000000Y-85280000D03*
X108000000Y-82740000D03*
%TD*%
D14*
%TO.C,J1*%
X147540000Y-78000000D03*
X147540000Y-79270000D03*
X146270000Y-78000000D03*
X146270000Y-79270000D03*
X145000000Y-78000000D03*
X145000000Y-79270000D03*
X143730000Y-78000000D03*
X143730000Y-79270000D03*
X142460000Y-78000000D03*
D15*
X142460000Y-79270000D03*
%TD*%
%TO.C,D1*%
G36*
G01*
X143519750Y-123943500D02*
X144432250Y-123943500D01*
G75*
G02*
X144676000Y-124187250I0J-243750D01*
G01*
X144676000Y-124674750D01*
G75*
G02*
X144432250Y-124918500I-243750J0D01*
G01*
X143519750Y-124918500D01*
G75*
G02*
X143276000Y-124674750I0J243750D01*
G01*
X143276000Y-124187250D01*
G75*
G02*
X143519750Y-123943500I243750J0D01*
G01*
G37*
G36*
G01*
X143519750Y-122068500D02*
X144432250Y-122068500D01*
G75*
G02*
X144676000Y-122312250I0J-243750D01*
G01*
X144676000Y-122799750D01*
G75*
G02*
X144432250Y-123043500I-243750J0D01*
G01*
X143519750Y-123043500D01*
G75*
G02*
X143276000Y-122799750I0J243750D01*
G01*
X143276000Y-122312250D01*
G75*
G02*
X143519750Y-122068500I243750J0D01*
G01*
G37*
%TD*%
%TO.C,C5*%
G36*
G01*
X116125000Y-75340000D02*
X116125000Y-76290000D01*
G75*
G02*
X115875000Y-76540000I-250000J0D01*
G01*
X115375000Y-76540000D01*
G75*
G02*
X115125000Y-76290000I0J250000D01*
G01*
X115125000Y-75340000D01*
G75*
G02*
X115375000Y-75090000I250000J0D01*
G01*
X115875000Y-75090000D01*
G75*
G02*
X116125000Y-75340000I0J-250000D01*
G01*
G37*
G36*
G01*
X118025000Y-75340000D02*
X118025000Y-76290000D01*
G75*
G02*
X117775000Y-76540000I-250000J0D01*
G01*
X117275000Y-76540000D01*
G75*
G02*
X117025000Y-76290000I0J250000D01*
G01*
X117025000Y-75340000D01*
G75*
G02*
X117275000Y-75090000I250000J0D01*
G01*
X117775000Y-75090000D01*
G75*
G02*
X118025000Y-75340000I0J-250000D01*
G01*
G37*
%TD*%
%TO.C,C4*%
G36*
G01*
X135830000Y-92155000D02*
X136780000Y-92155000D01*
G75*
G02*
X137030000Y-92405000I0J-250000D01*
G01*
X137030000Y-92905000D01*
G75*
G02*
X136780000Y-93155000I-250000J0D01*
G01*
X135830000Y-93155000D01*
G75*
G02*
X135580000Y-92905000I0J250000D01*
G01*
X135580000Y-92405000D01*
G75*
G02*
X135830000Y-92155000I250000J0D01*
G01*
G37*
G36*
G01*
X135830000Y-90255000D02*
X136780000Y-90255000D01*
G75*
G02*
X137030000Y-90505000I0J-250000D01*
G01*
X137030000Y-91005000D01*
G75*
G02*
X136780000Y-91255000I-250000J0D01*
G01*
X135830000Y-91255000D01*
G75*
G02*
X135580000Y-91005000I0J250000D01*
G01*
X135580000Y-90505000D01*
G75*
G02*
X135830000Y-90255000I250000J0D01*
G01*
G37*
%TD*%
%TO.C,C3*%
G36*
G01*
X152467000Y-92089000D02*
X153417000Y-92089000D01*
G75*
G02*
X153667000Y-92339000I0J-250000D01*
G01*
X153667000Y-92839000D01*
G75*
G02*
X153417000Y-93089000I-250000J0D01*
G01*
X152467000Y-93089000D01*
G75*
G02*
X152217000Y-92839000I0J250000D01*
G01*
X152217000Y-92339000D01*
G75*
G02*
X152467000Y-92089000I250000J0D01*
G01*
G37*
G36*
G01*
X152467000Y-90189000D02*
X153417000Y-90189000D01*
G75*
G02*
X153667000Y-90439000I0J-250000D01*
G01*
X153667000Y-90939000D01*
G75*
G02*
X153417000Y-91189000I-250000J0D01*
G01*
X152467000Y-91189000D01*
G75*
G02*
X152217000Y-90939000I0J250000D01*
G01*
X152217000Y-90439000D01*
G75*
G02*
X152467000Y-90189000I250000J0D01*
G01*
G37*
%TD*%
%TO.C,C2*%
G36*
G01*
X149470000Y-129925000D02*
X150420000Y-129925000D01*
G75*
G02*
X150670000Y-130175000I0J-250000D01*
G01*
X150670000Y-130675000D01*
G75*
G02*
X150420000Y-130925000I-250000J0D01*
G01*
X149470000Y-130925000D01*
G75*
G02*
X149220000Y-130675000I0J250000D01*
G01*
X149220000Y-130175000D01*
G75*
G02*
X149470000Y-129925000I250000J0D01*
G01*
G37*
G36*
G01*
X149470000Y-128025000D02*
X150420000Y-128025000D01*
G75*
G02*
X150670000Y-128275000I0J-250000D01*
G01*
X150670000Y-128775000D01*
G75*
G02*
X150420000Y-129025000I-250000J0D01*
G01*
X149470000Y-129025000D01*
G75*
G02*
X149220000Y-128775000I0J250000D01*
G01*
X149220000Y-128275000D01*
G75*
G02*
X149470000Y-128025000I250000J0D01*
G01*
G37*
%TD*%
%TO.C,C1*%
G36*
G01*
X140072000Y-129925000D02*
X141022000Y-129925000D01*
G75*
G02*
X141272000Y-130175000I0J-250000D01*
G01*
X141272000Y-130675000D01*
G75*
G02*
X141022000Y-130925000I-250000J0D01*
G01*
X140072000Y-130925000D01*
G75*
G02*
X139822000Y-130675000I0J250000D01*
G01*
X139822000Y-130175000D01*
G75*
G02*
X140072000Y-129925000I250000J0D01*
G01*
G37*
G36*
G01*
X140072000Y-128025000D02*
X141022000Y-128025000D01*
G75*
G02*
X141272000Y-128275000I0J-250000D01*
G01*
X141272000Y-128775000D01*
G75*
G02*
X141022000Y-129025000I-250000J0D01*
G01*
X140072000Y-129025000D01*
G75*
G02*
X139822000Y-128775000I0J250000D01*
G01*
X139822000Y-128275000D01*
G75*
G02*
X140072000Y-128025000I250000J0D01*
G01*
G37*
%TD*%
M02*
