G04 #@! TF.GenerationSoftware,KiCad,Pcbnew,(5.1.9)-1*
G04 #@! TF.CreationDate,2021-04-03T09:41:48-07:00*
G04 #@! TF.ProjectId,Avionics,4176696f-6e69-4637-932e-6b696361645f,rev?*
G04 #@! TF.SameCoordinates,Original*
G04 #@! TF.FileFunction,Copper,L2,Inr*
G04 #@! TF.FilePolarity,Positive*
%FSLAX46Y46*%
G04 Gerber Fmt 4.6, Leading zero omitted, Abs format (unit mm)*
G04 Created by KiCad (PCBNEW (5.1.9)-1) date 2021-04-03 09:41:48*
%MOMM*%
%LPD*%
G01*
G04 APERTURE LIST*
G04 #@! TA.AperFunction,ComponentPad*
%ADD10R,1.700000X1.700000*%
G04 #@! TD*
G04 #@! TA.AperFunction,ComponentPad*
%ADD11O,1.700000X1.700000*%
G04 #@! TD*
G04 #@! TA.AperFunction,ComponentPad*
%ADD12R,1.000000X1.000000*%
G04 #@! TD*
G04 #@! TA.AperFunction,ComponentPad*
%ADD13O,1.000000X1.000000*%
G04 #@! TD*
G04 #@! TA.AperFunction,ComponentPad*
%ADD14O,1.100000X1.500000*%
G04 #@! TD*
G04 #@! TA.AperFunction,ComponentPad*
%ADD15O,1.350000X1.700000*%
G04 #@! TD*
G04 #@! TA.AperFunction,ComponentPad*
%ADD16C,1.500000*%
G04 #@! TD*
G04 #@! TA.AperFunction,ViaPad*
%ADD17C,0.800000*%
G04 #@! TD*
G04 #@! TA.AperFunction,Conductor*
%ADD18C,0.250000*%
G04 #@! TD*
G04 #@! TA.AperFunction,Conductor*
%ADD19C,0.254000*%
G04 #@! TD*
G04 #@! TA.AperFunction,Conductor*
%ADD20C,0.100000*%
G04 #@! TD*
G04 APERTURE END LIST*
D10*
X192280000Y-96700000D03*
D11*
X192280000Y-94160000D03*
X192280000Y-91620000D03*
X192280000Y-89080000D03*
X192280000Y-86540000D03*
X192280000Y-84000000D03*
X192280000Y-81460000D03*
X192280000Y-78920000D03*
X192280000Y-76380000D03*
X192280000Y-73840000D03*
D12*
X179000000Y-104000000D03*
D13*
X179000000Y-105270000D03*
X177730000Y-104000000D03*
X177730000Y-105270000D03*
X176460000Y-104000000D03*
X176460000Y-105270000D03*
X175190000Y-104000000D03*
X175190000Y-105270000D03*
X173920000Y-104000000D03*
X173920000Y-105270000D03*
D14*
X179445000Y-63885000D03*
X174605000Y-63885000D03*
D15*
X179755000Y-60885000D03*
X174295000Y-60885000D03*
D16*
X174000000Y-96700000D03*
X178880000Y-96700000D03*
D10*
X161800000Y-96700000D03*
D11*
X161800000Y-94160000D03*
X161800000Y-91620000D03*
X161800000Y-89080000D03*
X161800000Y-86540000D03*
X161800000Y-84000000D03*
X161800000Y-81460000D03*
X161800000Y-78920000D03*
X161800000Y-76380000D03*
X161800000Y-73840000D03*
D17*
X190500000Y-61000000D03*
X192500000Y-71000000D03*
X175000000Y-67500000D03*
X172900000Y-74000000D03*
X183300000Y-72400000D03*
X185500000Y-77500000D03*
X186000000Y-81000000D03*
X184000000Y-100000000D03*
X190000000Y-106000000D03*
X192300000Y-99000000D03*
X181000000Y-94500000D03*
X163500000Y-61000000D03*
X167000000Y-63500000D03*
X169000000Y-86500000D03*
X164000000Y-100500000D03*
X178500000Y-101500000D03*
X166300000Y-72000000D03*
X182000000Y-61900000D03*
X187900000Y-87600000D03*
X185000000Y-71100000D03*
X167400000Y-94500000D03*
X166000000Y-102500000D03*
X172000000Y-64000000D03*
X170500000Y-68000000D03*
X171000000Y-78500000D03*
X174500000Y-90000000D03*
X181000000Y-90600000D03*
X182000000Y-88500000D03*
X182500000Y-76000000D03*
X180500000Y-104000000D03*
X178900000Y-82600000D03*
X177504878Y-91974141D03*
X176000000Y-101000000D03*
X190000000Y-80000000D03*
X170500000Y-84000000D03*
X167640000Y-78000000D03*
X179500000Y-66000000D03*
X177500000Y-84500000D03*
X173000000Y-90000000D03*
X167500000Y-90000000D03*
X177500000Y-86000000D03*
X173500000Y-93000000D03*
X175000000Y-81500000D03*
X171500000Y-80500000D03*
X175500000Y-83500000D03*
X177500000Y-82775000D03*
X170500000Y-97500000D03*
X179000000Y-86500000D03*
D18*
X170500000Y-97500000D02*
X170500000Y-93000000D01*
X170500000Y-93000000D02*
X172000000Y-91500000D01*
X172000000Y-91500000D02*
X174073002Y-91500000D01*
X174073002Y-91500000D02*
X175500000Y-91500000D01*
X175500000Y-91500000D02*
X176500000Y-90500000D01*
X176500000Y-89000000D02*
X179000000Y-86500000D01*
X176500000Y-90500000D02*
X176500000Y-89000000D01*
D19*
X173364209Y-59779208D02*
X173200505Y-59978682D01*
X173078862Y-60206259D01*
X173003955Y-60453195D01*
X172985000Y-60645649D01*
X172985000Y-61124350D01*
X173003955Y-61316804D01*
X173078862Y-61563740D01*
X173200505Y-61791317D01*
X173364208Y-61990792D01*
X173563682Y-62154495D01*
X173791259Y-62276138D01*
X174038195Y-62351045D01*
X174295000Y-62376338D01*
X174551804Y-62351045D01*
X174798740Y-62276138D01*
X175026317Y-62154495D01*
X175225792Y-61990792D01*
X175389495Y-61791318D01*
X175511138Y-61563741D01*
X175586045Y-61316805D01*
X175605000Y-61124351D01*
X175605000Y-60645650D01*
X175586045Y-60453196D01*
X175511138Y-60206260D01*
X175389495Y-59978682D01*
X175225792Y-59779208D01*
X175080536Y-59660000D01*
X178969465Y-59660000D01*
X178824209Y-59779208D01*
X178660505Y-59978682D01*
X178538862Y-60206259D01*
X178463955Y-60453195D01*
X178445000Y-60645649D01*
X178445000Y-61124350D01*
X178463955Y-61316804D01*
X178538862Y-61563740D01*
X178660505Y-61791317D01*
X178824208Y-61990792D01*
X179023682Y-62154495D01*
X179251259Y-62276138D01*
X179498195Y-62351045D01*
X179755000Y-62376338D01*
X180011804Y-62351045D01*
X180258740Y-62276138D01*
X180486317Y-62154495D01*
X180685792Y-61990792D01*
X180843961Y-61798061D01*
X180965000Y-61798061D01*
X180965000Y-62001939D01*
X181004774Y-62201898D01*
X181082795Y-62390256D01*
X181196063Y-62559774D01*
X181340226Y-62703937D01*
X181509744Y-62817205D01*
X181698102Y-62895226D01*
X181898061Y-62935000D01*
X182101939Y-62935000D01*
X182301898Y-62895226D01*
X182490256Y-62817205D01*
X182659774Y-62703937D01*
X182803937Y-62559774D01*
X182917205Y-62390256D01*
X182995226Y-62201898D01*
X183035000Y-62001939D01*
X183035000Y-61798061D01*
X182995226Y-61598102D01*
X182917205Y-61409744D01*
X182803937Y-61240226D01*
X182659774Y-61096063D01*
X182490256Y-60982795D01*
X182301898Y-60904774D01*
X182268150Y-60898061D01*
X189465000Y-60898061D01*
X189465000Y-61101939D01*
X189504774Y-61301898D01*
X189582795Y-61490256D01*
X189696063Y-61659774D01*
X189840226Y-61803937D01*
X190009744Y-61917205D01*
X190198102Y-61995226D01*
X190398061Y-62035000D01*
X190601939Y-62035000D01*
X190801898Y-61995226D01*
X190990256Y-61917205D01*
X191159774Y-61803937D01*
X191303937Y-61659774D01*
X191417205Y-61490256D01*
X191495226Y-61301898D01*
X191535000Y-61101939D01*
X191535000Y-60898061D01*
X191495226Y-60698102D01*
X191417205Y-60509744D01*
X191303937Y-60340226D01*
X191159774Y-60196063D01*
X190990256Y-60082795D01*
X190801898Y-60004774D01*
X190601939Y-59965000D01*
X190398061Y-59965000D01*
X190198102Y-60004774D01*
X190009744Y-60082795D01*
X189840226Y-60196063D01*
X189696063Y-60340226D01*
X189582795Y-60509744D01*
X189504774Y-60698102D01*
X189465000Y-60898061D01*
X182268150Y-60898061D01*
X182101939Y-60865000D01*
X181898061Y-60865000D01*
X181698102Y-60904774D01*
X181509744Y-60982795D01*
X181340226Y-61096063D01*
X181196063Y-61240226D01*
X181082795Y-61409744D01*
X181004774Y-61598102D01*
X180965000Y-61798061D01*
X180843961Y-61798061D01*
X180849495Y-61791318D01*
X180971138Y-61563741D01*
X181046045Y-61316805D01*
X181065000Y-61124351D01*
X181065000Y-60645650D01*
X181046045Y-60453196D01*
X180971138Y-60206260D01*
X180849495Y-59978682D01*
X180685792Y-59779208D01*
X180540536Y-59660000D01*
X193967721Y-59660000D01*
X194065424Y-59669580D01*
X194128356Y-59688580D01*
X194186405Y-59719445D01*
X194237343Y-59760989D01*
X194279248Y-59811644D01*
X194310515Y-59869471D01*
X194329956Y-59932272D01*
X194340001Y-60027845D01*
X194340000Y-107967721D01*
X194330420Y-108065424D01*
X194311420Y-108128357D01*
X194280554Y-108186406D01*
X194239011Y-108237343D01*
X194188356Y-108279248D01*
X194130529Y-108310515D01*
X194067728Y-108329956D01*
X193972165Y-108340000D01*
X160032279Y-108340000D01*
X159934576Y-108330420D01*
X159871643Y-108311420D01*
X159813594Y-108280554D01*
X159762657Y-108239011D01*
X159720752Y-108188356D01*
X159689485Y-108130529D01*
X159670044Y-108067728D01*
X159660000Y-107972165D01*
X159660000Y-103888212D01*
X172785000Y-103888212D01*
X172785000Y-104111788D01*
X172828617Y-104331067D01*
X172914176Y-104537624D01*
X172979241Y-104635000D01*
X172914176Y-104732376D01*
X172828617Y-104938933D01*
X172785000Y-105158212D01*
X172785000Y-105381788D01*
X172828617Y-105601067D01*
X172914176Y-105807624D01*
X173038388Y-105993520D01*
X173196480Y-106151612D01*
X173382376Y-106275824D01*
X173588933Y-106361383D01*
X173808212Y-106405000D01*
X174031788Y-106405000D01*
X174251067Y-106361383D01*
X174457624Y-106275824D01*
X174555000Y-106210759D01*
X174652376Y-106275824D01*
X174858933Y-106361383D01*
X175078212Y-106405000D01*
X175301788Y-106405000D01*
X175521067Y-106361383D01*
X175727624Y-106275824D01*
X175825000Y-106210759D01*
X175922376Y-106275824D01*
X176128933Y-106361383D01*
X176348212Y-106405000D01*
X176571788Y-106405000D01*
X176791067Y-106361383D01*
X176997624Y-106275824D01*
X177095000Y-106210759D01*
X177192376Y-106275824D01*
X177398933Y-106361383D01*
X177618212Y-106405000D01*
X177841788Y-106405000D01*
X178061067Y-106361383D01*
X178267624Y-106275824D01*
X178365000Y-106210759D01*
X178462376Y-106275824D01*
X178668933Y-106361383D01*
X178888212Y-106405000D01*
X179111788Y-106405000D01*
X179331067Y-106361383D01*
X179537624Y-106275824D01*
X179723520Y-106151612D01*
X179881612Y-105993520D01*
X179945395Y-105898061D01*
X188965000Y-105898061D01*
X188965000Y-106101939D01*
X189004774Y-106301898D01*
X189082795Y-106490256D01*
X189196063Y-106659774D01*
X189340226Y-106803937D01*
X189509744Y-106917205D01*
X189698102Y-106995226D01*
X189898061Y-107035000D01*
X190101939Y-107035000D01*
X190301898Y-106995226D01*
X190490256Y-106917205D01*
X190659774Y-106803937D01*
X190803937Y-106659774D01*
X190917205Y-106490256D01*
X190995226Y-106301898D01*
X191035000Y-106101939D01*
X191035000Y-105898061D01*
X190995226Y-105698102D01*
X190917205Y-105509744D01*
X190803937Y-105340226D01*
X190659774Y-105196063D01*
X190490256Y-105082795D01*
X190301898Y-105004774D01*
X190101939Y-104965000D01*
X189898061Y-104965000D01*
X189698102Y-105004774D01*
X189509744Y-105082795D01*
X189340226Y-105196063D01*
X189196063Y-105340226D01*
X189082795Y-105509744D01*
X189004774Y-105698102D01*
X188965000Y-105898061D01*
X179945395Y-105898061D01*
X180005824Y-105807624D01*
X180091383Y-105601067D01*
X180135000Y-105381788D01*
X180135000Y-105158212D01*
X180091383Y-104938933D01*
X180045112Y-104827226D01*
X180089502Y-104744180D01*
X180125812Y-104624482D01*
X180138072Y-104500000D01*
X180135000Y-104285750D01*
X179976250Y-104127000D01*
X179127000Y-104127000D01*
X179127000Y-104138026D01*
X179111788Y-104135000D01*
X178888212Y-104135000D01*
X178873000Y-104138026D01*
X178873000Y-104127000D01*
X178861974Y-104127000D01*
X178865000Y-104111788D01*
X178865000Y-103888212D01*
X178861974Y-103873000D01*
X178873000Y-103873000D01*
X178873000Y-103023750D01*
X179127000Y-103023750D01*
X179127000Y-103873000D01*
X179976250Y-103873000D01*
X180135000Y-103714250D01*
X180138072Y-103500000D01*
X180125812Y-103375518D01*
X180089502Y-103255820D01*
X180030537Y-103145506D01*
X179951185Y-103048815D01*
X179854494Y-102969463D01*
X179744180Y-102910498D01*
X179624482Y-102874188D01*
X179500000Y-102861928D01*
X179285750Y-102865000D01*
X179127000Y-103023750D01*
X178873000Y-103023750D01*
X178714250Y-102865000D01*
X178500000Y-102861928D01*
X178375518Y-102874188D01*
X178255820Y-102910498D01*
X178172774Y-102954888D01*
X178061067Y-102908617D01*
X177841788Y-102865000D01*
X177618212Y-102865000D01*
X177398933Y-102908617D01*
X177192376Y-102994176D01*
X177095000Y-103059241D01*
X176997624Y-102994176D01*
X176791067Y-102908617D01*
X176571788Y-102865000D01*
X176348212Y-102865000D01*
X176128933Y-102908617D01*
X175922376Y-102994176D01*
X175825000Y-103059241D01*
X175727624Y-102994176D01*
X175521067Y-102908617D01*
X175301788Y-102865000D01*
X175078212Y-102865000D01*
X174858933Y-102908617D01*
X174652376Y-102994176D01*
X174555000Y-103059241D01*
X174457624Y-102994176D01*
X174251067Y-102908617D01*
X174031788Y-102865000D01*
X173808212Y-102865000D01*
X173588933Y-102908617D01*
X173382376Y-102994176D01*
X173196480Y-103118388D01*
X173038388Y-103276480D01*
X172914176Y-103462376D01*
X172828617Y-103668933D01*
X172785000Y-103888212D01*
X159660000Y-103888212D01*
X159660000Y-100398061D01*
X162965000Y-100398061D01*
X162965000Y-100601939D01*
X163004774Y-100801898D01*
X163082795Y-100990256D01*
X163196063Y-101159774D01*
X163340226Y-101303937D01*
X163509744Y-101417205D01*
X163698102Y-101495226D01*
X163898061Y-101535000D01*
X164101939Y-101535000D01*
X164301898Y-101495226D01*
X164490256Y-101417205D01*
X164659774Y-101303937D01*
X164803937Y-101159774D01*
X164917205Y-100990256D01*
X164955393Y-100898061D01*
X174965000Y-100898061D01*
X174965000Y-101101939D01*
X175004774Y-101301898D01*
X175082795Y-101490256D01*
X175196063Y-101659774D01*
X175340226Y-101803937D01*
X175509744Y-101917205D01*
X175698102Y-101995226D01*
X175898061Y-102035000D01*
X176101939Y-102035000D01*
X176301898Y-101995226D01*
X176490256Y-101917205D01*
X176659774Y-101803937D01*
X176803937Y-101659774D01*
X176917205Y-101490256D01*
X176955393Y-101398061D01*
X177465000Y-101398061D01*
X177465000Y-101601939D01*
X177504774Y-101801898D01*
X177582795Y-101990256D01*
X177696063Y-102159774D01*
X177840226Y-102303937D01*
X178009744Y-102417205D01*
X178198102Y-102495226D01*
X178398061Y-102535000D01*
X178601939Y-102535000D01*
X178801898Y-102495226D01*
X178990256Y-102417205D01*
X179159774Y-102303937D01*
X179303937Y-102159774D01*
X179417205Y-101990256D01*
X179495226Y-101801898D01*
X179535000Y-101601939D01*
X179535000Y-101398061D01*
X179495226Y-101198102D01*
X179417205Y-101009744D01*
X179303937Y-100840226D01*
X179159774Y-100696063D01*
X178990256Y-100582795D01*
X178801898Y-100504774D01*
X178601939Y-100465000D01*
X178398061Y-100465000D01*
X178198102Y-100504774D01*
X178009744Y-100582795D01*
X177840226Y-100696063D01*
X177696063Y-100840226D01*
X177582795Y-101009744D01*
X177504774Y-101198102D01*
X177465000Y-101398061D01*
X176955393Y-101398061D01*
X176995226Y-101301898D01*
X177035000Y-101101939D01*
X177035000Y-100898061D01*
X176995226Y-100698102D01*
X176917205Y-100509744D01*
X176803937Y-100340226D01*
X176659774Y-100196063D01*
X176490256Y-100082795D01*
X176301898Y-100004774D01*
X176101939Y-99965000D01*
X175898061Y-99965000D01*
X175698102Y-100004774D01*
X175509744Y-100082795D01*
X175340226Y-100196063D01*
X175196063Y-100340226D01*
X175082795Y-100509744D01*
X175004774Y-100698102D01*
X174965000Y-100898061D01*
X164955393Y-100898061D01*
X164995226Y-100801898D01*
X165035000Y-100601939D01*
X165035000Y-100398061D01*
X164995226Y-100198102D01*
X164917205Y-100009744D01*
X164842582Y-99898061D01*
X182965000Y-99898061D01*
X182965000Y-100101939D01*
X183004774Y-100301898D01*
X183082795Y-100490256D01*
X183196063Y-100659774D01*
X183340226Y-100803937D01*
X183509744Y-100917205D01*
X183698102Y-100995226D01*
X183898061Y-101035000D01*
X184101939Y-101035000D01*
X184301898Y-100995226D01*
X184490256Y-100917205D01*
X184659774Y-100803937D01*
X184803937Y-100659774D01*
X184917205Y-100490256D01*
X184995226Y-100301898D01*
X185035000Y-100101939D01*
X185035000Y-99898061D01*
X184995226Y-99698102D01*
X184917205Y-99509744D01*
X184803937Y-99340226D01*
X184659774Y-99196063D01*
X184490256Y-99082795D01*
X184301898Y-99004774D01*
X184101939Y-98965000D01*
X183898061Y-98965000D01*
X183698102Y-99004774D01*
X183509744Y-99082795D01*
X183340226Y-99196063D01*
X183196063Y-99340226D01*
X183082795Y-99509744D01*
X183004774Y-99698102D01*
X182965000Y-99898061D01*
X164842582Y-99898061D01*
X164803937Y-99840226D01*
X164659774Y-99696063D01*
X164490256Y-99582795D01*
X164301898Y-99504774D01*
X164101939Y-99465000D01*
X163898061Y-99465000D01*
X163698102Y-99504774D01*
X163509744Y-99582795D01*
X163340226Y-99696063D01*
X163196063Y-99840226D01*
X163082795Y-100009744D01*
X163004774Y-100198102D01*
X162965000Y-100398061D01*
X159660000Y-100398061D01*
X159660000Y-95850000D01*
X160311928Y-95850000D01*
X160311928Y-97550000D01*
X160324188Y-97674482D01*
X160360498Y-97794180D01*
X160419463Y-97904494D01*
X160498815Y-98001185D01*
X160595506Y-98080537D01*
X160705820Y-98139502D01*
X160825518Y-98175812D01*
X160950000Y-98188072D01*
X162650000Y-98188072D01*
X162774482Y-98175812D01*
X162894180Y-98139502D01*
X163004494Y-98080537D01*
X163101185Y-98001185D01*
X163180537Y-97904494D01*
X163239502Y-97794180D01*
X163275812Y-97674482D01*
X163288072Y-97550000D01*
X163288072Y-97398061D01*
X169465000Y-97398061D01*
X169465000Y-97601939D01*
X169504774Y-97801898D01*
X169582795Y-97990256D01*
X169696063Y-98159774D01*
X169840226Y-98303937D01*
X170009744Y-98417205D01*
X170198102Y-98495226D01*
X170398061Y-98535000D01*
X170601939Y-98535000D01*
X170801898Y-98495226D01*
X170990256Y-98417205D01*
X171159774Y-98303937D01*
X171303937Y-98159774D01*
X171417205Y-97990256D01*
X171495226Y-97801898D01*
X171535000Y-97601939D01*
X171535000Y-97398061D01*
X171495226Y-97198102D01*
X171417205Y-97009744D01*
X171303937Y-96840226D01*
X171260000Y-96796289D01*
X171260000Y-96563589D01*
X172615000Y-96563589D01*
X172615000Y-96836411D01*
X172668225Y-97103989D01*
X172772629Y-97356043D01*
X172924201Y-97582886D01*
X173117114Y-97775799D01*
X173343957Y-97927371D01*
X173596011Y-98031775D01*
X173863589Y-98085000D01*
X174136411Y-98085000D01*
X174403989Y-98031775D01*
X174656043Y-97927371D01*
X174882886Y-97775799D01*
X175075799Y-97582886D01*
X175227371Y-97356043D01*
X175331775Y-97103989D01*
X175385000Y-96836411D01*
X175385000Y-96563589D01*
X177495000Y-96563589D01*
X177495000Y-96836411D01*
X177548225Y-97103989D01*
X177652629Y-97356043D01*
X177804201Y-97582886D01*
X177997114Y-97775799D01*
X178223957Y-97927371D01*
X178476011Y-98031775D01*
X178743589Y-98085000D01*
X179016411Y-98085000D01*
X179283989Y-98031775D01*
X179536043Y-97927371D01*
X179762886Y-97775799D01*
X179955799Y-97582886D01*
X180107371Y-97356043D01*
X180211775Y-97103989D01*
X180265000Y-96836411D01*
X180265000Y-96563589D01*
X180211775Y-96296011D01*
X180107371Y-96043957D01*
X179955799Y-95817114D01*
X179762886Y-95624201D01*
X179536043Y-95472629D01*
X179283989Y-95368225D01*
X179016411Y-95315000D01*
X178743589Y-95315000D01*
X178476011Y-95368225D01*
X178223957Y-95472629D01*
X177997114Y-95624201D01*
X177804201Y-95817114D01*
X177652629Y-96043957D01*
X177548225Y-96296011D01*
X177495000Y-96563589D01*
X175385000Y-96563589D01*
X175331775Y-96296011D01*
X175227371Y-96043957D01*
X175075799Y-95817114D01*
X174882886Y-95624201D01*
X174656043Y-95472629D01*
X174403989Y-95368225D01*
X174136411Y-95315000D01*
X173863589Y-95315000D01*
X173596011Y-95368225D01*
X173343957Y-95472629D01*
X173117114Y-95624201D01*
X172924201Y-95817114D01*
X172772629Y-96043957D01*
X172668225Y-96296011D01*
X172615000Y-96563589D01*
X171260000Y-96563589D01*
X171260000Y-94398061D01*
X179965000Y-94398061D01*
X179965000Y-94601939D01*
X180004774Y-94801898D01*
X180082795Y-94990256D01*
X180196063Y-95159774D01*
X180340226Y-95303937D01*
X180509744Y-95417205D01*
X180698102Y-95495226D01*
X180898061Y-95535000D01*
X181101939Y-95535000D01*
X181301898Y-95495226D01*
X181490256Y-95417205D01*
X181659774Y-95303937D01*
X181803937Y-95159774D01*
X181917205Y-94990256D01*
X181995226Y-94801898D01*
X182035000Y-94601939D01*
X182035000Y-94398061D01*
X181995226Y-94198102D01*
X181917205Y-94009744D01*
X181803937Y-93840226D01*
X181659774Y-93696063D01*
X181490256Y-93582795D01*
X181301898Y-93504774D01*
X181101939Y-93465000D01*
X180898061Y-93465000D01*
X180698102Y-93504774D01*
X180509744Y-93582795D01*
X180340226Y-93696063D01*
X180196063Y-93840226D01*
X180082795Y-94009744D01*
X180004774Y-94198102D01*
X179965000Y-94398061D01*
X171260000Y-94398061D01*
X171260000Y-93314801D01*
X172314802Y-92260000D01*
X172776289Y-92260000D01*
X172696063Y-92340226D01*
X172582795Y-92509744D01*
X172504774Y-92698102D01*
X172465000Y-92898061D01*
X172465000Y-93101939D01*
X172504774Y-93301898D01*
X172582795Y-93490256D01*
X172696063Y-93659774D01*
X172840226Y-93803937D01*
X173009744Y-93917205D01*
X173198102Y-93995226D01*
X173398061Y-94035000D01*
X173601939Y-94035000D01*
X173801898Y-93995226D01*
X173990256Y-93917205D01*
X174159774Y-93803937D01*
X174303937Y-93659774D01*
X174417205Y-93490256D01*
X174495226Y-93301898D01*
X174535000Y-93101939D01*
X174535000Y-92898061D01*
X174495226Y-92698102D01*
X174417205Y-92509744D01*
X174303937Y-92340226D01*
X174223711Y-92260000D01*
X175462678Y-92260000D01*
X175500000Y-92263676D01*
X175537322Y-92260000D01*
X175537333Y-92260000D01*
X175648986Y-92249003D01*
X175792247Y-92205546D01*
X175924276Y-92134974D01*
X176040001Y-92040001D01*
X176063804Y-92010998D01*
X176585379Y-91489422D01*
X176509652Y-91672243D01*
X176469878Y-91872202D01*
X176469878Y-92076080D01*
X176509652Y-92276039D01*
X176587673Y-92464397D01*
X176700941Y-92633915D01*
X176845104Y-92778078D01*
X177014622Y-92891346D01*
X177202980Y-92969367D01*
X177402939Y-93009141D01*
X177606817Y-93009141D01*
X177806776Y-92969367D01*
X177995134Y-92891346D01*
X178164652Y-92778078D01*
X178308815Y-92633915D01*
X178422083Y-92464397D01*
X178500104Y-92276039D01*
X178539878Y-92076080D01*
X178539878Y-91872202D01*
X178500104Y-91672243D01*
X178422083Y-91483885D01*
X178308815Y-91314367D01*
X178164652Y-91170204D01*
X177995134Y-91056936D01*
X177806776Y-90978915D01*
X177606817Y-90939141D01*
X177402939Y-90939141D01*
X177202980Y-90978915D01*
X177024199Y-91052969D01*
X177040001Y-91040001D01*
X177134974Y-90924276D01*
X177205546Y-90792247D01*
X177249003Y-90648986D01*
X177260000Y-90537333D01*
X177260000Y-90537332D01*
X177263677Y-90500000D01*
X177260000Y-90462667D01*
X177260000Y-89314801D01*
X179039802Y-87535000D01*
X179101939Y-87535000D01*
X179287645Y-87498061D01*
X186865000Y-87498061D01*
X186865000Y-87701939D01*
X186904774Y-87901898D01*
X186982795Y-88090256D01*
X187096063Y-88259774D01*
X187240226Y-88403937D01*
X187409744Y-88517205D01*
X187598102Y-88595226D01*
X187798061Y-88635000D01*
X188001939Y-88635000D01*
X188201898Y-88595226D01*
X188390256Y-88517205D01*
X188559774Y-88403937D01*
X188703937Y-88259774D01*
X188817205Y-88090256D01*
X188895226Y-87901898D01*
X188935000Y-87701939D01*
X188935000Y-87498061D01*
X188895226Y-87298102D01*
X188817205Y-87109744D01*
X188703937Y-86940226D01*
X188559774Y-86796063D01*
X188390256Y-86682795D01*
X188201898Y-86604774D01*
X188001939Y-86565000D01*
X187798061Y-86565000D01*
X187598102Y-86604774D01*
X187409744Y-86682795D01*
X187240226Y-86796063D01*
X187096063Y-86940226D01*
X186982795Y-87109744D01*
X186904774Y-87298102D01*
X186865000Y-87498061D01*
X179287645Y-87498061D01*
X179301898Y-87495226D01*
X179490256Y-87417205D01*
X179659774Y-87303937D01*
X179803937Y-87159774D01*
X179917205Y-86990256D01*
X179995226Y-86801898D01*
X180035000Y-86601939D01*
X180035000Y-86398061D01*
X179995226Y-86198102D01*
X179917205Y-86009744D01*
X179803937Y-85840226D01*
X179659774Y-85696063D01*
X179490256Y-85582795D01*
X179301898Y-85504774D01*
X179101939Y-85465000D01*
X178898061Y-85465000D01*
X178698102Y-85504774D01*
X178509744Y-85582795D01*
X178460965Y-85615388D01*
X178417205Y-85509744D01*
X178303937Y-85340226D01*
X178213711Y-85250000D01*
X178303937Y-85159774D01*
X178417205Y-84990256D01*
X178495226Y-84801898D01*
X178535000Y-84601939D01*
X178535000Y-84398061D01*
X178495226Y-84198102D01*
X178417205Y-84009744D01*
X178303937Y-83840226D01*
X178159774Y-83696063D01*
X178072128Y-83637500D01*
X178159774Y-83578937D01*
X178303937Y-83434774D01*
X178417205Y-83265256D01*
X178495226Y-83076898D01*
X178535000Y-82876939D01*
X178535000Y-82673061D01*
X178495226Y-82473102D01*
X178417205Y-82284744D01*
X178303937Y-82115226D01*
X178159774Y-81971063D01*
X177990256Y-81857795D01*
X177801898Y-81779774D01*
X177601939Y-81740000D01*
X177398061Y-81740000D01*
X177198102Y-81779774D01*
X177009744Y-81857795D01*
X176840226Y-81971063D01*
X176696063Y-82115226D01*
X176582795Y-82284744D01*
X176504774Y-82473102D01*
X176465000Y-82673061D01*
X176465000Y-82876939D01*
X176504774Y-83076898D01*
X176582795Y-83265256D01*
X176696063Y-83434774D01*
X176840226Y-83578937D01*
X176927872Y-83637500D01*
X176840226Y-83696063D01*
X176696063Y-83840226D01*
X176582795Y-84009744D01*
X176504774Y-84198102D01*
X176465000Y-84398061D01*
X176465000Y-84601939D01*
X176504774Y-84801898D01*
X176582795Y-84990256D01*
X176696063Y-85159774D01*
X176786289Y-85250000D01*
X176696063Y-85340226D01*
X176582795Y-85509744D01*
X176504774Y-85698102D01*
X176465000Y-85898061D01*
X176465000Y-86101939D01*
X176504774Y-86301898D01*
X176582795Y-86490256D01*
X176696063Y-86659774D01*
X176840226Y-86803937D01*
X177009744Y-86917205D01*
X177198102Y-86995226D01*
X177391503Y-87033696D01*
X175988998Y-88436201D01*
X175960000Y-88459999D01*
X175936202Y-88488997D01*
X175936201Y-88488998D01*
X175865026Y-88575724D01*
X175794454Y-88707754D01*
X175750998Y-88851015D01*
X175736324Y-89000000D01*
X175740001Y-89037332D01*
X175740000Y-90185198D01*
X175185199Y-90740000D01*
X173723711Y-90740000D01*
X173803937Y-90659774D01*
X173917205Y-90490256D01*
X173995226Y-90301898D01*
X174035000Y-90101939D01*
X174035000Y-89898061D01*
X173995226Y-89698102D01*
X173917205Y-89509744D01*
X173803937Y-89340226D01*
X173659774Y-89196063D01*
X173490256Y-89082795D01*
X173301898Y-89004774D01*
X173101939Y-88965000D01*
X172898061Y-88965000D01*
X172698102Y-89004774D01*
X172509744Y-89082795D01*
X172340226Y-89196063D01*
X172196063Y-89340226D01*
X172082795Y-89509744D01*
X172004774Y-89698102D01*
X171965000Y-89898061D01*
X171965000Y-90101939D01*
X172004774Y-90301898D01*
X172082795Y-90490256D01*
X172196063Y-90659774D01*
X172276289Y-90740000D01*
X172037322Y-90740000D01*
X171999999Y-90736324D01*
X171962676Y-90740000D01*
X171962667Y-90740000D01*
X171851014Y-90750997D01*
X171707753Y-90794454D01*
X171575724Y-90865026D01*
X171459999Y-90959999D01*
X171436201Y-90988997D01*
X169988998Y-92436201D01*
X169960000Y-92459999D01*
X169936202Y-92488997D01*
X169936201Y-92488998D01*
X169865026Y-92575724D01*
X169794454Y-92707754D01*
X169764180Y-92807558D01*
X169750998Y-92851014D01*
X169740001Y-92962667D01*
X169736324Y-93000000D01*
X169740001Y-93037332D01*
X169740000Y-96796289D01*
X169696063Y-96840226D01*
X169582795Y-97009744D01*
X169504774Y-97198102D01*
X169465000Y-97398061D01*
X163288072Y-97398061D01*
X163288072Y-95850000D01*
X163275812Y-95725518D01*
X163239502Y-95605820D01*
X163180537Y-95495506D01*
X163101185Y-95398815D01*
X163004494Y-95319463D01*
X162894180Y-95260498D01*
X162813534Y-95236034D01*
X162897588Y-95160269D01*
X163071641Y-94926920D01*
X163196825Y-94664099D01*
X163241476Y-94516890D01*
X163120155Y-94287000D01*
X161927000Y-94287000D01*
X161927000Y-94307000D01*
X161673000Y-94307000D01*
X161673000Y-94287000D01*
X160479845Y-94287000D01*
X160358524Y-94516890D01*
X160403175Y-94664099D01*
X160528359Y-94926920D01*
X160702412Y-95160269D01*
X160786466Y-95236034D01*
X160705820Y-95260498D01*
X160595506Y-95319463D01*
X160498815Y-95398815D01*
X160419463Y-95495506D01*
X160360498Y-95605820D01*
X160324188Y-95725518D01*
X160311928Y-95850000D01*
X159660000Y-95850000D01*
X159660000Y-73693740D01*
X160315000Y-73693740D01*
X160315000Y-73986260D01*
X160372068Y-74273158D01*
X160484010Y-74543411D01*
X160646525Y-74786632D01*
X160853368Y-74993475D01*
X161027760Y-75110000D01*
X160853368Y-75226525D01*
X160646525Y-75433368D01*
X160484010Y-75676589D01*
X160372068Y-75946842D01*
X160315000Y-76233740D01*
X160315000Y-76526260D01*
X160372068Y-76813158D01*
X160484010Y-77083411D01*
X160646525Y-77326632D01*
X160853368Y-77533475D01*
X161027760Y-77650000D01*
X160853368Y-77766525D01*
X160646525Y-77973368D01*
X160484010Y-78216589D01*
X160372068Y-78486842D01*
X160315000Y-78773740D01*
X160315000Y-79066260D01*
X160372068Y-79353158D01*
X160484010Y-79623411D01*
X160646525Y-79866632D01*
X160853368Y-80073475D01*
X161027760Y-80190000D01*
X160853368Y-80306525D01*
X160646525Y-80513368D01*
X160484010Y-80756589D01*
X160372068Y-81026842D01*
X160315000Y-81313740D01*
X160315000Y-81606260D01*
X160372068Y-81893158D01*
X160484010Y-82163411D01*
X160646525Y-82406632D01*
X160853368Y-82613475D01*
X161027760Y-82730000D01*
X160853368Y-82846525D01*
X160646525Y-83053368D01*
X160484010Y-83296589D01*
X160372068Y-83566842D01*
X160315000Y-83853740D01*
X160315000Y-84146260D01*
X160372068Y-84433158D01*
X160484010Y-84703411D01*
X160646525Y-84946632D01*
X160853368Y-85153475D01*
X161027760Y-85270000D01*
X160853368Y-85386525D01*
X160646525Y-85593368D01*
X160484010Y-85836589D01*
X160372068Y-86106842D01*
X160315000Y-86393740D01*
X160315000Y-86686260D01*
X160372068Y-86973158D01*
X160484010Y-87243411D01*
X160646525Y-87486632D01*
X160853368Y-87693475D01*
X161027760Y-87810000D01*
X160853368Y-87926525D01*
X160646525Y-88133368D01*
X160484010Y-88376589D01*
X160372068Y-88646842D01*
X160315000Y-88933740D01*
X160315000Y-89226260D01*
X160372068Y-89513158D01*
X160484010Y-89783411D01*
X160646525Y-90026632D01*
X160853368Y-90233475D01*
X161027760Y-90350000D01*
X160853368Y-90466525D01*
X160646525Y-90673368D01*
X160484010Y-90916589D01*
X160372068Y-91186842D01*
X160315000Y-91473740D01*
X160315000Y-91766260D01*
X160372068Y-92053158D01*
X160484010Y-92323411D01*
X160646525Y-92566632D01*
X160853368Y-92773475D01*
X161035534Y-92895195D01*
X160918645Y-92964822D01*
X160702412Y-93159731D01*
X160528359Y-93393080D01*
X160403175Y-93655901D01*
X160358524Y-93803110D01*
X160479845Y-94033000D01*
X161673000Y-94033000D01*
X161673000Y-94013000D01*
X161927000Y-94013000D01*
X161927000Y-94033000D01*
X163120155Y-94033000D01*
X163241476Y-93803110D01*
X163196825Y-93655901D01*
X163071641Y-93393080D01*
X162897588Y-93159731D01*
X162681355Y-92964822D01*
X162564466Y-92895195D01*
X162746632Y-92773475D01*
X162953475Y-92566632D01*
X163115990Y-92323411D01*
X163227932Y-92053158D01*
X163285000Y-91766260D01*
X163285000Y-91473740D01*
X163227932Y-91186842D01*
X163115990Y-90916589D01*
X162953475Y-90673368D01*
X162746632Y-90466525D01*
X162572240Y-90350000D01*
X162746632Y-90233475D01*
X162953475Y-90026632D01*
X163039383Y-89898061D01*
X166465000Y-89898061D01*
X166465000Y-90101939D01*
X166504774Y-90301898D01*
X166582795Y-90490256D01*
X166696063Y-90659774D01*
X166840226Y-90803937D01*
X167009744Y-90917205D01*
X167198102Y-90995226D01*
X167398061Y-91035000D01*
X167601939Y-91035000D01*
X167801898Y-90995226D01*
X167990256Y-90917205D01*
X168159774Y-90803937D01*
X168303937Y-90659774D01*
X168417205Y-90490256D01*
X168495226Y-90301898D01*
X168535000Y-90101939D01*
X168535000Y-89898061D01*
X168495226Y-89698102D01*
X168417205Y-89509744D01*
X168303937Y-89340226D01*
X168159774Y-89196063D01*
X167990256Y-89082795D01*
X167801898Y-89004774D01*
X167601939Y-88965000D01*
X167398061Y-88965000D01*
X167198102Y-89004774D01*
X167009744Y-89082795D01*
X166840226Y-89196063D01*
X166696063Y-89340226D01*
X166582795Y-89509744D01*
X166504774Y-89698102D01*
X166465000Y-89898061D01*
X163039383Y-89898061D01*
X163115990Y-89783411D01*
X163227932Y-89513158D01*
X163285000Y-89226260D01*
X163285000Y-88933740D01*
X163227932Y-88646842D01*
X163115990Y-88376589D01*
X162953475Y-88133368D01*
X162746632Y-87926525D01*
X162572240Y-87810000D01*
X162746632Y-87693475D01*
X162953475Y-87486632D01*
X163115990Y-87243411D01*
X163227932Y-86973158D01*
X163285000Y-86686260D01*
X163285000Y-86398061D01*
X167965000Y-86398061D01*
X167965000Y-86601939D01*
X168004774Y-86801898D01*
X168082795Y-86990256D01*
X168196063Y-87159774D01*
X168340226Y-87303937D01*
X168509744Y-87417205D01*
X168698102Y-87495226D01*
X168898061Y-87535000D01*
X169101939Y-87535000D01*
X169301898Y-87495226D01*
X169490256Y-87417205D01*
X169659774Y-87303937D01*
X169803937Y-87159774D01*
X169917205Y-86990256D01*
X169995226Y-86801898D01*
X170035000Y-86601939D01*
X170035000Y-86398061D01*
X169995226Y-86198102D01*
X169917205Y-86009744D01*
X169803937Y-85840226D01*
X169659774Y-85696063D01*
X169490256Y-85582795D01*
X169301898Y-85504774D01*
X169101939Y-85465000D01*
X168898061Y-85465000D01*
X168698102Y-85504774D01*
X168509744Y-85582795D01*
X168340226Y-85696063D01*
X168196063Y-85840226D01*
X168082795Y-86009744D01*
X168004774Y-86198102D01*
X167965000Y-86398061D01*
X163285000Y-86398061D01*
X163285000Y-86393740D01*
X163227932Y-86106842D01*
X163115990Y-85836589D01*
X162953475Y-85593368D01*
X162746632Y-85386525D01*
X162572240Y-85270000D01*
X162746632Y-85153475D01*
X162953475Y-84946632D01*
X163115990Y-84703411D01*
X163227932Y-84433158D01*
X163285000Y-84146260D01*
X163285000Y-83898061D01*
X169465000Y-83898061D01*
X169465000Y-84101939D01*
X169504774Y-84301898D01*
X169582795Y-84490256D01*
X169696063Y-84659774D01*
X169840226Y-84803937D01*
X170009744Y-84917205D01*
X170198102Y-84995226D01*
X170398061Y-85035000D01*
X170601939Y-85035000D01*
X170801898Y-84995226D01*
X170990256Y-84917205D01*
X171159774Y-84803937D01*
X171303937Y-84659774D01*
X171417205Y-84490256D01*
X171495226Y-84301898D01*
X171535000Y-84101939D01*
X171535000Y-83898061D01*
X171495226Y-83698102D01*
X171417205Y-83509744D01*
X171303937Y-83340226D01*
X171159774Y-83196063D01*
X170990256Y-83082795D01*
X170801898Y-83004774D01*
X170601939Y-82965000D01*
X170398061Y-82965000D01*
X170198102Y-83004774D01*
X170009744Y-83082795D01*
X169840226Y-83196063D01*
X169696063Y-83340226D01*
X169582795Y-83509744D01*
X169504774Y-83698102D01*
X169465000Y-83898061D01*
X163285000Y-83898061D01*
X163285000Y-83853740D01*
X163227932Y-83566842D01*
X163115990Y-83296589D01*
X162953475Y-83053368D01*
X162746632Y-82846525D01*
X162572240Y-82730000D01*
X162746632Y-82613475D01*
X162953475Y-82406632D01*
X163115990Y-82163411D01*
X163227932Y-81893158D01*
X163285000Y-81606260D01*
X163285000Y-81313740D01*
X163227932Y-81026842D01*
X163115990Y-80756589D01*
X162953475Y-80513368D01*
X162838168Y-80398061D01*
X170465000Y-80398061D01*
X170465000Y-80601939D01*
X170504774Y-80801898D01*
X170582795Y-80990256D01*
X170696063Y-81159774D01*
X170840226Y-81303937D01*
X171009744Y-81417205D01*
X171198102Y-81495226D01*
X171398061Y-81535000D01*
X171601939Y-81535000D01*
X171801898Y-81495226D01*
X171990256Y-81417205D01*
X172018907Y-81398061D01*
X173965000Y-81398061D01*
X173965000Y-81601939D01*
X174004774Y-81801898D01*
X174082795Y-81990256D01*
X174196063Y-82159774D01*
X174340226Y-82303937D01*
X174509744Y-82417205D01*
X174698102Y-82495226D01*
X174898061Y-82535000D01*
X175101939Y-82535000D01*
X175146556Y-82526125D01*
X175009744Y-82582795D01*
X174840226Y-82696063D01*
X174696063Y-82840226D01*
X174582795Y-83009744D01*
X174504774Y-83198102D01*
X174465000Y-83398061D01*
X174465000Y-83601939D01*
X174504774Y-83801898D01*
X174582795Y-83990256D01*
X174696063Y-84159774D01*
X174840226Y-84303937D01*
X175009744Y-84417205D01*
X175198102Y-84495226D01*
X175398061Y-84535000D01*
X175601939Y-84535000D01*
X175801898Y-84495226D01*
X175990256Y-84417205D01*
X176159774Y-84303937D01*
X176303937Y-84159774D01*
X176417205Y-83990256D01*
X176495226Y-83801898D01*
X176535000Y-83601939D01*
X176535000Y-83398061D01*
X176495226Y-83198102D01*
X176417205Y-83009744D01*
X176303937Y-82840226D01*
X176159774Y-82696063D01*
X175990256Y-82582795D01*
X175801898Y-82504774D01*
X175601939Y-82465000D01*
X175398061Y-82465000D01*
X175353444Y-82473875D01*
X175490256Y-82417205D01*
X175659774Y-82303937D01*
X175803937Y-82159774D01*
X175917205Y-81990256D01*
X175995226Y-81801898D01*
X176035000Y-81601939D01*
X176035000Y-81398061D01*
X175995226Y-81198102D01*
X175917205Y-81009744D01*
X175842582Y-80898061D01*
X184965000Y-80898061D01*
X184965000Y-81101939D01*
X185004774Y-81301898D01*
X185082795Y-81490256D01*
X185196063Y-81659774D01*
X185340226Y-81803937D01*
X185509744Y-81917205D01*
X185698102Y-81995226D01*
X185898061Y-82035000D01*
X186101939Y-82035000D01*
X186301898Y-81995226D01*
X186490256Y-81917205D01*
X186659774Y-81803937D01*
X186803937Y-81659774D01*
X186917205Y-81490256D01*
X186995226Y-81301898D01*
X187035000Y-81101939D01*
X187035000Y-80898061D01*
X186995226Y-80698102D01*
X186917205Y-80509744D01*
X186803937Y-80340226D01*
X186659774Y-80196063D01*
X186490256Y-80082795D01*
X186301898Y-80004774D01*
X186101939Y-79965000D01*
X185898061Y-79965000D01*
X185698102Y-80004774D01*
X185509744Y-80082795D01*
X185340226Y-80196063D01*
X185196063Y-80340226D01*
X185082795Y-80509744D01*
X185004774Y-80698102D01*
X184965000Y-80898061D01*
X175842582Y-80898061D01*
X175803937Y-80840226D01*
X175659774Y-80696063D01*
X175490256Y-80582795D01*
X175301898Y-80504774D01*
X175101939Y-80465000D01*
X174898061Y-80465000D01*
X174698102Y-80504774D01*
X174509744Y-80582795D01*
X174340226Y-80696063D01*
X174196063Y-80840226D01*
X174082795Y-81009744D01*
X174004774Y-81198102D01*
X173965000Y-81398061D01*
X172018907Y-81398061D01*
X172159774Y-81303937D01*
X172303937Y-81159774D01*
X172417205Y-80990256D01*
X172495226Y-80801898D01*
X172535000Y-80601939D01*
X172535000Y-80398061D01*
X172495226Y-80198102D01*
X172417205Y-80009744D01*
X172342582Y-79898061D01*
X188965000Y-79898061D01*
X188965000Y-80101939D01*
X189004774Y-80301898D01*
X189082795Y-80490256D01*
X189196063Y-80659774D01*
X189340226Y-80803937D01*
X189509744Y-80917205D01*
X189698102Y-80995226D01*
X189898061Y-81035000D01*
X190101939Y-81035000D01*
X190301898Y-80995226D01*
X190490256Y-80917205D01*
X190659774Y-80803937D01*
X190803937Y-80659774D01*
X190917205Y-80490256D01*
X190995226Y-80301898D01*
X191035000Y-80101939D01*
X191035000Y-79898061D01*
X190995226Y-79698102D01*
X190964741Y-79624505D01*
X191126525Y-79866632D01*
X191333368Y-80073475D01*
X191507760Y-80190000D01*
X191333368Y-80306525D01*
X191126525Y-80513368D01*
X190964010Y-80756589D01*
X190852068Y-81026842D01*
X190795000Y-81313740D01*
X190795000Y-81606260D01*
X190852068Y-81893158D01*
X190964010Y-82163411D01*
X191126525Y-82406632D01*
X191333368Y-82613475D01*
X191507760Y-82730000D01*
X191333368Y-82846525D01*
X191126525Y-83053368D01*
X190964010Y-83296589D01*
X190852068Y-83566842D01*
X190795000Y-83853740D01*
X190795000Y-84146260D01*
X190852068Y-84433158D01*
X190964010Y-84703411D01*
X191126525Y-84946632D01*
X191333368Y-85153475D01*
X191507760Y-85270000D01*
X191333368Y-85386525D01*
X191126525Y-85593368D01*
X190964010Y-85836589D01*
X190852068Y-86106842D01*
X190795000Y-86393740D01*
X190795000Y-86686260D01*
X190852068Y-86973158D01*
X190964010Y-87243411D01*
X191126525Y-87486632D01*
X191333368Y-87693475D01*
X191507760Y-87810000D01*
X191333368Y-87926525D01*
X191126525Y-88133368D01*
X190964010Y-88376589D01*
X190852068Y-88646842D01*
X190795000Y-88933740D01*
X190795000Y-89226260D01*
X190852068Y-89513158D01*
X190964010Y-89783411D01*
X191126525Y-90026632D01*
X191333368Y-90233475D01*
X191507760Y-90350000D01*
X191333368Y-90466525D01*
X191126525Y-90673368D01*
X190964010Y-90916589D01*
X190852068Y-91186842D01*
X190795000Y-91473740D01*
X190795000Y-91766260D01*
X190852068Y-92053158D01*
X190964010Y-92323411D01*
X191126525Y-92566632D01*
X191333368Y-92773475D01*
X191507760Y-92890000D01*
X191333368Y-93006525D01*
X191126525Y-93213368D01*
X190964010Y-93456589D01*
X190852068Y-93726842D01*
X190795000Y-94013740D01*
X190795000Y-94306260D01*
X190852068Y-94593158D01*
X190964010Y-94863411D01*
X191126525Y-95106632D01*
X191258380Y-95238487D01*
X191185820Y-95260498D01*
X191075506Y-95319463D01*
X190978815Y-95398815D01*
X190899463Y-95495506D01*
X190840498Y-95605820D01*
X190804188Y-95725518D01*
X190791928Y-95850000D01*
X190791928Y-97550000D01*
X190804188Y-97674482D01*
X190840498Y-97794180D01*
X190899463Y-97904494D01*
X190978815Y-98001185D01*
X191075506Y-98080537D01*
X191185820Y-98139502D01*
X191305518Y-98175812D01*
X191430000Y-98188072D01*
X191652185Y-98188072D01*
X191640226Y-98196063D01*
X191496063Y-98340226D01*
X191382795Y-98509744D01*
X191304774Y-98698102D01*
X191265000Y-98898061D01*
X191265000Y-99101939D01*
X191304774Y-99301898D01*
X191382795Y-99490256D01*
X191496063Y-99659774D01*
X191640226Y-99803937D01*
X191809744Y-99917205D01*
X191998102Y-99995226D01*
X192198061Y-100035000D01*
X192401939Y-100035000D01*
X192601898Y-99995226D01*
X192790256Y-99917205D01*
X192959774Y-99803937D01*
X193103937Y-99659774D01*
X193217205Y-99490256D01*
X193295226Y-99301898D01*
X193335000Y-99101939D01*
X193335000Y-98898061D01*
X193295226Y-98698102D01*
X193217205Y-98509744D01*
X193103937Y-98340226D01*
X192959774Y-98196063D01*
X192947815Y-98188072D01*
X193130000Y-98188072D01*
X193254482Y-98175812D01*
X193374180Y-98139502D01*
X193484494Y-98080537D01*
X193581185Y-98001185D01*
X193660537Y-97904494D01*
X193719502Y-97794180D01*
X193755812Y-97674482D01*
X193768072Y-97550000D01*
X193768072Y-95850000D01*
X193755812Y-95725518D01*
X193719502Y-95605820D01*
X193660537Y-95495506D01*
X193581185Y-95398815D01*
X193484494Y-95319463D01*
X193374180Y-95260498D01*
X193301620Y-95238487D01*
X193433475Y-95106632D01*
X193595990Y-94863411D01*
X193707932Y-94593158D01*
X193765000Y-94306260D01*
X193765000Y-94013740D01*
X193707932Y-93726842D01*
X193595990Y-93456589D01*
X193433475Y-93213368D01*
X193226632Y-93006525D01*
X193052240Y-92890000D01*
X193226632Y-92773475D01*
X193433475Y-92566632D01*
X193595990Y-92323411D01*
X193707932Y-92053158D01*
X193765000Y-91766260D01*
X193765000Y-91473740D01*
X193707932Y-91186842D01*
X193595990Y-90916589D01*
X193433475Y-90673368D01*
X193226632Y-90466525D01*
X193052240Y-90350000D01*
X193226632Y-90233475D01*
X193433475Y-90026632D01*
X193595990Y-89783411D01*
X193707932Y-89513158D01*
X193765000Y-89226260D01*
X193765000Y-88933740D01*
X193707932Y-88646842D01*
X193595990Y-88376589D01*
X193433475Y-88133368D01*
X193226632Y-87926525D01*
X193052240Y-87810000D01*
X193226632Y-87693475D01*
X193433475Y-87486632D01*
X193595990Y-87243411D01*
X193707932Y-86973158D01*
X193765000Y-86686260D01*
X193765000Y-86393740D01*
X193707932Y-86106842D01*
X193595990Y-85836589D01*
X193433475Y-85593368D01*
X193226632Y-85386525D01*
X193052240Y-85270000D01*
X193226632Y-85153475D01*
X193433475Y-84946632D01*
X193595990Y-84703411D01*
X193707932Y-84433158D01*
X193765000Y-84146260D01*
X193765000Y-83853740D01*
X193707932Y-83566842D01*
X193595990Y-83296589D01*
X193433475Y-83053368D01*
X193226632Y-82846525D01*
X193052240Y-82730000D01*
X193226632Y-82613475D01*
X193433475Y-82406632D01*
X193595990Y-82163411D01*
X193707932Y-81893158D01*
X193765000Y-81606260D01*
X193765000Y-81313740D01*
X193707932Y-81026842D01*
X193595990Y-80756589D01*
X193433475Y-80513368D01*
X193226632Y-80306525D01*
X193052240Y-80190000D01*
X193226632Y-80073475D01*
X193433475Y-79866632D01*
X193595990Y-79623411D01*
X193707932Y-79353158D01*
X193765000Y-79066260D01*
X193765000Y-78773740D01*
X193707932Y-78486842D01*
X193595990Y-78216589D01*
X193433475Y-77973368D01*
X193226632Y-77766525D01*
X193052240Y-77650000D01*
X193226632Y-77533475D01*
X193433475Y-77326632D01*
X193595990Y-77083411D01*
X193707932Y-76813158D01*
X193765000Y-76526260D01*
X193765000Y-76233740D01*
X193707932Y-75946842D01*
X193595990Y-75676589D01*
X193433475Y-75433368D01*
X193226632Y-75226525D01*
X193052240Y-75110000D01*
X193226632Y-74993475D01*
X193433475Y-74786632D01*
X193595990Y-74543411D01*
X193707932Y-74273158D01*
X193765000Y-73986260D01*
X193765000Y-73693740D01*
X193707932Y-73406842D01*
X193595990Y-73136589D01*
X193433475Y-72893368D01*
X193226632Y-72686525D01*
X192983411Y-72524010D01*
X192713158Y-72412068D01*
X192426260Y-72355000D01*
X192133740Y-72355000D01*
X191846842Y-72412068D01*
X191576589Y-72524010D01*
X191333368Y-72686525D01*
X191126525Y-72893368D01*
X190964010Y-73136589D01*
X190852068Y-73406842D01*
X190795000Y-73693740D01*
X190795000Y-73986260D01*
X190852068Y-74273158D01*
X190964010Y-74543411D01*
X191126525Y-74786632D01*
X191333368Y-74993475D01*
X191507760Y-75110000D01*
X191333368Y-75226525D01*
X191126525Y-75433368D01*
X190964010Y-75676589D01*
X190852068Y-75946842D01*
X190795000Y-76233740D01*
X190795000Y-76526260D01*
X190852068Y-76813158D01*
X190964010Y-77083411D01*
X191126525Y-77326632D01*
X191333368Y-77533475D01*
X191507760Y-77650000D01*
X191333368Y-77766525D01*
X191126525Y-77973368D01*
X190964010Y-78216589D01*
X190852068Y-78486842D01*
X190795000Y-78773740D01*
X190795000Y-79066260D01*
X190852068Y-79353158D01*
X190916476Y-79508652D01*
X190803937Y-79340226D01*
X190659774Y-79196063D01*
X190490256Y-79082795D01*
X190301898Y-79004774D01*
X190101939Y-78965000D01*
X189898061Y-78965000D01*
X189698102Y-79004774D01*
X189509744Y-79082795D01*
X189340226Y-79196063D01*
X189196063Y-79340226D01*
X189082795Y-79509744D01*
X189004774Y-79698102D01*
X188965000Y-79898061D01*
X172342582Y-79898061D01*
X172303937Y-79840226D01*
X172159774Y-79696063D01*
X171990256Y-79582795D01*
X171801898Y-79504774D01*
X171601939Y-79465000D01*
X171398061Y-79465000D01*
X171198102Y-79504774D01*
X171009744Y-79582795D01*
X170840226Y-79696063D01*
X170696063Y-79840226D01*
X170582795Y-80009744D01*
X170504774Y-80198102D01*
X170465000Y-80398061D01*
X162838168Y-80398061D01*
X162746632Y-80306525D01*
X162572240Y-80190000D01*
X162746632Y-80073475D01*
X162953475Y-79866632D01*
X163115990Y-79623411D01*
X163227932Y-79353158D01*
X163285000Y-79066260D01*
X163285000Y-78773740D01*
X163227932Y-78486842D01*
X163115990Y-78216589D01*
X162953475Y-77973368D01*
X162878168Y-77898061D01*
X166605000Y-77898061D01*
X166605000Y-78101939D01*
X166644774Y-78301898D01*
X166722795Y-78490256D01*
X166836063Y-78659774D01*
X166980226Y-78803937D01*
X167149744Y-78917205D01*
X167338102Y-78995226D01*
X167538061Y-79035000D01*
X167741939Y-79035000D01*
X167941898Y-78995226D01*
X168130256Y-78917205D01*
X168299774Y-78803937D01*
X168443937Y-78659774D01*
X168557205Y-78490256D01*
X168635226Y-78301898D01*
X168675000Y-78101939D01*
X168675000Y-77898061D01*
X168635226Y-77698102D01*
X168557205Y-77509744D01*
X168482582Y-77398061D01*
X184465000Y-77398061D01*
X184465000Y-77601939D01*
X184504774Y-77801898D01*
X184582795Y-77990256D01*
X184696063Y-78159774D01*
X184840226Y-78303937D01*
X185009744Y-78417205D01*
X185198102Y-78495226D01*
X185398061Y-78535000D01*
X185601939Y-78535000D01*
X185801898Y-78495226D01*
X185990256Y-78417205D01*
X186159774Y-78303937D01*
X186303937Y-78159774D01*
X186417205Y-77990256D01*
X186495226Y-77801898D01*
X186535000Y-77601939D01*
X186535000Y-77398061D01*
X186495226Y-77198102D01*
X186417205Y-77009744D01*
X186303937Y-76840226D01*
X186159774Y-76696063D01*
X185990256Y-76582795D01*
X185801898Y-76504774D01*
X185601939Y-76465000D01*
X185398061Y-76465000D01*
X185198102Y-76504774D01*
X185009744Y-76582795D01*
X184840226Y-76696063D01*
X184696063Y-76840226D01*
X184582795Y-77009744D01*
X184504774Y-77198102D01*
X184465000Y-77398061D01*
X168482582Y-77398061D01*
X168443937Y-77340226D01*
X168299774Y-77196063D01*
X168130256Y-77082795D01*
X167941898Y-77004774D01*
X167741939Y-76965000D01*
X167538061Y-76965000D01*
X167338102Y-77004774D01*
X167149744Y-77082795D01*
X166980226Y-77196063D01*
X166836063Y-77340226D01*
X166722795Y-77509744D01*
X166644774Y-77698102D01*
X166605000Y-77898061D01*
X162878168Y-77898061D01*
X162746632Y-77766525D01*
X162572240Y-77650000D01*
X162746632Y-77533475D01*
X162953475Y-77326632D01*
X163115990Y-77083411D01*
X163227932Y-76813158D01*
X163285000Y-76526260D01*
X163285000Y-76233740D01*
X163227932Y-75946842D01*
X163115990Y-75676589D01*
X162953475Y-75433368D01*
X162746632Y-75226525D01*
X162572240Y-75110000D01*
X162746632Y-74993475D01*
X162953475Y-74786632D01*
X163115990Y-74543411D01*
X163227932Y-74273158D01*
X163285000Y-73986260D01*
X163285000Y-73898061D01*
X171865000Y-73898061D01*
X171865000Y-74101939D01*
X171904774Y-74301898D01*
X171982795Y-74490256D01*
X172096063Y-74659774D01*
X172240226Y-74803937D01*
X172409744Y-74917205D01*
X172598102Y-74995226D01*
X172798061Y-75035000D01*
X173001939Y-75035000D01*
X173201898Y-74995226D01*
X173390256Y-74917205D01*
X173559774Y-74803937D01*
X173703937Y-74659774D01*
X173817205Y-74490256D01*
X173895226Y-74301898D01*
X173935000Y-74101939D01*
X173935000Y-73898061D01*
X173895226Y-73698102D01*
X173817205Y-73509744D01*
X173703937Y-73340226D01*
X173559774Y-73196063D01*
X173390256Y-73082795D01*
X173201898Y-73004774D01*
X173001939Y-72965000D01*
X172798061Y-72965000D01*
X172598102Y-73004774D01*
X172409744Y-73082795D01*
X172240226Y-73196063D01*
X172096063Y-73340226D01*
X171982795Y-73509744D01*
X171904774Y-73698102D01*
X171865000Y-73898061D01*
X163285000Y-73898061D01*
X163285000Y-73693740D01*
X163227932Y-73406842D01*
X163115990Y-73136589D01*
X162953475Y-72893368D01*
X162746632Y-72686525D01*
X162503411Y-72524010D01*
X162233158Y-72412068D01*
X161946260Y-72355000D01*
X161653740Y-72355000D01*
X161366842Y-72412068D01*
X161096589Y-72524010D01*
X160853368Y-72686525D01*
X160646525Y-72893368D01*
X160484010Y-73136589D01*
X160372068Y-73406842D01*
X160315000Y-73693740D01*
X159660000Y-73693740D01*
X159660000Y-71898061D01*
X165265000Y-71898061D01*
X165265000Y-72101939D01*
X165304774Y-72301898D01*
X165382795Y-72490256D01*
X165496063Y-72659774D01*
X165640226Y-72803937D01*
X165809744Y-72917205D01*
X165998102Y-72995226D01*
X166198061Y-73035000D01*
X166401939Y-73035000D01*
X166601898Y-72995226D01*
X166790256Y-72917205D01*
X166959774Y-72803937D01*
X167103937Y-72659774D01*
X167217205Y-72490256D01*
X167295226Y-72301898D01*
X167295989Y-72298061D01*
X182265000Y-72298061D01*
X182265000Y-72501939D01*
X182304774Y-72701898D01*
X182382795Y-72890256D01*
X182496063Y-73059774D01*
X182640226Y-73203937D01*
X182809744Y-73317205D01*
X182998102Y-73395226D01*
X183198061Y-73435000D01*
X183401939Y-73435000D01*
X183601898Y-73395226D01*
X183790256Y-73317205D01*
X183959774Y-73203937D01*
X184103937Y-73059774D01*
X184217205Y-72890256D01*
X184295226Y-72701898D01*
X184335000Y-72501939D01*
X184335000Y-72298061D01*
X184295226Y-72098102D01*
X184217205Y-71909744D01*
X184103937Y-71740226D01*
X183959774Y-71596063D01*
X183790256Y-71482795D01*
X183601898Y-71404774D01*
X183401939Y-71365000D01*
X183198061Y-71365000D01*
X182998102Y-71404774D01*
X182809744Y-71482795D01*
X182640226Y-71596063D01*
X182496063Y-71740226D01*
X182382795Y-71909744D01*
X182304774Y-72098102D01*
X182265000Y-72298061D01*
X167295989Y-72298061D01*
X167335000Y-72101939D01*
X167335000Y-71898061D01*
X167295226Y-71698102D01*
X167217205Y-71509744D01*
X167103937Y-71340226D01*
X166959774Y-71196063D01*
X166790256Y-71082795D01*
X166601898Y-71004774D01*
X166401939Y-70965000D01*
X166198061Y-70965000D01*
X165998102Y-71004774D01*
X165809744Y-71082795D01*
X165640226Y-71196063D01*
X165496063Y-71340226D01*
X165382795Y-71509744D01*
X165304774Y-71698102D01*
X165265000Y-71898061D01*
X159660000Y-71898061D01*
X159660000Y-70898061D01*
X191465000Y-70898061D01*
X191465000Y-71101939D01*
X191504774Y-71301898D01*
X191582795Y-71490256D01*
X191696063Y-71659774D01*
X191840226Y-71803937D01*
X192009744Y-71917205D01*
X192198102Y-71995226D01*
X192398061Y-72035000D01*
X192601939Y-72035000D01*
X192801898Y-71995226D01*
X192990256Y-71917205D01*
X193159774Y-71803937D01*
X193303937Y-71659774D01*
X193417205Y-71490256D01*
X193495226Y-71301898D01*
X193535000Y-71101939D01*
X193535000Y-70898061D01*
X193495226Y-70698102D01*
X193417205Y-70509744D01*
X193303937Y-70340226D01*
X193159774Y-70196063D01*
X192990256Y-70082795D01*
X192801898Y-70004774D01*
X192601939Y-69965000D01*
X192398061Y-69965000D01*
X192198102Y-70004774D01*
X192009744Y-70082795D01*
X191840226Y-70196063D01*
X191696063Y-70340226D01*
X191582795Y-70509744D01*
X191504774Y-70698102D01*
X191465000Y-70898061D01*
X159660000Y-70898061D01*
X159660000Y-67398061D01*
X173965000Y-67398061D01*
X173965000Y-67601939D01*
X174004774Y-67801898D01*
X174082795Y-67990256D01*
X174196063Y-68159774D01*
X174340226Y-68303937D01*
X174509744Y-68417205D01*
X174698102Y-68495226D01*
X174898061Y-68535000D01*
X175101939Y-68535000D01*
X175301898Y-68495226D01*
X175490256Y-68417205D01*
X175659774Y-68303937D01*
X175803937Y-68159774D01*
X175917205Y-67990256D01*
X175995226Y-67801898D01*
X176035000Y-67601939D01*
X176035000Y-67398061D01*
X175995226Y-67198102D01*
X175917205Y-67009744D01*
X175803937Y-66840226D01*
X175659774Y-66696063D01*
X175490256Y-66582795D01*
X175301898Y-66504774D01*
X175101939Y-66465000D01*
X174898061Y-66465000D01*
X174698102Y-66504774D01*
X174509744Y-66582795D01*
X174340226Y-66696063D01*
X174196063Y-66840226D01*
X174082795Y-67009744D01*
X174004774Y-67198102D01*
X173965000Y-67398061D01*
X159660000Y-67398061D01*
X159660000Y-63398061D01*
X165965000Y-63398061D01*
X165965000Y-63601939D01*
X166004774Y-63801898D01*
X166082795Y-63990256D01*
X166196063Y-64159774D01*
X166340226Y-64303937D01*
X166509744Y-64417205D01*
X166698102Y-64495226D01*
X166898061Y-64535000D01*
X167101939Y-64535000D01*
X167301898Y-64495226D01*
X167490256Y-64417205D01*
X167659774Y-64303937D01*
X167803937Y-64159774D01*
X167917205Y-63990256D01*
X167995226Y-63801898D01*
X168030056Y-63626793D01*
X173420000Y-63626793D01*
X173420000Y-64143206D01*
X173437147Y-64317299D01*
X173504906Y-64540673D01*
X173614942Y-64746535D01*
X173763025Y-64926975D01*
X173943464Y-65075058D01*
X174149326Y-65185094D01*
X174372700Y-65252853D01*
X174605000Y-65275733D01*
X174837299Y-65252853D01*
X175060673Y-65185094D01*
X175266535Y-65075058D01*
X175446975Y-64926975D01*
X175595058Y-64746536D01*
X175705094Y-64540674D01*
X175772853Y-64317300D01*
X175790000Y-64143207D01*
X175790000Y-63626794D01*
X175790000Y-63626793D01*
X178260000Y-63626793D01*
X178260000Y-64143206D01*
X178277147Y-64317299D01*
X178344906Y-64540673D01*
X178454942Y-64746535D01*
X178603025Y-64926975D01*
X178783464Y-65075058D01*
X178915611Y-65145692D01*
X178840226Y-65196063D01*
X178696063Y-65340226D01*
X178582795Y-65509744D01*
X178504774Y-65698102D01*
X178465000Y-65898061D01*
X178465000Y-66101939D01*
X178504774Y-66301898D01*
X178582795Y-66490256D01*
X178696063Y-66659774D01*
X178840226Y-66803937D01*
X179009744Y-66917205D01*
X179198102Y-66995226D01*
X179398061Y-67035000D01*
X179601939Y-67035000D01*
X179801898Y-66995226D01*
X179990256Y-66917205D01*
X180159774Y-66803937D01*
X180303937Y-66659774D01*
X180417205Y-66490256D01*
X180495226Y-66301898D01*
X180535000Y-66101939D01*
X180535000Y-65898061D01*
X180495226Y-65698102D01*
X180417205Y-65509744D01*
X180303937Y-65340226D01*
X180159774Y-65196063D01*
X180035501Y-65113027D01*
X180106535Y-65075058D01*
X180286975Y-64926975D01*
X180435058Y-64746536D01*
X180545094Y-64540674D01*
X180612853Y-64317300D01*
X180630000Y-64143207D01*
X180630000Y-63626794D01*
X180612853Y-63452701D01*
X180545094Y-63229327D01*
X180435058Y-63023464D01*
X180286975Y-62843025D01*
X180106536Y-62694942D01*
X179900674Y-62584906D01*
X179677300Y-62517147D01*
X179445000Y-62494267D01*
X179212701Y-62517147D01*
X178989327Y-62584906D01*
X178783465Y-62694942D01*
X178603026Y-62843025D01*
X178454943Y-63023464D01*
X178344906Y-63229326D01*
X178277147Y-63452700D01*
X178260000Y-63626793D01*
X175790000Y-63626793D01*
X175772853Y-63452701D01*
X175705094Y-63229327D01*
X175595058Y-63023464D01*
X175446975Y-62843025D01*
X175266536Y-62694942D01*
X175060674Y-62584906D01*
X174837300Y-62517147D01*
X174605000Y-62494267D01*
X174372701Y-62517147D01*
X174149327Y-62584906D01*
X173943465Y-62694942D01*
X173763026Y-62843025D01*
X173614943Y-63023464D01*
X173504906Y-63229326D01*
X173437147Y-63452700D01*
X173420000Y-63626793D01*
X168030056Y-63626793D01*
X168035000Y-63601939D01*
X168035000Y-63398061D01*
X167995226Y-63198102D01*
X167917205Y-63009744D01*
X167803937Y-62840226D01*
X167659774Y-62696063D01*
X167490256Y-62582795D01*
X167301898Y-62504774D01*
X167101939Y-62465000D01*
X166898061Y-62465000D01*
X166698102Y-62504774D01*
X166509744Y-62582795D01*
X166340226Y-62696063D01*
X166196063Y-62840226D01*
X166082795Y-63009744D01*
X166004774Y-63198102D01*
X165965000Y-63398061D01*
X159660000Y-63398061D01*
X159660000Y-60898061D01*
X162465000Y-60898061D01*
X162465000Y-61101939D01*
X162504774Y-61301898D01*
X162582795Y-61490256D01*
X162696063Y-61659774D01*
X162840226Y-61803937D01*
X163009744Y-61917205D01*
X163198102Y-61995226D01*
X163398061Y-62035000D01*
X163601939Y-62035000D01*
X163801898Y-61995226D01*
X163990256Y-61917205D01*
X164159774Y-61803937D01*
X164303937Y-61659774D01*
X164417205Y-61490256D01*
X164495226Y-61301898D01*
X164535000Y-61101939D01*
X164535000Y-60898061D01*
X164495226Y-60698102D01*
X164417205Y-60509744D01*
X164303937Y-60340226D01*
X164159774Y-60196063D01*
X163990256Y-60082795D01*
X163801898Y-60004774D01*
X163601939Y-59965000D01*
X163398061Y-59965000D01*
X163198102Y-60004774D01*
X163009744Y-60082795D01*
X162840226Y-60196063D01*
X162696063Y-60340226D01*
X162582795Y-60509744D01*
X162504774Y-60698102D01*
X162465000Y-60898061D01*
X159660000Y-60898061D01*
X159660000Y-60032279D01*
X159669580Y-59934576D01*
X159688580Y-59871644D01*
X159719445Y-59813595D01*
X159760989Y-59762657D01*
X159811644Y-59720752D01*
X159869471Y-59689485D01*
X159932272Y-59670044D01*
X160027835Y-59660000D01*
X173509465Y-59660000D01*
X173364209Y-59779208D01*
G04 #@! TA.AperFunction,Conductor*
D20*
G36*
X173364209Y-59779208D02*
G01*
X173200505Y-59978682D01*
X173078862Y-60206259D01*
X173003955Y-60453195D01*
X172985000Y-60645649D01*
X172985000Y-61124350D01*
X173003955Y-61316804D01*
X173078862Y-61563740D01*
X173200505Y-61791317D01*
X173364208Y-61990792D01*
X173563682Y-62154495D01*
X173791259Y-62276138D01*
X174038195Y-62351045D01*
X174295000Y-62376338D01*
X174551804Y-62351045D01*
X174798740Y-62276138D01*
X175026317Y-62154495D01*
X175225792Y-61990792D01*
X175389495Y-61791318D01*
X175511138Y-61563741D01*
X175586045Y-61316805D01*
X175605000Y-61124351D01*
X175605000Y-60645650D01*
X175586045Y-60453196D01*
X175511138Y-60206260D01*
X175389495Y-59978682D01*
X175225792Y-59779208D01*
X175080536Y-59660000D01*
X178969465Y-59660000D01*
X178824209Y-59779208D01*
X178660505Y-59978682D01*
X178538862Y-60206259D01*
X178463955Y-60453195D01*
X178445000Y-60645649D01*
X178445000Y-61124350D01*
X178463955Y-61316804D01*
X178538862Y-61563740D01*
X178660505Y-61791317D01*
X178824208Y-61990792D01*
X179023682Y-62154495D01*
X179251259Y-62276138D01*
X179498195Y-62351045D01*
X179755000Y-62376338D01*
X180011804Y-62351045D01*
X180258740Y-62276138D01*
X180486317Y-62154495D01*
X180685792Y-61990792D01*
X180843961Y-61798061D01*
X180965000Y-61798061D01*
X180965000Y-62001939D01*
X181004774Y-62201898D01*
X181082795Y-62390256D01*
X181196063Y-62559774D01*
X181340226Y-62703937D01*
X181509744Y-62817205D01*
X181698102Y-62895226D01*
X181898061Y-62935000D01*
X182101939Y-62935000D01*
X182301898Y-62895226D01*
X182490256Y-62817205D01*
X182659774Y-62703937D01*
X182803937Y-62559774D01*
X182917205Y-62390256D01*
X182995226Y-62201898D01*
X183035000Y-62001939D01*
X183035000Y-61798061D01*
X182995226Y-61598102D01*
X182917205Y-61409744D01*
X182803937Y-61240226D01*
X182659774Y-61096063D01*
X182490256Y-60982795D01*
X182301898Y-60904774D01*
X182268150Y-60898061D01*
X189465000Y-60898061D01*
X189465000Y-61101939D01*
X189504774Y-61301898D01*
X189582795Y-61490256D01*
X189696063Y-61659774D01*
X189840226Y-61803937D01*
X190009744Y-61917205D01*
X190198102Y-61995226D01*
X190398061Y-62035000D01*
X190601939Y-62035000D01*
X190801898Y-61995226D01*
X190990256Y-61917205D01*
X191159774Y-61803937D01*
X191303937Y-61659774D01*
X191417205Y-61490256D01*
X191495226Y-61301898D01*
X191535000Y-61101939D01*
X191535000Y-60898061D01*
X191495226Y-60698102D01*
X191417205Y-60509744D01*
X191303937Y-60340226D01*
X191159774Y-60196063D01*
X190990256Y-60082795D01*
X190801898Y-60004774D01*
X190601939Y-59965000D01*
X190398061Y-59965000D01*
X190198102Y-60004774D01*
X190009744Y-60082795D01*
X189840226Y-60196063D01*
X189696063Y-60340226D01*
X189582795Y-60509744D01*
X189504774Y-60698102D01*
X189465000Y-60898061D01*
X182268150Y-60898061D01*
X182101939Y-60865000D01*
X181898061Y-60865000D01*
X181698102Y-60904774D01*
X181509744Y-60982795D01*
X181340226Y-61096063D01*
X181196063Y-61240226D01*
X181082795Y-61409744D01*
X181004774Y-61598102D01*
X180965000Y-61798061D01*
X180843961Y-61798061D01*
X180849495Y-61791318D01*
X180971138Y-61563741D01*
X181046045Y-61316805D01*
X181065000Y-61124351D01*
X181065000Y-60645650D01*
X181046045Y-60453196D01*
X180971138Y-60206260D01*
X180849495Y-59978682D01*
X180685792Y-59779208D01*
X180540536Y-59660000D01*
X193967721Y-59660000D01*
X194065424Y-59669580D01*
X194128356Y-59688580D01*
X194186405Y-59719445D01*
X194237343Y-59760989D01*
X194279248Y-59811644D01*
X194310515Y-59869471D01*
X194329956Y-59932272D01*
X194340001Y-60027845D01*
X194340000Y-107967721D01*
X194330420Y-108065424D01*
X194311420Y-108128357D01*
X194280554Y-108186406D01*
X194239011Y-108237343D01*
X194188356Y-108279248D01*
X194130529Y-108310515D01*
X194067728Y-108329956D01*
X193972165Y-108340000D01*
X160032279Y-108340000D01*
X159934576Y-108330420D01*
X159871643Y-108311420D01*
X159813594Y-108280554D01*
X159762657Y-108239011D01*
X159720752Y-108188356D01*
X159689485Y-108130529D01*
X159670044Y-108067728D01*
X159660000Y-107972165D01*
X159660000Y-103888212D01*
X172785000Y-103888212D01*
X172785000Y-104111788D01*
X172828617Y-104331067D01*
X172914176Y-104537624D01*
X172979241Y-104635000D01*
X172914176Y-104732376D01*
X172828617Y-104938933D01*
X172785000Y-105158212D01*
X172785000Y-105381788D01*
X172828617Y-105601067D01*
X172914176Y-105807624D01*
X173038388Y-105993520D01*
X173196480Y-106151612D01*
X173382376Y-106275824D01*
X173588933Y-106361383D01*
X173808212Y-106405000D01*
X174031788Y-106405000D01*
X174251067Y-106361383D01*
X174457624Y-106275824D01*
X174555000Y-106210759D01*
X174652376Y-106275824D01*
X174858933Y-106361383D01*
X175078212Y-106405000D01*
X175301788Y-106405000D01*
X175521067Y-106361383D01*
X175727624Y-106275824D01*
X175825000Y-106210759D01*
X175922376Y-106275824D01*
X176128933Y-106361383D01*
X176348212Y-106405000D01*
X176571788Y-106405000D01*
X176791067Y-106361383D01*
X176997624Y-106275824D01*
X177095000Y-106210759D01*
X177192376Y-106275824D01*
X177398933Y-106361383D01*
X177618212Y-106405000D01*
X177841788Y-106405000D01*
X178061067Y-106361383D01*
X178267624Y-106275824D01*
X178365000Y-106210759D01*
X178462376Y-106275824D01*
X178668933Y-106361383D01*
X178888212Y-106405000D01*
X179111788Y-106405000D01*
X179331067Y-106361383D01*
X179537624Y-106275824D01*
X179723520Y-106151612D01*
X179881612Y-105993520D01*
X179945395Y-105898061D01*
X188965000Y-105898061D01*
X188965000Y-106101939D01*
X189004774Y-106301898D01*
X189082795Y-106490256D01*
X189196063Y-106659774D01*
X189340226Y-106803937D01*
X189509744Y-106917205D01*
X189698102Y-106995226D01*
X189898061Y-107035000D01*
X190101939Y-107035000D01*
X190301898Y-106995226D01*
X190490256Y-106917205D01*
X190659774Y-106803937D01*
X190803937Y-106659774D01*
X190917205Y-106490256D01*
X190995226Y-106301898D01*
X191035000Y-106101939D01*
X191035000Y-105898061D01*
X190995226Y-105698102D01*
X190917205Y-105509744D01*
X190803937Y-105340226D01*
X190659774Y-105196063D01*
X190490256Y-105082795D01*
X190301898Y-105004774D01*
X190101939Y-104965000D01*
X189898061Y-104965000D01*
X189698102Y-105004774D01*
X189509744Y-105082795D01*
X189340226Y-105196063D01*
X189196063Y-105340226D01*
X189082795Y-105509744D01*
X189004774Y-105698102D01*
X188965000Y-105898061D01*
X179945395Y-105898061D01*
X180005824Y-105807624D01*
X180091383Y-105601067D01*
X180135000Y-105381788D01*
X180135000Y-105158212D01*
X180091383Y-104938933D01*
X180045112Y-104827226D01*
X180089502Y-104744180D01*
X180125812Y-104624482D01*
X180138072Y-104500000D01*
X180135000Y-104285750D01*
X179976250Y-104127000D01*
X179127000Y-104127000D01*
X179127000Y-104138026D01*
X179111788Y-104135000D01*
X178888212Y-104135000D01*
X178873000Y-104138026D01*
X178873000Y-104127000D01*
X178861974Y-104127000D01*
X178865000Y-104111788D01*
X178865000Y-103888212D01*
X178861974Y-103873000D01*
X178873000Y-103873000D01*
X178873000Y-103023750D01*
X179127000Y-103023750D01*
X179127000Y-103873000D01*
X179976250Y-103873000D01*
X180135000Y-103714250D01*
X180138072Y-103500000D01*
X180125812Y-103375518D01*
X180089502Y-103255820D01*
X180030537Y-103145506D01*
X179951185Y-103048815D01*
X179854494Y-102969463D01*
X179744180Y-102910498D01*
X179624482Y-102874188D01*
X179500000Y-102861928D01*
X179285750Y-102865000D01*
X179127000Y-103023750D01*
X178873000Y-103023750D01*
X178714250Y-102865000D01*
X178500000Y-102861928D01*
X178375518Y-102874188D01*
X178255820Y-102910498D01*
X178172774Y-102954888D01*
X178061067Y-102908617D01*
X177841788Y-102865000D01*
X177618212Y-102865000D01*
X177398933Y-102908617D01*
X177192376Y-102994176D01*
X177095000Y-103059241D01*
X176997624Y-102994176D01*
X176791067Y-102908617D01*
X176571788Y-102865000D01*
X176348212Y-102865000D01*
X176128933Y-102908617D01*
X175922376Y-102994176D01*
X175825000Y-103059241D01*
X175727624Y-102994176D01*
X175521067Y-102908617D01*
X175301788Y-102865000D01*
X175078212Y-102865000D01*
X174858933Y-102908617D01*
X174652376Y-102994176D01*
X174555000Y-103059241D01*
X174457624Y-102994176D01*
X174251067Y-102908617D01*
X174031788Y-102865000D01*
X173808212Y-102865000D01*
X173588933Y-102908617D01*
X173382376Y-102994176D01*
X173196480Y-103118388D01*
X173038388Y-103276480D01*
X172914176Y-103462376D01*
X172828617Y-103668933D01*
X172785000Y-103888212D01*
X159660000Y-103888212D01*
X159660000Y-100398061D01*
X162965000Y-100398061D01*
X162965000Y-100601939D01*
X163004774Y-100801898D01*
X163082795Y-100990256D01*
X163196063Y-101159774D01*
X163340226Y-101303937D01*
X163509744Y-101417205D01*
X163698102Y-101495226D01*
X163898061Y-101535000D01*
X164101939Y-101535000D01*
X164301898Y-101495226D01*
X164490256Y-101417205D01*
X164659774Y-101303937D01*
X164803937Y-101159774D01*
X164917205Y-100990256D01*
X164955393Y-100898061D01*
X174965000Y-100898061D01*
X174965000Y-101101939D01*
X175004774Y-101301898D01*
X175082795Y-101490256D01*
X175196063Y-101659774D01*
X175340226Y-101803937D01*
X175509744Y-101917205D01*
X175698102Y-101995226D01*
X175898061Y-102035000D01*
X176101939Y-102035000D01*
X176301898Y-101995226D01*
X176490256Y-101917205D01*
X176659774Y-101803937D01*
X176803937Y-101659774D01*
X176917205Y-101490256D01*
X176955393Y-101398061D01*
X177465000Y-101398061D01*
X177465000Y-101601939D01*
X177504774Y-101801898D01*
X177582795Y-101990256D01*
X177696063Y-102159774D01*
X177840226Y-102303937D01*
X178009744Y-102417205D01*
X178198102Y-102495226D01*
X178398061Y-102535000D01*
X178601939Y-102535000D01*
X178801898Y-102495226D01*
X178990256Y-102417205D01*
X179159774Y-102303937D01*
X179303937Y-102159774D01*
X179417205Y-101990256D01*
X179495226Y-101801898D01*
X179535000Y-101601939D01*
X179535000Y-101398061D01*
X179495226Y-101198102D01*
X179417205Y-101009744D01*
X179303937Y-100840226D01*
X179159774Y-100696063D01*
X178990256Y-100582795D01*
X178801898Y-100504774D01*
X178601939Y-100465000D01*
X178398061Y-100465000D01*
X178198102Y-100504774D01*
X178009744Y-100582795D01*
X177840226Y-100696063D01*
X177696063Y-100840226D01*
X177582795Y-101009744D01*
X177504774Y-101198102D01*
X177465000Y-101398061D01*
X176955393Y-101398061D01*
X176995226Y-101301898D01*
X177035000Y-101101939D01*
X177035000Y-100898061D01*
X176995226Y-100698102D01*
X176917205Y-100509744D01*
X176803937Y-100340226D01*
X176659774Y-100196063D01*
X176490256Y-100082795D01*
X176301898Y-100004774D01*
X176101939Y-99965000D01*
X175898061Y-99965000D01*
X175698102Y-100004774D01*
X175509744Y-100082795D01*
X175340226Y-100196063D01*
X175196063Y-100340226D01*
X175082795Y-100509744D01*
X175004774Y-100698102D01*
X174965000Y-100898061D01*
X164955393Y-100898061D01*
X164995226Y-100801898D01*
X165035000Y-100601939D01*
X165035000Y-100398061D01*
X164995226Y-100198102D01*
X164917205Y-100009744D01*
X164842582Y-99898061D01*
X182965000Y-99898061D01*
X182965000Y-100101939D01*
X183004774Y-100301898D01*
X183082795Y-100490256D01*
X183196063Y-100659774D01*
X183340226Y-100803937D01*
X183509744Y-100917205D01*
X183698102Y-100995226D01*
X183898061Y-101035000D01*
X184101939Y-101035000D01*
X184301898Y-100995226D01*
X184490256Y-100917205D01*
X184659774Y-100803937D01*
X184803937Y-100659774D01*
X184917205Y-100490256D01*
X184995226Y-100301898D01*
X185035000Y-100101939D01*
X185035000Y-99898061D01*
X184995226Y-99698102D01*
X184917205Y-99509744D01*
X184803937Y-99340226D01*
X184659774Y-99196063D01*
X184490256Y-99082795D01*
X184301898Y-99004774D01*
X184101939Y-98965000D01*
X183898061Y-98965000D01*
X183698102Y-99004774D01*
X183509744Y-99082795D01*
X183340226Y-99196063D01*
X183196063Y-99340226D01*
X183082795Y-99509744D01*
X183004774Y-99698102D01*
X182965000Y-99898061D01*
X164842582Y-99898061D01*
X164803937Y-99840226D01*
X164659774Y-99696063D01*
X164490256Y-99582795D01*
X164301898Y-99504774D01*
X164101939Y-99465000D01*
X163898061Y-99465000D01*
X163698102Y-99504774D01*
X163509744Y-99582795D01*
X163340226Y-99696063D01*
X163196063Y-99840226D01*
X163082795Y-100009744D01*
X163004774Y-100198102D01*
X162965000Y-100398061D01*
X159660000Y-100398061D01*
X159660000Y-95850000D01*
X160311928Y-95850000D01*
X160311928Y-97550000D01*
X160324188Y-97674482D01*
X160360498Y-97794180D01*
X160419463Y-97904494D01*
X160498815Y-98001185D01*
X160595506Y-98080537D01*
X160705820Y-98139502D01*
X160825518Y-98175812D01*
X160950000Y-98188072D01*
X162650000Y-98188072D01*
X162774482Y-98175812D01*
X162894180Y-98139502D01*
X163004494Y-98080537D01*
X163101185Y-98001185D01*
X163180537Y-97904494D01*
X163239502Y-97794180D01*
X163275812Y-97674482D01*
X163288072Y-97550000D01*
X163288072Y-97398061D01*
X169465000Y-97398061D01*
X169465000Y-97601939D01*
X169504774Y-97801898D01*
X169582795Y-97990256D01*
X169696063Y-98159774D01*
X169840226Y-98303937D01*
X170009744Y-98417205D01*
X170198102Y-98495226D01*
X170398061Y-98535000D01*
X170601939Y-98535000D01*
X170801898Y-98495226D01*
X170990256Y-98417205D01*
X171159774Y-98303937D01*
X171303937Y-98159774D01*
X171417205Y-97990256D01*
X171495226Y-97801898D01*
X171535000Y-97601939D01*
X171535000Y-97398061D01*
X171495226Y-97198102D01*
X171417205Y-97009744D01*
X171303937Y-96840226D01*
X171260000Y-96796289D01*
X171260000Y-96563589D01*
X172615000Y-96563589D01*
X172615000Y-96836411D01*
X172668225Y-97103989D01*
X172772629Y-97356043D01*
X172924201Y-97582886D01*
X173117114Y-97775799D01*
X173343957Y-97927371D01*
X173596011Y-98031775D01*
X173863589Y-98085000D01*
X174136411Y-98085000D01*
X174403989Y-98031775D01*
X174656043Y-97927371D01*
X174882886Y-97775799D01*
X175075799Y-97582886D01*
X175227371Y-97356043D01*
X175331775Y-97103989D01*
X175385000Y-96836411D01*
X175385000Y-96563589D01*
X177495000Y-96563589D01*
X177495000Y-96836411D01*
X177548225Y-97103989D01*
X177652629Y-97356043D01*
X177804201Y-97582886D01*
X177997114Y-97775799D01*
X178223957Y-97927371D01*
X178476011Y-98031775D01*
X178743589Y-98085000D01*
X179016411Y-98085000D01*
X179283989Y-98031775D01*
X179536043Y-97927371D01*
X179762886Y-97775799D01*
X179955799Y-97582886D01*
X180107371Y-97356043D01*
X180211775Y-97103989D01*
X180265000Y-96836411D01*
X180265000Y-96563589D01*
X180211775Y-96296011D01*
X180107371Y-96043957D01*
X179955799Y-95817114D01*
X179762886Y-95624201D01*
X179536043Y-95472629D01*
X179283989Y-95368225D01*
X179016411Y-95315000D01*
X178743589Y-95315000D01*
X178476011Y-95368225D01*
X178223957Y-95472629D01*
X177997114Y-95624201D01*
X177804201Y-95817114D01*
X177652629Y-96043957D01*
X177548225Y-96296011D01*
X177495000Y-96563589D01*
X175385000Y-96563589D01*
X175331775Y-96296011D01*
X175227371Y-96043957D01*
X175075799Y-95817114D01*
X174882886Y-95624201D01*
X174656043Y-95472629D01*
X174403989Y-95368225D01*
X174136411Y-95315000D01*
X173863589Y-95315000D01*
X173596011Y-95368225D01*
X173343957Y-95472629D01*
X173117114Y-95624201D01*
X172924201Y-95817114D01*
X172772629Y-96043957D01*
X172668225Y-96296011D01*
X172615000Y-96563589D01*
X171260000Y-96563589D01*
X171260000Y-94398061D01*
X179965000Y-94398061D01*
X179965000Y-94601939D01*
X180004774Y-94801898D01*
X180082795Y-94990256D01*
X180196063Y-95159774D01*
X180340226Y-95303937D01*
X180509744Y-95417205D01*
X180698102Y-95495226D01*
X180898061Y-95535000D01*
X181101939Y-95535000D01*
X181301898Y-95495226D01*
X181490256Y-95417205D01*
X181659774Y-95303937D01*
X181803937Y-95159774D01*
X181917205Y-94990256D01*
X181995226Y-94801898D01*
X182035000Y-94601939D01*
X182035000Y-94398061D01*
X181995226Y-94198102D01*
X181917205Y-94009744D01*
X181803937Y-93840226D01*
X181659774Y-93696063D01*
X181490256Y-93582795D01*
X181301898Y-93504774D01*
X181101939Y-93465000D01*
X180898061Y-93465000D01*
X180698102Y-93504774D01*
X180509744Y-93582795D01*
X180340226Y-93696063D01*
X180196063Y-93840226D01*
X180082795Y-94009744D01*
X180004774Y-94198102D01*
X179965000Y-94398061D01*
X171260000Y-94398061D01*
X171260000Y-93314801D01*
X172314802Y-92260000D01*
X172776289Y-92260000D01*
X172696063Y-92340226D01*
X172582795Y-92509744D01*
X172504774Y-92698102D01*
X172465000Y-92898061D01*
X172465000Y-93101939D01*
X172504774Y-93301898D01*
X172582795Y-93490256D01*
X172696063Y-93659774D01*
X172840226Y-93803937D01*
X173009744Y-93917205D01*
X173198102Y-93995226D01*
X173398061Y-94035000D01*
X173601939Y-94035000D01*
X173801898Y-93995226D01*
X173990256Y-93917205D01*
X174159774Y-93803937D01*
X174303937Y-93659774D01*
X174417205Y-93490256D01*
X174495226Y-93301898D01*
X174535000Y-93101939D01*
X174535000Y-92898061D01*
X174495226Y-92698102D01*
X174417205Y-92509744D01*
X174303937Y-92340226D01*
X174223711Y-92260000D01*
X175462678Y-92260000D01*
X175500000Y-92263676D01*
X175537322Y-92260000D01*
X175537333Y-92260000D01*
X175648986Y-92249003D01*
X175792247Y-92205546D01*
X175924276Y-92134974D01*
X176040001Y-92040001D01*
X176063804Y-92010998D01*
X176585379Y-91489422D01*
X176509652Y-91672243D01*
X176469878Y-91872202D01*
X176469878Y-92076080D01*
X176509652Y-92276039D01*
X176587673Y-92464397D01*
X176700941Y-92633915D01*
X176845104Y-92778078D01*
X177014622Y-92891346D01*
X177202980Y-92969367D01*
X177402939Y-93009141D01*
X177606817Y-93009141D01*
X177806776Y-92969367D01*
X177995134Y-92891346D01*
X178164652Y-92778078D01*
X178308815Y-92633915D01*
X178422083Y-92464397D01*
X178500104Y-92276039D01*
X178539878Y-92076080D01*
X178539878Y-91872202D01*
X178500104Y-91672243D01*
X178422083Y-91483885D01*
X178308815Y-91314367D01*
X178164652Y-91170204D01*
X177995134Y-91056936D01*
X177806776Y-90978915D01*
X177606817Y-90939141D01*
X177402939Y-90939141D01*
X177202980Y-90978915D01*
X177024199Y-91052969D01*
X177040001Y-91040001D01*
X177134974Y-90924276D01*
X177205546Y-90792247D01*
X177249003Y-90648986D01*
X177260000Y-90537333D01*
X177260000Y-90537332D01*
X177263677Y-90500000D01*
X177260000Y-90462667D01*
X177260000Y-89314801D01*
X179039802Y-87535000D01*
X179101939Y-87535000D01*
X179287645Y-87498061D01*
X186865000Y-87498061D01*
X186865000Y-87701939D01*
X186904774Y-87901898D01*
X186982795Y-88090256D01*
X187096063Y-88259774D01*
X187240226Y-88403937D01*
X187409744Y-88517205D01*
X187598102Y-88595226D01*
X187798061Y-88635000D01*
X188001939Y-88635000D01*
X188201898Y-88595226D01*
X188390256Y-88517205D01*
X188559774Y-88403937D01*
X188703937Y-88259774D01*
X188817205Y-88090256D01*
X188895226Y-87901898D01*
X188935000Y-87701939D01*
X188935000Y-87498061D01*
X188895226Y-87298102D01*
X188817205Y-87109744D01*
X188703937Y-86940226D01*
X188559774Y-86796063D01*
X188390256Y-86682795D01*
X188201898Y-86604774D01*
X188001939Y-86565000D01*
X187798061Y-86565000D01*
X187598102Y-86604774D01*
X187409744Y-86682795D01*
X187240226Y-86796063D01*
X187096063Y-86940226D01*
X186982795Y-87109744D01*
X186904774Y-87298102D01*
X186865000Y-87498061D01*
X179287645Y-87498061D01*
X179301898Y-87495226D01*
X179490256Y-87417205D01*
X179659774Y-87303937D01*
X179803937Y-87159774D01*
X179917205Y-86990256D01*
X179995226Y-86801898D01*
X180035000Y-86601939D01*
X180035000Y-86398061D01*
X179995226Y-86198102D01*
X179917205Y-86009744D01*
X179803937Y-85840226D01*
X179659774Y-85696063D01*
X179490256Y-85582795D01*
X179301898Y-85504774D01*
X179101939Y-85465000D01*
X178898061Y-85465000D01*
X178698102Y-85504774D01*
X178509744Y-85582795D01*
X178460965Y-85615388D01*
X178417205Y-85509744D01*
X178303937Y-85340226D01*
X178213711Y-85250000D01*
X178303937Y-85159774D01*
X178417205Y-84990256D01*
X178495226Y-84801898D01*
X178535000Y-84601939D01*
X178535000Y-84398061D01*
X178495226Y-84198102D01*
X178417205Y-84009744D01*
X178303937Y-83840226D01*
X178159774Y-83696063D01*
X178072128Y-83637500D01*
X178159774Y-83578937D01*
X178303937Y-83434774D01*
X178417205Y-83265256D01*
X178495226Y-83076898D01*
X178535000Y-82876939D01*
X178535000Y-82673061D01*
X178495226Y-82473102D01*
X178417205Y-82284744D01*
X178303937Y-82115226D01*
X178159774Y-81971063D01*
X177990256Y-81857795D01*
X177801898Y-81779774D01*
X177601939Y-81740000D01*
X177398061Y-81740000D01*
X177198102Y-81779774D01*
X177009744Y-81857795D01*
X176840226Y-81971063D01*
X176696063Y-82115226D01*
X176582795Y-82284744D01*
X176504774Y-82473102D01*
X176465000Y-82673061D01*
X176465000Y-82876939D01*
X176504774Y-83076898D01*
X176582795Y-83265256D01*
X176696063Y-83434774D01*
X176840226Y-83578937D01*
X176927872Y-83637500D01*
X176840226Y-83696063D01*
X176696063Y-83840226D01*
X176582795Y-84009744D01*
X176504774Y-84198102D01*
X176465000Y-84398061D01*
X176465000Y-84601939D01*
X176504774Y-84801898D01*
X176582795Y-84990256D01*
X176696063Y-85159774D01*
X176786289Y-85250000D01*
X176696063Y-85340226D01*
X176582795Y-85509744D01*
X176504774Y-85698102D01*
X176465000Y-85898061D01*
X176465000Y-86101939D01*
X176504774Y-86301898D01*
X176582795Y-86490256D01*
X176696063Y-86659774D01*
X176840226Y-86803937D01*
X177009744Y-86917205D01*
X177198102Y-86995226D01*
X177391503Y-87033696D01*
X175988998Y-88436201D01*
X175960000Y-88459999D01*
X175936202Y-88488997D01*
X175936201Y-88488998D01*
X175865026Y-88575724D01*
X175794454Y-88707754D01*
X175750998Y-88851015D01*
X175736324Y-89000000D01*
X175740001Y-89037332D01*
X175740000Y-90185198D01*
X175185199Y-90740000D01*
X173723711Y-90740000D01*
X173803937Y-90659774D01*
X173917205Y-90490256D01*
X173995226Y-90301898D01*
X174035000Y-90101939D01*
X174035000Y-89898061D01*
X173995226Y-89698102D01*
X173917205Y-89509744D01*
X173803937Y-89340226D01*
X173659774Y-89196063D01*
X173490256Y-89082795D01*
X173301898Y-89004774D01*
X173101939Y-88965000D01*
X172898061Y-88965000D01*
X172698102Y-89004774D01*
X172509744Y-89082795D01*
X172340226Y-89196063D01*
X172196063Y-89340226D01*
X172082795Y-89509744D01*
X172004774Y-89698102D01*
X171965000Y-89898061D01*
X171965000Y-90101939D01*
X172004774Y-90301898D01*
X172082795Y-90490256D01*
X172196063Y-90659774D01*
X172276289Y-90740000D01*
X172037322Y-90740000D01*
X171999999Y-90736324D01*
X171962676Y-90740000D01*
X171962667Y-90740000D01*
X171851014Y-90750997D01*
X171707753Y-90794454D01*
X171575724Y-90865026D01*
X171459999Y-90959999D01*
X171436201Y-90988997D01*
X169988998Y-92436201D01*
X169960000Y-92459999D01*
X169936202Y-92488997D01*
X169936201Y-92488998D01*
X169865026Y-92575724D01*
X169794454Y-92707754D01*
X169764180Y-92807558D01*
X169750998Y-92851014D01*
X169740001Y-92962667D01*
X169736324Y-93000000D01*
X169740001Y-93037332D01*
X169740000Y-96796289D01*
X169696063Y-96840226D01*
X169582795Y-97009744D01*
X169504774Y-97198102D01*
X169465000Y-97398061D01*
X163288072Y-97398061D01*
X163288072Y-95850000D01*
X163275812Y-95725518D01*
X163239502Y-95605820D01*
X163180537Y-95495506D01*
X163101185Y-95398815D01*
X163004494Y-95319463D01*
X162894180Y-95260498D01*
X162813534Y-95236034D01*
X162897588Y-95160269D01*
X163071641Y-94926920D01*
X163196825Y-94664099D01*
X163241476Y-94516890D01*
X163120155Y-94287000D01*
X161927000Y-94287000D01*
X161927000Y-94307000D01*
X161673000Y-94307000D01*
X161673000Y-94287000D01*
X160479845Y-94287000D01*
X160358524Y-94516890D01*
X160403175Y-94664099D01*
X160528359Y-94926920D01*
X160702412Y-95160269D01*
X160786466Y-95236034D01*
X160705820Y-95260498D01*
X160595506Y-95319463D01*
X160498815Y-95398815D01*
X160419463Y-95495506D01*
X160360498Y-95605820D01*
X160324188Y-95725518D01*
X160311928Y-95850000D01*
X159660000Y-95850000D01*
X159660000Y-73693740D01*
X160315000Y-73693740D01*
X160315000Y-73986260D01*
X160372068Y-74273158D01*
X160484010Y-74543411D01*
X160646525Y-74786632D01*
X160853368Y-74993475D01*
X161027760Y-75110000D01*
X160853368Y-75226525D01*
X160646525Y-75433368D01*
X160484010Y-75676589D01*
X160372068Y-75946842D01*
X160315000Y-76233740D01*
X160315000Y-76526260D01*
X160372068Y-76813158D01*
X160484010Y-77083411D01*
X160646525Y-77326632D01*
X160853368Y-77533475D01*
X161027760Y-77650000D01*
X160853368Y-77766525D01*
X160646525Y-77973368D01*
X160484010Y-78216589D01*
X160372068Y-78486842D01*
X160315000Y-78773740D01*
X160315000Y-79066260D01*
X160372068Y-79353158D01*
X160484010Y-79623411D01*
X160646525Y-79866632D01*
X160853368Y-80073475D01*
X161027760Y-80190000D01*
X160853368Y-80306525D01*
X160646525Y-80513368D01*
X160484010Y-80756589D01*
X160372068Y-81026842D01*
X160315000Y-81313740D01*
X160315000Y-81606260D01*
X160372068Y-81893158D01*
X160484010Y-82163411D01*
X160646525Y-82406632D01*
X160853368Y-82613475D01*
X161027760Y-82730000D01*
X160853368Y-82846525D01*
X160646525Y-83053368D01*
X160484010Y-83296589D01*
X160372068Y-83566842D01*
X160315000Y-83853740D01*
X160315000Y-84146260D01*
X160372068Y-84433158D01*
X160484010Y-84703411D01*
X160646525Y-84946632D01*
X160853368Y-85153475D01*
X161027760Y-85270000D01*
X160853368Y-85386525D01*
X160646525Y-85593368D01*
X160484010Y-85836589D01*
X160372068Y-86106842D01*
X160315000Y-86393740D01*
X160315000Y-86686260D01*
X160372068Y-86973158D01*
X160484010Y-87243411D01*
X160646525Y-87486632D01*
X160853368Y-87693475D01*
X161027760Y-87810000D01*
X160853368Y-87926525D01*
X160646525Y-88133368D01*
X160484010Y-88376589D01*
X160372068Y-88646842D01*
X160315000Y-88933740D01*
X160315000Y-89226260D01*
X160372068Y-89513158D01*
X160484010Y-89783411D01*
X160646525Y-90026632D01*
X160853368Y-90233475D01*
X161027760Y-90350000D01*
X160853368Y-90466525D01*
X160646525Y-90673368D01*
X160484010Y-90916589D01*
X160372068Y-91186842D01*
X160315000Y-91473740D01*
X160315000Y-91766260D01*
X160372068Y-92053158D01*
X160484010Y-92323411D01*
X160646525Y-92566632D01*
X160853368Y-92773475D01*
X161035534Y-92895195D01*
X160918645Y-92964822D01*
X160702412Y-93159731D01*
X160528359Y-93393080D01*
X160403175Y-93655901D01*
X160358524Y-93803110D01*
X160479845Y-94033000D01*
X161673000Y-94033000D01*
X161673000Y-94013000D01*
X161927000Y-94013000D01*
X161927000Y-94033000D01*
X163120155Y-94033000D01*
X163241476Y-93803110D01*
X163196825Y-93655901D01*
X163071641Y-93393080D01*
X162897588Y-93159731D01*
X162681355Y-92964822D01*
X162564466Y-92895195D01*
X162746632Y-92773475D01*
X162953475Y-92566632D01*
X163115990Y-92323411D01*
X163227932Y-92053158D01*
X163285000Y-91766260D01*
X163285000Y-91473740D01*
X163227932Y-91186842D01*
X163115990Y-90916589D01*
X162953475Y-90673368D01*
X162746632Y-90466525D01*
X162572240Y-90350000D01*
X162746632Y-90233475D01*
X162953475Y-90026632D01*
X163039383Y-89898061D01*
X166465000Y-89898061D01*
X166465000Y-90101939D01*
X166504774Y-90301898D01*
X166582795Y-90490256D01*
X166696063Y-90659774D01*
X166840226Y-90803937D01*
X167009744Y-90917205D01*
X167198102Y-90995226D01*
X167398061Y-91035000D01*
X167601939Y-91035000D01*
X167801898Y-90995226D01*
X167990256Y-90917205D01*
X168159774Y-90803937D01*
X168303937Y-90659774D01*
X168417205Y-90490256D01*
X168495226Y-90301898D01*
X168535000Y-90101939D01*
X168535000Y-89898061D01*
X168495226Y-89698102D01*
X168417205Y-89509744D01*
X168303937Y-89340226D01*
X168159774Y-89196063D01*
X167990256Y-89082795D01*
X167801898Y-89004774D01*
X167601939Y-88965000D01*
X167398061Y-88965000D01*
X167198102Y-89004774D01*
X167009744Y-89082795D01*
X166840226Y-89196063D01*
X166696063Y-89340226D01*
X166582795Y-89509744D01*
X166504774Y-89698102D01*
X166465000Y-89898061D01*
X163039383Y-89898061D01*
X163115990Y-89783411D01*
X163227932Y-89513158D01*
X163285000Y-89226260D01*
X163285000Y-88933740D01*
X163227932Y-88646842D01*
X163115990Y-88376589D01*
X162953475Y-88133368D01*
X162746632Y-87926525D01*
X162572240Y-87810000D01*
X162746632Y-87693475D01*
X162953475Y-87486632D01*
X163115990Y-87243411D01*
X163227932Y-86973158D01*
X163285000Y-86686260D01*
X163285000Y-86398061D01*
X167965000Y-86398061D01*
X167965000Y-86601939D01*
X168004774Y-86801898D01*
X168082795Y-86990256D01*
X168196063Y-87159774D01*
X168340226Y-87303937D01*
X168509744Y-87417205D01*
X168698102Y-87495226D01*
X168898061Y-87535000D01*
X169101939Y-87535000D01*
X169301898Y-87495226D01*
X169490256Y-87417205D01*
X169659774Y-87303937D01*
X169803937Y-87159774D01*
X169917205Y-86990256D01*
X169995226Y-86801898D01*
X170035000Y-86601939D01*
X170035000Y-86398061D01*
X169995226Y-86198102D01*
X169917205Y-86009744D01*
X169803937Y-85840226D01*
X169659774Y-85696063D01*
X169490256Y-85582795D01*
X169301898Y-85504774D01*
X169101939Y-85465000D01*
X168898061Y-85465000D01*
X168698102Y-85504774D01*
X168509744Y-85582795D01*
X168340226Y-85696063D01*
X168196063Y-85840226D01*
X168082795Y-86009744D01*
X168004774Y-86198102D01*
X167965000Y-86398061D01*
X163285000Y-86398061D01*
X163285000Y-86393740D01*
X163227932Y-86106842D01*
X163115990Y-85836589D01*
X162953475Y-85593368D01*
X162746632Y-85386525D01*
X162572240Y-85270000D01*
X162746632Y-85153475D01*
X162953475Y-84946632D01*
X163115990Y-84703411D01*
X163227932Y-84433158D01*
X163285000Y-84146260D01*
X163285000Y-83898061D01*
X169465000Y-83898061D01*
X169465000Y-84101939D01*
X169504774Y-84301898D01*
X169582795Y-84490256D01*
X169696063Y-84659774D01*
X169840226Y-84803937D01*
X170009744Y-84917205D01*
X170198102Y-84995226D01*
X170398061Y-85035000D01*
X170601939Y-85035000D01*
X170801898Y-84995226D01*
X170990256Y-84917205D01*
X171159774Y-84803937D01*
X171303937Y-84659774D01*
X171417205Y-84490256D01*
X171495226Y-84301898D01*
X171535000Y-84101939D01*
X171535000Y-83898061D01*
X171495226Y-83698102D01*
X171417205Y-83509744D01*
X171303937Y-83340226D01*
X171159774Y-83196063D01*
X170990256Y-83082795D01*
X170801898Y-83004774D01*
X170601939Y-82965000D01*
X170398061Y-82965000D01*
X170198102Y-83004774D01*
X170009744Y-83082795D01*
X169840226Y-83196063D01*
X169696063Y-83340226D01*
X169582795Y-83509744D01*
X169504774Y-83698102D01*
X169465000Y-83898061D01*
X163285000Y-83898061D01*
X163285000Y-83853740D01*
X163227932Y-83566842D01*
X163115990Y-83296589D01*
X162953475Y-83053368D01*
X162746632Y-82846525D01*
X162572240Y-82730000D01*
X162746632Y-82613475D01*
X162953475Y-82406632D01*
X163115990Y-82163411D01*
X163227932Y-81893158D01*
X163285000Y-81606260D01*
X163285000Y-81313740D01*
X163227932Y-81026842D01*
X163115990Y-80756589D01*
X162953475Y-80513368D01*
X162838168Y-80398061D01*
X170465000Y-80398061D01*
X170465000Y-80601939D01*
X170504774Y-80801898D01*
X170582795Y-80990256D01*
X170696063Y-81159774D01*
X170840226Y-81303937D01*
X171009744Y-81417205D01*
X171198102Y-81495226D01*
X171398061Y-81535000D01*
X171601939Y-81535000D01*
X171801898Y-81495226D01*
X171990256Y-81417205D01*
X172018907Y-81398061D01*
X173965000Y-81398061D01*
X173965000Y-81601939D01*
X174004774Y-81801898D01*
X174082795Y-81990256D01*
X174196063Y-82159774D01*
X174340226Y-82303937D01*
X174509744Y-82417205D01*
X174698102Y-82495226D01*
X174898061Y-82535000D01*
X175101939Y-82535000D01*
X175146556Y-82526125D01*
X175009744Y-82582795D01*
X174840226Y-82696063D01*
X174696063Y-82840226D01*
X174582795Y-83009744D01*
X174504774Y-83198102D01*
X174465000Y-83398061D01*
X174465000Y-83601939D01*
X174504774Y-83801898D01*
X174582795Y-83990256D01*
X174696063Y-84159774D01*
X174840226Y-84303937D01*
X175009744Y-84417205D01*
X175198102Y-84495226D01*
X175398061Y-84535000D01*
X175601939Y-84535000D01*
X175801898Y-84495226D01*
X175990256Y-84417205D01*
X176159774Y-84303937D01*
X176303937Y-84159774D01*
X176417205Y-83990256D01*
X176495226Y-83801898D01*
X176535000Y-83601939D01*
X176535000Y-83398061D01*
X176495226Y-83198102D01*
X176417205Y-83009744D01*
X176303937Y-82840226D01*
X176159774Y-82696063D01*
X175990256Y-82582795D01*
X175801898Y-82504774D01*
X175601939Y-82465000D01*
X175398061Y-82465000D01*
X175353444Y-82473875D01*
X175490256Y-82417205D01*
X175659774Y-82303937D01*
X175803937Y-82159774D01*
X175917205Y-81990256D01*
X175995226Y-81801898D01*
X176035000Y-81601939D01*
X176035000Y-81398061D01*
X175995226Y-81198102D01*
X175917205Y-81009744D01*
X175842582Y-80898061D01*
X184965000Y-80898061D01*
X184965000Y-81101939D01*
X185004774Y-81301898D01*
X185082795Y-81490256D01*
X185196063Y-81659774D01*
X185340226Y-81803937D01*
X185509744Y-81917205D01*
X185698102Y-81995226D01*
X185898061Y-82035000D01*
X186101939Y-82035000D01*
X186301898Y-81995226D01*
X186490256Y-81917205D01*
X186659774Y-81803937D01*
X186803937Y-81659774D01*
X186917205Y-81490256D01*
X186995226Y-81301898D01*
X187035000Y-81101939D01*
X187035000Y-80898061D01*
X186995226Y-80698102D01*
X186917205Y-80509744D01*
X186803937Y-80340226D01*
X186659774Y-80196063D01*
X186490256Y-80082795D01*
X186301898Y-80004774D01*
X186101939Y-79965000D01*
X185898061Y-79965000D01*
X185698102Y-80004774D01*
X185509744Y-80082795D01*
X185340226Y-80196063D01*
X185196063Y-80340226D01*
X185082795Y-80509744D01*
X185004774Y-80698102D01*
X184965000Y-80898061D01*
X175842582Y-80898061D01*
X175803937Y-80840226D01*
X175659774Y-80696063D01*
X175490256Y-80582795D01*
X175301898Y-80504774D01*
X175101939Y-80465000D01*
X174898061Y-80465000D01*
X174698102Y-80504774D01*
X174509744Y-80582795D01*
X174340226Y-80696063D01*
X174196063Y-80840226D01*
X174082795Y-81009744D01*
X174004774Y-81198102D01*
X173965000Y-81398061D01*
X172018907Y-81398061D01*
X172159774Y-81303937D01*
X172303937Y-81159774D01*
X172417205Y-80990256D01*
X172495226Y-80801898D01*
X172535000Y-80601939D01*
X172535000Y-80398061D01*
X172495226Y-80198102D01*
X172417205Y-80009744D01*
X172342582Y-79898061D01*
X188965000Y-79898061D01*
X188965000Y-80101939D01*
X189004774Y-80301898D01*
X189082795Y-80490256D01*
X189196063Y-80659774D01*
X189340226Y-80803937D01*
X189509744Y-80917205D01*
X189698102Y-80995226D01*
X189898061Y-81035000D01*
X190101939Y-81035000D01*
X190301898Y-80995226D01*
X190490256Y-80917205D01*
X190659774Y-80803937D01*
X190803937Y-80659774D01*
X190917205Y-80490256D01*
X190995226Y-80301898D01*
X191035000Y-80101939D01*
X191035000Y-79898061D01*
X190995226Y-79698102D01*
X190964741Y-79624505D01*
X191126525Y-79866632D01*
X191333368Y-80073475D01*
X191507760Y-80190000D01*
X191333368Y-80306525D01*
X191126525Y-80513368D01*
X190964010Y-80756589D01*
X190852068Y-81026842D01*
X190795000Y-81313740D01*
X190795000Y-81606260D01*
X190852068Y-81893158D01*
X190964010Y-82163411D01*
X191126525Y-82406632D01*
X191333368Y-82613475D01*
X191507760Y-82730000D01*
X191333368Y-82846525D01*
X191126525Y-83053368D01*
X190964010Y-83296589D01*
X190852068Y-83566842D01*
X190795000Y-83853740D01*
X190795000Y-84146260D01*
X190852068Y-84433158D01*
X190964010Y-84703411D01*
X191126525Y-84946632D01*
X191333368Y-85153475D01*
X191507760Y-85270000D01*
X191333368Y-85386525D01*
X191126525Y-85593368D01*
X190964010Y-85836589D01*
X190852068Y-86106842D01*
X190795000Y-86393740D01*
X190795000Y-86686260D01*
X190852068Y-86973158D01*
X190964010Y-87243411D01*
X191126525Y-87486632D01*
X191333368Y-87693475D01*
X191507760Y-87810000D01*
X191333368Y-87926525D01*
X191126525Y-88133368D01*
X190964010Y-88376589D01*
X190852068Y-88646842D01*
X190795000Y-88933740D01*
X190795000Y-89226260D01*
X190852068Y-89513158D01*
X190964010Y-89783411D01*
X191126525Y-90026632D01*
X191333368Y-90233475D01*
X191507760Y-90350000D01*
X191333368Y-90466525D01*
X191126525Y-90673368D01*
X190964010Y-90916589D01*
X190852068Y-91186842D01*
X190795000Y-91473740D01*
X190795000Y-91766260D01*
X190852068Y-92053158D01*
X190964010Y-92323411D01*
X191126525Y-92566632D01*
X191333368Y-92773475D01*
X191507760Y-92890000D01*
X191333368Y-93006525D01*
X191126525Y-93213368D01*
X190964010Y-93456589D01*
X190852068Y-93726842D01*
X190795000Y-94013740D01*
X190795000Y-94306260D01*
X190852068Y-94593158D01*
X190964010Y-94863411D01*
X191126525Y-95106632D01*
X191258380Y-95238487D01*
X191185820Y-95260498D01*
X191075506Y-95319463D01*
X190978815Y-95398815D01*
X190899463Y-95495506D01*
X190840498Y-95605820D01*
X190804188Y-95725518D01*
X190791928Y-95850000D01*
X190791928Y-97550000D01*
X190804188Y-97674482D01*
X190840498Y-97794180D01*
X190899463Y-97904494D01*
X190978815Y-98001185D01*
X191075506Y-98080537D01*
X191185820Y-98139502D01*
X191305518Y-98175812D01*
X191430000Y-98188072D01*
X191652185Y-98188072D01*
X191640226Y-98196063D01*
X191496063Y-98340226D01*
X191382795Y-98509744D01*
X191304774Y-98698102D01*
X191265000Y-98898061D01*
X191265000Y-99101939D01*
X191304774Y-99301898D01*
X191382795Y-99490256D01*
X191496063Y-99659774D01*
X191640226Y-99803937D01*
X191809744Y-99917205D01*
X191998102Y-99995226D01*
X192198061Y-100035000D01*
X192401939Y-100035000D01*
X192601898Y-99995226D01*
X192790256Y-99917205D01*
X192959774Y-99803937D01*
X193103937Y-99659774D01*
X193217205Y-99490256D01*
X193295226Y-99301898D01*
X193335000Y-99101939D01*
X193335000Y-98898061D01*
X193295226Y-98698102D01*
X193217205Y-98509744D01*
X193103937Y-98340226D01*
X192959774Y-98196063D01*
X192947815Y-98188072D01*
X193130000Y-98188072D01*
X193254482Y-98175812D01*
X193374180Y-98139502D01*
X193484494Y-98080537D01*
X193581185Y-98001185D01*
X193660537Y-97904494D01*
X193719502Y-97794180D01*
X193755812Y-97674482D01*
X193768072Y-97550000D01*
X193768072Y-95850000D01*
X193755812Y-95725518D01*
X193719502Y-95605820D01*
X193660537Y-95495506D01*
X193581185Y-95398815D01*
X193484494Y-95319463D01*
X193374180Y-95260498D01*
X193301620Y-95238487D01*
X193433475Y-95106632D01*
X193595990Y-94863411D01*
X193707932Y-94593158D01*
X193765000Y-94306260D01*
X193765000Y-94013740D01*
X193707932Y-93726842D01*
X193595990Y-93456589D01*
X193433475Y-93213368D01*
X193226632Y-93006525D01*
X193052240Y-92890000D01*
X193226632Y-92773475D01*
X193433475Y-92566632D01*
X193595990Y-92323411D01*
X193707932Y-92053158D01*
X193765000Y-91766260D01*
X193765000Y-91473740D01*
X193707932Y-91186842D01*
X193595990Y-90916589D01*
X193433475Y-90673368D01*
X193226632Y-90466525D01*
X193052240Y-90350000D01*
X193226632Y-90233475D01*
X193433475Y-90026632D01*
X193595990Y-89783411D01*
X193707932Y-89513158D01*
X193765000Y-89226260D01*
X193765000Y-88933740D01*
X193707932Y-88646842D01*
X193595990Y-88376589D01*
X193433475Y-88133368D01*
X193226632Y-87926525D01*
X193052240Y-87810000D01*
X193226632Y-87693475D01*
X193433475Y-87486632D01*
X193595990Y-87243411D01*
X193707932Y-86973158D01*
X193765000Y-86686260D01*
X193765000Y-86393740D01*
X193707932Y-86106842D01*
X193595990Y-85836589D01*
X193433475Y-85593368D01*
X193226632Y-85386525D01*
X193052240Y-85270000D01*
X193226632Y-85153475D01*
X193433475Y-84946632D01*
X193595990Y-84703411D01*
X193707932Y-84433158D01*
X193765000Y-84146260D01*
X193765000Y-83853740D01*
X193707932Y-83566842D01*
X193595990Y-83296589D01*
X193433475Y-83053368D01*
X193226632Y-82846525D01*
X193052240Y-82730000D01*
X193226632Y-82613475D01*
X193433475Y-82406632D01*
X193595990Y-82163411D01*
X193707932Y-81893158D01*
X193765000Y-81606260D01*
X193765000Y-81313740D01*
X193707932Y-81026842D01*
X193595990Y-80756589D01*
X193433475Y-80513368D01*
X193226632Y-80306525D01*
X193052240Y-80190000D01*
X193226632Y-80073475D01*
X193433475Y-79866632D01*
X193595990Y-79623411D01*
X193707932Y-79353158D01*
X193765000Y-79066260D01*
X193765000Y-78773740D01*
X193707932Y-78486842D01*
X193595990Y-78216589D01*
X193433475Y-77973368D01*
X193226632Y-77766525D01*
X193052240Y-77650000D01*
X193226632Y-77533475D01*
X193433475Y-77326632D01*
X193595990Y-77083411D01*
X193707932Y-76813158D01*
X193765000Y-76526260D01*
X193765000Y-76233740D01*
X193707932Y-75946842D01*
X193595990Y-75676589D01*
X193433475Y-75433368D01*
X193226632Y-75226525D01*
X193052240Y-75110000D01*
X193226632Y-74993475D01*
X193433475Y-74786632D01*
X193595990Y-74543411D01*
X193707932Y-74273158D01*
X193765000Y-73986260D01*
X193765000Y-73693740D01*
X193707932Y-73406842D01*
X193595990Y-73136589D01*
X193433475Y-72893368D01*
X193226632Y-72686525D01*
X192983411Y-72524010D01*
X192713158Y-72412068D01*
X192426260Y-72355000D01*
X192133740Y-72355000D01*
X191846842Y-72412068D01*
X191576589Y-72524010D01*
X191333368Y-72686525D01*
X191126525Y-72893368D01*
X190964010Y-73136589D01*
X190852068Y-73406842D01*
X190795000Y-73693740D01*
X190795000Y-73986260D01*
X190852068Y-74273158D01*
X190964010Y-74543411D01*
X191126525Y-74786632D01*
X191333368Y-74993475D01*
X191507760Y-75110000D01*
X191333368Y-75226525D01*
X191126525Y-75433368D01*
X190964010Y-75676589D01*
X190852068Y-75946842D01*
X190795000Y-76233740D01*
X190795000Y-76526260D01*
X190852068Y-76813158D01*
X190964010Y-77083411D01*
X191126525Y-77326632D01*
X191333368Y-77533475D01*
X191507760Y-77650000D01*
X191333368Y-77766525D01*
X191126525Y-77973368D01*
X190964010Y-78216589D01*
X190852068Y-78486842D01*
X190795000Y-78773740D01*
X190795000Y-79066260D01*
X190852068Y-79353158D01*
X190916476Y-79508652D01*
X190803937Y-79340226D01*
X190659774Y-79196063D01*
X190490256Y-79082795D01*
X190301898Y-79004774D01*
X190101939Y-78965000D01*
X189898061Y-78965000D01*
X189698102Y-79004774D01*
X189509744Y-79082795D01*
X189340226Y-79196063D01*
X189196063Y-79340226D01*
X189082795Y-79509744D01*
X189004774Y-79698102D01*
X188965000Y-79898061D01*
X172342582Y-79898061D01*
X172303937Y-79840226D01*
X172159774Y-79696063D01*
X171990256Y-79582795D01*
X171801898Y-79504774D01*
X171601939Y-79465000D01*
X171398061Y-79465000D01*
X171198102Y-79504774D01*
X171009744Y-79582795D01*
X170840226Y-79696063D01*
X170696063Y-79840226D01*
X170582795Y-80009744D01*
X170504774Y-80198102D01*
X170465000Y-80398061D01*
X162838168Y-80398061D01*
X162746632Y-80306525D01*
X162572240Y-80190000D01*
X162746632Y-80073475D01*
X162953475Y-79866632D01*
X163115990Y-79623411D01*
X163227932Y-79353158D01*
X163285000Y-79066260D01*
X163285000Y-78773740D01*
X163227932Y-78486842D01*
X163115990Y-78216589D01*
X162953475Y-77973368D01*
X162878168Y-77898061D01*
X166605000Y-77898061D01*
X166605000Y-78101939D01*
X166644774Y-78301898D01*
X166722795Y-78490256D01*
X166836063Y-78659774D01*
X166980226Y-78803937D01*
X167149744Y-78917205D01*
X167338102Y-78995226D01*
X167538061Y-79035000D01*
X167741939Y-79035000D01*
X167941898Y-78995226D01*
X168130256Y-78917205D01*
X168299774Y-78803937D01*
X168443937Y-78659774D01*
X168557205Y-78490256D01*
X168635226Y-78301898D01*
X168675000Y-78101939D01*
X168675000Y-77898061D01*
X168635226Y-77698102D01*
X168557205Y-77509744D01*
X168482582Y-77398061D01*
X184465000Y-77398061D01*
X184465000Y-77601939D01*
X184504774Y-77801898D01*
X184582795Y-77990256D01*
X184696063Y-78159774D01*
X184840226Y-78303937D01*
X185009744Y-78417205D01*
X185198102Y-78495226D01*
X185398061Y-78535000D01*
X185601939Y-78535000D01*
X185801898Y-78495226D01*
X185990256Y-78417205D01*
X186159774Y-78303937D01*
X186303937Y-78159774D01*
X186417205Y-77990256D01*
X186495226Y-77801898D01*
X186535000Y-77601939D01*
X186535000Y-77398061D01*
X186495226Y-77198102D01*
X186417205Y-77009744D01*
X186303937Y-76840226D01*
X186159774Y-76696063D01*
X185990256Y-76582795D01*
X185801898Y-76504774D01*
X185601939Y-76465000D01*
X185398061Y-76465000D01*
X185198102Y-76504774D01*
X185009744Y-76582795D01*
X184840226Y-76696063D01*
X184696063Y-76840226D01*
X184582795Y-77009744D01*
X184504774Y-77198102D01*
X184465000Y-77398061D01*
X168482582Y-77398061D01*
X168443937Y-77340226D01*
X168299774Y-77196063D01*
X168130256Y-77082795D01*
X167941898Y-77004774D01*
X167741939Y-76965000D01*
X167538061Y-76965000D01*
X167338102Y-77004774D01*
X167149744Y-77082795D01*
X166980226Y-77196063D01*
X166836063Y-77340226D01*
X166722795Y-77509744D01*
X166644774Y-77698102D01*
X166605000Y-77898061D01*
X162878168Y-77898061D01*
X162746632Y-77766525D01*
X162572240Y-77650000D01*
X162746632Y-77533475D01*
X162953475Y-77326632D01*
X163115990Y-77083411D01*
X163227932Y-76813158D01*
X163285000Y-76526260D01*
X163285000Y-76233740D01*
X163227932Y-75946842D01*
X163115990Y-75676589D01*
X162953475Y-75433368D01*
X162746632Y-75226525D01*
X162572240Y-75110000D01*
X162746632Y-74993475D01*
X162953475Y-74786632D01*
X163115990Y-74543411D01*
X163227932Y-74273158D01*
X163285000Y-73986260D01*
X163285000Y-73898061D01*
X171865000Y-73898061D01*
X171865000Y-74101939D01*
X171904774Y-74301898D01*
X171982795Y-74490256D01*
X172096063Y-74659774D01*
X172240226Y-74803937D01*
X172409744Y-74917205D01*
X172598102Y-74995226D01*
X172798061Y-75035000D01*
X173001939Y-75035000D01*
X173201898Y-74995226D01*
X173390256Y-74917205D01*
X173559774Y-74803937D01*
X173703937Y-74659774D01*
X173817205Y-74490256D01*
X173895226Y-74301898D01*
X173935000Y-74101939D01*
X173935000Y-73898061D01*
X173895226Y-73698102D01*
X173817205Y-73509744D01*
X173703937Y-73340226D01*
X173559774Y-73196063D01*
X173390256Y-73082795D01*
X173201898Y-73004774D01*
X173001939Y-72965000D01*
X172798061Y-72965000D01*
X172598102Y-73004774D01*
X172409744Y-73082795D01*
X172240226Y-73196063D01*
X172096063Y-73340226D01*
X171982795Y-73509744D01*
X171904774Y-73698102D01*
X171865000Y-73898061D01*
X163285000Y-73898061D01*
X163285000Y-73693740D01*
X163227932Y-73406842D01*
X163115990Y-73136589D01*
X162953475Y-72893368D01*
X162746632Y-72686525D01*
X162503411Y-72524010D01*
X162233158Y-72412068D01*
X161946260Y-72355000D01*
X161653740Y-72355000D01*
X161366842Y-72412068D01*
X161096589Y-72524010D01*
X160853368Y-72686525D01*
X160646525Y-72893368D01*
X160484010Y-73136589D01*
X160372068Y-73406842D01*
X160315000Y-73693740D01*
X159660000Y-73693740D01*
X159660000Y-71898061D01*
X165265000Y-71898061D01*
X165265000Y-72101939D01*
X165304774Y-72301898D01*
X165382795Y-72490256D01*
X165496063Y-72659774D01*
X165640226Y-72803937D01*
X165809744Y-72917205D01*
X165998102Y-72995226D01*
X166198061Y-73035000D01*
X166401939Y-73035000D01*
X166601898Y-72995226D01*
X166790256Y-72917205D01*
X166959774Y-72803937D01*
X167103937Y-72659774D01*
X167217205Y-72490256D01*
X167295226Y-72301898D01*
X167295989Y-72298061D01*
X182265000Y-72298061D01*
X182265000Y-72501939D01*
X182304774Y-72701898D01*
X182382795Y-72890256D01*
X182496063Y-73059774D01*
X182640226Y-73203937D01*
X182809744Y-73317205D01*
X182998102Y-73395226D01*
X183198061Y-73435000D01*
X183401939Y-73435000D01*
X183601898Y-73395226D01*
X183790256Y-73317205D01*
X183959774Y-73203937D01*
X184103937Y-73059774D01*
X184217205Y-72890256D01*
X184295226Y-72701898D01*
X184335000Y-72501939D01*
X184335000Y-72298061D01*
X184295226Y-72098102D01*
X184217205Y-71909744D01*
X184103937Y-71740226D01*
X183959774Y-71596063D01*
X183790256Y-71482795D01*
X183601898Y-71404774D01*
X183401939Y-71365000D01*
X183198061Y-71365000D01*
X182998102Y-71404774D01*
X182809744Y-71482795D01*
X182640226Y-71596063D01*
X182496063Y-71740226D01*
X182382795Y-71909744D01*
X182304774Y-72098102D01*
X182265000Y-72298061D01*
X167295989Y-72298061D01*
X167335000Y-72101939D01*
X167335000Y-71898061D01*
X167295226Y-71698102D01*
X167217205Y-71509744D01*
X167103937Y-71340226D01*
X166959774Y-71196063D01*
X166790256Y-71082795D01*
X166601898Y-71004774D01*
X166401939Y-70965000D01*
X166198061Y-70965000D01*
X165998102Y-71004774D01*
X165809744Y-71082795D01*
X165640226Y-71196063D01*
X165496063Y-71340226D01*
X165382795Y-71509744D01*
X165304774Y-71698102D01*
X165265000Y-71898061D01*
X159660000Y-71898061D01*
X159660000Y-70898061D01*
X191465000Y-70898061D01*
X191465000Y-71101939D01*
X191504774Y-71301898D01*
X191582795Y-71490256D01*
X191696063Y-71659774D01*
X191840226Y-71803937D01*
X192009744Y-71917205D01*
X192198102Y-71995226D01*
X192398061Y-72035000D01*
X192601939Y-72035000D01*
X192801898Y-71995226D01*
X192990256Y-71917205D01*
X193159774Y-71803937D01*
X193303937Y-71659774D01*
X193417205Y-71490256D01*
X193495226Y-71301898D01*
X193535000Y-71101939D01*
X193535000Y-70898061D01*
X193495226Y-70698102D01*
X193417205Y-70509744D01*
X193303937Y-70340226D01*
X193159774Y-70196063D01*
X192990256Y-70082795D01*
X192801898Y-70004774D01*
X192601939Y-69965000D01*
X192398061Y-69965000D01*
X192198102Y-70004774D01*
X192009744Y-70082795D01*
X191840226Y-70196063D01*
X191696063Y-70340226D01*
X191582795Y-70509744D01*
X191504774Y-70698102D01*
X191465000Y-70898061D01*
X159660000Y-70898061D01*
X159660000Y-67398061D01*
X173965000Y-67398061D01*
X173965000Y-67601939D01*
X174004774Y-67801898D01*
X174082795Y-67990256D01*
X174196063Y-68159774D01*
X174340226Y-68303937D01*
X174509744Y-68417205D01*
X174698102Y-68495226D01*
X174898061Y-68535000D01*
X175101939Y-68535000D01*
X175301898Y-68495226D01*
X175490256Y-68417205D01*
X175659774Y-68303937D01*
X175803937Y-68159774D01*
X175917205Y-67990256D01*
X175995226Y-67801898D01*
X176035000Y-67601939D01*
X176035000Y-67398061D01*
X175995226Y-67198102D01*
X175917205Y-67009744D01*
X175803937Y-66840226D01*
X175659774Y-66696063D01*
X175490256Y-66582795D01*
X175301898Y-66504774D01*
X175101939Y-66465000D01*
X174898061Y-66465000D01*
X174698102Y-66504774D01*
X174509744Y-66582795D01*
X174340226Y-66696063D01*
X174196063Y-66840226D01*
X174082795Y-67009744D01*
X174004774Y-67198102D01*
X173965000Y-67398061D01*
X159660000Y-67398061D01*
X159660000Y-63398061D01*
X165965000Y-63398061D01*
X165965000Y-63601939D01*
X166004774Y-63801898D01*
X166082795Y-63990256D01*
X166196063Y-64159774D01*
X166340226Y-64303937D01*
X166509744Y-64417205D01*
X166698102Y-64495226D01*
X166898061Y-64535000D01*
X167101939Y-64535000D01*
X167301898Y-64495226D01*
X167490256Y-64417205D01*
X167659774Y-64303937D01*
X167803937Y-64159774D01*
X167917205Y-63990256D01*
X167995226Y-63801898D01*
X168030056Y-63626793D01*
X173420000Y-63626793D01*
X173420000Y-64143206D01*
X173437147Y-64317299D01*
X173504906Y-64540673D01*
X173614942Y-64746535D01*
X173763025Y-64926975D01*
X173943464Y-65075058D01*
X174149326Y-65185094D01*
X174372700Y-65252853D01*
X174605000Y-65275733D01*
X174837299Y-65252853D01*
X175060673Y-65185094D01*
X175266535Y-65075058D01*
X175446975Y-64926975D01*
X175595058Y-64746536D01*
X175705094Y-64540674D01*
X175772853Y-64317300D01*
X175790000Y-64143207D01*
X175790000Y-63626794D01*
X175790000Y-63626793D01*
X178260000Y-63626793D01*
X178260000Y-64143206D01*
X178277147Y-64317299D01*
X178344906Y-64540673D01*
X178454942Y-64746535D01*
X178603025Y-64926975D01*
X178783464Y-65075058D01*
X178915611Y-65145692D01*
X178840226Y-65196063D01*
X178696063Y-65340226D01*
X178582795Y-65509744D01*
X178504774Y-65698102D01*
X178465000Y-65898061D01*
X178465000Y-66101939D01*
X178504774Y-66301898D01*
X178582795Y-66490256D01*
X178696063Y-66659774D01*
X178840226Y-66803937D01*
X179009744Y-66917205D01*
X179198102Y-66995226D01*
X179398061Y-67035000D01*
X179601939Y-67035000D01*
X179801898Y-66995226D01*
X179990256Y-66917205D01*
X180159774Y-66803937D01*
X180303937Y-66659774D01*
X180417205Y-66490256D01*
X180495226Y-66301898D01*
X180535000Y-66101939D01*
X180535000Y-65898061D01*
X180495226Y-65698102D01*
X180417205Y-65509744D01*
X180303937Y-65340226D01*
X180159774Y-65196063D01*
X180035501Y-65113027D01*
X180106535Y-65075058D01*
X180286975Y-64926975D01*
X180435058Y-64746536D01*
X180545094Y-64540674D01*
X180612853Y-64317300D01*
X180630000Y-64143207D01*
X180630000Y-63626794D01*
X180612853Y-63452701D01*
X180545094Y-63229327D01*
X180435058Y-63023464D01*
X180286975Y-62843025D01*
X180106536Y-62694942D01*
X179900674Y-62584906D01*
X179677300Y-62517147D01*
X179445000Y-62494267D01*
X179212701Y-62517147D01*
X178989327Y-62584906D01*
X178783465Y-62694942D01*
X178603026Y-62843025D01*
X178454943Y-63023464D01*
X178344906Y-63229326D01*
X178277147Y-63452700D01*
X178260000Y-63626793D01*
X175790000Y-63626793D01*
X175772853Y-63452701D01*
X175705094Y-63229327D01*
X175595058Y-63023464D01*
X175446975Y-62843025D01*
X175266536Y-62694942D01*
X175060674Y-62584906D01*
X174837300Y-62517147D01*
X174605000Y-62494267D01*
X174372701Y-62517147D01*
X174149327Y-62584906D01*
X173943465Y-62694942D01*
X173763026Y-62843025D01*
X173614943Y-63023464D01*
X173504906Y-63229326D01*
X173437147Y-63452700D01*
X173420000Y-63626793D01*
X168030056Y-63626793D01*
X168035000Y-63601939D01*
X168035000Y-63398061D01*
X167995226Y-63198102D01*
X167917205Y-63009744D01*
X167803937Y-62840226D01*
X167659774Y-62696063D01*
X167490256Y-62582795D01*
X167301898Y-62504774D01*
X167101939Y-62465000D01*
X166898061Y-62465000D01*
X166698102Y-62504774D01*
X166509744Y-62582795D01*
X166340226Y-62696063D01*
X166196063Y-62840226D01*
X166082795Y-63009744D01*
X166004774Y-63198102D01*
X165965000Y-63398061D01*
X159660000Y-63398061D01*
X159660000Y-60898061D01*
X162465000Y-60898061D01*
X162465000Y-61101939D01*
X162504774Y-61301898D01*
X162582795Y-61490256D01*
X162696063Y-61659774D01*
X162840226Y-61803937D01*
X163009744Y-61917205D01*
X163198102Y-61995226D01*
X163398061Y-62035000D01*
X163601939Y-62035000D01*
X163801898Y-61995226D01*
X163990256Y-61917205D01*
X164159774Y-61803937D01*
X164303937Y-61659774D01*
X164417205Y-61490256D01*
X164495226Y-61301898D01*
X164535000Y-61101939D01*
X164535000Y-60898061D01*
X164495226Y-60698102D01*
X164417205Y-60509744D01*
X164303937Y-60340226D01*
X164159774Y-60196063D01*
X163990256Y-60082795D01*
X163801898Y-60004774D01*
X163601939Y-59965000D01*
X163398061Y-59965000D01*
X163198102Y-60004774D01*
X163009744Y-60082795D01*
X162840226Y-60196063D01*
X162696063Y-60340226D01*
X162582795Y-60509744D01*
X162504774Y-60698102D01*
X162465000Y-60898061D01*
X159660000Y-60898061D01*
X159660000Y-60032279D01*
X159669580Y-59934576D01*
X159688580Y-59871644D01*
X159719445Y-59813595D01*
X159760989Y-59762657D01*
X159811644Y-59720752D01*
X159869471Y-59689485D01*
X159932272Y-59670044D01*
X160027835Y-59660000D01*
X173509465Y-59660000D01*
X173364209Y-59779208D01*
G37*
G04 #@! TD.AperFunction*
M02*
