%TF.GenerationSoftware,KiCad,Pcbnew,(5.1.9)-1*%
%TF.CreationDate,2021-02-25T22:56:50-07:00*%
%TF.ProjectId,Avionics_Computer,4176696f-6e69-4637-935f-436f6d707574,rev?*%
%TF.SameCoordinates,Original*%
%TF.FileFunction,Copper,L2,Bot*%
%TF.FilePolarity,Positive*%
%FSLAX46Y46*%
G04 Gerber Fmt 4.6, Leading zero omitted, Abs format (unit mm)*
G04 Created by KiCad (PCBNEW (5.1.9)-1) date 2021-02-25 22:56:50*
%MOMM*%
%LPD*%
G01*
G04 APERTURE LIST*
%TA.AperFunction,ComponentPad*%
%ADD10C,1.500000*%
%TD*%
%TA.AperFunction,ComponentPad*%
%ADD11C,1.879600*%
%TD*%
%TA.AperFunction,ComponentPad*%
%ADD12O,1.000000X1.000000*%
%TD*%
%TA.AperFunction,ComponentPad*%
%ADD13R,1.000000X1.000000*%
%TD*%
%TA.AperFunction,ViaPad*%
%ADD14C,0.800000*%
%TD*%
%TA.AperFunction,Conductor*%
%ADD15C,0.210000*%
%TD*%
%TA.AperFunction,Conductor*%
%ADD16C,0.300000*%
%TD*%
%TA.AperFunction,Conductor*%
%ADD17C,0.254000*%
%TD*%
%TA.AperFunction,Conductor*%
%ADD18C,0.100000*%
%TD*%
G04 APERTURE END LIST*
D10*
%TO.P,Y1,2*%
%TO.N,PD1-OSC_OUT*%
X142073000Y-90689000D03*
%TO.P,Y1,1*%
%TO.N,PD0-OSC_IN*%
X146973000Y-90689000D03*
%TD*%
%TO.P,R1,2*%
%TO.N,GND*%
%TA.AperFunction,SMDPad,CuDef*%
G36*
G01*
X156612500Y-98450001D02*
X156612500Y-97549999D01*
G75*
G02*
X156862499Y-97300000I249999J0D01*
G01*
X157387501Y-97300000D01*
G75*
G02*
X157637500Y-97549999I0J-249999D01*
G01*
X157637500Y-98450001D01*
G75*
G02*
X157387501Y-98700000I-249999J0D01*
G01*
X156862499Y-98700000D01*
G75*
G02*
X156612500Y-98450001I0J249999D01*
G01*
G37*
%TD.AperFunction*%
%TO.P,R1,1*%
%TO.N,Net-(R1-Pad1)*%
%TA.AperFunction,SMDPad,CuDef*%
G36*
G01*
X154787500Y-98450001D02*
X154787500Y-97549999D01*
G75*
G02*
X155037499Y-97300000I249999J0D01*
G01*
X155562501Y-97300000D01*
G75*
G02*
X155812500Y-97549999I0J-249999D01*
G01*
X155812500Y-98450001D01*
G75*
G02*
X155562501Y-98700000I-249999J0D01*
G01*
X155037499Y-98700000D01*
G75*
G02*
X154787500Y-98450001I0J249999D01*
G01*
G37*
%TD.AperFunction*%
%TD*%
D11*
%TO.P,J5,2*%
%TO.N,VCC*%
X143722000Y-138685000D03*
%TO.P,J5,1*%
%TO.N,GND*%
X146262000Y-138685000D03*
%TD*%
%TO.P,J4,3*%
%TO.N,PC13*%
X181540000Y-65000000D03*
%TO.P,J4,2*%
%TO.N,PC14*%
X179000000Y-65000000D03*
%TO.P,J4,1*%
%TO.N,PC15*%
X176460000Y-65000000D03*
%TD*%
%TO.P,J3,16*%
%TO.N,PB15*%
X182000000Y-83060000D03*
%TO.P,J3,15*%
%TO.N,PB14*%
X182000000Y-85600000D03*
%TO.P,J3,14*%
%TO.N,PB13*%
X182000000Y-88140000D03*
%TO.P,J3,13*%
%TO.N,PB12*%
X182000000Y-90680000D03*
%TO.P,J3,12*%
%TO.N,PB11*%
X182000000Y-93220000D03*
%TO.P,J3,11*%
%TO.N,PB10*%
X182000000Y-95760000D03*
%TO.P,J3,10*%
%TO.N,PB9*%
X182000000Y-98300000D03*
%TO.P,J3,9*%
%TO.N,PB8*%
X182000000Y-100840000D03*
%TO.P,J3,8*%
%TO.N,PB7*%
X182000000Y-103380000D03*
%TO.P,J3,7*%
%TO.N,PB6*%
X182000000Y-105920000D03*
%TO.P,J3,6*%
%TO.N,PB5*%
X182000000Y-108460000D03*
%TO.P,J3,5*%
%TO.N,PB4*%
X182000000Y-111000000D03*
%TO.P,J3,4*%
%TO.N,PB3*%
X182000000Y-113540000D03*
%TO.P,J3,3*%
%TO.N,PB2*%
X182000000Y-116080000D03*
%TO.P,J3,2*%
%TO.N,PB1*%
X182000000Y-118620000D03*
%TO.P,J3,1*%
%TO.N,PB0*%
X182000000Y-121160000D03*
%TD*%
%TO.P,J2,16*%
%TO.N,PA15*%
X108000000Y-120840000D03*
%TO.P,J2,15*%
%TO.N,PA14-SWD_CLK*%
X108000000Y-118300000D03*
%TO.P,J2,14*%
%TO.N,PA13-SWD_IO*%
X108000000Y-115760000D03*
%TO.P,J2,13*%
%TO.N,PA12*%
X108000000Y-113220000D03*
%TO.P,J2,12*%
%TO.N,PA11*%
X108000000Y-110680000D03*
%TO.P,J2,11*%
%TO.N,PA10*%
X108000000Y-108140000D03*
%TO.P,J2,10*%
%TO.N,PA9*%
X108000000Y-105600000D03*
%TO.P,J2,9*%
%TO.N,PA8*%
X108000000Y-103060000D03*
%TO.P,J2,8*%
%TO.N,PA7*%
X108000000Y-100520000D03*
%TO.P,J2,7*%
%TO.N,PA6*%
X108000000Y-97980000D03*
%TO.P,J2,6*%
%TO.N,PA5*%
X108000000Y-95440000D03*
%TO.P,J2,5*%
%TO.N,PA4*%
X108000000Y-92900000D03*
%TO.P,J2,4*%
%TO.N,PA3*%
X108000000Y-90360000D03*
%TO.P,J2,3*%
%TO.N,PA2*%
X108000000Y-87820000D03*
%TO.P,J2,2*%
%TO.N,PA1*%
X108000000Y-85280000D03*
%TO.P,J2,1*%
%TO.N,PA0*%
X108000000Y-82740000D03*
%TD*%
D12*
%TO.P,J1,10*%
%TO.N,RESET*%
X147540000Y-78000000D03*
%TO.P,J1,9*%
%TO.N,GND*%
X147540000Y-79270000D03*
%TO.P,J1,8*%
%TO.N,Net-(J1-Pad8)*%
X146270000Y-78000000D03*
%TO.P,J1,7*%
%TO.N,Net-(J1-Pad7)*%
X146270000Y-79270000D03*
%TO.P,J1,6*%
%TO.N,Net-(J1-Pad6)*%
X145000000Y-78000000D03*
%TO.P,J1,5*%
%TO.N,GND*%
X145000000Y-79270000D03*
%TO.P,J1,4*%
%TO.N,PA14-SWD_CLK*%
X143730000Y-78000000D03*
%TO.P,J1,3*%
%TO.N,GND*%
X143730000Y-79270000D03*
%TO.P,J1,2*%
%TO.N,PA13-SWD_IO*%
X142460000Y-78000000D03*
D13*
%TO.P,J1,1*%
%TO.N,+3V3*%
X142460000Y-79270000D03*
%TD*%
%TO.P,C9,2*%
%TO.N,GND*%
%TA.AperFunction,SMDPad,CuDef*%
G36*
G01*
X143375000Y-103200000D02*
X142425000Y-103200000D01*
G75*
G02*
X142175000Y-102950000I0J250000D01*
G01*
X142175000Y-102450000D01*
G75*
G02*
X142425000Y-102200000I250000J0D01*
G01*
X143375000Y-102200000D01*
G75*
G02*
X143625000Y-102450000I0J-250000D01*
G01*
X143625000Y-102950000D01*
G75*
G02*
X143375000Y-103200000I-250000J0D01*
G01*
G37*
%TD.AperFunction*%
%TO.P,C9,1*%
%TO.N,+3V3*%
%TA.AperFunction,SMDPad,CuDef*%
G36*
G01*
X143375000Y-105100000D02*
X142425000Y-105100000D01*
G75*
G02*
X142175000Y-104850000I0J250000D01*
G01*
X142175000Y-104350000D01*
G75*
G02*
X142425000Y-104100000I250000J0D01*
G01*
X143375000Y-104100000D01*
G75*
G02*
X143625000Y-104350000I0J-250000D01*
G01*
X143625000Y-104850000D01*
G75*
G02*
X143375000Y-105100000I-250000J0D01*
G01*
G37*
%TD.AperFunction*%
%TD*%
%TO.P,C8,2*%
%TO.N,GND*%
%TA.AperFunction,SMDPad,CuDef*%
G36*
G01*
X146925000Y-100350000D02*
X147875000Y-100350000D01*
G75*
G02*
X148125000Y-100600000I0J-250000D01*
G01*
X148125000Y-101100000D01*
G75*
G02*
X147875000Y-101350000I-250000J0D01*
G01*
X146925000Y-101350000D01*
G75*
G02*
X146675000Y-101100000I0J250000D01*
G01*
X146675000Y-100600000D01*
G75*
G02*
X146925000Y-100350000I250000J0D01*
G01*
G37*
%TD.AperFunction*%
%TO.P,C8,1*%
%TO.N,+3V3*%
%TA.AperFunction,SMDPad,CuDef*%
G36*
G01*
X146925000Y-98450000D02*
X147875000Y-98450000D01*
G75*
G02*
X148125000Y-98700000I0J-250000D01*
G01*
X148125000Y-99200000D01*
G75*
G02*
X147875000Y-99450000I-250000J0D01*
G01*
X146925000Y-99450000D01*
G75*
G02*
X146675000Y-99200000I0J250000D01*
G01*
X146675000Y-98700000D01*
G75*
G02*
X146925000Y-98450000I250000J0D01*
G01*
G37*
%TD.AperFunction*%
%TD*%
%TO.P,C7,2*%
%TO.N,GND*%
%TA.AperFunction,SMDPad,CuDef*%
G36*
G01*
X147775000Y-103200000D02*
X146825000Y-103200000D01*
G75*
G02*
X146575000Y-102950000I0J250000D01*
G01*
X146575000Y-102450000D01*
G75*
G02*
X146825000Y-102200000I250000J0D01*
G01*
X147775000Y-102200000D01*
G75*
G02*
X148025000Y-102450000I0J-250000D01*
G01*
X148025000Y-102950000D01*
G75*
G02*
X147775000Y-103200000I-250000J0D01*
G01*
G37*
%TD.AperFunction*%
%TO.P,C7,1*%
%TO.N,+3V3*%
%TA.AperFunction,SMDPad,CuDef*%
G36*
G01*
X147775000Y-105100000D02*
X146825000Y-105100000D01*
G75*
G02*
X146575000Y-104850000I0J250000D01*
G01*
X146575000Y-104350000D01*
G75*
G02*
X146825000Y-104100000I250000J0D01*
G01*
X147775000Y-104100000D01*
G75*
G02*
X148025000Y-104350000I0J-250000D01*
G01*
X148025000Y-104850000D01*
G75*
G02*
X147775000Y-105100000I-250000J0D01*
G01*
G37*
%TD.AperFunction*%
%TD*%
%TO.P,C6,2*%
%TO.N,GND*%
%TA.AperFunction,SMDPad,CuDef*%
G36*
G01*
X142425000Y-100400000D02*
X143375000Y-100400000D01*
G75*
G02*
X143625000Y-100650000I0J-250000D01*
G01*
X143625000Y-101150000D01*
G75*
G02*
X143375000Y-101400000I-250000J0D01*
G01*
X142425000Y-101400000D01*
G75*
G02*
X142175000Y-101150000I0J250000D01*
G01*
X142175000Y-100650000D01*
G75*
G02*
X142425000Y-100400000I250000J0D01*
G01*
G37*
%TD.AperFunction*%
%TO.P,C6,1*%
%TO.N,+3V3*%
%TA.AperFunction,SMDPad,CuDef*%
G36*
G01*
X142425000Y-98500000D02*
X143375000Y-98500000D01*
G75*
G02*
X143625000Y-98750000I0J-250000D01*
G01*
X143625000Y-99250000D01*
G75*
G02*
X143375000Y-99500000I-250000J0D01*
G01*
X142425000Y-99500000D01*
G75*
G02*
X142175000Y-99250000I0J250000D01*
G01*
X142175000Y-98750000D01*
G75*
G02*
X142425000Y-98500000I250000J0D01*
G01*
G37*
%TD.AperFunction*%
%TD*%
D14*
%TO.N,GND*%
X145600000Y-104600000D03*
X145800000Y-99800000D03*
X144500000Y-103200000D03*
X153700000Y-95900000D03*
X130500000Y-92000000D03*
X153300000Y-105000000D03*
X147800000Y-126000000D03*
X151300000Y-126000000D03*
%TO.N,+3V3*%
X149100000Y-106500000D03*
X143700000Y-95900000D03*
X150900000Y-99200000D03*
X139200000Y-105200000D03*
X151261569Y-107261569D03*
X142500000Y-85500000D03*
X140100000Y-92200000D03*
%TO.N,RESET*%
X142400000Y-92600000D03*
%TO.N,PA14-SWD_CLK*%
X123400000Y-106600000D03*
X123400000Y-110400000D03*
%TO.N,PA13-SWD_IO*%
X147400000Y-109600000D03*
X135400000Y-111000000D03*
X125900000Y-108200000D03*
%TO.N,PB15*%
X142100000Y-114000000D03*
%TO.N,PB14*%
X140500000Y-114000000D03*
%TO.N,PB13*%
X138800000Y-114000000D03*
%TO.N,PB12*%
X137100000Y-114000000D03*
%TO.N,PB11*%
X134000000Y-106800000D03*
X162600000Y-95600000D03*
%TO.N,PB10*%
X132500000Y-106100000D03*
X162600000Y-97500000D03*
%TO.N,PB2*%
X131100000Y-105200000D03*
%TO.N,PB1*%
X129900000Y-104100000D03*
%TO.N,PB0*%
X128500000Y-102900000D03*
%TO.N,PC13*%
X150600000Y-93600000D03*
%TO.N,PC14*%
X148600000Y-93600000D03*
%TO.N,PC15*%
X147300000Y-93400000D03*
%TO.N,Net-(R1-Pad1)*%
X172500000Y-102100000D03*
X172400000Y-99000000D03*
X152600000Y-98300000D03*
%TD*%
D15*
%TO.N,GND*%
X142900000Y-102700000D02*
X142900000Y-100900000D01*
X147300000Y-100950000D02*
X147400000Y-100850000D01*
X147300000Y-102700000D02*
X147300000Y-100950000D01*
X147350000Y-100900000D02*
X147400000Y-100850000D01*
X142900000Y-100900000D02*
X147350000Y-100900000D01*
X145600000Y-104600000D02*
X145600000Y-103400000D01*
X146300000Y-102700000D02*
X147300000Y-102700000D01*
X145600000Y-103400000D02*
X146300000Y-102700000D01*
X146350000Y-99800000D02*
X147400000Y-100850000D01*
X145800000Y-99800000D02*
X146350000Y-99800000D01*
X143400000Y-103200000D02*
X142900000Y-102700000D01*
X144500000Y-103200000D02*
X143400000Y-103200000D01*
X153727500Y-95927500D02*
X153700000Y-95900000D01*
X153700000Y-95900000D02*
X151900000Y-95900000D01*
X150943480Y-95900000D02*
X149643480Y-94600000D01*
X151900000Y-95900000D02*
X150943480Y-95900000D01*
X133100000Y-94600000D02*
X130500000Y-92000000D01*
X149643480Y-94600000D02*
X133100000Y-94600000D01*
X155025000Y-95900000D02*
X153700000Y-95900000D01*
X157125000Y-98000000D02*
X155025000Y-95900000D01*
X153300000Y-105000000D02*
X153300000Y-104200000D01*
X157125000Y-100375000D02*
X157125000Y-98000000D01*
X153300000Y-104200000D02*
X157125000Y-100375000D01*
X147800000Y-126000000D02*
X151300000Y-126000000D01*
%TO.N,+3V3*%
X147300000Y-104700000D02*
X147300000Y-104600000D01*
X149100000Y-106500000D02*
X147300000Y-104700000D01*
X142900000Y-96700000D02*
X142900000Y-99000000D01*
X143700000Y-95900000D02*
X142900000Y-96700000D01*
X147650000Y-99200000D02*
X147400000Y-98950000D01*
X150900000Y-99200000D02*
X147650000Y-99200000D01*
X139800000Y-104600000D02*
X142900000Y-104600000D01*
X139200000Y-105200000D02*
X139800000Y-104600000D01*
D16*
X151261569Y-107261569D02*
X150400000Y-106400000D01*
X149200000Y-106400000D02*
X149100000Y-106500000D01*
X150400000Y-106400000D02*
X149200000Y-106400000D01*
X149100000Y-101000000D02*
X150900000Y-99200000D01*
X149100000Y-106500000D02*
X149100000Y-101000000D01*
X144800000Y-106500000D02*
X142900000Y-104600000D01*
X149100000Y-106500000D02*
X144800000Y-106500000D01*
X143700000Y-95900000D02*
X150300000Y-95900000D01*
X150900000Y-96500000D02*
X150900000Y-99200000D01*
X150300000Y-95900000D02*
X150900000Y-96500000D01*
D15*
X140100000Y-87900000D02*
X140100000Y-92200000D01*
X142500000Y-85500000D02*
X140100000Y-87900000D01*
%TO.N,RESET*%
X142400000Y-92600000D02*
X150800000Y-84200000D01*
X150800000Y-84200000D02*
X150800000Y-78600000D01*
X150200000Y-78000000D02*
X147540000Y-78000000D01*
X150800000Y-78600000D02*
X150200000Y-78000000D01*
%TO.N,PA14-SWD_CLK*%
X141978054Y-77194999D02*
X123400000Y-95773053D01*
X142924999Y-77194999D02*
X141978054Y-77194999D01*
X123400000Y-95773053D02*
X123400000Y-106600000D01*
X143730000Y-78000000D02*
X142924999Y-77194999D01*
X115900000Y-110400000D02*
X108000000Y-118300000D01*
X123400000Y-110400000D02*
X115900000Y-110400000D01*
%TO.N,PA13-SWD_IO*%
X136800000Y-109600000D02*
X135400000Y-111000000D01*
X147400000Y-109600000D02*
X136800000Y-109600000D01*
X115560000Y-108200000D02*
X108000000Y-115760000D01*
X125900000Y-108200000D02*
X115560000Y-108200000D01*
X125900000Y-93852894D02*
X125900000Y-108200000D01*
X141752894Y-78000000D02*
X125900000Y-93852894D01*
X142460000Y-78000000D02*
X141752894Y-78000000D01*
%TO.N,PB15*%
X166500000Y-92700000D02*
X176100000Y-83100000D01*
X166500000Y-100500000D02*
X166500000Y-92700000D01*
X153000000Y-114000000D02*
X166500000Y-100500000D01*
X142100000Y-114000000D02*
X153000000Y-114000000D01*
X181960000Y-83100000D02*
X182000000Y-83060000D01*
X176100000Y-83100000D02*
X181960000Y-83100000D01*
%TO.N,PB14*%
X168300000Y-100800000D02*
X168300000Y-93300000D01*
X168300000Y-93300000D02*
X176000000Y-85600000D01*
X154000000Y-115100000D02*
X168300000Y-100800000D01*
X141600000Y-115100000D02*
X154000000Y-115100000D01*
X140500000Y-114000000D02*
X141600000Y-115100000D01*
X176000000Y-85600000D02*
X182000000Y-85600000D01*
%TO.N,PB13*%
X169800000Y-101300000D02*
X169800000Y-94400000D01*
X155000000Y-116100000D02*
X169800000Y-101300000D01*
X140900000Y-116100000D02*
X155000000Y-116100000D01*
X138800000Y-114000000D02*
X140900000Y-116100000D01*
X176060000Y-88140000D02*
X175950000Y-88250000D01*
X182000000Y-88140000D02*
X176060000Y-88140000D01*
X175950000Y-88250000D02*
X176000000Y-88200000D01*
X169800000Y-94400000D02*
X175950000Y-88250000D01*
%TO.N,PB12*%
X140100000Y-117000000D02*
X137100000Y-114000000D01*
X171200000Y-101800000D02*
X156000000Y-117000000D01*
X171200000Y-95400000D02*
X171200000Y-101800000D01*
X175920000Y-90680000D02*
X171200000Y-95400000D01*
X156000000Y-117000000D02*
X140100000Y-117000000D01*
X182000000Y-90680000D02*
X175920000Y-90680000D01*
%TO.N,PB11*%
X161000000Y-97200000D02*
X162600000Y-95600000D01*
X161000000Y-98520160D02*
X161000000Y-97200000D01*
X135400000Y-108200000D02*
X151320160Y-108200000D01*
X151320160Y-108200000D02*
X161000000Y-98520160D01*
X134000000Y-106800000D02*
X135400000Y-108200000D01*
%TO.N,PB10*%
X152200000Y-107900000D02*
X162600000Y-97500000D01*
X151489990Y-108610010D02*
X152200000Y-107900000D01*
X134444325Y-108610010D02*
X151489990Y-108610010D01*
X132500000Y-106665685D02*
X134444325Y-108610010D01*
X132500000Y-106100000D02*
X132500000Y-106665685D01*
%TO.N,PB2*%
X180180000Y-117900000D02*
X182000000Y-116080000D01*
X139800000Y-117900000D02*
X180180000Y-117900000D01*
X131100000Y-109200000D02*
X139800000Y-117900000D01*
X131100000Y-105200000D02*
X131100000Y-109200000D01*
%TO.N,PB1*%
X139020000Y-118620000D02*
X182000000Y-118620000D01*
X129900000Y-109500000D02*
X139020000Y-118620000D01*
X129900000Y-104100000D02*
X129900000Y-109500000D01*
%TO.N,PB0*%
X180704801Y-119864801D02*
X182000000Y-121160000D01*
X138664801Y-119864801D02*
X180704801Y-119864801D01*
X128500000Y-109700000D02*
X138664801Y-119864801D01*
X128500000Y-102900000D02*
X128500000Y-109700000D01*
%TO.N,PC13*%
X163850010Y-82689990D02*
X181540000Y-65000000D01*
X161510010Y-82689990D02*
X163850010Y-82689990D01*
X150600000Y-93600000D02*
X161510010Y-82689990D01*
%TO.N,PC14*%
X148600000Y-93600000D02*
X156800000Y-85400000D01*
X157902306Y-85400000D02*
X175702306Y-67600000D01*
X156800000Y-85400000D02*
X157902306Y-85400000D01*
X176400000Y-67600000D02*
X179000000Y-65000000D01*
X175702306Y-67600000D02*
X176400000Y-67600000D01*
%TO.N,PC15*%
X147300000Y-93400000D02*
X148800000Y-91900000D01*
X148800000Y-91900000D02*
X148800000Y-87600000D01*
X171400000Y-65000000D02*
X176460000Y-65000000D01*
X148800000Y-87600000D02*
X171400000Y-65000000D01*
%TO.N,Net-(R1-Pad1)*%
X172500000Y-99100000D02*
X172400000Y-99000000D01*
X172500000Y-102100000D02*
X172500000Y-99100000D01*
X155000000Y-98300000D02*
X155300000Y-98000000D01*
X152600000Y-98300000D02*
X155000000Y-98300000D01*
%TD*%
D17*
%TO.N,GND*%
X184340001Y-141340000D02*
X105660000Y-141340000D01*
X105660000Y-138529896D01*
X142147200Y-138529896D01*
X142147200Y-138840104D01*
X142207718Y-139144352D01*
X142326430Y-139430948D01*
X142498773Y-139688877D01*
X142718123Y-139908227D01*
X142976052Y-140080570D01*
X143262648Y-140199282D01*
X143566896Y-140259800D01*
X143877104Y-140259800D01*
X144181352Y-140199282D01*
X144467948Y-140080570D01*
X144725877Y-139908227D01*
X144856628Y-139777476D01*
X145349129Y-139777476D01*
X145437623Y-140035723D01*
X145716976Y-140170597D01*
X146017275Y-140248381D01*
X146326977Y-140266084D01*
X146634184Y-140223027D01*
X146927086Y-140120865D01*
X147086377Y-140035723D01*
X147174871Y-139777476D01*
X146262000Y-138864605D01*
X145349129Y-139777476D01*
X144856628Y-139777476D01*
X144945227Y-139688877D01*
X145036495Y-139552286D01*
X145169524Y-139597871D01*
X146082395Y-138685000D01*
X146441605Y-138685000D01*
X147354476Y-139597871D01*
X147612723Y-139509377D01*
X147747597Y-139230024D01*
X147825381Y-138929725D01*
X147843084Y-138620023D01*
X147800027Y-138312816D01*
X147697865Y-138019914D01*
X147612723Y-137860623D01*
X147354476Y-137772129D01*
X146441605Y-138685000D01*
X146082395Y-138685000D01*
X145169524Y-137772129D01*
X145036495Y-137817714D01*
X144945227Y-137681123D01*
X144856628Y-137592524D01*
X145349129Y-137592524D01*
X146262000Y-138505395D01*
X147174871Y-137592524D01*
X147086377Y-137334277D01*
X146807024Y-137199403D01*
X146506725Y-137121619D01*
X146197023Y-137103916D01*
X145889816Y-137146973D01*
X145596914Y-137249135D01*
X145437623Y-137334277D01*
X145349129Y-137592524D01*
X144856628Y-137592524D01*
X144725877Y-137461773D01*
X144467948Y-137289430D01*
X144181352Y-137170718D01*
X143877104Y-137110200D01*
X143566896Y-137110200D01*
X143262648Y-137170718D01*
X142976052Y-137289430D01*
X142718123Y-137461773D01*
X142498773Y-137681123D01*
X142326430Y-137939052D01*
X142207718Y-138225648D01*
X142147200Y-138529896D01*
X105660000Y-138529896D01*
X105660000Y-82584896D01*
X106425200Y-82584896D01*
X106425200Y-82895104D01*
X106485718Y-83199352D01*
X106604430Y-83485948D01*
X106776773Y-83743877D01*
X106996123Y-83963227D01*
X107066124Y-84010000D01*
X106996123Y-84056773D01*
X106776773Y-84276123D01*
X106604430Y-84534052D01*
X106485718Y-84820648D01*
X106425200Y-85124896D01*
X106425200Y-85435104D01*
X106485718Y-85739352D01*
X106604430Y-86025948D01*
X106776773Y-86283877D01*
X106996123Y-86503227D01*
X107066124Y-86550000D01*
X106996123Y-86596773D01*
X106776773Y-86816123D01*
X106604430Y-87074052D01*
X106485718Y-87360648D01*
X106425200Y-87664896D01*
X106425200Y-87975104D01*
X106485718Y-88279352D01*
X106604430Y-88565948D01*
X106776773Y-88823877D01*
X106996123Y-89043227D01*
X107066124Y-89090000D01*
X106996123Y-89136773D01*
X106776773Y-89356123D01*
X106604430Y-89614052D01*
X106485718Y-89900648D01*
X106425200Y-90204896D01*
X106425200Y-90515104D01*
X106485718Y-90819352D01*
X106604430Y-91105948D01*
X106776773Y-91363877D01*
X106996123Y-91583227D01*
X107066124Y-91630000D01*
X106996123Y-91676773D01*
X106776773Y-91896123D01*
X106604430Y-92154052D01*
X106485718Y-92440648D01*
X106425200Y-92744896D01*
X106425200Y-93055104D01*
X106485718Y-93359352D01*
X106604430Y-93645948D01*
X106776773Y-93903877D01*
X106996123Y-94123227D01*
X107066124Y-94170000D01*
X106996123Y-94216773D01*
X106776773Y-94436123D01*
X106604430Y-94694052D01*
X106485718Y-94980648D01*
X106425200Y-95284896D01*
X106425200Y-95595104D01*
X106485718Y-95899352D01*
X106604430Y-96185948D01*
X106776773Y-96443877D01*
X106996123Y-96663227D01*
X107066124Y-96710000D01*
X106996123Y-96756773D01*
X106776773Y-96976123D01*
X106604430Y-97234052D01*
X106485718Y-97520648D01*
X106425200Y-97824896D01*
X106425200Y-98135104D01*
X106485718Y-98439352D01*
X106604430Y-98725948D01*
X106776773Y-98983877D01*
X106996123Y-99203227D01*
X107066124Y-99250000D01*
X106996123Y-99296773D01*
X106776773Y-99516123D01*
X106604430Y-99774052D01*
X106485718Y-100060648D01*
X106425200Y-100364896D01*
X106425200Y-100675104D01*
X106485718Y-100979352D01*
X106604430Y-101265948D01*
X106776773Y-101523877D01*
X106996123Y-101743227D01*
X107066124Y-101790000D01*
X106996123Y-101836773D01*
X106776773Y-102056123D01*
X106604430Y-102314052D01*
X106485718Y-102600648D01*
X106425200Y-102904896D01*
X106425200Y-103215104D01*
X106485718Y-103519352D01*
X106604430Y-103805948D01*
X106776773Y-104063877D01*
X106996123Y-104283227D01*
X107066124Y-104330000D01*
X106996123Y-104376773D01*
X106776773Y-104596123D01*
X106604430Y-104854052D01*
X106485718Y-105140648D01*
X106425200Y-105444896D01*
X106425200Y-105755104D01*
X106485718Y-106059352D01*
X106604430Y-106345948D01*
X106776773Y-106603877D01*
X106996123Y-106823227D01*
X107066124Y-106870000D01*
X106996123Y-106916773D01*
X106776773Y-107136123D01*
X106604430Y-107394052D01*
X106485718Y-107680648D01*
X106425200Y-107984896D01*
X106425200Y-108295104D01*
X106485718Y-108599352D01*
X106604430Y-108885948D01*
X106776773Y-109143877D01*
X106996123Y-109363227D01*
X107066124Y-109410000D01*
X106996123Y-109456773D01*
X106776773Y-109676123D01*
X106604430Y-109934052D01*
X106485718Y-110220648D01*
X106425200Y-110524896D01*
X106425200Y-110835104D01*
X106485718Y-111139352D01*
X106604430Y-111425948D01*
X106776773Y-111683877D01*
X106996123Y-111903227D01*
X107066124Y-111950000D01*
X106996123Y-111996773D01*
X106776773Y-112216123D01*
X106604430Y-112474052D01*
X106485718Y-112760648D01*
X106425200Y-113064896D01*
X106425200Y-113375104D01*
X106485718Y-113679352D01*
X106604430Y-113965948D01*
X106776773Y-114223877D01*
X106996123Y-114443227D01*
X107066124Y-114490000D01*
X106996123Y-114536773D01*
X106776773Y-114756123D01*
X106604430Y-115014052D01*
X106485718Y-115300648D01*
X106425200Y-115604896D01*
X106425200Y-115915104D01*
X106485718Y-116219352D01*
X106604430Y-116505948D01*
X106776773Y-116763877D01*
X106996123Y-116983227D01*
X107066124Y-117030000D01*
X106996123Y-117076773D01*
X106776773Y-117296123D01*
X106604430Y-117554052D01*
X106485718Y-117840648D01*
X106425200Y-118144896D01*
X106425200Y-118455104D01*
X106485718Y-118759352D01*
X106604430Y-119045948D01*
X106776773Y-119303877D01*
X106996123Y-119523227D01*
X107066124Y-119570000D01*
X106996123Y-119616773D01*
X106776773Y-119836123D01*
X106604430Y-120094052D01*
X106485718Y-120380648D01*
X106425200Y-120684896D01*
X106425200Y-120995104D01*
X106485718Y-121299352D01*
X106604430Y-121585948D01*
X106776773Y-121843877D01*
X106996123Y-122063227D01*
X107254052Y-122235570D01*
X107540648Y-122354282D01*
X107844896Y-122414800D01*
X108155104Y-122414800D01*
X108459352Y-122354282D01*
X108745948Y-122235570D01*
X109003877Y-122063227D01*
X109223227Y-121843877D01*
X109395570Y-121585948D01*
X109514282Y-121299352D01*
X109574800Y-120995104D01*
X109574800Y-120684896D01*
X109514282Y-120380648D01*
X109395570Y-120094052D01*
X109223227Y-119836123D01*
X109003877Y-119616773D01*
X108933876Y-119570000D01*
X109003877Y-119523227D01*
X109223227Y-119303877D01*
X109395570Y-119045948D01*
X109514282Y-118759352D01*
X109574800Y-118455104D01*
X109574800Y-118144896D01*
X109514282Y-117840648D01*
X109511818Y-117834699D01*
X116206518Y-111140000D01*
X122676289Y-111140000D01*
X122740226Y-111203937D01*
X122909744Y-111317205D01*
X123098102Y-111395226D01*
X123298061Y-111435000D01*
X123501939Y-111435000D01*
X123701898Y-111395226D01*
X123890256Y-111317205D01*
X124059774Y-111203937D01*
X124203937Y-111059774D01*
X124317205Y-110890256D01*
X124395226Y-110701898D01*
X124435000Y-110501939D01*
X124435000Y-110298061D01*
X124395226Y-110098102D01*
X124317205Y-109909744D01*
X124203937Y-109740226D01*
X124059774Y-109596063D01*
X123890256Y-109482795D01*
X123701898Y-109404774D01*
X123501939Y-109365000D01*
X123298061Y-109365000D01*
X123098102Y-109404774D01*
X122909744Y-109482795D01*
X122740226Y-109596063D01*
X122676289Y-109660000D01*
X115936339Y-109660000D01*
X115899999Y-109656421D01*
X115863659Y-109660000D01*
X115863653Y-109660000D01*
X115770170Y-109669207D01*
X115754934Y-109670708D01*
X115713665Y-109683227D01*
X115615444Y-109713022D01*
X115486889Y-109781736D01*
X115442380Y-109818264D01*
X115402442Y-109851040D01*
X115402440Y-109851042D01*
X115374210Y-109874210D01*
X115351042Y-109902440D01*
X109574800Y-115678683D01*
X109574800Y-115604896D01*
X109514282Y-115300648D01*
X109511818Y-115294699D01*
X115866518Y-108940000D01*
X125176289Y-108940000D01*
X125240226Y-109003937D01*
X125409744Y-109117205D01*
X125598102Y-109195226D01*
X125798061Y-109235000D01*
X126001939Y-109235000D01*
X126201898Y-109195226D01*
X126390256Y-109117205D01*
X126559774Y-109003937D01*
X126703937Y-108859774D01*
X126817205Y-108690256D01*
X126895226Y-108501898D01*
X126935000Y-108301939D01*
X126935000Y-108098061D01*
X126895226Y-107898102D01*
X126817205Y-107709744D01*
X126703937Y-107540226D01*
X126640000Y-107476289D01*
X126640000Y-102798061D01*
X127465000Y-102798061D01*
X127465000Y-103001939D01*
X127504774Y-103201898D01*
X127582795Y-103390256D01*
X127696063Y-103559774D01*
X127760000Y-103623711D01*
X127760001Y-109663650D01*
X127756421Y-109700000D01*
X127770708Y-109845065D01*
X127813022Y-109984555D01*
X127828286Y-110013111D01*
X127881737Y-110113111D01*
X127922008Y-110162181D01*
X127951040Y-110197557D01*
X127951043Y-110197560D01*
X127974211Y-110225790D01*
X128002441Y-110248958D01*
X138115843Y-120362361D01*
X138139011Y-120390591D01*
X138251690Y-120483065D01*
X138380245Y-120551779D01*
X138519736Y-120594093D01*
X138628454Y-120604801D01*
X138628463Y-120604801D01*
X138664800Y-120608380D01*
X138701137Y-120604801D01*
X180398284Y-120604801D01*
X180488182Y-120694699D01*
X180485718Y-120700648D01*
X180425200Y-121004896D01*
X180425200Y-121315104D01*
X180485718Y-121619352D01*
X180604430Y-121905948D01*
X180776773Y-122163877D01*
X180996123Y-122383227D01*
X181254052Y-122555570D01*
X181540648Y-122674282D01*
X181844896Y-122734800D01*
X182155104Y-122734800D01*
X182459352Y-122674282D01*
X182745948Y-122555570D01*
X183003877Y-122383227D01*
X183223227Y-122163877D01*
X183395570Y-121905948D01*
X183514282Y-121619352D01*
X183574800Y-121315104D01*
X183574800Y-121004896D01*
X183514282Y-120700648D01*
X183395570Y-120414052D01*
X183223227Y-120156123D01*
X183003877Y-119936773D01*
X182933876Y-119890000D01*
X183003877Y-119843227D01*
X183223227Y-119623877D01*
X183395570Y-119365948D01*
X183514282Y-119079352D01*
X183574800Y-118775104D01*
X183574800Y-118464896D01*
X183514282Y-118160648D01*
X183395570Y-117874052D01*
X183223227Y-117616123D01*
X183003877Y-117396773D01*
X182933876Y-117350000D01*
X183003877Y-117303227D01*
X183223227Y-117083877D01*
X183395570Y-116825948D01*
X183514282Y-116539352D01*
X183574800Y-116235104D01*
X183574800Y-115924896D01*
X183514282Y-115620648D01*
X183395570Y-115334052D01*
X183223227Y-115076123D01*
X183003877Y-114856773D01*
X182933876Y-114810000D01*
X183003877Y-114763227D01*
X183223227Y-114543877D01*
X183395570Y-114285948D01*
X183514282Y-113999352D01*
X183574800Y-113695104D01*
X183574800Y-113384896D01*
X183514282Y-113080648D01*
X183395570Y-112794052D01*
X183223227Y-112536123D01*
X183003877Y-112316773D01*
X182933876Y-112270000D01*
X183003877Y-112223227D01*
X183223227Y-112003877D01*
X183395570Y-111745948D01*
X183514282Y-111459352D01*
X183574800Y-111155104D01*
X183574800Y-110844896D01*
X183514282Y-110540648D01*
X183395570Y-110254052D01*
X183223227Y-109996123D01*
X183003877Y-109776773D01*
X182933876Y-109730000D01*
X183003877Y-109683227D01*
X183223227Y-109463877D01*
X183395570Y-109205948D01*
X183514282Y-108919352D01*
X183574800Y-108615104D01*
X183574800Y-108304896D01*
X183514282Y-108000648D01*
X183395570Y-107714052D01*
X183223227Y-107456123D01*
X183003877Y-107236773D01*
X182933876Y-107190000D01*
X183003877Y-107143227D01*
X183223227Y-106923877D01*
X183395570Y-106665948D01*
X183514282Y-106379352D01*
X183574800Y-106075104D01*
X183574800Y-105764896D01*
X183514282Y-105460648D01*
X183395570Y-105174052D01*
X183223227Y-104916123D01*
X183003877Y-104696773D01*
X182933876Y-104650000D01*
X183003877Y-104603227D01*
X183223227Y-104383877D01*
X183395570Y-104125948D01*
X183514282Y-103839352D01*
X183574800Y-103535104D01*
X183574800Y-103224896D01*
X183514282Y-102920648D01*
X183395570Y-102634052D01*
X183223227Y-102376123D01*
X183003877Y-102156773D01*
X182933876Y-102110000D01*
X183003877Y-102063227D01*
X183223227Y-101843877D01*
X183395570Y-101585948D01*
X183514282Y-101299352D01*
X183574800Y-100995104D01*
X183574800Y-100684896D01*
X183514282Y-100380648D01*
X183395570Y-100094052D01*
X183223227Y-99836123D01*
X183003877Y-99616773D01*
X182933876Y-99570000D01*
X183003877Y-99523227D01*
X183223227Y-99303877D01*
X183395570Y-99045948D01*
X183514282Y-98759352D01*
X183574800Y-98455104D01*
X183574800Y-98144896D01*
X183514282Y-97840648D01*
X183395570Y-97554052D01*
X183223227Y-97296123D01*
X183003877Y-97076773D01*
X182933876Y-97030000D01*
X183003877Y-96983227D01*
X183223227Y-96763877D01*
X183395570Y-96505948D01*
X183514282Y-96219352D01*
X183574800Y-95915104D01*
X183574800Y-95604896D01*
X183514282Y-95300648D01*
X183395570Y-95014052D01*
X183223227Y-94756123D01*
X183003877Y-94536773D01*
X182933876Y-94490000D01*
X183003877Y-94443227D01*
X183223227Y-94223877D01*
X183395570Y-93965948D01*
X183514282Y-93679352D01*
X183574800Y-93375104D01*
X183574800Y-93064896D01*
X183514282Y-92760648D01*
X183395570Y-92474052D01*
X183223227Y-92216123D01*
X183003877Y-91996773D01*
X182933876Y-91950000D01*
X183003877Y-91903227D01*
X183223227Y-91683877D01*
X183395570Y-91425948D01*
X183514282Y-91139352D01*
X183574800Y-90835104D01*
X183574800Y-90524896D01*
X183514282Y-90220648D01*
X183395570Y-89934052D01*
X183223227Y-89676123D01*
X183003877Y-89456773D01*
X182933876Y-89410000D01*
X183003877Y-89363227D01*
X183223227Y-89143877D01*
X183395570Y-88885948D01*
X183514282Y-88599352D01*
X183574800Y-88295104D01*
X183574800Y-87984896D01*
X183514282Y-87680648D01*
X183395570Y-87394052D01*
X183223227Y-87136123D01*
X183003877Y-86916773D01*
X182933876Y-86870000D01*
X183003877Y-86823227D01*
X183223227Y-86603877D01*
X183395570Y-86345948D01*
X183514282Y-86059352D01*
X183574800Y-85755104D01*
X183574800Y-85444896D01*
X183514282Y-85140648D01*
X183395570Y-84854052D01*
X183223227Y-84596123D01*
X183003877Y-84376773D01*
X182933876Y-84330000D01*
X183003877Y-84283227D01*
X183223227Y-84063877D01*
X183395570Y-83805948D01*
X183514282Y-83519352D01*
X183574800Y-83215104D01*
X183574800Y-82904896D01*
X183514282Y-82600648D01*
X183395570Y-82314052D01*
X183223227Y-82056123D01*
X183003877Y-81836773D01*
X182745948Y-81664430D01*
X182459352Y-81545718D01*
X182155104Y-81485200D01*
X181844896Y-81485200D01*
X181540648Y-81545718D01*
X181254052Y-81664430D01*
X180996123Y-81836773D01*
X180776773Y-82056123D01*
X180604430Y-82314052D01*
X180585398Y-82360000D01*
X176136339Y-82360000D01*
X176099999Y-82356421D01*
X176063659Y-82360000D01*
X176063653Y-82360000D01*
X175970170Y-82369207D01*
X175954934Y-82370708D01*
X175840458Y-82405434D01*
X175815444Y-82413022D01*
X175686889Y-82481736D01*
X175686887Y-82481737D01*
X175686888Y-82481737D01*
X175602442Y-82551040D01*
X175602440Y-82551042D01*
X175574210Y-82574210D01*
X175551042Y-82602440D01*
X166002441Y-92151042D01*
X165974211Y-92174210D01*
X165951043Y-92202440D01*
X165951040Y-92202443D01*
X165923216Y-92236347D01*
X165881737Y-92286889D01*
X165875744Y-92298102D01*
X165813022Y-92415445D01*
X165770708Y-92554935D01*
X165756421Y-92700000D01*
X165760001Y-92736350D01*
X165760000Y-100193482D01*
X152693483Y-113260000D01*
X142823711Y-113260000D01*
X142759774Y-113196063D01*
X142590256Y-113082795D01*
X142401898Y-113004774D01*
X142201939Y-112965000D01*
X141998061Y-112965000D01*
X141798102Y-113004774D01*
X141609744Y-113082795D01*
X141440226Y-113196063D01*
X141300000Y-113336289D01*
X141159774Y-113196063D01*
X140990256Y-113082795D01*
X140801898Y-113004774D01*
X140601939Y-112965000D01*
X140398061Y-112965000D01*
X140198102Y-113004774D01*
X140009744Y-113082795D01*
X139840226Y-113196063D01*
X139696063Y-113340226D01*
X139650000Y-113409164D01*
X139603937Y-113340226D01*
X139459774Y-113196063D01*
X139290256Y-113082795D01*
X139101898Y-113004774D01*
X138901939Y-112965000D01*
X138698061Y-112965000D01*
X138498102Y-113004774D01*
X138309744Y-113082795D01*
X138140226Y-113196063D01*
X137996063Y-113340226D01*
X137950000Y-113409164D01*
X137903937Y-113340226D01*
X137759774Y-113196063D01*
X137590256Y-113082795D01*
X137401898Y-113004774D01*
X137201939Y-112965000D01*
X136998061Y-112965000D01*
X136798102Y-113004774D01*
X136609744Y-113082795D01*
X136440226Y-113196063D01*
X136296063Y-113340226D01*
X136292330Y-113345813D01*
X134771051Y-111824533D01*
X134909744Y-111917205D01*
X135098102Y-111995226D01*
X135298061Y-112035000D01*
X135501939Y-112035000D01*
X135701898Y-111995226D01*
X135890256Y-111917205D01*
X136059774Y-111803937D01*
X136203937Y-111659774D01*
X136317205Y-111490256D01*
X136395226Y-111301898D01*
X136435000Y-111101939D01*
X136435000Y-111011517D01*
X137106518Y-110340000D01*
X146676289Y-110340000D01*
X146740226Y-110403937D01*
X146909744Y-110517205D01*
X147098102Y-110595226D01*
X147298061Y-110635000D01*
X147501939Y-110635000D01*
X147701898Y-110595226D01*
X147890256Y-110517205D01*
X148059774Y-110403937D01*
X148203937Y-110259774D01*
X148317205Y-110090256D01*
X148395226Y-109901898D01*
X148435000Y-109701939D01*
X148435000Y-109498061D01*
X148405551Y-109350010D01*
X151453650Y-109350010D01*
X151489990Y-109353589D01*
X151526330Y-109350010D01*
X151526337Y-109350010D01*
X151635055Y-109339302D01*
X151774546Y-109296988D01*
X151903101Y-109228274D01*
X152015780Y-109135800D01*
X152038952Y-109107565D01*
X152748960Y-108397558D01*
X152748965Y-108397552D01*
X162611518Y-98535000D01*
X162701939Y-98535000D01*
X162901898Y-98495226D01*
X163090256Y-98417205D01*
X163259774Y-98303937D01*
X163403937Y-98159774D01*
X163517205Y-97990256D01*
X163595226Y-97801898D01*
X163635000Y-97601939D01*
X163635000Y-97398061D01*
X163595226Y-97198102D01*
X163517205Y-97009744D01*
X163403937Y-96840226D01*
X163259774Y-96696063D01*
X163090256Y-96582795D01*
X163011082Y-96550000D01*
X163090256Y-96517205D01*
X163259774Y-96403937D01*
X163403937Y-96259774D01*
X163517205Y-96090256D01*
X163595226Y-95901898D01*
X163635000Y-95701939D01*
X163635000Y-95498061D01*
X163595226Y-95298102D01*
X163517205Y-95109744D01*
X163403937Y-94940226D01*
X163259774Y-94796063D01*
X163090256Y-94682795D01*
X162901898Y-94604774D01*
X162701939Y-94565000D01*
X162498061Y-94565000D01*
X162298102Y-94604774D01*
X162109744Y-94682795D01*
X161940226Y-94796063D01*
X161796063Y-94940226D01*
X161682795Y-95109744D01*
X161604774Y-95298102D01*
X161565000Y-95498061D01*
X161565000Y-95588482D01*
X160502441Y-96651042D01*
X160474211Y-96674210D01*
X160451043Y-96702440D01*
X160451040Y-96702443D01*
X160449814Y-96703937D01*
X160381737Y-96786889D01*
X160353228Y-96840226D01*
X160313022Y-96915445D01*
X160270708Y-97054935D01*
X160256421Y-97200000D01*
X160260001Y-97236349D01*
X160260000Y-98213642D01*
X151968677Y-106504966D01*
X151921343Y-106457632D01*
X151751825Y-106344364D01*
X151563467Y-106266343D01*
X151363508Y-106226569D01*
X151336726Y-106226569D01*
X150982347Y-105872190D01*
X150957764Y-105842236D01*
X150838233Y-105744138D01*
X150701860Y-105671246D01*
X150553887Y-105626359D01*
X150438561Y-105615000D01*
X150438553Y-105615000D01*
X150400000Y-105611203D01*
X150361447Y-105615000D01*
X149885000Y-105615000D01*
X149885000Y-101325157D01*
X150975158Y-100235000D01*
X151001939Y-100235000D01*
X151201898Y-100195226D01*
X151390256Y-100117205D01*
X151559774Y-100003937D01*
X151703937Y-99859774D01*
X151817205Y-99690256D01*
X151895226Y-99501898D01*
X151935000Y-99301939D01*
X151935000Y-99098711D01*
X151940226Y-99103937D01*
X152109744Y-99217205D01*
X152298102Y-99295226D01*
X152498061Y-99335000D01*
X152701939Y-99335000D01*
X152901898Y-99295226D01*
X153090256Y-99217205D01*
X153259774Y-99103937D01*
X153323711Y-99040000D01*
X154378383Y-99040000D01*
X154409538Y-99077962D01*
X154544113Y-99188405D01*
X154697649Y-99270472D01*
X154864245Y-99321008D01*
X155037499Y-99338072D01*
X155562501Y-99338072D01*
X155735755Y-99321008D01*
X155902351Y-99270472D01*
X156055887Y-99188405D01*
X156137137Y-99121724D01*
X156161315Y-99151185D01*
X156258006Y-99230537D01*
X156368320Y-99289502D01*
X156488018Y-99325812D01*
X156612500Y-99338072D01*
X156839250Y-99335000D01*
X156998000Y-99176250D01*
X156998000Y-98127000D01*
X157252000Y-98127000D01*
X157252000Y-99176250D01*
X157410750Y-99335000D01*
X157637500Y-99338072D01*
X157761982Y-99325812D01*
X157881680Y-99289502D01*
X157991994Y-99230537D01*
X158088685Y-99151185D01*
X158168037Y-99054494D01*
X158227002Y-98944180D01*
X158263312Y-98824482D01*
X158275572Y-98700000D01*
X158272500Y-98285750D01*
X158113750Y-98127000D01*
X157252000Y-98127000D01*
X156998000Y-98127000D01*
X156978000Y-98127000D01*
X156978000Y-97873000D01*
X156998000Y-97873000D01*
X156998000Y-96823750D01*
X157252000Y-96823750D01*
X157252000Y-97873000D01*
X158113750Y-97873000D01*
X158272500Y-97714250D01*
X158275572Y-97300000D01*
X158263312Y-97175518D01*
X158227002Y-97055820D01*
X158168037Y-96945506D01*
X158088685Y-96848815D01*
X157991994Y-96769463D01*
X157881680Y-96710498D01*
X157761982Y-96674188D01*
X157637500Y-96661928D01*
X157410750Y-96665000D01*
X157252000Y-96823750D01*
X156998000Y-96823750D01*
X156839250Y-96665000D01*
X156612500Y-96661928D01*
X156488018Y-96674188D01*
X156368320Y-96710498D01*
X156258006Y-96769463D01*
X156161315Y-96848815D01*
X156137137Y-96878276D01*
X156055887Y-96811595D01*
X155902351Y-96729528D01*
X155735755Y-96678992D01*
X155562501Y-96661928D01*
X155037499Y-96661928D01*
X154864245Y-96678992D01*
X154697649Y-96729528D01*
X154544113Y-96811595D01*
X154409538Y-96922038D01*
X154299095Y-97056613D01*
X154217028Y-97210149D01*
X154166492Y-97376745D01*
X154149428Y-97549999D01*
X154149428Y-97560000D01*
X153323711Y-97560000D01*
X153259774Y-97496063D01*
X153090256Y-97382795D01*
X152901898Y-97304774D01*
X152701939Y-97265000D01*
X152498061Y-97265000D01*
X152298102Y-97304774D01*
X152109744Y-97382795D01*
X151940226Y-97496063D01*
X151796063Y-97640226D01*
X151685000Y-97806444D01*
X151685000Y-96538552D01*
X151688797Y-96499999D01*
X151685000Y-96461446D01*
X151685000Y-96461439D01*
X151673641Y-96346113D01*
X151671251Y-96338232D01*
X151628754Y-96198140D01*
X151615963Y-96174210D01*
X151555862Y-96061767D01*
X151457764Y-95942236D01*
X151427816Y-95917658D01*
X150882346Y-95372189D01*
X150857764Y-95342236D01*
X150738233Y-95244138D01*
X150601860Y-95171246D01*
X150453887Y-95126359D01*
X150338561Y-95115000D01*
X150338553Y-95115000D01*
X150300000Y-95111203D01*
X150261447Y-95115000D01*
X144378711Y-95115000D01*
X144359774Y-95096063D01*
X144190256Y-94982795D01*
X144001898Y-94904774D01*
X143801939Y-94865000D01*
X143598061Y-94865000D01*
X143398102Y-94904774D01*
X143209744Y-94982795D01*
X143040226Y-95096063D01*
X142896063Y-95240226D01*
X142782795Y-95409744D01*
X142704774Y-95598102D01*
X142665000Y-95798061D01*
X142665000Y-95888483D01*
X142402445Y-96151038D01*
X142374210Y-96174210D01*
X142281736Y-96286890D01*
X142226486Y-96390256D01*
X142213022Y-96415445D01*
X142182154Y-96517205D01*
X142170708Y-96554936D01*
X142160000Y-96663654D01*
X142160000Y-96663660D01*
X142156421Y-96700000D01*
X142160000Y-96736340D01*
X142160001Y-97906822D01*
X142085150Y-97929528D01*
X141931614Y-98011595D01*
X141797038Y-98122038D01*
X141686595Y-98256614D01*
X141604528Y-98410150D01*
X141553992Y-98576746D01*
X141536928Y-98750000D01*
X141536928Y-99250000D01*
X141553992Y-99423254D01*
X141604528Y-99589850D01*
X141686595Y-99743386D01*
X141797038Y-99877962D01*
X141803594Y-99883342D01*
X141723815Y-99948815D01*
X141644463Y-100045506D01*
X141585498Y-100155820D01*
X141549188Y-100275518D01*
X141536928Y-100400000D01*
X141540000Y-100614250D01*
X141698750Y-100773000D01*
X142773000Y-100773000D01*
X142773000Y-100753000D01*
X143027000Y-100753000D01*
X143027000Y-100773000D01*
X144101250Y-100773000D01*
X144260000Y-100614250D01*
X144263072Y-100400000D01*
X144250812Y-100275518D01*
X144214502Y-100155820D01*
X144155537Y-100045506D01*
X144076185Y-99948815D01*
X143996406Y-99883342D01*
X144002962Y-99877962D01*
X144113405Y-99743386D01*
X144195472Y-99589850D01*
X144246008Y-99423254D01*
X144263072Y-99250000D01*
X144263072Y-98750000D01*
X144246008Y-98576746D01*
X144195472Y-98410150D01*
X144113405Y-98256614D01*
X144002962Y-98122038D01*
X143868386Y-98011595D01*
X143714850Y-97929528D01*
X143640000Y-97906823D01*
X143640000Y-97006517D01*
X143711517Y-96935000D01*
X143801939Y-96935000D01*
X144001898Y-96895226D01*
X144190256Y-96817205D01*
X144359774Y-96703937D01*
X144378711Y-96685000D01*
X149974843Y-96685000D01*
X150115000Y-96825158D01*
X150115001Y-98460000D01*
X148725761Y-98460000D01*
X148695472Y-98360150D01*
X148613405Y-98206614D01*
X148502962Y-98072038D01*
X148368386Y-97961595D01*
X148214850Y-97879528D01*
X148048254Y-97828992D01*
X147875000Y-97811928D01*
X146925000Y-97811928D01*
X146751746Y-97828992D01*
X146585150Y-97879528D01*
X146431614Y-97961595D01*
X146297038Y-98072038D01*
X146186595Y-98206614D01*
X146104528Y-98360150D01*
X146053992Y-98526746D01*
X146036928Y-98700000D01*
X146036928Y-99200000D01*
X146053992Y-99373254D01*
X146104528Y-99539850D01*
X146186595Y-99693386D01*
X146297038Y-99827962D01*
X146303594Y-99833342D01*
X146223815Y-99898815D01*
X146144463Y-99995506D01*
X146085498Y-100105820D01*
X146049188Y-100225518D01*
X146036928Y-100350000D01*
X146040000Y-100564250D01*
X146198750Y-100723000D01*
X147273000Y-100723000D01*
X147273000Y-100703000D01*
X147527000Y-100703000D01*
X147527000Y-100723000D01*
X147547000Y-100723000D01*
X147547000Y-100977000D01*
X147527000Y-100977000D01*
X147527000Y-101623750D01*
X147427000Y-101723750D01*
X147427000Y-102573000D01*
X147447000Y-102573000D01*
X147447000Y-102827000D01*
X147427000Y-102827000D01*
X147427000Y-102847000D01*
X147173000Y-102847000D01*
X147173000Y-102827000D01*
X146098750Y-102827000D01*
X145940000Y-102985750D01*
X145936928Y-103200000D01*
X145949188Y-103324482D01*
X145985498Y-103444180D01*
X146044463Y-103554494D01*
X146123815Y-103651185D01*
X146203594Y-103716658D01*
X146197038Y-103722038D01*
X146086595Y-103856614D01*
X146004528Y-104010150D01*
X145953992Y-104176746D01*
X145936928Y-104350000D01*
X145936928Y-104850000D01*
X145953992Y-105023254D01*
X146004528Y-105189850D01*
X146086595Y-105343386D01*
X146197038Y-105477962D01*
X146331614Y-105588405D01*
X146485150Y-105670472D01*
X146631940Y-105715000D01*
X145125157Y-105715000D01*
X144262811Y-104852654D01*
X144263072Y-104850000D01*
X144263072Y-104350000D01*
X144246008Y-104176746D01*
X144195472Y-104010150D01*
X144113405Y-103856614D01*
X144002962Y-103722038D01*
X143996406Y-103716658D01*
X144076185Y-103651185D01*
X144155537Y-103554494D01*
X144214502Y-103444180D01*
X144250812Y-103324482D01*
X144263072Y-103200000D01*
X144260000Y-102985750D01*
X144101250Y-102827000D01*
X143027000Y-102827000D01*
X143027000Y-102847000D01*
X142773000Y-102847000D01*
X142773000Y-102827000D01*
X141698750Y-102827000D01*
X141540000Y-102985750D01*
X141536928Y-103200000D01*
X141549188Y-103324482D01*
X141585498Y-103444180D01*
X141644463Y-103554494D01*
X141723815Y-103651185D01*
X141803594Y-103716658D01*
X141797038Y-103722038D01*
X141686595Y-103856614D01*
X141684785Y-103860000D01*
X139836339Y-103860000D01*
X139799999Y-103856421D01*
X139763659Y-103860000D01*
X139763653Y-103860000D01*
X139670170Y-103869207D01*
X139654934Y-103870708D01*
X139515444Y-103913022D01*
X139386889Y-103981736D01*
X139327097Y-104030807D01*
X139302442Y-104051040D01*
X139302440Y-104051042D01*
X139274210Y-104074210D01*
X139251042Y-104102440D01*
X139188482Y-104165000D01*
X139098061Y-104165000D01*
X138898102Y-104204774D01*
X138709744Y-104282795D01*
X138540226Y-104396063D01*
X138396063Y-104540226D01*
X138282795Y-104709744D01*
X138204774Y-104898102D01*
X138165000Y-105098061D01*
X138165000Y-105301939D01*
X138204774Y-105501898D01*
X138282795Y-105690256D01*
X138396063Y-105859774D01*
X138540226Y-106003937D01*
X138709744Y-106117205D01*
X138898102Y-106195226D01*
X139098061Y-106235000D01*
X139301939Y-106235000D01*
X139501898Y-106195226D01*
X139690256Y-106117205D01*
X139859774Y-106003937D01*
X140003937Y-105859774D01*
X140117205Y-105690256D01*
X140195226Y-105501898D01*
X140227429Y-105340000D01*
X141684785Y-105340000D01*
X141686595Y-105343386D01*
X141797038Y-105477962D01*
X141931614Y-105588405D01*
X142085150Y-105670472D01*
X142251746Y-105721008D01*
X142425000Y-105738072D01*
X142927915Y-105738072D01*
X144217653Y-107027810D01*
X144242236Y-107057764D01*
X144361767Y-107155862D01*
X144498140Y-107228754D01*
X144646113Y-107273642D01*
X144721026Y-107281020D01*
X144761439Y-107285000D01*
X144761444Y-107285000D01*
X144800000Y-107288797D01*
X144838556Y-107285000D01*
X148421289Y-107285000D01*
X148440226Y-107303937D01*
X148609744Y-107417205D01*
X148713060Y-107460000D01*
X135706518Y-107460000D01*
X135035000Y-106788483D01*
X135035000Y-106698061D01*
X134995226Y-106498102D01*
X134917205Y-106309744D01*
X134803937Y-106140226D01*
X134659774Y-105996063D01*
X134490256Y-105882795D01*
X134301898Y-105804774D01*
X134101939Y-105765000D01*
X133898061Y-105765000D01*
X133698102Y-105804774D01*
X133511895Y-105881904D01*
X133495226Y-105798102D01*
X133417205Y-105609744D01*
X133303937Y-105440226D01*
X133159774Y-105296063D01*
X132990256Y-105182795D01*
X132801898Y-105104774D01*
X132601939Y-105065000D01*
X132398061Y-105065000D01*
X132198102Y-105104774D01*
X132135000Y-105130912D01*
X132135000Y-105098061D01*
X132095226Y-104898102D01*
X132017205Y-104709744D01*
X131903937Y-104540226D01*
X131759774Y-104396063D01*
X131590256Y-104282795D01*
X131401898Y-104204774D01*
X131201939Y-104165000D01*
X130998061Y-104165000D01*
X130935000Y-104177544D01*
X130935000Y-103998061D01*
X130895226Y-103798102D01*
X130817205Y-103609744D01*
X130703937Y-103440226D01*
X130559774Y-103296063D01*
X130390256Y-103182795D01*
X130201898Y-103104774D01*
X130001939Y-103065000D01*
X129798061Y-103065000D01*
X129598102Y-103104774D01*
X129507042Y-103142492D01*
X129535000Y-103001939D01*
X129535000Y-102798061D01*
X129495226Y-102598102D01*
X129417205Y-102409744D01*
X129303937Y-102240226D01*
X129159774Y-102096063D01*
X128990256Y-101982795D01*
X128801898Y-101904774D01*
X128601939Y-101865000D01*
X128398061Y-101865000D01*
X128198102Y-101904774D01*
X128009744Y-101982795D01*
X127840226Y-102096063D01*
X127696063Y-102240226D01*
X127582795Y-102409744D01*
X127504774Y-102598102D01*
X127465000Y-102798061D01*
X126640000Y-102798061D01*
X126640000Y-101400000D01*
X141536928Y-101400000D01*
X141549188Y-101524482D01*
X141585498Y-101644180D01*
X141644463Y-101754494D01*
X141681809Y-101800000D01*
X141644463Y-101845506D01*
X141585498Y-101955820D01*
X141549188Y-102075518D01*
X141536928Y-102200000D01*
X141540000Y-102414250D01*
X141698750Y-102573000D01*
X142773000Y-102573000D01*
X142773000Y-101027000D01*
X143027000Y-101027000D01*
X143027000Y-102573000D01*
X144101250Y-102573000D01*
X144260000Y-102414250D01*
X144263072Y-102200000D01*
X145936928Y-102200000D01*
X145940000Y-102414250D01*
X146098750Y-102573000D01*
X147173000Y-102573000D01*
X147173000Y-101926250D01*
X147273000Y-101826250D01*
X147273000Y-100977000D01*
X146198750Y-100977000D01*
X146040000Y-101135750D01*
X146036928Y-101350000D01*
X146049188Y-101474482D01*
X146085498Y-101594180D01*
X146144463Y-101704494D01*
X146157888Y-101720852D01*
X146123815Y-101748815D01*
X146044463Y-101845506D01*
X145985498Y-101955820D01*
X145949188Y-102075518D01*
X145936928Y-102200000D01*
X144263072Y-102200000D01*
X144250812Y-102075518D01*
X144214502Y-101955820D01*
X144155537Y-101845506D01*
X144118191Y-101800000D01*
X144155537Y-101754494D01*
X144214502Y-101644180D01*
X144250812Y-101524482D01*
X144263072Y-101400000D01*
X144260000Y-101185750D01*
X144101250Y-101027000D01*
X143027000Y-101027000D01*
X142773000Y-101027000D01*
X141698750Y-101027000D01*
X141540000Y-101185750D01*
X141536928Y-101400000D01*
X126640000Y-101400000D01*
X126640000Y-94159411D01*
X141321928Y-79477484D01*
X141321928Y-79770000D01*
X141334188Y-79894482D01*
X141370498Y-80014180D01*
X141429463Y-80124494D01*
X141508815Y-80221185D01*
X141605506Y-80300537D01*
X141715820Y-80359502D01*
X141835518Y-80395812D01*
X141960000Y-80408072D01*
X142960000Y-80408072D01*
X143084482Y-80395812D01*
X143204180Y-80359502D01*
X143293180Y-80311930D01*
X143373136Y-80347446D01*
X143428126Y-80364119D01*
X143603000Y-80237954D01*
X143603000Y-79397000D01*
X143857000Y-79397000D01*
X143857000Y-80237954D01*
X144031874Y-80364119D01*
X144086864Y-80347446D01*
X144290206Y-80257123D01*
X144365000Y-80204361D01*
X144439794Y-80257123D01*
X144643136Y-80347446D01*
X144698126Y-80364119D01*
X144873000Y-80237954D01*
X144873000Y-79397000D01*
X143857000Y-79397000D01*
X143603000Y-79397000D01*
X143598072Y-79397000D01*
X143598072Y-79143000D01*
X143603000Y-79143000D01*
X143603000Y-79131974D01*
X143618212Y-79135000D01*
X143841788Y-79135000D01*
X143857000Y-79131974D01*
X143857000Y-79143000D01*
X144873000Y-79143000D01*
X144873000Y-79131974D01*
X144888212Y-79135000D01*
X145111788Y-79135000D01*
X145127000Y-79131974D01*
X145127000Y-79143000D01*
X145138026Y-79143000D01*
X145135000Y-79158212D01*
X145135000Y-79381788D01*
X145138026Y-79397000D01*
X145127000Y-79397000D01*
X145127000Y-80237954D01*
X145301874Y-80364119D01*
X145356864Y-80347446D01*
X145560206Y-80257123D01*
X145630342Y-80207647D01*
X145732376Y-80275824D01*
X145938933Y-80361383D01*
X146158212Y-80405000D01*
X146381788Y-80405000D01*
X146601067Y-80361383D01*
X146807624Y-80275824D01*
X146909658Y-80207647D01*
X146979794Y-80257123D01*
X147183136Y-80347446D01*
X147238126Y-80364119D01*
X147413000Y-80237954D01*
X147413000Y-79397000D01*
X147667000Y-79397000D01*
X147667000Y-80237954D01*
X147841874Y-80364119D01*
X147896864Y-80347446D01*
X148100206Y-80257123D01*
X148282020Y-80128865D01*
X148435318Y-79967601D01*
X148554210Y-79779529D01*
X148634126Y-79571876D01*
X148509129Y-79397000D01*
X147667000Y-79397000D01*
X147413000Y-79397000D01*
X147401974Y-79397000D01*
X147405000Y-79381788D01*
X147405000Y-79158212D01*
X147401974Y-79143000D01*
X147413000Y-79143000D01*
X147413000Y-79131974D01*
X147428212Y-79135000D01*
X147651788Y-79135000D01*
X147667000Y-79131974D01*
X147667000Y-79143000D01*
X148509129Y-79143000D01*
X148634126Y-78968124D01*
X148554210Y-78760471D01*
X148541269Y-78740000D01*
X149893483Y-78740000D01*
X150060001Y-78906519D01*
X150060000Y-83893482D01*
X143448525Y-90504957D01*
X143404775Y-90285011D01*
X143300371Y-90032957D01*
X143148799Y-89806114D01*
X142955886Y-89613201D01*
X142729043Y-89461629D01*
X142476989Y-89357225D01*
X142209411Y-89304000D01*
X141936589Y-89304000D01*
X141669011Y-89357225D01*
X141416957Y-89461629D01*
X141190114Y-89613201D01*
X140997201Y-89806114D01*
X140845629Y-90032957D01*
X140840000Y-90046547D01*
X140840000Y-88206517D01*
X142511518Y-86535000D01*
X142601939Y-86535000D01*
X142801898Y-86495226D01*
X142990256Y-86417205D01*
X143159774Y-86303937D01*
X143303937Y-86159774D01*
X143417205Y-85990256D01*
X143495226Y-85801898D01*
X143535000Y-85601939D01*
X143535000Y-85398061D01*
X143495226Y-85198102D01*
X143417205Y-85009744D01*
X143303937Y-84840226D01*
X143159774Y-84696063D01*
X142990256Y-84582795D01*
X142801898Y-84504774D01*
X142601939Y-84465000D01*
X142398061Y-84465000D01*
X142198102Y-84504774D01*
X142009744Y-84582795D01*
X141840226Y-84696063D01*
X141696063Y-84840226D01*
X141582795Y-85009744D01*
X141504774Y-85198102D01*
X141465000Y-85398061D01*
X141465000Y-85488482D01*
X139602445Y-87351038D01*
X139574210Y-87374210D01*
X139481736Y-87486890D01*
X139426066Y-87591041D01*
X139413022Y-87615445D01*
X139379216Y-87726890D01*
X139370708Y-87754936D01*
X139360000Y-87863654D01*
X139360000Y-87863660D01*
X139356421Y-87900000D01*
X139360000Y-87936340D01*
X139360001Y-91476288D01*
X139296063Y-91540226D01*
X139182795Y-91709744D01*
X139104774Y-91898102D01*
X139065000Y-92098061D01*
X139065000Y-92301939D01*
X139104774Y-92501898D01*
X139182795Y-92690256D01*
X139296063Y-92859774D01*
X139440226Y-93003937D01*
X139609744Y-93117205D01*
X139798102Y-93195226D01*
X139998061Y-93235000D01*
X140201939Y-93235000D01*
X140401898Y-93195226D01*
X140590256Y-93117205D01*
X140759774Y-93003937D01*
X140903937Y-92859774D01*
X141017205Y-92690256D01*
X141095226Y-92501898D01*
X141135000Y-92301939D01*
X141135000Y-92098061D01*
X141095226Y-91898102D01*
X141017205Y-91709744D01*
X140903937Y-91540226D01*
X140840000Y-91476289D01*
X140840000Y-91331453D01*
X140845629Y-91345043D01*
X140997201Y-91571886D01*
X141190114Y-91764799D01*
X141416957Y-91916371D01*
X141569722Y-91979648D01*
X141482795Y-92109744D01*
X141404774Y-92298102D01*
X141365000Y-92498061D01*
X141365000Y-92701939D01*
X141404774Y-92901898D01*
X141482795Y-93090256D01*
X141596063Y-93259774D01*
X141740226Y-93403937D01*
X141909744Y-93517205D01*
X142098102Y-93595226D01*
X142298061Y-93635000D01*
X142501939Y-93635000D01*
X142701898Y-93595226D01*
X142890256Y-93517205D01*
X143059774Y-93403937D01*
X143203937Y-93259774D01*
X143317205Y-93090256D01*
X143395226Y-92901898D01*
X143435000Y-92701939D01*
X143435000Y-92611517D01*
X145611359Y-90435159D01*
X145588000Y-90552589D01*
X145588000Y-90825411D01*
X145641225Y-91092989D01*
X145745629Y-91345043D01*
X145897201Y-91571886D01*
X146090114Y-91764799D01*
X146316957Y-91916371D01*
X146569011Y-92020775D01*
X146836589Y-92074000D01*
X147109411Y-92074000D01*
X147376989Y-92020775D01*
X147629043Y-91916371D01*
X147855886Y-91764799D01*
X148048799Y-91571886D01*
X148060000Y-91555122D01*
X148060000Y-91593482D01*
X147288483Y-92365000D01*
X147198061Y-92365000D01*
X146998102Y-92404774D01*
X146809744Y-92482795D01*
X146640226Y-92596063D01*
X146496063Y-92740226D01*
X146382795Y-92909744D01*
X146304774Y-93098102D01*
X146265000Y-93298061D01*
X146265000Y-93501939D01*
X146304774Y-93701898D01*
X146382795Y-93890256D01*
X146496063Y-94059774D01*
X146640226Y-94203937D01*
X146809744Y-94317205D01*
X146998102Y-94395226D01*
X147198061Y-94435000D01*
X147401939Y-94435000D01*
X147601898Y-94395226D01*
X147790256Y-94317205D01*
X147828164Y-94291875D01*
X147940226Y-94403937D01*
X148109744Y-94517205D01*
X148298102Y-94595226D01*
X148498061Y-94635000D01*
X148701939Y-94635000D01*
X148901898Y-94595226D01*
X149090256Y-94517205D01*
X149259774Y-94403937D01*
X149403937Y-94259774D01*
X149517205Y-94090256D01*
X149595226Y-93901898D01*
X149600000Y-93877897D01*
X149604774Y-93901898D01*
X149682795Y-94090256D01*
X149796063Y-94259774D01*
X149940226Y-94403937D01*
X150109744Y-94517205D01*
X150298102Y-94595226D01*
X150498061Y-94635000D01*
X150701939Y-94635000D01*
X150901898Y-94595226D01*
X151090256Y-94517205D01*
X151259774Y-94403937D01*
X151403937Y-94259774D01*
X151517205Y-94090256D01*
X151595226Y-93901898D01*
X151635000Y-93701939D01*
X151635000Y-93611517D01*
X161816528Y-83429990D01*
X163813670Y-83429990D01*
X163850010Y-83433569D01*
X163886350Y-83429990D01*
X163886357Y-83429990D01*
X163995075Y-83419282D01*
X164134566Y-83376968D01*
X164263121Y-83308254D01*
X164375800Y-83215780D01*
X164398972Y-83187545D01*
X181074700Y-66511818D01*
X181080648Y-66514282D01*
X181384896Y-66574800D01*
X181695104Y-66574800D01*
X181999352Y-66514282D01*
X182285948Y-66395570D01*
X182543877Y-66223227D01*
X182763227Y-66003877D01*
X182935570Y-65745948D01*
X183054282Y-65459352D01*
X183114800Y-65155104D01*
X183114800Y-64844896D01*
X183054282Y-64540648D01*
X182935570Y-64254052D01*
X182763227Y-63996123D01*
X182543877Y-63776773D01*
X182285948Y-63604430D01*
X181999352Y-63485718D01*
X181695104Y-63425200D01*
X181384896Y-63425200D01*
X181080648Y-63485718D01*
X180794052Y-63604430D01*
X180536123Y-63776773D01*
X180316773Y-63996123D01*
X180270000Y-64066124D01*
X180223227Y-63996123D01*
X180003877Y-63776773D01*
X179745948Y-63604430D01*
X179459352Y-63485718D01*
X179155104Y-63425200D01*
X178844896Y-63425200D01*
X178540648Y-63485718D01*
X178254052Y-63604430D01*
X177996123Y-63776773D01*
X177776773Y-63996123D01*
X177730000Y-64066124D01*
X177683227Y-63996123D01*
X177463877Y-63776773D01*
X177205948Y-63604430D01*
X176919352Y-63485718D01*
X176615104Y-63425200D01*
X176304896Y-63425200D01*
X176000648Y-63485718D01*
X175714052Y-63604430D01*
X175456123Y-63776773D01*
X175236773Y-63996123D01*
X175064430Y-64254052D01*
X175061966Y-64260000D01*
X171436340Y-64260000D01*
X171400000Y-64256421D01*
X171363660Y-64260000D01*
X171363653Y-64260000D01*
X171254935Y-64270708D01*
X171115444Y-64313022D01*
X170986889Y-64381736D01*
X170902442Y-64451040D01*
X170902440Y-64451042D01*
X170874210Y-64474210D01*
X170851042Y-64502440D01*
X151540000Y-83813483D01*
X151540000Y-78636339D01*
X151543579Y-78599999D01*
X151540000Y-78563659D01*
X151540000Y-78563653D01*
X151529292Y-78454935D01*
X151517332Y-78415506D01*
X151486978Y-78315444D01*
X151470468Y-78284556D01*
X151418264Y-78186889D01*
X151325790Y-78074210D01*
X151297560Y-78051042D01*
X150748962Y-77502445D01*
X150725790Y-77474210D01*
X150613111Y-77381736D01*
X150484556Y-77313022D01*
X150345065Y-77270708D01*
X150236347Y-77260000D01*
X150236340Y-77260000D01*
X150200000Y-77256421D01*
X150163660Y-77260000D01*
X148405132Y-77260000D01*
X148263520Y-77118388D01*
X148077624Y-76994176D01*
X147871067Y-76908617D01*
X147651788Y-76865000D01*
X147428212Y-76865000D01*
X147208933Y-76908617D01*
X147002376Y-76994176D01*
X146905000Y-77059241D01*
X146807624Y-76994176D01*
X146601067Y-76908617D01*
X146381788Y-76865000D01*
X146158212Y-76865000D01*
X145938933Y-76908617D01*
X145732376Y-76994176D01*
X145635000Y-77059241D01*
X145537624Y-76994176D01*
X145331067Y-76908617D01*
X145111788Y-76865000D01*
X144888212Y-76865000D01*
X144668933Y-76908617D01*
X144462376Y-76994176D01*
X144365000Y-77059241D01*
X144267624Y-76994176D01*
X144061067Y-76908617D01*
X143841788Y-76865000D01*
X143641517Y-76865000D01*
X143473961Y-76697444D01*
X143450789Y-76669209D01*
X143338110Y-76576735D01*
X143209555Y-76508021D01*
X143070064Y-76465707D01*
X142961346Y-76454999D01*
X142961339Y-76454999D01*
X142924999Y-76451420D01*
X142888659Y-76454999D01*
X142014394Y-76454999D01*
X141978054Y-76451420D01*
X141941714Y-76454999D01*
X141941707Y-76454999D01*
X141846776Y-76464349D01*
X141832988Y-76465707D01*
X141693498Y-76508021D01*
X141564943Y-76576735D01*
X141505151Y-76625806D01*
X141480496Y-76646039D01*
X141480494Y-76646041D01*
X141452264Y-76669209D01*
X141429096Y-76697439D01*
X122902445Y-95224091D01*
X122874210Y-95247263D01*
X122781736Y-95359943D01*
X122713023Y-95488497D01*
X122713022Y-95488498D01*
X122679763Y-95598140D01*
X122670708Y-95627989D01*
X122660000Y-95736707D01*
X122660000Y-95736713D01*
X122656421Y-95773053D01*
X122660000Y-95809393D01*
X122660001Y-105876288D01*
X122596063Y-105940226D01*
X122482795Y-106109744D01*
X122404774Y-106298102D01*
X122365000Y-106498061D01*
X122365000Y-106701939D01*
X122404774Y-106901898D01*
X122482795Y-107090256D01*
X122596063Y-107259774D01*
X122740226Y-107403937D01*
X122824130Y-107460000D01*
X115596340Y-107460000D01*
X115560000Y-107456421D01*
X115523660Y-107460000D01*
X115523653Y-107460000D01*
X115414935Y-107470708D01*
X115275444Y-107513022D01*
X115224549Y-107540226D01*
X115146889Y-107581736D01*
X115062442Y-107651040D01*
X115062440Y-107651042D01*
X115034210Y-107674210D01*
X115011042Y-107702440D01*
X109574800Y-113138683D01*
X109574800Y-113064896D01*
X109514282Y-112760648D01*
X109395570Y-112474052D01*
X109223227Y-112216123D01*
X109003877Y-111996773D01*
X108933876Y-111950000D01*
X109003877Y-111903227D01*
X109223227Y-111683877D01*
X109395570Y-111425948D01*
X109514282Y-111139352D01*
X109574800Y-110835104D01*
X109574800Y-110524896D01*
X109514282Y-110220648D01*
X109395570Y-109934052D01*
X109223227Y-109676123D01*
X109003877Y-109456773D01*
X108933876Y-109410000D01*
X109003877Y-109363227D01*
X109223227Y-109143877D01*
X109395570Y-108885948D01*
X109514282Y-108599352D01*
X109574800Y-108295104D01*
X109574800Y-107984896D01*
X109514282Y-107680648D01*
X109395570Y-107394052D01*
X109223227Y-107136123D01*
X109003877Y-106916773D01*
X108933876Y-106870000D01*
X109003877Y-106823227D01*
X109223227Y-106603877D01*
X109395570Y-106345948D01*
X109514282Y-106059352D01*
X109574800Y-105755104D01*
X109574800Y-105444896D01*
X109514282Y-105140648D01*
X109395570Y-104854052D01*
X109223227Y-104596123D01*
X109003877Y-104376773D01*
X108933876Y-104330000D01*
X109003877Y-104283227D01*
X109223227Y-104063877D01*
X109395570Y-103805948D01*
X109514282Y-103519352D01*
X109574800Y-103215104D01*
X109574800Y-102904896D01*
X109514282Y-102600648D01*
X109395570Y-102314052D01*
X109223227Y-102056123D01*
X109003877Y-101836773D01*
X108933876Y-101790000D01*
X109003877Y-101743227D01*
X109223227Y-101523877D01*
X109395570Y-101265948D01*
X109514282Y-100979352D01*
X109574800Y-100675104D01*
X109574800Y-100364896D01*
X109514282Y-100060648D01*
X109395570Y-99774052D01*
X109223227Y-99516123D01*
X109003877Y-99296773D01*
X108933876Y-99250000D01*
X109003877Y-99203227D01*
X109223227Y-98983877D01*
X109395570Y-98725948D01*
X109514282Y-98439352D01*
X109574800Y-98135104D01*
X109574800Y-97824896D01*
X109514282Y-97520648D01*
X109395570Y-97234052D01*
X109223227Y-96976123D01*
X109003877Y-96756773D01*
X108933876Y-96710000D01*
X109003877Y-96663227D01*
X109223227Y-96443877D01*
X109395570Y-96185948D01*
X109514282Y-95899352D01*
X109574800Y-95595104D01*
X109574800Y-95284896D01*
X109514282Y-94980648D01*
X109395570Y-94694052D01*
X109223227Y-94436123D01*
X109003877Y-94216773D01*
X108933876Y-94170000D01*
X109003877Y-94123227D01*
X109223227Y-93903877D01*
X109395570Y-93645948D01*
X109514282Y-93359352D01*
X109574800Y-93055104D01*
X109574800Y-92744896D01*
X109514282Y-92440648D01*
X109395570Y-92154052D01*
X109223227Y-91896123D01*
X109003877Y-91676773D01*
X108933876Y-91630000D01*
X109003877Y-91583227D01*
X109223227Y-91363877D01*
X109395570Y-91105948D01*
X109514282Y-90819352D01*
X109574800Y-90515104D01*
X109574800Y-90204896D01*
X109514282Y-89900648D01*
X109395570Y-89614052D01*
X109223227Y-89356123D01*
X109003877Y-89136773D01*
X108933876Y-89090000D01*
X109003877Y-89043227D01*
X109223227Y-88823877D01*
X109395570Y-88565948D01*
X109514282Y-88279352D01*
X109574800Y-87975104D01*
X109574800Y-87664896D01*
X109514282Y-87360648D01*
X109395570Y-87074052D01*
X109223227Y-86816123D01*
X109003877Y-86596773D01*
X108933876Y-86550000D01*
X109003877Y-86503227D01*
X109223227Y-86283877D01*
X109395570Y-86025948D01*
X109514282Y-85739352D01*
X109574800Y-85435104D01*
X109574800Y-85124896D01*
X109514282Y-84820648D01*
X109395570Y-84534052D01*
X109223227Y-84276123D01*
X109003877Y-84056773D01*
X108933876Y-84010000D01*
X109003877Y-83963227D01*
X109223227Y-83743877D01*
X109395570Y-83485948D01*
X109514282Y-83199352D01*
X109574800Y-82895104D01*
X109574800Y-82584896D01*
X109514282Y-82280648D01*
X109395570Y-81994052D01*
X109223227Y-81736123D01*
X109003877Y-81516773D01*
X108745948Y-81344430D01*
X108459352Y-81225718D01*
X108155104Y-81165200D01*
X107844896Y-81165200D01*
X107540648Y-81225718D01*
X107254052Y-81344430D01*
X106996123Y-81516773D01*
X106776773Y-81736123D01*
X106604430Y-81994052D01*
X106485718Y-82280648D01*
X106425200Y-82584896D01*
X105660000Y-82584896D01*
X105660000Y-62660000D01*
X184340000Y-62660000D01*
X184340001Y-141340000D01*
%TA.AperFunction,Conductor*%
D18*
G36*
X184340001Y-141340000D02*
G01*
X105660000Y-141340000D01*
X105660000Y-138529896D01*
X142147200Y-138529896D01*
X142147200Y-138840104D01*
X142207718Y-139144352D01*
X142326430Y-139430948D01*
X142498773Y-139688877D01*
X142718123Y-139908227D01*
X142976052Y-140080570D01*
X143262648Y-140199282D01*
X143566896Y-140259800D01*
X143877104Y-140259800D01*
X144181352Y-140199282D01*
X144467948Y-140080570D01*
X144725877Y-139908227D01*
X144856628Y-139777476D01*
X145349129Y-139777476D01*
X145437623Y-140035723D01*
X145716976Y-140170597D01*
X146017275Y-140248381D01*
X146326977Y-140266084D01*
X146634184Y-140223027D01*
X146927086Y-140120865D01*
X147086377Y-140035723D01*
X147174871Y-139777476D01*
X146262000Y-138864605D01*
X145349129Y-139777476D01*
X144856628Y-139777476D01*
X144945227Y-139688877D01*
X145036495Y-139552286D01*
X145169524Y-139597871D01*
X146082395Y-138685000D01*
X146441605Y-138685000D01*
X147354476Y-139597871D01*
X147612723Y-139509377D01*
X147747597Y-139230024D01*
X147825381Y-138929725D01*
X147843084Y-138620023D01*
X147800027Y-138312816D01*
X147697865Y-138019914D01*
X147612723Y-137860623D01*
X147354476Y-137772129D01*
X146441605Y-138685000D01*
X146082395Y-138685000D01*
X145169524Y-137772129D01*
X145036495Y-137817714D01*
X144945227Y-137681123D01*
X144856628Y-137592524D01*
X145349129Y-137592524D01*
X146262000Y-138505395D01*
X147174871Y-137592524D01*
X147086377Y-137334277D01*
X146807024Y-137199403D01*
X146506725Y-137121619D01*
X146197023Y-137103916D01*
X145889816Y-137146973D01*
X145596914Y-137249135D01*
X145437623Y-137334277D01*
X145349129Y-137592524D01*
X144856628Y-137592524D01*
X144725877Y-137461773D01*
X144467948Y-137289430D01*
X144181352Y-137170718D01*
X143877104Y-137110200D01*
X143566896Y-137110200D01*
X143262648Y-137170718D01*
X142976052Y-137289430D01*
X142718123Y-137461773D01*
X142498773Y-137681123D01*
X142326430Y-137939052D01*
X142207718Y-138225648D01*
X142147200Y-138529896D01*
X105660000Y-138529896D01*
X105660000Y-82584896D01*
X106425200Y-82584896D01*
X106425200Y-82895104D01*
X106485718Y-83199352D01*
X106604430Y-83485948D01*
X106776773Y-83743877D01*
X106996123Y-83963227D01*
X107066124Y-84010000D01*
X106996123Y-84056773D01*
X106776773Y-84276123D01*
X106604430Y-84534052D01*
X106485718Y-84820648D01*
X106425200Y-85124896D01*
X106425200Y-85435104D01*
X106485718Y-85739352D01*
X106604430Y-86025948D01*
X106776773Y-86283877D01*
X106996123Y-86503227D01*
X107066124Y-86550000D01*
X106996123Y-86596773D01*
X106776773Y-86816123D01*
X106604430Y-87074052D01*
X106485718Y-87360648D01*
X106425200Y-87664896D01*
X106425200Y-87975104D01*
X106485718Y-88279352D01*
X106604430Y-88565948D01*
X106776773Y-88823877D01*
X106996123Y-89043227D01*
X107066124Y-89090000D01*
X106996123Y-89136773D01*
X106776773Y-89356123D01*
X106604430Y-89614052D01*
X106485718Y-89900648D01*
X106425200Y-90204896D01*
X106425200Y-90515104D01*
X106485718Y-90819352D01*
X106604430Y-91105948D01*
X106776773Y-91363877D01*
X106996123Y-91583227D01*
X107066124Y-91630000D01*
X106996123Y-91676773D01*
X106776773Y-91896123D01*
X106604430Y-92154052D01*
X106485718Y-92440648D01*
X106425200Y-92744896D01*
X106425200Y-93055104D01*
X106485718Y-93359352D01*
X106604430Y-93645948D01*
X106776773Y-93903877D01*
X106996123Y-94123227D01*
X107066124Y-94170000D01*
X106996123Y-94216773D01*
X106776773Y-94436123D01*
X106604430Y-94694052D01*
X106485718Y-94980648D01*
X106425200Y-95284896D01*
X106425200Y-95595104D01*
X106485718Y-95899352D01*
X106604430Y-96185948D01*
X106776773Y-96443877D01*
X106996123Y-96663227D01*
X107066124Y-96710000D01*
X106996123Y-96756773D01*
X106776773Y-96976123D01*
X106604430Y-97234052D01*
X106485718Y-97520648D01*
X106425200Y-97824896D01*
X106425200Y-98135104D01*
X106485718Y-98439352D01*
X106604430Y-98725948D01*
X106776773Y-98983877D01*
X106996123Y-99203227D01*
X107066124Y-99250000D01*
X106996123Y-99296773D01*
X106776773Y-99516123D01*
X106604430Y-99774052D01*
X106485718Y-100060648D01*
X106425200Y-100364896D01*
X106425200Y-100675104D01*
X106485718Y-100979352D01*
X106604430Y-101265948D01*
X106776773Y-101523877D01*
X106996123Y-101743227D01*
X107066124Y-101790000D01*
X106996123Y-101836773D01*
X106776773Y-102056123D01*
X106604430Y-102314052D01*
X106485718Y-102600648D01*
X106425200Y-102904896D01*
X106425200Y-103215104D01*
X106485718Y-103519352D01*
X106604430Y-103805948D01*
X106776773Y-104063877D01*
X106996123Y-104283227D01*
X107066124Y-104330000D01*
X106996123Y-104376773D01*
X106776773Y-104596123D01*
X106604430Y-104854052D01*
X106485718Y-105140648D01*
X106425200Y-105444896D01*
X106425200Y-105755104D01*
X106485718Y-106059352D01*
X106604430Y-106345948D01*
X106776773Y-106603877D01*
X106996123Y-106823227D01*
X107066124Y-106870000D01*
X106996123Y-106916773D01*
X106776773Y-107136123D01*
X106604430Y-107394052D01*
X106485718Y-107680648D01*
X106425200Y-107984896D01*
X106425200Y-108295104D01*
X106485718Y-108599352D01*
X106604430Y-108885948D01*
X106776773Y-109143877D01*
X106996123Y-109363227D01*
X107066124Y-109410000D01*
X106996123Y-109456773D01*
X106776773Y-109676123D01*
X106604430Y-109934052D01*
X106485718Y-110220648D01*
X106425200Y-110524896D01*
X106425200Y-110835104D01*
X106485718Y-111139352D01*
X106604430Y-111425948D01*
X106776773Y-111683877D01*
X106996123Y-111903227D01*
X107066124Y-111950000D01*
X106996123Y-111996773D01*
X106776773Y-112216123D01*
X106604430Y-112474052D01*
X106485718Y-112760648D01*
X106425200Y-113064896D01*
X106425200Y-113375104D01*
X106485718Y-113679352D01*
X106604430Y-113965948D01*
X106776773Y-114223877D01*
X106996123Y-114443227D01*
X107066124Y-114490000D01*
X106996123Y-114536773D01*
X106776773Y-114756123D01*
X106604430Y-115014052D01*
X106485718Y-115300648D01*
X106425200Y-115604896D01*
X106425200Y-115915104D01*
X106485718Y-116219352D01*
X106604430Y-116505948D01*
X106776773Y-116763877D01*
X106996123Y-116983227D01*
X107066124Y-117030000D01*
X106996123Y-117076773D01*
X106776773Y-117296123D01*
X106604430Y-117554052D01*
X106485718Y-117840648D01*
X106425200Y-118144896D01*
X106425200Y-118455104D01*
X106485718Y-118759352D01*
X106604430Y-119045948D01*
X106776773Y-119303877D01*
X106996123Y-119523227D01*
X107066124Y-119570000D01*
X106996123Y-119616773D01*
X106776773Y-119836123D01*
X106604430Y-120094052D01*
X106485718Y-120380648D01*
X106425200Y-120684896D01*
X106425200Y-120995104D01*
X106485718Y-121299352D01*
X106604430Y-121585948D01*
X106776773Y-121843877D01*
X106996123Y-122063227D01*
X107254052Y-122235570D01*
X107540648Y-122354282D01*
X107844896Y-122414800D01*
X108155104Y-122414800D01*
X108459352Y-122354282D01*
X108745948Y-122235570D01*
X109003877Y-122063227D01*
X109223227Y-121843877D01*
X109395570Y-121585948D01*
X109514282Y-121299352D01*
X109574800Y-120995104D01*
X109574800Y-120684896D01*
X109514282Y-120380648D01*
X109395570Y-120094052D01*
X109223227Y-119836123D01*
X109003877Y-119616773D01*
X108933876Y-119570000D01*
X109003877Y-119523227D01*
X109223227Y-119303877D01*
X109395570Y-119045948D01*
X109514282Y-118759352D01*
X109574800Y-118455104D01*
X109574800Y-118144896D01*
X109514282Y-117840648D01*
X109511818Y-117834699D01*
X116206518Y-111140000D01*
X122676289Y-111140000D01*
X122740226Y-111203937D01*
X122909744Y-111317205D01*
X123098102Y-111395226D01*
X123298061Y-111435000D01*
X123501939Y-111435000D01*
X123701898Y-111395226D01*
X123890256Y-111317205D01*
X124059774Y-111203937D01*
X124203937Y-111059774D01*
X124317205Y-110890256D01*
X124395226Y-110701898D01*
X124435000Y-110501939D01*
X124435000Y-110298061D01*
X124395226Y-110098102D01*
X124317205Y-109909744D01*
X124203937Y-109740226D01*
X124059774Y-109596063D01*
X123890256Y-109482795D01*
X123701898Y-109404774D01*
X123501939Y-109365000D01*
X123298061Y-109365000D01*
X123098102Y-109404774D01*
X122909744Y-109482795D01*
X122740226Y-109596063D01*
X122676289Y-109660000D01*
X115936339Y-109660000D01*
X115899999Y-109656421D01*
X115863659Y-109660000D01*
X115863653Y-109660000D01*
X115770170Y-109669207D01*
X115754934Y-109670708D01*
X115713665Y-109683227D01*
X115615444Y-109713022D01*
X115486889Y-109781736D01*
X115442380Y-109818264D01*
X115402442Y-109851040D01*
X115402440Y-109851042D01*
X115374210Y-109874210D01*
X115351042Y-109902440D01*
X109574800Y-115678683D01*
X109574800Y-115604896D01*
X109514282Y-115300648D01*
X109511818Y-115294699D01*
X115866518Y-108940000D01*
X125176289Y-108940000D01*
X125240226Y-109003937D01*
X125409744Y-109117205D01*
X125598102Y-109195226D01*
X125798061Y-109235000D01*
X126001939Y-109235000D01*
X126201898Y-109195226D01*
X126390256Y-109117205D01*
X126559774Y-109003937D01*
X126703937Y-108859774D01*
X126817205Y-108690256D01*
X126895226Y-108501898D01*
X126935000Y-108301939D01*
X126935000Y-108098061D01*
X126895226Y-107898102D01*
X126817205Y-107709744D01*
X126703937Y-107540226D01*
X126640000Y-107476289D01*
X126640000Y-102798061D01*
X127465000Y-102798061D01*
X127465000Y-103001939D01*
X127504774Y-103201898D01*
X127582795Y-103390256D01*
X127696063Y-103559774D01*
X127760000Y-103623711D01*
X127760001Y-109663650D01*
X127756421Y-109700000D01*
X127770708Y-109845065D01*
X127813022Y-109984555D01*
X127828286Y-110013111D01*
X127881737Y-110113111D01*
X127922008Y-110162181D01*
X127951040Y-110197557D01*
X127951043Y-110197560D01*
X127974211Y-110225790D01*
X128002441Y-110248958D01*
X138115843Y-120362361D01*
X138139011Y-120390591D01*
X138251690Y-120483065D01*
X138380245Y-120551779D01*
X138519736Y-120594093D01*
X138628454Y-120604801D01*
X138628463Y-120604801D01*
X138664800Y-120608380D01*
X138701137Y-120604801D01*
X180398284Y-120604801D01*
X180488182Y-120694699D01*
X180485718Y-120700648D01*
X180425200Y-121004896D01*
X180425200Y-121315104D01*
X180485718Y-121619352D01*
X180604430Y-121905948D01*
X180776773Y-122163877D01*
X180996123Y-122383227D01*
X181254052Y-122555570D01*
X181540648Y-122674282D01*
X181844896Y-122734800D01*
X182155104Y-122734800D01*
X182459352Y-122674282D01*
X182745948Y-122555570D01*
X183003877Y-122383227D01*
X183223227Y-122163877D01*
X183395570Y-121905948D01*
X183514282Y-121619352D01*
X183574800Y-121315104D01*
X183574800Y-121004896D01*
X183514282Y-120700648D01*
X183395570Y-120414052D01*
X183223227Y-120156123D01*
X183003877Y-119936773D01*
X182933876Y-119890000D01*
X183003877Y-119843227D01*
X183223227Y-119623877D01*
X183395570Y-119365948D01*
X183514282Y-119079352D01*
X183574800Y-118775104D01*
X183574800Y-118464896D01*
X183514282Y-118160648D01*
X183395570Y-117874052D01*
X183223227Y-117616123D01*
X183003877Y-117396773D01*
X182933876Y-117350000D01*
X183003877Y-117303227D01*
X183223227Y-117083877D01*
X183395570Y-116825948D01*
X183514282Y-116539352D01*
X183574800Y-116235104D01*
X183574800Y-115924896D01*
X183514282Y-115620648D01*
X183395570Y-115334052D01*
X183223227Y-115076123D01*
X183003877Y-114856773D01*
X182933876Y-114810000D01*
X183003877Y-114763227D01*
X183223227Y-114543877D01*
X183395570Y-114285948D01*
X183514282Y-113999352D01*
X183574800Y-113695104D01*
X183574800Y-113384896D01*
X183514282Y-113080648D01*
X183395570Y-112794052D01*
X183223227Y-112536123D01*
X183003877Y-112316773D01*
X182933876Y-112270000D01*
X183003877Y-112223227D01*
X183223227Y-112003877D01*
X183395570Y-111745948D01*
X183514282Y-111459352D01*
X183574800Y-111155104D01*
X183574800Y-110844896D01*
X183514282Y-110540648D01*
X183395570Y-110254052D01*
X183223227Y-109996123D01*
X183003877Y-109776773D01*
X182933876Y-109730000D01*
X183003877Y-109683227D01*
X183223227Y-109463877D01*
X183395570Y-109205948D01*
X183514282Y-108919352D01*
X183574800Y-108615104D01*
X183574800Y-108304896D01*
X183514282Y-108000648D01*
X183395570Y-107714052D01*
X183223227Y-107456123D01*
X183003877Y-107236773D01*
X182933876Y-107190000D01*
X183003877Y-107143227D01*
X183223227Y-106923877D01*
X183395570Y-106665948D01*
X183514282Y-106379352D01*
X183574800Y-106075104D01*
X183574800Y-105764896D01*
X183514282Y-105460648D01*
X183395570Y-105174052D01*
X183223227Y-104916123D01*
X183003877Y-104696773D01*
X182933876Y-104650000D01*
X183003877Y-104603227D01*
X183223227Y-104383877D01*
X183395570Y-104125948D01*
X183514282Y-103839352D01*
X183574800Y-103535104D01*
X183574800Y-103224896D01*
X183514282Y-102920648D01*
X183395570Y-102634052D01*
X183223227Y-102376123D01*
X183003877Y-102156773D01*
X182933876Y-102110000D01*
X183003877Y-102063227D01*
X183223227Y-101843877D01*
X183395570Y-101585948D01*
X183514282Y-101299352D01*
X183574800Y-100995104D01*
X183574800Y-100684896D01*
X183514282Y-100380648D01*
X183395570Y-100094052D01*
X183223227Y-99836123D01*
X183003877Y-99616773D01*
X182933876Y-99570000D01*
X183003877Y-99523227D01*
X183223227Y-99303877D01*
X183395570Y-99045948D01*
X183514282Y-98759352D01*
X183574800Y-98455104D01*
X183574800Y-98144896D01*
X183514282Y-97840648D01*
X183395570Y-97554052D01*
X183223227Y-97296123D01*
X183003877Y-97076773D01*
X182933876Y-97030000D01*
X183003877Y-96983227D01*
X183223227Y-96763877D01*
X183395570Y-96505948D01*
X183514282Y-96219352D01*
X183574800Y-95915104D01*
X183574800Y-95604896D01*
X183514282Y-95300648D01*
X183395570Y-95014052D01*
X183223227Y-94756123D01*
X183003877Y-94536773D01*
X182933876Y-94490000D01*
X183003877Y-94443227D01*
X183223227Y-94223877D01*
X183395570Y-93965948D01*
X183514282Y-93679352D01*
X183574800Y-93375104D01*
X183574800Y-93064896D01*
X183514282Y-92760648D01*
X183395570Y-92474052D01*
X183223227Y-92216123D01*
X183003877Y-91996773D01*
X182933876Y-91950000D01*
X183003877Y-91903227D01*
X183223227Y-91683877D01*
X183395570Y-91425948D01*
X183514282Y-91139352D01*
X183574800Y-90835104D01*
X183574800Y-90524896D01*
X183514282Y-90220648D01*
X183395570Y-89934052D01*
X183223227Y-89676123D01*
X183003877Y-89456773D01*
X182933876Y-89410000D01*
X183003877Y-89363227D01*
X183223227Y-89143877D01*
X183395570Y-88885948D01*
X183514282Y-88599352D01*
X183574800Y-88295104D01*
X183574800Y-87984896D01*
X183514282Y-87680648D01*
X183395570Y-87394052D01*
X183223227Y-87136123D01*
X183003877Y-86916773D01*
X182933876Y-86870000D01*
X183003877Y-86823227D01*
X183223227Y-86603877D01*
X183395570Y-86345948D01*
X183514282Y-86059352D01*
X183574800Y-85755104D01*
X183574800Y-85444896D01*
X183514282Y-85140648D01*
X183395570Y-84854052D01*
X183223227Y-84596123D01*
X183003877Y-84376773D01*
X182933876Y-84330000D01*
X183003877Y-84283227D01*
X183223227Y-84063877D01*
X183395570Y-83805948D01*
X183514282Y-83519352D01*
X183574800Y-83215104D01*
X183574800Y-82904896D01*
X183514282Y-82600648D01*
X183395570Y-82314052D01*
X183223227Y-82056123D01*
X183003877Y-81836773D01*
X182745948Y-81664430D01*
X182459352Y-81545718D01*
X182155104Y-81485200D01*
X181844896Y-81485200D01*
X181540648Y-81545718D01*
X181254052Y-81664430D01*
X180996123Y-81836773D01*
X180776773Y-82056123D01*
X180604430Y-82314052D01*
X180585398Y-82360000D01*
X176136339Y-82360000D01*
X176099999Y-82356421D01*
X176063659Y-82360000D01*
X176063653Y-82360000D01*
X175970170Y-82369207D01*
X175954934Y-82370708D01*
X175840458Y-82405434D01*
X175815444Y-82413022D01*
X175686889Y-82481736D01*
X175686887Y-82481737D01*
X175686888Y-82481737D01*
X175602442Y-82551040D01*
X175602440Y-82551042D01*
X175574210Y-82574210D01*
X175551042Y-82602440D01*
X166002441Y-92151042D01*
X165974211Y-92174210D01*
X165951043Y-92202440D01*
X165951040Y-92202443D01*
X165923216Y-92236347D01*
X165881737Y-92286889D01*
X165875744Y-92298102D01*
X165813022Y-92415445D01*
X165770708Y-92554935D01*
X165756421Y-92700000D01*
X165760001Y-92736350D01*
X165760000Y-100193482D01*
X152693483Y-113260000D01*
X142823711Y-113260000D01*
X142759774Y-113196063D01*
X142590256Y-113082795D01*
X142401898Y-113004774D01*
X142201939Y-112965000D01*
X141998061Y-112965000D01*
X141798102Y-113004774D01*
X141609744Y-113082795D01*
X141440226Y-113196063D01*
X141300000Y-113336289D01*
X141159774Y-113196063D01*
X140990256Y-113082795D01*
X140801898Y-113004774D01*
X140601939Y-112965000D01*
X140398061Y-112965000D01*
X140198102Y-113004774D01*
X140009744Y-113082795D01*
X139840226Y-113196063D01*
X139696063Y-113340226D01*
X139650000Y-113409164D01*
X139603937Y-113340226D01*
X139459774Y-113196063D01*
X139290256Y-113082795D01*
X139101898Y-113004774D01*
X138901939Y-112965000D01*
X138698061Y-112965000D01*
X138498102Y-113004774D01*
X138309744Y-113082795D01*
X138140226Y-113196063D01*
X137996063Y-113340226D01*
X137950000Y-113409164D01*
X137903937Y-113340226D01*
X137759774Y-113196063D01*
X137590256Y-113082795D01*
X137401898Y-113004774D01*
X137201939Y-112965000D01*
X136998061Y-112965000D01*
X136798102Y-113004774D01*
X136609744Y-113082795D01*
X136440226Y-113196063D01*
X136296063Y-113340226D01*
X136292330Y-113345813D01*
X134771051Y-111824533D01*
X134909744Y-111917205D01*
X135098102Y-111995226D01*
X135298061Y-112035000D01*
X135501939Y-112035000D01*
X135701898Y-111995226D01*
X135890256Y-111917205D01*
X136059774Y-111803937D01*
X136203937Y-111659774D01*
X136317205Y-111490256D01*
X136395226Y-111301898D01*
X136435000Y-111101939D01*
X136435000Y-111011517D01*
X137106518Y-110340000D01*
X146676289Y-110340000D01*
X146740226Y-110403937D01*
X146909744Y-110517205D01*
X147098102Y-110595226D01*
X147298061Y-110635000D01*
X147501939Y-110635000D01*
X147701898Y-110595226D01*
X147890256Y-110517205D01*
X148059774Y-110403937D01*
X148203937Y-110259774D01*
X148317205Y-110090256D01*
X148395226Y-109901898D01*
X148435000Y-109701939D01*
X148435000Y-109498061D01*
X148405551Y-109350010D01*
X151453650Y-109350010D01*
X151489990Y-109353589D01*
X151526330Y-109350010D01*
X151526337Y-109350010D01*
X151635055Y-109339302D01*
X151774546Y-109296988D01*
X151903101Y-109228274D01*
X152015780Y-109135800D01*
X152038952Y-109107565D01*
X152748960Y-108397558D01*
X152748965Y-108397552D01*
X162611518Y-98535000D01*
X162701939Y-98535000D01*
X162901898Y-98495226D01*
X163090256Y-98417205D01*
X163259774Y-98303937D01*
X163403937Y-98159774D01*
X163517205Y-97990256D01*
X163595226Y-97801898D01*
X163635000Y-97601939D01*
X163635000Y-97398061D01*
X163595226Y-97198102D01*
X163517205Y-97009744D01*
X163403937Y-96840226D01*
X163259774Y-96696063D01*
X163090256Y-96582795D01*
X163011082Y-96550000D01*
X163090256Y-96517205D01*
X163259774Y-96403937D01*
X163403937Y-96259774D01*
X163517205Y-96090256D01*
X163595226Y-95901898D01*
X163635000Y-95701939D01*
X163635000Y-95498061D01*
X163595226Y-95298102D01*
X163517205Y-95109744D01*
X163403937Y-94940226D01*
X163259774Y-94796063D01*
X163090256Y-94682795D01*
X162901898Y-94604774D01*
X162701939Y-94565000D01*
X162498061Y-94565000D01*
X162298102Y-94604774D01*
X162109744Y-94682795D01*
X161940226Y-94796063D01*
X161796063Y-94940226D01*
X161682795Y-95109744D01*
X161604774Y-95298102D01*
X161565000Y-95498061D01*
X161565000Y-95588482D01*
X160502441Y-96651042D01*
X160474211Y-96674210D01*
X160451043Y-96702440D01*
X160451040Y-96702443D01*
X160449814Y-96703937D01*
X160381737Y-96786889D01*
X160353228Y-96840226D01*
X160313022Y-96915445D01*
X160270708Y-97054935D01*
X160256421Y-97200000D01*
X160260001Y-97236349D01*
X160260000Y-98213642D01*
X151968677Y-106504966D01*
X151921343Y-106457632D01*
X151751825Y-106344364D01*
X151563467Y-106266343D01*
X151363508Y-106226569D01*
X151336726Y-106226569D01*
X150982347Y-105872190D01*
X150957764Y-105842236D01*
X150838233Y-105744138D01*
X150701860Y-105671246D01*
X150553887Y-105626359D01*
X150438561Y-105615000D01*
X150438553Y-105615000D01*
X150400000Y-105611203D01*
X150361447Y-105615000D01*
X149885000Y-105615000D01*
X149885000Y-101325157D01*
X150975158Y-100235000D01*
X151001939Y-100235000D01*
X151201898Y-100195226D01*
X151390256Y-100117205D01*
X151559774Y-100003937D01*
X151703937Y-99859774D01*
X151817205Y-99690256D01*
X151895226Y-99501898D01*
X151935000Y-99301939D01*
X151935000Y-99098711D01*
X151940226Y-99103937D01*
X152109744Y-99217205D01*
X152298102Y-99295226D01*
X152498061Y-99335000D01*
X152701939Y-99335000D01*
X152901898Y-99295226D01*
X153090256Y-99217205D01*
X153259774Y-99103937D01*
X153323711Y-99040000D01*
X154378383Y-99040000D01*
X154409538Y-99077962D01*
X154544113Y-99188405D01*
X154697649Y-99270472D01*
X154864245Y-99321008D01*
X155037499Y-99338072D01*
X155562501Y-99338072D01*
X155735755Y-99321008D01*
X155902351Y-99270472D01*
X156055887Y-99188405D01*
X156137137Y-99121724D01*
X156161315Y-99151185D01*
X156258006Y-99230537D01*
X156368320Y-99289502D01*
X156488018Y-99325812D01*
X156612500Y-99338072D01*
X156839250Y-99335000D01*
X156998000Y-99176250D01*
X156998000Y-98127000D01*
X157252000Y-98127000D01*
X157252000Y-99176250D01*
X157410750Y-99335000D01*
X157637500Y-99338072D01*
X157761982Y-99325812D01*
X157881680Y-99289502D01*
X157991994Y-99230537D01*
X158088685Y-99151185D01*
X158168037Y-99054494D01*
X158227002Y-98944180D01*
X158263312Y-98824482D01*
X158275572Y-98700000D01*
X158272500Y-98285750D01*
X158113750Y-98127000D01*
X157252000Y-98127000D01*
X156998000Y-98127000D01*
X156978000Y-98127000D01*
X156978000Y-97873000D01*
X156998000Y-97873000D01*
X156998000Y-96823750D01*
X157252000Y-96823750D01*
X157252000Y-97873000D01*
X158113750Y-97873000D01*
X158272500Y-97714250D01*
X158275572Y-97300000D01*
X158263312Y-97175518D01*
X158227002Y-97055820D01*
X158168037Y-96945506D01*
X158088685Y-96848815D01*
X157991994Y-96769463D01*
X157881680Y-96710498D01*
X157761982Y-96674188D01*
X157637500Y-96661928D01*
X157410750Y-96665000D01*
X157252000Y-96823750D01*
X156998000Y-96823750D01*
X156839250Y-96665000D01*
X156612500Y-96661928D01*
X156488018Y-96674188D01*
X156368320Y-96710498D01*
X156258006Y-96769463D01*
X156161315Y-96848815D01*
X156137137Y-96878276D01*
X156055887Y-96811595D01*
X155902351Y-96729528D01*
X155735755Y-96678992D01*
X155562501Y-96661928D01*
X155037499Y-96661928D01*
X154864245Y-96678992D01*
X154697649Y-96729528D01*
X154544113Y-96811595D01*
X154409538Y-96922038D01*
X154299095Y-97056613D01*
X154217028Y-97210149D01*
X154166492Y-97376745D01*
X154149428Y-97549999D01*
X154149428Y-97560000D01*
X153323711Y-97560000D01*
X153259774Y-97496063D01*
X153090256Y-97382795D01*
X152901898Y-97304774D01*
X152701939Y-97265000D01*
X152498061Y-97265000D01*
X152298102Y-97304774D01*
X152109744Y-97382795D01*
X151940226Y-97496063D01*
X151796063Y-97640226D01*
X151685000Y-97806444D01*
X151685000Y-96538552D01*
X151688797Y-96499999D01*
X151685000Y-96461446D01*
X151685000Y-96461439D01*
X151673641Y-96346113D01*
X151671251Y-96338232D01*
X151628754Y-96198140D01*
X151615963Y-96174210D01*
X151555862Y-96061767D01*
X151457764Y-95942236D01*
X151427816Y-95917658D01*
X150882346Y-95372189D01*
X150857764Y-95342236D01*
X150738233Y-95244138D01*
X150601860Y-95171246D01*
X150453887Y-95126359D01*
X150338561Y-95115000D01*
X150338553Y-95115000D01*
X150300000Y-95111203D01*
X150261447Y-95115000D01*
X144378711Y-95115000D01*
X144359774Y-95096063D01*
X144190256Y-94982795D01*
X144001898Y-94904774D01*
X143801939Y-94865000D01*
X143598061Y-94865000D01*
X143398102Y-94904774D01*
X143209744Y-94982795D01*
X143040226Y-95096063D01*
X142896063Y-95240226D01*
X142782795Y-95409744D01*
X142704774Y-95598102D01*
X142665000Y-95798061D01*
X142665000Y-95888483D01*
X142402445Y-96151038D01*
X142374210Y-96174210D01*
X142281736Y-96286890D01*
X142226486Y-96390256D01*
X142213022Y-96415445D01*
X142182154Y-96517205D01*
X142170708Y-96554936D01*
X142160000Y-96663654D01*
X142160000Y-96663660D01*
X142156421Y-96700000D01*
X142160000Y-96736340D01*
X142160001Y-97906822D01*
X142085150Y-97929528D01*
X141931614Y-98011595D01*
X141797038Y-98122038D01*
X141686595Y-98256614D01*
X141604528Y-98410150D01*
X141553992Y-98576746D01*
X141536928Y-98750000D01*
X141536928Y-99250000D01*
X141553992Y-99423254D01*
X141604528Y-99589850D01*
X141686595Y-99743386D01*
X141797038Y-99877962D01*
X141803594Y-99883342D01*
X141723815Y-99948815D01*
X141644463Y-100045506D01*
X141585498Y-100155820D01*
X141549188Y-100275518D01*
X141536928Y-100400000D01*
X141540000Y-100614250D01*
X141698750Y-100773000D01*
X142773000Y-100773000D01*
X142773000Y-100753000D01*
X143027000Y-100753000D01*
X143027000Y-100773000D01*
X144101250Y-100773000D01*
X144260000Y-100614250D01*
X144263072Y-100400000D01*
X144250812Y-100275518D01*
X144214502Y-100155820D01*
X144155537Y-100045506D01*
X144076185Y-99948815D01*
X143996406Y-99883342D01*
X144002962Y-99877962D01*
X144113405Y-99743386D01*
X144195472Y-99589850D01*
X144246008Y-99423254D01*
X144263072Y-99250000D01*
X144263072Y-98750000D01*
X144246008Y-98576746D01*
X144195472Y-98410150D01*
X144113405Y-98256614D01*
X144002962Y-98122038D01*
X143868386Y-98011595D01*
X143714850Y-97929528D01*
X143640000Y-97906823D01*
X143640000Y-97006517D01*
X143711517Y-96935000D01*
X143801939Y-96935000D01*
X144001898Y-96895226D01*
X144190256Y-96817205D01*
X144359774Y-96703937D01*
X144378711Y-96685000D01*
X149974843Y-96685000D01*
X150115000Y-96825158D01*
X150115001Y-98460000D01*
X148725761Y-98460000D01*
X148695472Y-98360150D01*
X148613405Y-98206614D01*
X148502962Y-98072038D01*
X148368386Y-97961595D01*
X148214850Y-97879528D01*
X148048254Y-97828992D01*
X147875000Y-97811928D01*
X146925000Y-97811928D01*
X146751746Y-97828992D01*
X146585150Y-97879528D01*
X146431614Y-97961595D01*
X146297038Y-98072038D01*
X146186595Y-98206614D01*
X146104528Y-98360150D01*
X146053992Y-98526746D01*
X146036928Y-98700000D01*
X146036928Y-99200000D01*
X146053992Y-99373254D01*
X146104528Y-99539850D01*
X146186595Y-99693386D01*
X146297038Y-99827962D01*
X146303594Y-99833342D01*
X146223815Y-99898815D01*
X146144463Y-99995506D01*
X146085498Y-100105820D01*
X146049188Y-100225518D01*
X146036928Y-100350000D01*
X146040000Y-100564250D01*
X146198750Y-100723000D01*
X147273000Y-100723000D01*
X147273000Y-100703000D01*
X147527000Y-100703000D01*
X147527000Y-100723000D01*
X147547000Y-100723000D01*
X147547000Y-100977000D01*
X147527000Y-100977000D01*
X147527000Y-101623750D01*
X147427000Y-101723750D01*
X147427000Y-102573000D01*
X147447000Y-102573000D01*
X147447000Y-102827000D01*
X147427000Y-102827000D01*
X147427000Y-102847000D01*
X147173000Y-102847000D01*
X147173000Y-102827000D01*
X146098750Y-102827000D01*
X145940000Y-102985750D01*
X145936928Y-103200000D01*
X145949188Y-103324482D01*
X145985498Y-103444180D01*
X146044463Y-103554494D01*
X146123815Y-103651185D01*
X146203594Y-103716658D01*
X146197038Y-103722038D01*
X146086595Y-103856614D01*
X146004528Y-104010150D01*
X145953992Y-104176746D01*
X145936928Y-104350000D01*
X145936928Y-104850000D01*
X145953992Y-105023254D01*
X146004528Y-105189850D01*
X146086595Y-105343386D01*
X146197038Y-105477962D01*
X146331614Y-105588405D01*
X146485150Y-105670472D01*
X146631940Y-105715000D01*
X145125157Y-105715000D01*
X144262811Y-104852654D01*
X144263072Y-104850000D01*
X144263072Y-104350000D01*
X144246008Y-104176746D01*
X144195472Y-104010150D01*
X144113405Y-103856614D01*
X144002962Y-103722038D01*
X143996406Y-103716658D01*
X144076185Y-103651185D01*
X144155537Y-103554494D01*
X144214502Y-103444180D01*
X144250812Y-103324482D01*
X144263072Y-103200000D01*
X144260000Y-102985750D01*
X144101250Y-102827000D01*
X143027000Y-102827000D01*
X143027000Y-102847000D01*
X142773000Y-102847000D01*
X142773000Y-102827000D01*
X141698750Y-102827000D01*
X141540000Y-102985750D01*
X141536928Y-103200000D01*
X141549188Y-103324482D01*
X141585498Y-103444180D01*
X141644463Y-103554494D01*
X141723815Y-103651185D01*
X141803594Y-103716658D01*
X141797038Y-103722038D01*
X141686595Y-103856614D01*
X141684785Y-103860000D01*
X139836339Y-103860000D01*
X139799999Y-103856421D01*
X139763659Y-103860000D01*
X139763653Y-103860000D01*
X139670170Y-103869207D01*
X139654934Y-103870708D01*
X139515444Y-103913022D01*
X139386889Y-103981736D01*
X139327097Y-104030807D01*
X139302442Y-104051040D01*
X139302440Y-104051042D01*
X139274210Y-104074210D01*
X139251042Y-104102440D01*
X139188482Y-104165000D01*
X139098061Y-104165000D01*
X138898102Y-104204774D01*
X138709744Y-104282795D01*
X138540226Y-104396063D01*
X138396063Y-104540226D01*
X138282795Y-104709744D01*
X138204774Y-104898102D01*
X138165000Y-105098061D01*
X138165000Y-105301939D01*
X138204774Y-105501898D01*
X138282795Y-105690256D01*
X138396063Y-105859774D01*
X138540226Y-106003937D01*
X138709744Y-106117205D01*
X138898102Y-106195226D01*
X139098061Y-106235000D01*
X139301939Y-106235000D01*
X139501898Y-106195226D01*
X139690256Y-106117205D01*
X139859774Y-106003937D01*
X140003937Y-105859774D01*
X140117205Y-105690256D01*
X140195226Y-105501898D01*
X140227429Y-105340000D01*
X141684785Y-105340000D01*
X141686595Y-105343386D01*
X141797038Y-105477962D01*
X141931614Y-105588405D01*
X142085150Y-105670472D01*
X142251746Y-105721008D01*
X142425000Y-105738072D01*
X142927915Y-105738072D01*
X144217653Y-107027810D01*
X144242236Y-107057764D01*
X144361767Y-107155862D01*
X144498140Y-107228754D01*
X144646113Y-107273642D01*
X144721026Y-107281020D01*
X144761439Y-107285000D01*
X144761444Y-107285000D01*
X144800000Y-107288797D01*
X144838556Y-107285000D01*
X148421289Y-107285000D01*
X148440226Y-107303937D01*
X148609744Y-107417205D01*
X148713060Y-107460000D01*
X135706518Y-107460000D01*
X135035000Y-106788483D01*
X135035000Y-106698061D01*
X134995226Y-106498102D01*
X134917205Y-106309744D01*
X134803937Y-106140226D01*
X134659774Y-105996063D01*
X134490256Y-105882795D01*
X134301898Y-105804774D01*
X134101939Y-105765000D01*
X133898061Y-105765000D01*
X133698102Y-105804774D01*
X133511895Y-105881904D01*
X133495226Y-105798102D01*
X133417205Y-105609744D01*
X133303937Y-105440226D01*
X133159774Y-105296063D01*
X132990256Y-105182795D01*
X132801898Y-105104774D01*
X132601939Y-105065000D01*
X132398061Y-105065000D01*
X132198102Y-105104774D01*
X132135000Y-105130912D01*
X132135000Y-105098061D01*
X132095226Y-104898102D01*
X132017205Y-104709744D01*
X131903937Y-104540226D01*
X131759774Y-104396063D01*
X131590256Y-104282795D01*
X131401898Y-104204774D01*
X131201939Y-104165000D01*
X130998061Y-104165000D01*
X130935000Y-104177544D01*
X130935000Y-103998061D01*
X130895226Y-103798102D01*
X130817205Y-103609744D01*
X130703937Y-103440226D01*
X130559774Y-103296063D01*
X130390256Y-103182795D01*
X130201898Y-103104774D01*
X130001939Y-103065000D01*
X129798061Y-103065000D01*
X129598102Y-103104774D01*
X129507042Y-103142492D01*
X129535000Y-103001939D01*
X129535000Y-102798061D01*
X129495226Y-102598102D01*
X129417205Y-102409744D01*
X129303937Y-102240226D01*
X129159774Y-102096063D01*
X128990256Y-101982795D01*
X128801898Y-101904774D01*
X128601939Y-101865000D01*
X128398061Y-101865000D01*
X128198102Y-101904774D01*
X128009744Y-101982795D01*
X127840226Y-102096063D01*
X127696063Y-102240226D01*
X127582795Y-102409744D01*
X127504774Y-102598102D01*
X127465000Y-102798061D01*
X126640000Y-102798061D01*
X126640000Y-101400000D01*
X141536928Y-101400000D01*
X141549188Y-101524482D01*
X141585498Y-101644180D01*
X141644463Y-101754494D01*
X141681809Y-101800000D01*
X141644463Y-101845506D01*
X141585498Y-101955820D01*
X141549188Y-102075518D01*
X141536928Y-102200000D01*
X141540000Y-102414250D01*
X141698750Y-102573000D01*
X142773000Y-102573000D01*
X142773000Y-101027000D01*
X143027000Y-101027000D01*
X143027000Y-102573000D01*
X144101250Y-102573000D01*
X144260000Y-102414250D01*
X144263072Y-102200000D01*
X145936928Y-102200000D01*
X145940000Y-102414250D01*
X146098750Y-102573000D01*
X147173000Y-102573000D01*
X147173000Y-101926250D01*
X147273000Y-101826250D01*
X147273000Y-100977000D01*
X146198750Y-100977000D01*
X146040000Y-101135750D01*
X146036928Y-101350000D01*
X146049188Y-101474482D01*
X146085498Y-101594180D01*
X146144463Y-101704494D01*
X146157888Y-101720852D01*
X146123815Y-101748815D01*
X146044463Y-101845506D01*
X145985498Y-101955820D01*
X145949188Y-102075518D01*
X145936928Y-102200000D01*
X144263072Y-102200000D01*
X144250812Y-102075518D01*
X144214502Y-101955820D01*
X144155537Y-101845506D01*
X144118191Y-101800000D01*
X144155537Y-101754494D01*
X144214502Y-101644180D01*
X144250812Y-101524482D01*
X144263072Y-101400000D01*
X144260000Y-101185750D01*
X144101250Y-101027000D01*
X143027000Y-101027000D01*
X142773000Y-101027000D01*
X141698750Y-101027000D01*
X141540000Y-101185750D01*
X141536928Y-101400000D01*
X126640000Y-101400000D01*
X126640000Y-94159411D01*
X141321928Y-79477484D01*
X141321928Y-79770000D01*
X141334188Y-79894482D01*
X141370498Y-80014180D01*
X141429463Y-80124494D01*
X141508815Y-80221185D01*
X141605506Y-80300537D01*
X141715820Y-80359502D01*
X141835518Y-80395812D01*
X141960000Y-80408072D01*
X142960000Y-80408072D01*
X143084482Y-80395812D01*
X143204180Y-80359502D01*
X143293180Y-80311930D01*
X143373136Y-80347446D01*
X143428126Y-80364119D01*
X143603000Y-80237954D01*
X143603000Y-79397000D01*
X143857000Y-79397000D01*
X143857000Y-80237954D01*
X144031874Y-80364119D01*
X144086864Y-80347446D01*
X144290206Y-80257123D01*
X144365000Y-80204361D01*
X144439794Y-80257123D01*
X144643136Y-80347446D01*
X144698126Y-80364119D01*
X144873000Y-80237954D01*
X144873000Y-79397000D01*
X143857000Y-79397000D01*
X143603000Y-79397000D01*
X143598072Y-79397000D01*
X143598072Y-79143000D01*
X143603000Y-79143000D01*
X143603000Y-79131974D01*
X143618212Y-79135000D01*
X143841788Y-79135000D01*
X143857000Y-79131974D01*
X143857000Y-79143000D01*
X144873000Y-79143000D01*
X144873000Y-79131974D01*
X144888212Y-79135000D01*
X145111788Y-79135000D01*
X145127000Y-79131974D01*
X145127000Y-79143000D01*
X145138026Y-79143000D01*
X145135000Y-79158212D01*
X145135000Y-79381788D01*
X145138026Y-79397000D01*
X145127000Y-79397000D01*
X145127000Y-80237954D01*
X145301874Y-80364119D01*
X145356864Y-80347446D01*
X145560206Y-80257123D01*
X145630342Y-80207647D01*
X145732376Y-80275824D01*
X145938933Y-80361383D01*
X146158212Y-80405000D01*
X146381788Y-80405000D01*
X146601067Y-80361383D01*
X146807624Y-80275824D01*
X146909658Y-80207647D01*
X146979794Y-80257123D01*
X147183136Y-80347446D01*
X147238126Y-80364119D01*
X147413000Y-80237954D01*
X147413000Y-79397000D01*
X147667000Y-79397000D01*
X147667000Y-80237954D01*
X147841874Y-80364119D01*
X147896864Y-80347446D01*
X148100206Y-80257123D01*
X148282020Y-80128865D01*
X148435318Y-79967601D01*
X148554210Y-79779529D01*
X148634126Y-79571876D01*
X148509129Y-79397000D01*
X147667000Y-79397000D01*
X147413000Y-79397000D01*
X147401974Y-79397000D01*
X147405000Y-79381788D01*
X147405000Y-79158212D01*
X147401974Y-79143000D01*
X147413000Y-79143000D01*
X147413000Y-79131974D01*
X147428212Y-79135000D01*
X147651788Y-79135000D01*
X147667000Y-79131974D01*
X147667000Y-79143000D01*
X148509129Y-79143000D01*
X148634126Y-78968124D01*
X148554210Y-78760471D01*
X148541269Y-78740000D01*
X149893483Y-78740000D01*
X150060001Y-78906519D01*
X150060000Y-83893482D01*
X143448525Y-90504957D01*
X143404775Y-90285011D01*
X143300371Y-90032957D01*
X143148799Y-89806114D01*
X142955886Y-89613201D01*
X142729043Y-89461629D01*
X142476989Y-89357225D01*
X142209411Y-89304000D01*
X141936589Y-89304000D01*
X141669011Y-89357225D01*
X141416957Y-89461629D01*
X141190114Y-89613201D01*
X140997201Y-89806114D01*
X140845629Y-90032957D01*
X140840000Y-90046547D01*
X140840000Y-88206517D01*
X142511518Y-86535000D01*
X142601939Y-86535000D01*
X142801898Y-86495226D01*
X142990256Y-86417205D01*
X143159774Y-86303937D01*
X143303937Y-86159774D01*
X143417205Y-85990256D01*
X143495226Y-85801898D01*
X143535000Y-85601939D01*
X143535000Y-85398061D01*
X143495226Y-85198102D01*
X143417205Y-85009744D01*
X143303937Y-84840226D01*
X143159774Y-84696063D01*
X142990256Y-84582795D01*
X142801898Y-84504774D01*
X142601939Y-84465000D01*
X142398061Y-84465000D01*
X142198102Y-84504774D01*
X142009744Y-84582795D01*
X141840226Y-84696063D01*
X141696063Y-84840226D01*
X141582795Y-85009744D01*
X141504774Y-85198102D01*
X141465000Y-85398061D01*
X141465000Y-85488482D01*
X139602445Y-87351038D01*
X139574210Y-87374210D01*
X139481736Y-87486890D01*
X139426066Y-87591041D01*
X139413022Y-87615445D01*
X139379216Y-87726890D01*
X139370708Y-87754936D01*
X139360000Y-87863654D01*
X139360000Y-87863660D01*
X139356421Y-87900000D01*
X139360000Y-87936340D01*
X139360001Y-91476288D01*
X139296063Y-91540226D01*
X139182795Y-91709744D01*
X139104774Y-91898102D01*
X139065000Y-92098061D01*
X139065000Y-92301939D01*
X139104774Y-92501898D01*
X139182795Y-92690256D01*
X139296063Y-92859774D01*
X139440226Y-93003937D01*
X139609744Y-93117205D01*
X139798102Y-93195226D01*
X139998061Y-93235000D01*
X140201939Y-93235000D01*
X140401898Y-93195226D01*
X140590256Y-93117205D01*
X140759774Y-93003937D01*
X140903937Y-92859774D01*
X141017205Y-92690256D01*
X141095226Y-92501898D01*
X141135000Y-92301939D01*
X141135000Y-92098061D01*
X141095226Y-91898102D01*
X141017205Y-91709744D01*
X140903937Y-91540226D01*
X140840000Y-91476289D01*
X140840000Y-91331453D01*
X140845629Y-91345043D01*
X140997201Y-91571886D01*
X141190114Y-91764799D01*
X141416957Y-91916371D01*
X141569722Y-91979648D01*
X141482795Y-92109744D01*
X141404774Y-92298102D01*
X141365000Y-92498061D01*
X141365000Y-92701939D01*
X141404774Y-92901898D01*
X141482795Y-93090256D01*
X141596063Y-93259774D01*
X141740226Y-93403937D01*
X141909744Y-93517205D01*
X142098102Y-93595226D01*
X142298061Y-93635000D01*
X142501939Y-93635000D01*
X142701898Y-93595226D01*
X142890256Y-93517205D01*
X143059774Y-93403937D01*
X143203937Y-93259774D01*
X143317205Y-93090256D01*
X143395226Y-92901898D01*
X143435000Y-92701939D01*
X143435000Y-92611517D01*
X145611359Y-90435159D01*
X145588000Y-90552589D01*
X145588000Y-90825411D01*
X145641225Y-91092989D01*
X145745629Y-91345043D01*
X145897201Y-91571886D01*
X146090114Y-91764799D01*
X146316957Y-91916371D01*
X146569011Y-92020775D01*
X146836589Y-92074000D01*
X147109411Y-92074000D01*
X147376989Y-92020775D01*
X147629043Y-91916371D01*
X147855886Y-91764799D01*
X148048799Y-91571886D01*
X148060000Y-91555122D01*
X148060000Y-91593482D01*
X147288483Y-92365000D01*
X147198061Y-92365000D01*
X146998102Y-92404774D01*
X146809744Y-92482795D01*
X146640226Y-92596063D01*
X146496063Y-92740226D01*
X146382795Y-92909744D01*
X146304774Y-93098102D01*
X146265000Y-93298061D01*
X146265000Y-93501939D01*
X146304774Y-93701898D01*
X146382795Y-93890256D01*
X146496063Y-94059774D01*
X146640226Y-94203937D01*
X146809744Y-94317205D01*
X146998102Y-94395226D01*
X147198061Y-94435000D01*
X147401939Y-94435000D01*
X147601898Y-94395226D01*
X147790256Y-94317205D01*
X147828164Y-94291875D01*
X147940226Y-94403937D01*
X148109744Y-94517205D01*
X148298102Y-94595226D01*
X148498061Y-94635000D01*
X148701939Y-94635000D01*
X148901898Y-94595226D01*
X149090256Y-94517205D01*
X149259774Y-94403937D01*
X149403937Y-94259774D01*
X149517205Y-94090256D01*
X149595226Y-93901898D01*
X149600000Y-93877897D01*
X149604774Y-93901898D01*
X149682795Y-94090256D01*
X149796063Y-94259774D01*
X149940226Y-94403937D01*
X150109744Y-94517205D01*
X150298102Y-94595226D01*
X150498061Y-94635000D01*
X150701939Y-94635000D01*
X150901898Y-94595226D01*
X151090256Y-94517205D01*
X151259774Y-94403937D01*
X151403937Y-94259774D01*
X151517205Y-94090256D01*
X151595226Y-93901898D01*
X151635000Y-93701939D01*
X151635000Y-93611517D01*
X161816528Y-83429990D01*
X163813670Y-83429990D01*
X163850010Y-83433569D01*
X163886350Y-83429990D01*
X163886357Y-83429990D01*
X163995075Y-83419282D01*
X164134566Y-83376968D01*
X164263121Y-83308254D01*
X164375800Y-83215780D01*
X164398972Y-83187545D01*
X181074700Y-66511818D01*
X181080648Y-66514282D01*
X181384896Y-66574800D01*
X181695104Y-66574800D01*
X181999352Y-66514282D01*
X182285948Y-66395570D01*
X182543877Y-66223227D01*
X182763227Y-66003877D01*
X182935570Y-65745948D01*
X183054282Y-65459352D01*
X183114800Y-65155104D01*
X183114800Y-64844896D01*
X183054282Y-64540648D01*
X182935570Y-64254052D01*
X182763227Y-63996123D01*
X182543877Y-63776773D01*
X182285948Y-63604430D01*
X181999352Y-63485718D01*
X181695104Y-63425200D01*
X181384896Y-63425200D01*
X181080648Y-63485718D01*
X180794052Y-63604430D01*
X180536123Y-63776773D01*
X180316773Y-63996123D01*
X180270000Y-64066124D01*
X180223227Y-63996123D01*
X180003877Y-63776773D01*
X179745948Y-63604430D01*
X179459352Y-63485718D01*
X179155104Y-63425200D01*
X178844896Y-63425200D01*
X178540648Y-63485718D01*
X178254052Y-63604430D01*
X177996123Y-63776773D01*
X177776773Y-63996123D01*
X177730000Y-64066124D01*
X177683227Y-63996123D01*
X177463877Y-63776773D01*
X177205948Y-63604430D01*
X176919352Y-63485718D01*
X176615104Y-63425200D01*
X176304896Y-63425200D01*
X176000648Y-63485718D01*
X175714052Y-63604430D01*
X175456123Y-63776773D01*
X175236773Y-63996123D01*
X175064430Y-64254052D01*
X175061966Y-64260000D01*
X171436340Y-64260000D01*
X171400000Y-64256421D01*
X171363660Y-64260000D01*
X171363653Y-64260000D01*
X171254935Y-64270708D01*
X171115444Y-64313022D01*
X170986889Y-64381736D01*
X170902442Y-64451040D01*
X170902440Y-64451042D01*
X170874210Y-64474210D01*
X170851042Y-64502440D01*
X151540000Y-83813483D01*
X151540000Y-78636339D01*
X151543579Y-78599999D01*
X151540000Y-78563659D01*
X151540000Y-78563653D01*
X151529292Y-78454935D01*
X151517332Y-78415506D01*
X151486978Y-78315444D01*
X151470468Y-78284556D01*
X151418264Y-78186889D01*
X151325790Y-78074210D01*
X151297560Y-78051042D01*
X150748962Y-77502445D01*
X150725790Y-77474210D01*
X150613111Y-77381736D01*
X150484556Y-77313022D01*
X150345065Y-77270708D01*
X150236347Y-77260000D01*
X150236340Y-77260000D01*
X150200000Y-77256421D01*
X150163660Y-77260000D01*
X148405132Y-77260000D01*
X148263520Y-77118388D01*
X148077624Y-76994176D01*
X147871067Y-76908617D01*
X147651788Y-76865000D01*
X147428212Y-76865000D01*
X147208933Y-76908617D01*
X147002376Y-76994176D01*
X146905000Y-77059241D01*
X146807624Y-76994176D01*
X146601067Y-76908617D01*
X146381788Y-76865000D01*
X146158212Y-76865000D01*
X145938933Y-76908617D01*
X145732376Y-76994176D01*
X145635000Y-77059241D01*
X145537624Y-76994176D01*
X145331067Y-76908617D01*
X145111788Y-76865000D01*
X144888212Y-76865000D01*
X144668933Y-76908617D01*
X144462376Y-76994176D01*
X144365000Y-77059241D01*
X144267624Y-76994176D01*
X144061067Y-76908617D01*
X143841788Y-76865000D01*
X143641517Y-76865000D01*
X143473961Y-76697444D01*
X143450789Y-76669209D01*
X143338110Y-76576735D01*
X143209555Y-76508021D01*
X143070064Y-76465707D01*
X142961346Y-76454999D01*
X142961339Y-76454999D01*
X142924999Y-76451420D01*
X142888659Y-76454999D01*
X142014394Y-76454999D01*
X141978054Y-76451420D01*
X141941714Y-76454999D01*
X141941707Y-76454999D01*
X141846776Y-76464349D01*
X141832988Y-76465707D01*
X141693498Y-76508021D01*
X141564943Y-76576735D01*
X141505151Y-76625806D01*
X141480496Y-76646039D01*
X141480494Y-76646041D01*
X141452264Y-76669209D01*
X141429096Y-76697439D01*
X122902445Y-95224091D01*
X122874210Y-95247263D01*
X122781736Y-95359943D01*
X122713023Y-95488497D01*
X122713022Y-95488498D01*
X122679763Y-95598140D01*
X122670708Y-95627989D01*
X122660000Y-95736707D01*
X122660000Y-95736713D01*
X122656421Y-95773053D01*
X122660000Y-95809393D01*
X122660001Y-105876288D01*
X122596063Y-105940226D01*
X122482795Y-106109744D01*
X122404774Y-106298102D01*
X122365000Y-106498061D01*
X122365000Y-106701939D01*
X122404774Y-106901898D01*
X122482795Y-107090256D01*
X122596063Y-107259774D01*
X122740226Y-107403937D01*
X122824130Y-107460000D01*
X115596340Y-107460000D01*
X115560000Y-107456421D01*
X115523660Y-107460000D01*
X115523653Y-107460000D01*
X115414935Y-107470708D01*
X115275444Y-107513022D01*
X115224549Y-107540226D01*
X115146889Y-107581736D01*
X115062442Y-107651040D01*
X115062440Y-107651042D01*
X115034210Y-107674210D01*
X115011042Y-107702440D01*
X109574800Y-113138683D01*
X109574800Y-113064896D01*
X109514282Y-112760648D01*
X109395570Y-112474052D01*
X109223227Y-112216123D01*
X109003877Y-111996773D01*
X108933876Y-111950000D01*
X109003877Y-111903227D01*
X109223227Y-111683877D01*
X109395570Y-111425948D01*
X109514282Y-111139352D01*
X109574800Y-110835104D01*
X109574800Y-110524896D01*
X109514282Y-110220648D01*
X109395570Y-109934052D01*
X109223227Y-109676123D01*
X109003877Y-109456773D01*
X108933876Y-109410000D01*
X109003877Y-109363227D01*
X109223227Y-109143877D01*
X109395570Y-108885948D01*
X109514282Y-108599352D01*
X109574800Y-108295104D01*
X109574800Y-107984896D01*
X109514282Y-107680648D01*
X109395570Y-107394052D01*
X109223227Y-107136123D01*
X109003877Y-106916773D01*
X108933876Y-106870000D01*
X109003877Y-106823227D01*
X109223227Y-106603877D01*
X109395570Y-106345948D01*
X109514282Y-106059352D01*
X109574800Y-105755104D01*
X109574800Y-105444896D01*
X109514282Y-105140648D01*
X109395570Y-104854052D01*
X109223227Y-104596123D01*
X109003877Y-104376773D01*
X108933876Y-104330000D01*
X109003877Y-104283227D01*
X109223227Y-104063877D01*
X109395570Y-103805948D01*
X109514282Y-103519352D01*
X109574800Y-103215104D01*
X109574800Y-102904896D01*
X109514282Y-102600648D01*
X109395570Y-102314052D01*
X109223227Y-102056123D01*
X109003877Y-101836773D01*
X108933876Y-101790000D01*
X109003877Y-101743227D01*
X109223227Y-101523877D01*
X109395570Y-101265948D01*
X109514282Y-100979352D01*
X109574800Y-100675104D01*
X109574800Y-100364896D01*
X109514282Y-100060648D01*
X109395570Y-99774052D01*
X109223227Y-99516123D01*
X109003877Y-99296773D01*
X108933876Y-99250000D01*
X109003877Y-99203227D01*
X109223227Y-98983877D01*
X109395570Y-98725948D01*
X109514282Y-98439352D01*
X109574800Y-98135104D01*
X109574800Y-97824896D01*
X109514282Y-97520648D01*
X109395570Y-97234052D01*
X109223227Y-96976123D01*
X109003877Y-96756773D01*
X108933876Y-96710000D01*
X109003877Y-96663227D01*
X109223227Y-96443877D01*
X109395570Y-96185948D01*
X109514282Y-95899352D01*
X109574800Y-95595104D01*
X109574800Y-95284896D01*
X109514282Y-94980648D01*
X109395570Y-94694052D01*
X109223227Y-94436123D01*
X109003877Y-94216773D01*
X108933876Y-94170000D01*
X109003877Y-94123227D01*
X109223227Y-93903877D01*
X109395570Y-93645948D01*
X109514282Y-93359352D01*
X109574800Y-93055104D01*
X109574800Y-92744896D01*
X109514282Y-92440648D01*
X109395570Y-92154052D01*
X109223227Y-91896123D01*
X109003877Y-91676773D01*
X108933876Y-91630000D01*
X109003877Y-91583227D01*
X109223227Y-91363877D01*
X109395570Y-91105948D01*
X109514282Y-90819352D01*
X109574800Y-90515104D01*
X109574800Y-90204896D01*
X109514282Y-89900648D01*
X109395570Y-89614052D01*
X109223227Y-89356123D01*
X109003877Y-89136773D01*
X108933876Y-89090000D01*
X109003877Y-89043227D01*
X109223227Y-88823877D01*
X109395570Y-88565948D01*
X109514282Y-88279352D01*
X109574800Y-87975104D01*
X109574800Y-87664896D01*
X109514282Y-87360648D01*
X109395570Y-87074052D01*
X109223227Y-86816123D01*
X109003877Y-86596773D01*
X108933876Y-86550000D01*
X109003877Y-86503227D01*
X109223227Y-86283877D01*
X109395570Y-86025948D01*
X109514282Y-85739352D01*
X109574800Y-85435104D01*
X109574800Y-85124896D01*
X109514282Y-84820648D01*
X109395570Y-84534052D01*
X109223227Y-84276123D01*
X109003877Y-84056773D01*
X108933876Y-84010000D01*
X109003877Y-83963227D01*
X109223227Y-83743877D01*
X109395570Y-83485948D01*
X109514282Y-83199352D01*
X109574800Y-82895104D01*
X109574800Y-82584896D01*
X109514282Y-82280648D01*
X109395570Y-81994052D01*
X109223227Y-81736123D01*
X109003877Y-81516773D01*
X108745948Y-81344430D01*
X108459352Y-81225718D01*
X108155104Y-81165200D01*
X107844896Y-81165200D01*
X107540648Y-81225718D01*
X107254052Y-81344430D01*
X106996123Y-81516773D01*
X106776773Y-81736123D01*
X106604430Y-81994052D01*
X106485718Y-82280648D01*
X106425200Y-82584896D01*
X105660000Y-82584896D01*
X105660000Y-62660000D01*
X184340000Y-62660000D01*
X184340001Y-141340000D01*
G37*
%TD.AperFunction*%
%TD*%
M02*
