%TF.GenerationSoftware,KiCad,Pcbnew,(5.1.9)-1*%
%TF.CreationDate,2021-02-25T22:56:50-07:00*%
%TF.ProjectId,Avionics_Computer,4176696f-6e69-4637-935f-436f6d707574,rev?*%
%TF.SameCoordinates,Original*%
%TF.FileFunction,Legend,Bot*%
%TF.FilePolarity,Positive*%
%FSLAX46Y46*%
G04 Gerber Fmt 4.6, Leading zero omitted, Abs format (unit mm)*
G04 Created by KiCad (PCBNEW (5.1.9)-1) date 2021-02-25 22:56:50*
%MOMM*%
%LPD*%
G01*
G04 APERTURE LIST*
%ADD10C,0.120000*%
%ADD11C,0.150000*%
G04 APERTURE END LIST*
D10*
%TO.C,R1*%
X155985436Y-98735000D02*
X156439564Y-98735000D01*
X155985436Y-97265000D02*
X156439564Y-97265000D01*
%TO.C,C9*%
X143635000Y-103911252D02*
X143635000Y-103388748D01*
X142165000Y-103911252D02*
X142165000Y-103388748D01*
%TO.C,C8*%
X146665000Y-99638748D02*
X146665000Y-100161252D01*
X148135000Y-99638748D02*
X148135000Y-100161252D01*
%TO.C,C7*%
X148035000Y-103911252D02*
X148035000Y-103388748D01*
X146565000Y-103911252D02*
X146565000Y-103388748D01*
%TO.C,C6*%
X142165000Y-99688748D02*
X142165000Y-100211252D01*
X143635000Y-99688748D02*
X143635000Y-100211252D01*
%TO.C,R1*%
D11*
X156379166Y-100102380D02*
X156712500Y-99626190D01*
X156950595Y-100102380D02*
X156950595Y-99102380D01*
X156569642Y-99102380D01*
X156474404Y-99150000D01*
X156426785Y-99197619D01*
X156379166Y-99292857D01*
X156379166Y-99435714D01*
X156426785Y-99530952D01*
X156474404Y-99578571D01*
X156569642Y-99626190D01*
X156950595Y-99626190D01*
X155426785Y-100102380D02*
X155998214Y-100102380D01*
X155712500Y-100102380D02*
X155712500Y-99102380D01*
X155807738Y-99245238D01*
X155902976Y-99340476D01*
X155998214Y-99388095D01*
%TO.C,C9*%
X143266666Y-106457142D02*
X143314285Y-106504761D01*
X143457142Y-106552380D01*
X143552380Y-106552380D01*
X143695238Y-106504761D01*
X143790476Y-106409523D01*
X143838095Y-106314285D01*
X143885714Y-106123809D01*
X143885714Y-105980952D01*
X143838095Y-105790476D01*
X143790476Y-105695238D01*
X143695238Y-105600000D01*
X143552380Y-105552380D01*
X143457142Y-105552380D01*
X143314285Y-105600000D01*
X143266666Y-105647619D01*
X142790476Y-106552380D02*
X142600000Y-106552380D01*
X142504761Y-106504761D01*
X142457142Y-106457142D01*
X142361904Y-106314285D01*
X142314285Y-106123809D01*
X142314285Y-105742857D01*
X142361904Y-105647619D01*
X142409523Y-105600000D01*
X142504761Y-105552380D01*
X142695238Y-105552380D01*
X142790476Y-105600000D01*
X142838095Y-105647619D01*
X142885714Y-105742857D01*
X142885714Y-105980952D01*
X142838095Y-106076190D01*
X142790476Y-106123809D01*
X142695238Y-106171428D01*
X142504761Y-106171428D01*
X142409523Y-106123809D01*
X142361904Y-106076190D01*
X142314285Y-105980952D01*
%TO.C,C8*%
X147666666Y-97957142D02*
X147714285Y-98004761D01*
X147857142Y-98052380D01*
X147952380Y-98052380D01*
X148095238Y-98004761D01*
X148190476Y-97909523D01*
X148238095Y-97814285D01*
X148285714Y-97623809D01*
X148285714Y-97480952D01*
X148238095Y-97290476D01*
X148190476Y-97195238D01*
X148095238Y-97100000D01*
X147952380Y-97052380D01*
X147857142Y-97052380D01*
X147714285Y-97100000D01*
X147666666Y-97147619D01*
X147095238Y-97480952D02*
X147190476Y-97433333D01*
X147238095Y-97385714D01*
X147285714Y-97290476D01*
X147285714Y-97242857D01*
X147238095Y-97147619D01*
X147190476Y-97100000D01*
X147095238Y-97052380D01*
X146904761Y-97052380D01*
X146809523Y-97100000D01*
X146761904Y-97147619D01*
X146714285Y-97242857D01*
X146714285Y-97290476D01*
X146761904Y-97385714D01*
X146809523Y-97433333D01*
X146904761Y-97480952D01*
X147095238Y-97480952D01*
X147190476Y-97528571D01*
X147238095Y-97576190D01*
X147285714Y-97671428D01*
X147285714Y-97861904D01*
X147238095Y-97957142D01*
X147190476Y-98004761D01*
X147095238Y-98052380D01*
X146904761Y-98052380D01*
X146809523Y-98004761D01*
X146761904Y-97957142D01*
X146714285Y-97861904D01*
X146714285Y-97671428D01*
X146761904Y-97576190D01*
X146809523Y-97528571D01*
X146904761Y-97480952D01*
%TO.C,C7*%
X147566666Y-106657142D02*
X147614285Y-106704761D01*
X147757142Y-106752380D01*
X147852380Y-106752380D01*
X147995238Y-106704761D01*
X148090476Y-106609523D01*
X148138095Y-106514285D01*
X148185714Y-106323809D01*
X148185714Y-106180952D01*
X148138095Y-105990476D01*
X148090476Y-105895238D01*
X147995238Y-105800000D01*
X147852380Y-105752380D01*
X147757142Y-105752380D01*
X147614285Y-105800000D01*
X147566666Y-105847619D01*
X147233333Y-105752380D02*
X146566666Y-105752380D01*
X146995238Y-106752380D01*
%TO.C,C6*%
X143066666Y-97857142D02*
X143114285Y-97904761D01*
X143257142Y-97952380D01*
X143352380Y-97952380D01*
X143495238Y-97904761D01*
X143590476Y-97809523D01*
X143638095Y-97714285D01*
X143685714Y-97523809D01*
X143685714Y-97380952D01*
X143638095Y-97190476D01*
X143590476Y-97095238D01*
X143495238Y-97000000D01*
X143352380Y-96952380D01*
X143257142Y-96952380D01*
X143114285Y-97000000D01*
X143066666Y-97047619D01*
X142209523Y-96952380D02*
X142400000Y-96952380D01*
X142495238Y-97000000D01*
X142542857Y-97047619D01*
X142638095Y-97190476D01*
X142685714Y-97380952D01*
X142685714Y-97761904D01*
X142638095Y-97857142D01*
X142590476Y-97904761D01*
X142495238Y-97952380D01*
X142304761Y-97952380D01*
X142209523Y-97904761D01*
X142161904Y-97857142D01*
X142114285Y-97761904D01*
X142114285Y-97523809D01*
X142161904Y-97428571D01*
X142209523Y-97380952D01*
X142304761Y-97333333D01*
X142495238Y-97333333D01*
X142590476Y-97380952D01*
X142638095Y-97428571D01*
X142685714Y-97523809D01*
%TD*%
M02*
