%TF.GenerationSoftware,KiCad,Pcbnew,(5.1.9)-1*%
%TF.CreationDate,2021-02-25T22:56:50-07:00*%
%TF.ProjectId,Avionics_Computer,4176696f-6e69-4637-935f-436f6d707574,rev?*%
%TF.SameCoordinates,Original*%
%TF.FileFunction,Soldermask,Bot*%
%TF.FilePolarity,Negative*%
%FSLAX46Y46*%
G04 Gerber Fmt 4.6, Leading zero omitted, Abs format (unit mm)*
G04 Created by KiCad (PCBNEW (5.1.9)-1) date 2021-02-25 22:56:50*
%MOMM*%
%LPD*%
G01*
G04 APERTURE LIST*
%ADD10C,1.500000*%
%ADD11C,2.082800*%
%ADD12O,1.000000X1.000000*%
%ADD13R,1.000000X1.000000*%
G04 APERTURE END LIST*
D10*
%TO.C,Y1*%
X142073000Y-90689000D03*
X146973000Y-90689000D03*
%TD*%
%TO.C,R1*%
G36*
G01*
X156612500Y-98450001D02*
X156612500Y-97549999D01*
G75*
G02*
X156862499Y-97300000I249999J0D01*
G01*
X157387501Y-97300000D01*
G75*
G02*
X157637500Y-97549999I0J-249999D01*
G01*
X157637500Y-98450001D01*
G75*
G02*
X157387501Y-98700000I-249999J0D01*
G01*
X156862499Y-98700000D01*
G75*
G02*
X156612500Y-98450001I0J249999D01*
G01*
G37*
G36*
G01*
X154787500Y-98450001D02*
X154787500Y-97549999D01*
G75*
G02*
X155037499Y-97300000I249999J0D01*
G01*
X155562501Y-97300000D01*
G75*
G02*
X155812500Y-97549999I0J-249999D01*
G01*
X155812500Y-98450001D01*
G75*
G02*
X155562501Y-98700000I-249999J0D01*
G01*
X155037499Y-98700000D01*
G75*
G02*
X154787500Y-98450001I0J249999D01*
G01*
G37*
%TD*%
D11*
%TO.C,J5*%
X143722000Y-138685000D03*
X146262000Y-138685000D03*
%TD*%
%TO.C,J4*%
X181540000Y-65000000D03*
X179000000Y-65000000D03*
X176460000Y-65000000D03*
%TD*%
%TO.C,J3*%
X182000000Y-83060000D03*
X182000000Y-85600000D03*
X182000000Y-88140000D03*
X182000000Y-90680000D03*
X182000000Y-93220000D03*
X182000000Y-95760000D03*
X182000000Y-98300000D03*
X182000000Y-100840000D03*
X182000000Y-103380000D03*
X182000000Y-105920000D03*
X182000000Y-108460000D03*
X182000000Y-111000000D03*
X182000000Y-113540000D03*
X182000000Y-116080000D03*
X182000000Y-118620000D03*
X182000000Y-121160000D03*
%TD*%
%TO.C,J2*%
X108000000Y-120840000D03*
X108000000Y-118300000D03*
X108000000Y-115760000D03*
X108000000Y-113220000D03*
X108000000Y-110680000D03*
X108000000Y-108140000D03*
X108000000Y-105600000D03*
X108000000Y-103060000D03*
X108000000Y-100520000D03*
X108000000Y-97980000D03*
X108000000Y-95440000D03*
X108000000Y-92900000D03*
X108000000Y-90360000D03*
X108000000Y-87820000D03*
X108000000Y-85280000D03*
X108000000Y-82740000D03*
%TD*%
D12*
%TO.C,J1*%
X147540000Y-78000000D03*
X147540000Y-79270000D03*
X146270000Y-78000000D03*
X146270000Y-79270000D03*
X145000000Y-78000000D03*
X145000000Y-79270000D03*
X143730000Y-78000000D03*
X143730000Y-79270000D03*
X142460000Y-78000000D03*
D13*
X142460000Y-79270000D03*
%TD*%
%TO.C,C9*%
G36*
G01*
X143375000Y-103200000D02*
X142425000Y-103200000D01*
G75*
G02*
X142175000Y-102950000I0J250000D01*
G01*
X142175000Y-102450000D01*
G75*
G02*
X142425000Y-102200000I250000J0D01*
G01*
X143375000Y-102200000D01*
G75*
G02*
X143625000Y-102450000I0J-250000D01*
G01*
X143625000Y-102950000D01*
G75*
G02*
X143375000Y-103200000I-250000J0D01*
G01*
G37*
G36*
G01*
X143375000Y-105100000D02*
X142425000Y-105100000D01*
G75*
G02*
X142175000Y-104850000I0J250000D01*
G01*
X142175000Y-104350000D01*
G75*
G02*
X142425000Y-104100000I250000J0D01*
G01*
X143375000Y-104100000D01*
G75*
G02*
X143625000Y-104350000I0J-250000D01*
G01*
X143625000Y-104850000D01*
G75*
G02*
X143375000Y-105100000I-250000J0D01*
G01*
G37*
%TD*%
%TO.C,C8*%
G36*
G01*
X146925000Y-100350000D02*
X147875000Y-100350000D01*
G75*
G02*
X148125000Y-100600000I0J-250000D01*
G01*
X148125000Y-101100000D01*
G75*
G02*
X147875000Y-101350000I-250000J0D01*
G01*
X146925000Y-101350000D01*
G75*
G02*
X146675000Y-101100000I0J250000D01*
G01*
X146675000Y-100600000D01*
G75*
G02*
X146925000Y-100350000I250000J0D01*
G01*
G37*
G36*
G01*
X146925000Y-98450000D02*
X147875000Y-98450000D01*
G75*
G02*
X148125000Y-98700000I0J-250000D01*
G01*
X148125000Y-99200000D01*
G75*
G02*
X147875000Y-99450000I-250000J0D01*
G01*
X146925000Y-99450000D01*
G75*
G02*
X146675000Y-99200000I0J250000D01*
G01*
X146675000Y-98700000D01*
G75*
G02*
X146925000Y-98450000I250000J0D01*
G01*
G37*
%TD*%
%TO.C,C7*%
G36*
G01*
X147775000Y-103200000D02*
X146825000Y-103200000D01*
G75*
G02*
X146575000Y-102950000I0J250000D01*
G01*
X146575000Y-102450000D01*
G75*
G02*
X146825000Y-102200000I250000J0D01*
G01*
X147775000Y-102200000D01*
G75*
G02*
X148025000Y-102450000I0J-250000D01*
G01*
X148025000Y-102950000D01*
G75*
G02*
X147775000Y-103200000I-250000J0D01*
G01*
G37*
G36*
G01*
X147775000Y-105100000D02*
X146825000Y-105100000D01*
G75*
G02*
X146575000Y-104850000I0J250000D01*
G01*
X146575000Y-104350000D01*
G75*
G02*
X146825000Y-104100000I250000J0D01*
G01*
X147775000Y-104100000D01*
G75*
G02*
X148025000Y-104350000I0J-250000D01*
G01*
X148025000Y-104850000D01*
G75*
G02*
X147775000Y-105100000I-250000J0D01*
G01*
G37*
%TD*%
%TO.C,C6*%
G36*
G01*
X142425000Y-100400000D02*
X143375000Y-100400000D01*
G75*
G02*
X143625000Y-100650000I0J-250000D01*
G01*
X143625000Y-101150000D01*
G75*
G02*
X143375000Y-101400000I-250000J0D01*
G01*
X142425000Y-101400000D01*
G75*
G02*
X142175000Y-101150000I0J250000D01*
G01*
X142175000Y-100650000D01*
G75*
G02*
X142425000Y-100400000I250000J0D01*
G01*
G37*
G36*
G01*
X142425000Y-98500000D02*
X143375000Y-98500000D01*
G75*
G02*
X143625000Y-98750000I0J-250000D01*
G01*
X143625000Y-99250000D01*
G75*
G02*
X143375000Y-99500000I-250000J0D01*
G01*
X142425000Y-99500000D01*
G75*
G02*
X142175000Y-99250000I0J250000D01*
G01*
X142175000Y-98750000D01*
G75*
G02*
X142425000Y-98500000I250000J0D01*
G01*
G37*
%TD*%
M02*
