G04 #@! TF.GenerationSoftware,KiCad,Pcbnew,(5.1.9)-1*
G04 #@! TF.CreationDate,2021-04-03T09:41:49-07:00*
G04 #@! TF.ProjectId,Avionics,4176696f-6e69-4637-932e-6b696361645f,rev?*
G04 #@! TF.SameCoordinates,Original*
G04 #@! TF.FileFunction,Soldermask,Top*
G04 #@! TF.FilePolarity,Negative*
%FSLAX46Y46*%
G04 Gerber Fmt 4.6, Leading zero omitted, Abs format (unit mm)*
G04 Created by KiCad (PCBNEW (5.1.9)-1) date 2021-04-03 09:41:49*
%MOMM*%
%LPD*%
G01*
G04 APERTURE LIST*
%ADD10R,1.700000X1.700000*%
%ADD11O,1.700000X1.700000*%
%ADD12R,1.000000X1.000000*%
%ADD13O,1.000000X1.000000*%
%ADD14R,1.350000X2.000000*%
%ADD15R,1.825000X0.700000*%
%ADD16R,2.000000X1.500000*%
%ADD17R,0.400000X1.650000*%
%ADD18O,1.100000X1.500000*%
%ADD19O,1.350000X1.700000*%
%ADD20R,1.430000X2.500000*%
%ADD21R,1.400000X1.600000*%
%ADD22C,1.500000*%
G04 APERTURE END LIST*
G36*
G01*
X174325000Y-88900000D02*
X174175000Y-88900000D01*
G75*
G02*
X174100000Y-88825000I0J75000D01*
G01*
X174100000Y-87500000D01*
G75*
G02*
X174175000Y-87425000I75000J0D01*
G01*
X174325000Y-87425000D01*
G75*
G02*
X174400000Y-87500000I0J-75000D01*
G01*
X174400000Y-88825000D01*
G75*
G02*
X174325000Y-88900000I-75000J0D01*
G01*
G37*
G36*
G01*
X174825000Y-88900000D02*
X174675000Y-88900000D01*
G75*
G02*
X174600000Y-88825000I0J75000D01*
G01*
X174600000Y-87500000D01*
G75*
G02*
X174675000Y-87425000I75000J0D01*
G01*
X174825000Y-87425000D01*
G75*
G02*
X174900000Y-87500000I0J-75000D01*
G01*
X174900000Y-88825000D01*
G75*
G02*
X174825000Y-88900000I-75000J0D01*
G01*
G37*
G36*
G01*
X175325000Y-88900000D02*
X175175000Y-88900000D01*
G75*
G02*
X175100000Y-88825000I0J75000D01*
G01*
X175100000Y-87500000D01*
G75*
G02*
X175175000Y-87425000I75000J0D01*
G01*
X175325000Y-87425000D01*
G75*
G02*
X175400000Y-87500000I0J-75000D01*
G01*
X175400000Y-88825000D01*
G75*
G02*
X175325000Y-88900000I-75000J0D01*
G01*
G37*
G36*
G01*
X175825000Y-88900000D02*
X175675000Y-88900000D01*
G75*
G02*
X175600000Y-88825000I0J75000D01*
G01*
X175600000Y-87500000D01*
G75*
G02*
X175675000Y-87425000I75000J0D01*
G01*
X175825000Y-87425000D01*
G75*
G02*
X175900000Y-87500000I0J-75000D01*
G01*
X175900000Y-88825000D01*
G75*
G02*
X175825000Y-88900000I-75000J0D01*
G01*
G37*
G36*
G01*
X176325000Y-88900000D02*
X176175000Y-88900000D01*
G75*
G02*
X176100000Y-88825000I0J75000D01*
G01*
X176100000Y-87500000D01*
G75*
G02*
X176175000Y-87425000I75000J0D01*
G01*
X176325000Y-87425000D01*
G75*
G02*
X176400000Y-87500000I0J-75000D01*
G01*
X176400000Y-88825000D01*
G75*
G02*
X176325000Y-88900000I-75000J0D01*
G01*
G37*
G36*
G01*
X176825000Y-88900000D02*
X176675000Y-88900000D01*
G75*
G02*
X176600000Y-88825000I0J75000D01*
G01*
X176600000Y-87500000D01*
G75*
G02*
X176675000Y-87425000I75000J0D01*
G01*
X176825000Y-87425000D01*
G75*
G02*
X176900000Y-87500000I0J-75000D01*
G01*
X176900000Y-88825000D01*
G75*
G02*
X176825000Y-88900000I-75000J0D01*
G01*
G37*
G36*
G01*
X177325000Y-88900000D02*
X177175000Y-88900000D01*
G75*
G02*
X177100000Y-88825000I0J75000D01*
G01*
X177100000Y-87500000D01*
G75*
G02*
X177175000Y-87425000I75000J0D01*
G01*
X177325000Y-87425000D01*
G75*
G02*
X177400000Y-87500000I0J-75000D01*
G01*
X177400000Y-88825000D01*
G75*
G02*
X177325000Y-88900000I-75000J0D01*
G01*
G37*
G36*
G01*
X177825000Y-88900000D02*
X177675000Y-88900000D01*
G75*
G02*
X177600000Y-88825000I0J75000D01*
G01*
X177600000Y-87500000D01*
G75*
G02*
X177675000Y-87425000I75000J0D01*
G01*
X177825000Y-87425000D01*
G75*
G02*
X177900000Y-87500000I0J-75000D01*
G01*
X177900000Y-88825000D01*
G75*
G02*
X177825000Y-88900000I-75000J0D01*
G01*
G37*
G36*
G01*
X178325000Y-88900000D02*
X178175000Y-88900000D01*
G75*
G02*
X178100000Y-88825000I0J75000D01*
G01*
X178100000Y-87500000D01*
G75*
G02*
X178175000Y-87425000I75000J0D01*
G01*
X178325000Y-87425000D01*
G75*
G02*
X178400000Y-87500000I0J-75000D01*
G01*
X178400000Y-88825000D01*
G75*
G02*
X178325000Y-88900000I-75000J0D01*
G01*
G37*
G36*
G01*
X178825000Y-88900000D02*
X178675000Y-88900000D01*
G75*
G02*
X178600000Y-88825000I0J75000D01*
G01*
X178600000Y-87500000D01*
G75*
G02*
X178675000Y-87425000I75000J0D01*
G01*
X178825000Y-87425000D01*
G75*
G02*
X178900000Y-87500000I0J-75000D01*
G01*
X178900000Y-88825000D01*
G75*
G02*
X178825000Y-88900000I-75000J0D01*
G01*
G37*
G36*
G01*
X179325000Y-88900000D02*
X179175000Y-88900000D01*
G75*
G02*
X179100000Y-88825000I0J75000D01*
G01*
X179100000Y-87500000D01*
G75*
G02*
X179175000Y-87425000I75000J0D01*
G01*
X179325000Y-87425000D01*
G75*
G02*
X179400000Y-87500000I0J-75000D01*
G01*
X179400000Y-88825000D01*
G75*
G02*
X179325000Y-88900000I-75000J0D01*
G01*
G37*
G36*
G01*
X179825000Y-88900000D02*
X179675000Y-88900000D01*
G75*
G02*
X179600000Y-88825000I0J75000D01*
G01*
X179600000Y-87500000D01*
G75*
G02*
X179675000Y-87425000I75000J0D01*
G01*
X179825000Y-87425000D01*
G75*
G02*
X179900000Y-87500000I0J-75000D01*
G01*
X179900000Y-88825000D01*
G75*
G02*
X179825000Y-88900000I-75000J0D01*
G01*
G37*
G36*
G01*
X181825000Y-86900000D02*
X180500000Y-86900000D01*
G75*
G02*
X180425000Y-86825000I0J75000D01*
G01*
X180425000Y-86675000D01*
G75*
G02*
X180500000Y-86600000I75000J0D01*
G01*
X181825000Y-86600000D01*
G75*
G02*
X181900000Y-86675000I0J-75000D01*
G01*
X181900000Y-86825000D01*
G75*
G02*
X181825000Y-86900000I-75000J0D01*
G01*
G37*
G36*
G01*
X181825000Y-86400000D02*
X180500000Y-86400000D01*
G75*
G02*
X180425000Y-86325000I0J75000D01*
G01*
X180425000Y-86175000D01*
G75*
G02*
X180500000Y-86100000I75000J0D01*
G01*
X181825000Y-86100000D01*
G75*
G02*
X181900000Y-86175000I0J-75000D01*
G01*
X181900000Y-86325000D01*
G75*
G02*
X181825000Y-86400000I-75000J0D01*
G01*
G37*
G36*
G01*
X181825000Y-85900000D02*
X180500000Y-85900000D01*
G75*
G02*
X180425000Y-85825000I0J75000D01*
G01*
X180425000Y-85675000D01*
G75*
G02*
X180500000Y-85600000I75000J0D01*
G01*
X181825000Y-85600000D01*
G75*
G02*
X181900000Y-85675000I0J-75000D01*
G01*
X181900000Y-85825000D01*
G75*
G02*
X181825000Y-85900000I-75000J0D01*
G01*
G37*
G36*
G01*
X181825000Y-85400000D02*
X180500000Y-85400000D01*
G75*
G02*
X180425000Y-85325000I0J75000D01*
G01*
X180425000Y-85175000D01*
G75*
G02*
X180500000Y-85100000I75000J0D01*
G01*
X181825000Y-85100000D01*
G75*
G02*
X181900000Y-85175000I0J-75000D01*
G01*
X181900000Y-85325000D01*
G75*
G02*
X181825000Y-85400000I-75000J0D01*
G01*
G37*
G36*
G01*
X181825000Y-84900000D02*
X180500000Y-84900000D01*
G75*
G02*
X180425000Y-84825000I0J75000D01*
G01*
X180425000Y-84675000D01*
G75*
G02*
X180500000Y-84600000I75000J0D01*
G01*
X181825000Y-84600000D01*
G75*
G02*
X181900000Y-84675000I0J-75000D01*
G01*
X181900000Y-84825000D01*
G75*
G02*
X181825000Y-84900000I-75000J0D01*
G01*
G37*
G36*
G01*
X181825000Y-84400000D02*
X180500000Y-84400000D01*
G75*
G02*
X180425000Y-84325000I0J75000D01*
G01*
X180425000Y-84175000D01*
G75*
G02*
X180500000Y-84100000I75000J0D01*
G01*
X181825000Y-84100000D01*
G75*
G02*
X181900000Y-84175000I0J-75000D01*
G01*
X181900000Y-84325000D01*
G75*
G02*
X181825000Y-84400000I-75000J0D01*
G01*
G37*
G36*
G01*
X181825000Y-83900000D02*
X180500000Y-83900000D01*
G75*
G02*
X180425000Y-83825000I0J75000D01*
G01*
X180425000Y-83675000D01*
G75*
G02*
X180500000Y-83600000I75000J0D01*
G01*
X181825000Y-83600000D01*
G75*
G02*
X181900000Y-83675000I0J-75000D01*
G01*
X181900000Y-83825000D01*
G75*
G02*
X181825000Y-83900000I-75000J0D01*
G01*
G37*
G36*
G01*
X181825000Y-83400000D02*
X180500000Y-83400000D01*
G75*
G02*
X180425000Y-83325000I0J75000D01*
G01*
X180425000Y-83175000D01*
G75*
G02*
X180500000Y-83100000I75000J0D01*
G01*
X181825000Y-83100000D01*
G75*
G02*
X181900000Y-83175000I0J-75000D01*
G01*
X181900000Y-83325000D01*
G75*
G02*
X181825000Y-83400000I-75000J0D01*
G01*
G37*
G36*
G01*
X181825000Y-82900000D02*
X180500000Y-82900000D01*
G75*
G02*
X180425000Y-82825000I0J75000D01*
G01*
X180425000Y-82675000D01*
G75*
G02*
X180500000Y-82600000I75000J0D01*
G01*
X181825000Y-82600000D01*
G75*
G02*
X181900000Y-82675000I0J-75000D01*
G01*
X181900000Y-82825000D01*
G75*
G02*
X181825000Y-82900000I-75000J0D01*
G01*
G37*
G36*
G01*
X181825000Y-82400000D02*
X180500000Y-82400000D01*
G75*
G02*
X180425000Y-82325000I0J75000D01*
G01*
X180425000Y-82175000D01*
G75*
G02*
X180500000Y-82100000I75000J0D01*
G01*
X181825000Y-82100000D01*
G75*
G02*
X181900000Y-82175000I0J-75000D01*
G01*
X181900000Y-82325000D01*
G75*
G02*
X181825000Y-82400000I-75000J0D01*
G01*
G37*
G36*
G01*
X181825000Y-81900000D02*
X180500000Y-81900000D01*
G75*
G02*
X180425000Y-81825000I0J75000D01*
G01*
X180425000Y-81675000D01*
G75*
G02*
X180500000Y-81600000I75000J0D01*
G01*
X181825000Y-81600000D01*
G75*
G02*
X181900000Y-81675000I0J-75000D01*
G01*
X181900000Y-81825000D01*
G75*
G02*
X181825000Y-81900000I-75000J0D01*
G01*
G37*
G36*
G01*
X181825000Y-81400000D02*
X180500000Y-81400000D01*
G75*
G02*
X180425000Y-81325000I0J75000D01*
G01*
X180425000Y-81175000D01*
G75*
G02*
X180500000Y-81100000I75000J0D01*
G01*
X181825000Y-81100000D01*
G75*
G02*
X181900000Y-81175000I0J-75000D01*
G01*
X181900000Y-81325000D01*
G75*
G02*
X181825000Y-81400000I-75000J0D01*
G01*
G37*
G36*
G01*
X179825000Y-80575000D02*
X179675000Y-80575000D01*
G75*
G02*
X179600000Y-80500000I0J75000D01*
G01*
X179600000Y-79175000D01*
G75*
G02*
X179675000Y-79100000I75000J0D01*
G01*
X179825000Y-79100000D01*
G75*
G02*
X179900000Y-79175000I0J-75000D01*
G01*
X179900000Y-80500000D01*
G75*
G02*
X179825000Y-80575000I-75000J0D01*
G01*
G37*
G36*
G01*
X179325000Y-80575000D02*
X179175000Y-80575000D01*
G75*
G02*
X179100000Y-80500000I0J75000D01*
G01*
X179100000Y-79175000D01*
G75*
G02*
X179175000Y-79100000I75000J0D01*
G01*
X179325000Y-79100000D01*
G75*
G02*
X179400000Y-79175000I0J-75000D01*
G01*
X179400000Y-80500000D01*
G75*
G02*
X179325000Y-80575000I-75000J0D01*
G01*
G37*
G36*
G01*
X178825000Y-80575000D02*
X178675000Y-80575000D01*
G75*
G02*
X178600000Y-80500000I0J75000D01*
G01*
X178600000Y-79175000D01*
G75*
G02*
X178675000Y-79100000I75000J0D01*
G01*
X178825000Y-79100000D01*
G75*
G02*
X178900000Y-79175000I0J-75000D01*
G01*
X178900000Y-80500000D01*
G75*
G02*
X178825000Y-80575000I-75000J0D01*
G01*
G37*
G36*
G01*
X178325000Y-80575000D02*
X178175000Y-80575000D01*
G75*
G02*
X178100000Y-80500000I0J75000D01*
G01*
X178100000Y-79175000D01*
G75*
G02*
X178175000Y-79100000I75000J0D01*
G01*
X178325000Y-79100000D01*
G75*
G02*
X178400000Y-79175000I0J-75000D01*
G01*
X178400000Y-80500000D01*
G75*
G02*
X178325000Y-80575000I-75000J0D01*
G01*
G37*
G36*
G01*
X177825000Y-80575000D02*
X177675000Y-80575000D01*
G75*
G02*
X177600000Y-80500000I0J75000D01*
G01*
X177600000Y-79175000D01*
G75*
G02*
X177675000Y-79100000I75000J0D01*
G01*
X177825000Y-79100000D01*
G75*
G02*
X177900000Y-79175000I0J-75000D01*
G01*
X177900000Y-80500000D01*
G75*
G02*
X177825000Y-80575000I-75000J0D01*
G01*
G37*
G36*
G01*
X177325000Y-80575000D02*
X177175000Y-80575000D01*
G75*
G02*
X177100000Y-80500000I0J75000D01*
G01*
X177100000Y-79175000D01*
G75*
G02*
X177175000Y-79100000I75000J0D01*
G01*
X177325000Y-79100000D01*
G75*
G02*
X177400000Y-79175000I0J-75000D01*
G01*
X177400000Y-80500000D01*
G75*
G02*
X177325000Y-80575000I-75000J0D01*
G01*
G37*
G36*
G01*
X176825000Y-80575000D02*
X176675000Y-80575000D01*
G75*
G02*
X176600000Y-80500000I0J75000D01*
G01*
X176600000Y-79175000D01*
G75*
G02*
X176675000Y-79100000I75000J0D01*
G01*
X176825000Y-79100000D01*
G75*
G02*
X176900000Y-79175000I0J-75000D01*
G01*
X176900000Y-80500000D01*
G75*
G02*
X176825000Y-80575000I-75000J0D01*
G01*
G37*
G36*
G01*
X176325000Y-80575000D02*
X176175000Y-80575000D01*
G75*
G02*
X176100000Y-80500000I0J75000D01*
G01*
X176100000Y-79175000D01*
G75*
G02*
X176175000Y-79100000I75000J0D01*
G01*
X176325000Y-79100000D01*
G75*
G02*
X176400000Y-79175000I0J-75000D01*
G01*
X176400000Y-80500000D01*
G75*
G02*
X176325000Y-80575000I-75000J0D01*
G01*
G37*
G36*
G01*
X175825000Y-80575000D02*
X175675000Y-80575000D01*
G75*
G02*
X175600000Y-80500000I0J75000D01*
G01*
X175600000Y-79175000D01*
G75*
G02*
X175675000Y-79100000I75000J0D01*
G01*
X175825000Y-79100000D01*
G75*
G02*
X175900000Y-79175000I0J-75000D01*
G01*
X175900000Y-80500000D01*
G75*
G02*
X175825000Y-80575000I-75000J0D01*
G01*
G37*
G36*
G01*
X175325000Y-80575000D02*
X175175000Y-80575000D01*
G75*
G02*
X175100000Y-80500000I0J75000D01*
G01*
X175100000Y-79175000D01*
G75*
G02*
X175175000Y-79100000I75000J0D01*
G01*
X175325000Y-79100000D01*
G75*
G02*
X175400000Y-79175000I0J-75000D01*
G01*
X175400000Y-80500000D01*
G75*
G02*
X175325000Y-80575000I-75000J0D01*
G01*
G37*
G36*
G01*
X174825000Y-80575000D02*
X174675000Y-80575000D01*
G75*
G02*
X174600000Y-80500000I0J75000D01*
G01*
X174600000Y-79175000D01*
G75*
G02*
X174675000Y-79100000I75000J0D01*
G01*
X174825000Y-79100000D01*
G75*
G02*
X174900000Y-79175000I0J-75000D01*
G01*
X174900000Y-80500000D01*
G75*
G02*
X174825000Y-80575000I-75000J0D01*
G01*
G37*
G36*
G01*
X174325000Y-80575000D02*
X174175000Y-80575000D01*
G75*
G02*
X174100000Y-80500000I0J75000D01*
G01*
X174100000Y-79175000D01*
G75*
G02*
X174175000Y-79100000I75000J0D01*
G01*
X174325000Y-79100000D01*
G75*
G02*
X174400000Y-79175000I0J-75000D01*
G01*
X174400000Y-80500000D01*
G75*
G02*
X174325000Y-80575000I-75000J0D01*
G01*
G37*
G36*
G01*
X173500000Y-81400000D02*
X172175000Y-81400000D01*
G75*
G02*
X172100000Y-81325000I0J75000D01*
G01*
X172100000Y-81175000D01*
G75*
G02*
X172175000Y-81100000I75000J0D01*
G01*
X173500000Y-81100000D01*
G75*
G02*
X173575000Y-81175000I0J-75000D01*
G01*
X173575000Y-81325000D01*
G75*
G02*
X173500000Y-81400000I-75000J0D01*
G01*
G37*
G36*
G01*
X173500000Y-81900000D02*
X172175000Y-81900000D01*
G75*
G02*
X172100000Y-81825000I0J75000D01*
G01*
X172100000Y-81675000D01*
G75*
G02*
X172175000Y-81600000I75000J0D01*
G01*
X173500000Y-81600000D01*
G75*
G02*
X173575000Y-81675000I0J-75000D01*
G01*
X173575000Y-81825000D01*
G75*
G02*
X173500000Y-81900000I-75000J0D01*
G01*
G37*
G36*
G01*
X173500000Y-82400000D02*
X172175000Y-82400000D01*
G75*
G02*
X172100000Y-82325000I0J75000D01*
G01*
X172100000Y-82175000D01*
G75*
G02*
X172175000Y-82100000I75000J0D01*
G01*
X173500000Y-82100000D01*
G75*
G02*
X173575000Y-82175000I0J-75000D01*
G01*
X173575000Y-82325000D01*
G75*
G02*
X173500000Y-82400000I-75000J0D01*
G01*
G37*
G36*
G01*
X173500000Y-82900000D02*
X172175000Y-82900000D01*
G75*
G02*
X172100000Y-82825000I0J75000D01*
G01*
X172100000Y-82675000D01*
G75*
G02*
X172175000Y-82600000I75000J0D01*
G01*
X173500000Y-82600000D01*
G75*
G02*
X173575000Y-82675000I0J-75000D01*
G01*
X173575000Y-82825000D01*
G75*
G02*
X173500000Y-82900000I-75000J0D01*
G01*
G37*
G36*
G01*
X173500000Y-83400000D02*
X172175000Y-83400000D01*
G75*
G02*
X172100000Y-83325000I0J75000D01*
G01*
X172100000Y-83175000D01*
G75*
G02*
X172175000Y-83100000I75000J0D01*
G01*
X173500000Y-83100000D01*
G75*
G02*
X173575000Y-83175000I0J-75000D01*
G01*
X173575000Y-83325000D01*
G75*
G02*
X173500000Y-83400000I-75000J0D01*
G01*
G37*
G36*
G01*
X173500000Y-83900000D02*
X172175000Y-83900000D01*
G75*
G02*
X172100000Y-83825000I0J75000D01*
G01*
X172100000Y-83675000D01*
G75*
G02*
X172175000Y-83600000I75000J0D01*
G01*
X173500000Y-83600000D01*
G75*
G02*
X173575000Y-83675000I0J-75000D01*
G01*
X173575000Y-83825000D01*
G75*
G02*
X173500000Y-83900000I-75000J0D01*
G01*
G37*
G36*
G01*
X173500000Y-84400000D02*
X172175000Y-84400000D01*
G75*
G02*
X172100000Y-84325000I0J75000D01*
G01*
X172100000Y-84175000D01*
G75*
G02*
X172175000Y-84100000I75000J0D01*
G01*
X173500000Y-84100000D01*
G75*
G02*
X173575000Y-84175000I0J-75000D01*
G01*
X173575000Y-84325000D01*
G75*
G02*
X173500000Y-84400000I-75000J0D01*
G01*
G37*
G36*
G01*
X173500000Y-84900000D02*
X172175000Y-84900000D01*
G75*
G02*
X172100000Y-84825000I0J75000D01*
G01*
X172100000Y-84675000D01*
G75*
G02*
X172175000Y-84600000I75000J0D01*
G01*
X173500000Y-84600000D01*
G75*
G02*
X173575000Y-84675000I0J-75000D01*
G01*
X173575000Y-84825000D01*
G75*
G02*
X173500000Y-84900000I-75000J0D01*
G01*
G37*
G36*
G01*
X173500000Y-85400000D02*
X172175000Y-85400000D01*
G75*
G02*
X172100000Y-85325000I0J75000D01*
G01*
X172100000Y-85175000D01*
G75*
G02*
X172175000Y-85100000I75000J0D01*
G01*
X173500000Y-85100000D01*
G75*
G02*
X173575000Y-85175000I0J-75000D01*
G01*
X173575000Y-85325000D01*
G75*
G02*
X173500000Y-85400000I-75000J0D01*
G01*
G37*
G36*
G01*
X173500000Y-85900000D02*
X172175000Y-85900000D01*
G75*
G02*
X172100000Y-85825000I0J75000D01*
G01*
X172100000Y-85675000D01*
G75*
G02*
X172175000Y-85600000I75000J0D01*
G01*
X173500000Y-85600000D01*
G75*
G02*
X173575000Y-85675000I0J-75000D01*
G01*
X173575000Y-85825000D01*
G75*
G02*
X173500000Y-85900000I-75000J0D01*
G01*
G37*
G36*
G01*
X173500000Y-86400000D02*
X172175000Y-86400000D01*
G75*
G02*
X172100000Y-86325000I0J75000D01*
G01*
X172100000Y-86175000D01*
G75*
G02*
X172175000Y-86100000I75000J0D01*
G01*
X173500000Y-86100000D01*
G75*
G02*
X173575000Y-86175000I0J-75000D01*
G01*
X173575000Y-86325000D01*
G75*
G02*
X173500000Y-86400000I-75000J0D01*
G01*
G37*
G36*
G01*
X173500000Y-86900000D02*
X172175000Y-86900000D01*
G75*
G02*
X172100000Y-86825000I0J75000D01*
G01*
X172100000Y-86675000D01*
G75*
G02*
X172175000Y-86600000I75000J0D01*
G01*
X173500000Y-86600000D01*
G75*
G02*
X173575000Y-86675000I0J-75000D01*
G01*
X173575000Y-86825000D01*
G75*
G02*
X173500000Y-86900000I-75000J0D01*
G01*
G37*
G36*
G01*
X172850001Y-69175000D02*
X171949999Y-69175000D01*
G75*
G02*
X171700000Y-68925001I0J249999D01*
G01*
X171700000Y-68274999D01*
G75*
G02*
X171949999Y-68025000I249999J0D01*
G01*
X172850001Y-68025000D01*
G75*
G02*
X173100000Y-68274999I0J-249999D01*
G01*
X173100000Y-68925001D01*
G75*
G02*
X172850001Y-69175000I-249999J0D01*
G01*
G37*
G36*
G01*
X172850001Y-67125000D02*
X171949999Y-67125000D01*
G75*
G02*
X171700000Y-66875001I0J249999D01*
G01*
X171700000Y-66224999D01*
G75*
G02*
X171949999Y-65975000I249999J0D01*
G01*
X172850001Y-65975000D01*
G75*
G02*
X173100000Y-66224999I0J-249999D01*
G01*
X173100000Y-66875001D01*
G75*
G02*
X172850001Y-67125000I-249999J0D01*
G01*
G37*
G36*
G01*
X172850001Y-73200000D02*
X171949999Y-73200000D01*
G75*
G02*
X171700000Y-72950001I0J249999D01*
G01*
X171700000Y-72249999D01*
G75*
G02*
X171949999Y-72000000I249999J0D01*
G01*
X172850001Y-72000000D01*
G75*
G02*
X173100000Y-72249999I0J-249999D01*
G01*
X173100000Y-72950001D01*
G75*
G02*
X172850001Y-73200000I-249999J0D01*
G01*
G37*
G36*
G01*
X172850001Y-71200000D02*
X171949999Y-71200000D01*
G75*
G02*
X171700000Y-70950001I0J249999D01*
G01*
X171700000Y-70249999D01*
G75*
G02*
X171949999Y-70000000I249999J0D01*
G01*
X172850001Y-70000000D01*
G75*
G02*
X173100000Y-70249999I0J-249999D01*
G01*
X173100000Y-70950001D01*
G75*
G02*
X172850001Y-71200000I-249999J0D01*
G01*
G37*
D10*
X192280000Y-96700000D03*
D11*
X192280000Y-94160000D03*
X192280000Y-91620000D03*
X192280000Y-89080000D03*
X192280000Y-86540000D03*
X192280000Y-84000000D03*
X192280000Y-81460000D03*
X192280000Y-78920000D03*
X192280000Y-76380000D03*
X192280000Y-73840000D03*
G36*
G01*
X168525000Y-95375000D02*
X169475000Y-95375000D01*
G75*
G02*
X169725000Y-95625000I0J-250000D01*
G01*
X169725000Y-96300000D01*
G75*
G02*
X169475000Y-96550000I-250000J0D01*
G01*
X168525000Y-96550000D01*
G75*
G02*
X168275000Y-96300000I0J250000D01*
G01*
X168275000Y-95625000D01*
G75*
G02*
X168525000Y-95375000I250000J0D01*
G01*
G37*
G36*
G01*
X168525000Y-97450000D02*
X169475000Y-97450000D01*
G75*
G02*
X169725000Y-97700000I0J-250000D01*
G01*
X169725000Y-98375000D01*
G75*
G02*
X169475000Y-98625000I-250000J0D01*
G01*
X168525000Y-98625000D01*
G75*
G02*
X168275000Y-98375000I0J250000D01*
G01*
X168275000Y-97700000D01*
G75*
G02*
X168525000Y-97450000I250000J0D01*
G01*
G37*
G36*
G01*
X188450001Y-101600000D02*
X187549999Y-101600000D01*
G75*
G02*
X187300000Y-101350001I0J249999D01*
G01*
X187300000Y-100699999D01*
G75*
G02*
X187549999Y-100450000I249999J0D01*
G01*
X188450001Y-100450000D01*
G75*
G02*
X188700000Y-100699999I0J-249999D01*
G01*
X188700000Y-101350001D01*
G75*
G02*
X188450001Y-101600000I-249999J0D01*
G01*
G37*
G36*
G01*
X188450001Y-99550000D02*
X187549999Y-99550000D01*
G75*
G02*
X187300000Y-99300001I0J249999D01*
G01*
X187300000Y-98649999D01*
G75*
G02*
X187549999Y-98400000I249999J0D01*
G01*
X188450001Y-98400000D01*
G75*
G02*
X188700000Y-98649999I0J-249999D01*
G01*
X188700000Y-99300001D01*
G75*
G02*
X188450001Y-99550000I-249999J0D01*
G01*
G37*
G36*
G01*
X182150001Y-67125000D02*
X181249999Y-67125000D01*
G75*
G02*
X181000000Y-66875001I0J249999D01*
G01*
X181000000Y-66224999D01*
G75*
G02*
X181249999Y-65975000I249999J0D01*
G01*
X182150001Y-65975000D01*
G75*
G02*
X182400000Y-66224999I0J-249999D01*
G01*
X182400000Y-66875001D01*
G75*
G02*
X182150001Y-67125000I-249999J0D01*
G01*
G37*
G36*
G01*
X182150001Y-69175000D02*
X181249999Y-69175000D01*
G75*
G02*
X181000000Y-68925001I0J249999D01*
G01*
X181000000Y-68274999D01*
G75*
G02*
X181249999Y-68025000I249999J0D01*
G01*
X182150001Y-68025000D01*
G75*
G02*
X182400000Y-68274999I0J-249999D01*
G01*
X182400000Y-68925001D01*
G75*
G02*
X182150001Y-69175000I-249999J0D01*
G01*
G37*
D12*
X179000000Y-104000000D03*
D13*
X179000000Y-105270000D03*
X177730000Y-104000000D03*
X177730000Y-105270000D03*
X176460000Y-104000000D03*
X176460000Y-105270000D03*
X175190000Y-104000000D03*
X175190000Y-105270000D03*
X173920000Y-104000000D03*
X173920000Y-105270000D03*
D14*
X174275000Y-61815000D03*
X179755000Y-61815000D03*
D15*
X179975000Y-62565000D03*
X174025000Y-62565000D03*
D16*
X179875000Y-63865000D03*
X174125000Y-63885000D03*
D17*
X178325000Y-63765000D03*
X177675000Y-63765000D03*
X177025000Y-63765000D03*
X176375000Y-63765000D03*
X175725000Y-63765000D03*
D18*
X179445000Y-63885000D03*
X174605000Y-63885000D03*
D19*
X179755000Y-60885000D03*
X174295000Y-60885000D03*
D20*
X177985000Y-60615000D03*
X176065000Y-60615000D03*
G36*
G01*
X185450001Y-66600000D02*
X184549999Y-66600000D01*
G75*
G02*
X184300000Y-66350001I0J249999D01*
G01*
X184300000Y-65649999D01*
G75*
G02*
X184549999Y-65400000I249999J0D01*
G01*
X185450001Y-65400000D01*
G75*
G02*
X185700000Y-65649999I0J-249999D01*
G01*
X185700000Y-66350001D01*
G75*
G02*
X185450001Y-66600000I-249999J0D01*
G01*
G37*
G36*
G01*
X185450001Y-68600000D02*
X184549999Y-68600000D01*
G75*
G02*
X184300000Y-68350001I0J249999D01*
G01*
X184300000Y-67649999D01*
G75*
G02*
X184549999Y-67400000I249999J0D01*
G01*
X185450001Y-67400000D01*
G75*
G02*
X185700000Y-67649999I0J-249999D01*
G01*
X185700000Y-68350001D01*
G75*
G02*
X185450001Y-68600000I-249999J0D01*
G01*
G37*
G36*
G01*
X169450001Y-66600000D02*
X168549999Y-66600000D01*
G75*
G02*
X168300000Y-66350001I0J249999D01*
G01*
X168300000Y-65649999D01*
G75*
G02*
X168549999Y-65400000I249999J0D01*
G01*
X169450001Y-65400000D01*
G75*
G02*
X169700000Y-65649999I0J-249999D01*
G01*
X169700000Y-66350001D01*
G75*
G02*
X169450001Y-66600000I-249999J0D01*
G01*
G37*
G36*
G01*
X169450001Y-68600000D02*
X168549999Y-68600000D01*
G75*
G02*
X168300000Y-68350001I0J249999D01*
G01*
X168300000Y-67649999D01*
G75*
G02*
X168549999Y-67400000I249999J0D01*
G01*
X169450001Y-67400000D01*
G75*
G02*
X169700000Y-67649999I0J-249999D01*
G01*
X169700000Y-68350001D01*
G75*
G02*
X169450001Y-68600000I-249999J0D01*
G01*
G37*
G36*
G01*
X188450001Y-106600000D02*
X187549999Y-106600000D01*
G75*
G02*
X187300000Y-106350001I0J249999D01*
G01*
X187300000Y-105649999D01*
G75*
G02*
X187549999Y-105400000I249999J0D01*
G01*
X188450001Y-105400000D01*
G75*
G02*
X188700000Y-105649999I0J-249999D01*
G01*
X188700000Y-106350001D01*
G75*
G02*
X188450001Y-106600000I-249999J0D01*
G01*
G37*
G36*
G01*
X188450001Y-104600000D02*
X187549999Y-104600000D01*
G75*
G02*
X187300000Y-104350001I0J249999D01*
G01*
X187300000Y-103649999D01*
G75*
G02*
X187549999Y-103400000I249999J0D01*
G01*
X188450001Y-103400000D01*
G75*
G02*
X188700000Y-103649999I0J-249999D01*
G01*
X188700000Y-104350001D01*
G75*
G02*
X188450001Y-104600000I-249999J0D01*
G01*
G37*
G36*
G01*
X182150001Y-71200000D02*
X181249999Y-71200000D01*
G75*
G02*
X181000000Y-70950001I0J249999D01*
G01*
X181000000Y-70249999D01*
G75*
G02*
X181249999Y-70000000I249999J0D01*
G01*
X182150001Y-70000000D01*
G75*
G02*
X182400000Y-70249999I0J-249999D01*
G01*
X182400000Y-70950001D01*
G75*
G02*
X182150001Y-71200000I-249999J0D01*
G01*
G37*
G36*
G01*
X182150001Y-73200000D02*
X181249999Y-73200000D01*
G75*
G02*
X181000000Y-72950001I0J249999D01*
G01*
X181000000Y-72249999D01*
G75*
G02*
X181249999Y-72000000I249999J0D01*
G01*
X182150001Y-72000000D01*
G75*
G02*
X182400000Y-72249999I0J-249999D01*
G01*
X182400000Y-72950001D01*
G75*
G02*
X182150001Y-73200000I-249999J0D01*
G01*
G37*
D21*
X192250000Y-69000000D03*
X192250000Y-61000000D03*
X187750000Y-69000000D03*
X187750000Y-61000000D03*
X166250000Y-69000000D03*
X166250000Y-61000000D03*
X161750000Y-69000000D03*
X161750000Y-61000000D03*
D22*
X174000000Y-96700000D03*
X178880000Y-96700000D03*
D10*
X161800000Y-96700000D03*
D11*
X161800000Y-94160000D03*
X161800000Y-91620000D03*
X161800000Y-89080000D03*
X161800000Y-86540000D03*
X161800000Y-84000000D03*
X161800000Y-81460000D03*
X161800000Y-78920000D03*
X161800000Y-76380000D03*
X161800000Y-73840000D03*
G36*
G01*
X183525000Y-95412500D02*
X184475000Y-95412500D01*
G75*
G02*
X184725000Y-95662500I0J-250000D01*
G01*
X184725000Y-96337500D01*
G75*
G02*
X184475000Y-96587500I-250000J0D01*
G01*
X183525000Y-96587500D01*
G75*
G02*
X183275000Y-96337500I0J250000D01*
G01*
X183275000Y-95662500D01*
G75*
G02*
X183525000Y-95412500I250000J0D01*
G01*
G37*
G36*
G01*
X183525000Y-97487500D02*
X184475000Y-97487500D01*
G75*
G02*
X184725000Y-97737500I0J-250000D01*
G01*
X184725000Y-98412500D01*
G75*
G02*
X184475000Y-98662500I-250000J0D01*
G01*
X183525000Y-98662500D01*
G75*
G02*
X183275000Y-98412500I0J250000D01*
G01*
X183275000Y-97737500D01*
G75*
G02*
X183525000Y-97487500I250000J0D01*
G01*
G37*
G36*
G01*
X179025000Y-91987500D02*
X179975000Y-91987500D01*
G75*
G02*
X180225000Y-92237500I0J-250000D01*
G01*
X180225000Y-92912500D01*
G75*
G02*
X179975000Y-93162500I-250000J0D01*
G01*
X179025000Y-93162500D01*
G75*
G02*
X178775000Y-92912500I0J250000D01*
G01*
X178775000Y-92237500D01*
G75*
G02*
X179025000Y-91987500I250000J0D01*
G01*
G37*
G36*
G01*
X179025000Y-89912500D02*
X179975000Y-89912500D01*
G75*
G02*
X180225000Y-90162500I0J-250000D01*
G01*
X180225000Y-90837500D01*
G75*
G02*
X179975000Y-91087500I-250000J0D01*
G01*
X179025000Y-91087500D01*
G75*
G02*
X178775000Y-90837500I0J250000D01*
G01*
X178775000Y-90162500D01*
G75*
G02*
X179025000Y-89912500I250000J0D01*
G01*
G37*
G36*
G01*
X172587500Y-88025000D02*
X172587500Y-88975000D01*
G75*
G02*
X172337500Y-89225000I-250000J0D01*
G01*
X171662500Y-89225000D01*
G75*
G02*
X171412500Y-88975000I0J250000D01*
G01*
X171412500Y-88025000D01*
G75*
G02*
X171662500Y-87775000I250000J0D01*
G01*
X172337500Y-87775000D01*
G75*
G02*
X172587500Y-88025000I0J-250000D01*
G01*
G37*
G36*
G01*
X170512500Y-88025000D02*
X170512500Y-88975000D01*
G75*
G02*
X170262500Y-89225000I-250000J0D01*
G01*
X169587500Y-89225000D01*
G75*
G02*
X169337500Y-88975000I0J250000D01*
G01*
X169337500Y-88025000D01*
G75*
G02*
X169587500Y-87775000I250000J0D01*
G01*
X170262500Y-87775000D01*
G75*
G02*
X170512500Y-88025000I0J-250000D01*
G01*
G37*
G36*
G01*
X183487500Y-79475000D02*
X183487500Y-78525000D01*
G75*
G02*
X183737500Y-78275000I250000J0D01*
G01*
X184412500Y-78275000D01*
G75*
G02*
X184662500Y-78525000I0J-250000D01*
G01*
X184662500Y-79475000D01*
G75*
G02*
X184412500Y-79725000I-250000J0D01*
G01*
X183737500Y-79725000D01*
G75*
G02*
X183487500Y-79475000I0J250000D01*
G01*
G37*
G36*
G01*
X181412500Y-79475000D02*
X181412500Y-78525000D01*
G75*
G02*
X181662500Y-78275000I250000J0D01*
G01*
X182337500Y-78275000D01*
G75*
G02*
X182587500Y-78525000I0J-250000D01*
G01*
X182587500Y-79475000D01*
G75*
G02*
X182337500Y-79725000I-250000J0D01*
G01*
X181662500Y-79725000D01*
G75*
G02*
X181412500Y-79475000I0J250000D01*
G01*
G37*
G36*
G01*
X171337500Y-77475000D02*
X171337500Y-76525000D01*
G75*
G02*
X171587500Y-76275000I250000J0D01*
G01*
X172262500Y-76275000D01*
G75*
G02*
X172512500Y-76525000I0J-250000D01*
G01*
X172512500Y-77475000D01*
G75*
G02*
X172262500Y-77725000I-250000J0D01*
G01*
X171587500Y-77725000D01*
G75*
G02*
X171337500Y-77475000I0J250000D01*
G01*
G37*
G36*
G01*
X173412500Y-77475000D02*
X173412500Y-76525000D01*
G75*
G02*
X173662500Y-76275000I250000J0D01*
G01*
X174337500Y-76275000D01*
G75*
G02*
X174587500Y-76525000I0J-250000D01*
G01*
X174587500Y-77475000D01*
G75*
G02*
X174337500Y-77725000I-250000J0D01*
G01*
X173662500Y-77725000D01*
G75*
G02*
X173412500Y-77475000I0J250000D01*
G01*
G37*
G36*
G01*
X185475000Y-63625000D02*
X184525000Y-63625000D01*
G75*
G02*
X184275000Y-63375000I0J250000D01*
G01*
X184275000Y-62700000D01*
G75*
G02*
X184525000Y-62450000I250000J0D01*
G01*
X185475000Y-62450000D01*
G75*
G02*
X185725000Y-62700000I0J-250000D01*
G01*
X185725000Y-63375000D01*
G75*
G02*
X185475000Y-63625000I-250000J0D01*
G01*
G37*
G36*
G01*
X185475000Y-61550000D02*
X184525000Y-61550000D01*
G75*
G02*
X184275000Y-61300000I0J250000D01*
G01*
X184275000Y-60625000D01*
G75*
G02*
X184525000Y-60375000I250000J0D01*
G01*
X185475000Y-60375000D01*
G75*
G02*
X185725000Y-60625000I0J-250000D01*
G01*
X185725000Y-61300000D01*
G75*
G02*
X185475000Y-61550000I-250000J0D01*
G01*
G37*
G36*
G01*
X168525000Y-62450000D02*
X169475000Y-62450000D01*
G75*
G02*
X169725000Y-62700000I0J-250000D01*
G01*
X169725000Y-63375000D01*
G75*
G02*
X169475000Y-63625000I-250000J0D01*
G01*
X168525000Y-63625000D01*
G75*
G02*
X168275000Y-63375000I0J250000D01*
G01*
X168275000Y-62700000D01*
G75*
G02*
X168525000Y-62450000I250000J0D01*
G01*
G37*
G36*
G01*
X168525000Y-60375000D02*
X169475000Y-60375000D01*
G75*
G02*
X169725000Y-60625000I0J-250000D01*
G01*
X169725000Y-61300000D01*
G75*
G02*
X169475000Y-61550000I-250000J0D01*
G01*
X168525000Y-61550000D01*
G75*
G02*
X168275000Y-61300000I0J250000D01*
G01*
X168275000Y-60625000D01*
G75*
G02*
X168525000Y-60375000I250000J0D01*
G01*
G37*
M02*
