G04 #@! TF.GenerationSoftware,KiCad,Pcbnew,(5.1.9)-1*
G04 #@! TF.CreationDate,2021-04-03T09:41:49-07:00*
G04 #@! TF.ProjectId,Avionics,4176696f-6e69-4637-932e-6b696361645f,rev?*
G04 #@! TF.SameCoordinates,Original*
G04 #@! TF.FileFunction,Copper,L3,Inr*
G04 #@! TF.FilePolarity,Positive*
%FSLAX46Y46*%
G04 Gerber Fmt 4.6, Leading zero omitted, Abs format (unit mm)*
G04 Created by KiCad (PCBNEW (5.1.9)-1) date 2021-04-03 09:41:49*
%MOMM*%
%LPD*%
G01*
G04 APERTURE LIST*
G04 #@! TA.AperFunction,ComponentPad*
%ADD10R,1.700000X1.700000*%
G04 #@! TD*
G04 #@! TA.AperFunction,ComponentPad*
%ADD11O,1.700000X1.700000*%
G04 #@! TD*
G04 #@! TA.AperFunction,ComponentPad*
%ADD12R,1.000000X1.000000*%
G04 #@! TD*
G04 #@! TA.AperFunction,ComponentPad*
%ADD13O,1.000000X1.000000*%
G04 #@! TD*
G04 #@! TA.AperFunction,ComponentPad*
%ADD14O,1.100000X1.500000*%
G04 #@! TD*
G04 #@! TA.AperFunction,ComponentPad*
%ADD15O,1.350000X1.700000*%
G04 #@! TD*
G04 #@! TA.AperFunction,ComponentPad*
%ADD16C,1.500000*%
G04 #@! TD*
G04 #@! TA.AperFunction,ViaPad*
%ADD17C,0.800000*%
G04 #@! TD*
G04 #@! TA.AperFunction,Conductor*
%ADD18C,0.254000*%
G04 #@! TD*
G04 #@! TA.AperFunction,Conductor*
%ADD19C,0.100000*%
G04 #@! TD*
G04 APERTURE END LIST*
D10*
X192280000Y-96700000D03*
D11*
X192280000Y-94160000D03*
X192280000Y-91620000D03*
X192280000Y-89080000D03*
X192280000Y-86540000D03*
X192280000Y-84000000D03*
X192280000Y-81460000D03*
X192280000Y-78920000D03*
X192280000Y-76380000D03*
X192280000Y-73840000D03*
D12*
X179000000Y-104000000D03*
D13*
X179000000Y-105270000D03*
X177730000Y-104000000D03*
X177730000Y-105270000D03*
X176460000Y-104000000D03*
X176460000Y-105270000D03*
X175190000Y-104000000D03*
X175190000Y-105270000D03*
X173920000Y-104000000D03*
X173920000Y-105270000D03*
D14*
X179445000Y-63885000D03*
X174605000Y-63885000D03*
D15*
X179755000Y-60885000D03*
X174295000Y-60885000D03*
D16*
X174000000Y-96700000D03*
X178880000Y-96700000D03*
D10*
X161800000Y-96700000D03*
D11*
X161800000Y-94160000D03*
X161800000Y-91620000D03*
X161800000Y-89080000D03*
X161800000Y-86540000D03*
X161800000Y-84000000D03*
X161800000Y-81460000D03*
X161800000Y-78920000D03*
X161800000Y-76380000D03*
X161800000Y-73840000D03*
D17*
X190500000Y-61000000D03*
X192500000Y-71000000D03*
X175000000Y-67500000D03*
X172900000Y-74000000D03*
X183300000Y-72400000D03*
X185500000Y-77500000D03*
X186000000Y-81000000D03*
X184000000Y-100000000D03*
X190000000Y-106000000D03*
X192300000Y-99000000D03*
X181000000Y-94500000D03*
X163500000Y-61000000D03*
X167000000Y-63500000D03*
X169000000Y-86500000D03*
X164000000Y-100500000D03*
X178500000Y-101500000D03*
X166300000Y-72000000D03*
X182000000Y-61900000D03*
X187900000Y-87600000D03*
X185000000Y-71100000D03*
X167400000Y-94500000D03*
X166000000Y-102500000D03*
X172000000Y-64000000D03*
X170500000Y-68000000D03*
X171000000Y-78500000D03*
X174500000Y-90000000D03*
X181000000Y-90600000D03*
X182000000Y-88500000D03*
X182500000Y-76000000D03*
X180500000Y-104000000D03*
X178900000Y-82600000D03*
X177504878Y-91974141D03*
X176000000Y-101000000D03*
X190000000Y-80000000D03*
X170500000Y-84000000D03*
X167640000Y-78000000D03*
X179500000Y-66000000D03*
X177500000Y-84500000D03*
X173000000Y-90000000D03*
X167500000Y-90000000D03*
X177500000Y-86000000D03*
X173500000Y-93000000D03*
X175000000Y-81500000D03*
X171500000Y-80500000D03*
X175500000Y-83500000D03*
X177500000Y-82775000D03*
X170500000Y-97500000D03*
X179000000Y-86500000D03*
D18*
X173364209Y-59779208D02*
X173200505Y-59978682D01*
X173078862Y-60206259D01*
X173003955Y-60453195D01*
X172985000Y-60645649D01*
X172985000Y-61124350D01*
X173003955Y-61316804D01*
X173078862Y-61563740D01*
X173200505Y-61791317D01*
X173364208Y-61990792D01*
X173563682Y-62154495D01*
X173791259Y-62276138D01*
X174038195Y-62351045D01*
X174295000Y-62376338D01*
X174551804Y-62351045D01*
X174798740Y-62276138D01*
X175026317Y-62154495D01*
X175225792Y-61990792D01*
X175389495Y-61791318D01*
X175511138Y-61563741D01*
X175586045Y-61316805D01*
X175605000Y-61124351D01*
X175605000Y-60645650D01*
X175586045Y-60453196D01*
X175511138Y-60206260D01*
X175389495Y-59978682D01*
X175225792Y-59779208D01*
X175080536Y-59660000D01*
X178969465Y-59660000D01*
X178824209Y-59779208D01*
X178660505Y-59978682D01*
X178538862Y-60206259D01*
X178463955Y-60453195D01*
X178445000Y-60645649D01*
X178445000Y-61124350D01*
X178463955Y-61316804D01*
X178538862Y-61563740D01*
X178660505Y-61791317D01*
X178824208Y-61990792D01*
X179023682Y-62154495D01*
X179251259Y-62276138D01*
X179498195Y-62351045D01*
X179755000Y-62376338D01*
X180011804Y-62351045D01*
X180258740Y-62276138D01*
X180486317Y-62154495D01*
X180685792Y-61990792D01*
X180849495Y-61791318D01*
X180971138Y-61563741D01*
X181046045Y-61316805D01*
X181065000Y-61124351D01*
X181065000Y-60645650D01*
X181046045Y-60453196D01*
X180971138Y-60206260D01*
X180849495Y-59978682D01*
X180685792Y-59779208D01*
X180540536Y-59660000D01*
X193967721Y-59660000D01*
X194065424Y-59669580D01*
X194128356Y-59688580D01*
X194186405Y-59719445D01*
X194237343Y-59760989D01*
X194279248Y-59811644D01*
X194310515Y-59869471D01*
X194329956Y-59932272D01*
X194340001Y-60027845D01*
X194340000Y-107967721D01*
X194330420Y-108065424D01*
X194311420Y-108128357D01*
X194280554Y-108186406D01*
X194239011Y-108237343D01*
X194188356Y-108279248D01*
X194130529Y-108310515D01*
X194067728Y-108329956D01*
X193972165Y-108340000D01*
X160032279Y-108340000D01*
X159934576Y-108330420D01*
X159871643Y-108311420D01*
X159813594Y-108280554D01*
X159762657Y-108239011D01*
X159720752Y-108188356D01*
X159689485Y-108130529D01*
X159670044Y-108067728D01*
X159660000Y-107972165D01*
X159660000Y-103888212D01*
X172785000Y-103888212D01*
X172785000Y-104111788D01*
X172828617Y-104331067D01*
X172914176Y-104537624D01*
X172979241Y-104635000D01*
X172914176Y-104732376D01*
X172828617Y-104938933D01*
X172785000Y-105158212D01*
X172785000Y-105381788D01*
X172828617Y-105601067D01*
X172914176Y-105807624D01*
X173038388Y-105993520D01*
X173196480Y-106151612D01*
X173382376Y-106275824D01*
X173588933Y-106361383D01*
X173808212Y-106405000D01*
X174031788Y-106405000D01*
X174251067Y-106361383D01*
X174457624Y-106275824D01*
X174555000Y-106210759D01*
X174652376Y-106275824D01*
X174858933Y-106361383D01*
X175078212Y-106405000D01*
X175301788Y-106405000D01*
X175521067Y-106361383D01*
X175727624Y-106275824D01*
X175825000Y-106210759D01*
X175922376Y-106275824D01*
X176128933Y-106361383D01*
X176348212Y-106405000D01*
X176571788Y-106405000D01*
X176791067Y-106361383D01*
X176997624Y-106275824D01*
X177095000Y-106210759D01*
X177192376Y-106275824D01*
X177398933Y-106361383D01*
X177618212Y-106405000D01*
X177841788Y-106405000D01*
X178061067Y-106361383D01*
X178267624Y-106275824D01*
X178365000Y-106210759D01*
X178462376Y-106275824D01*
X178668933Y-106361383D01*
X178888212Y-106405000D01*
X179111788Y-106405000D01*
X179331067Y-106361383D01*
X179537624Y-106275824D01*
X179723520Y-106151612D01*
X179881612Y-105993520D01*
X180005824Y-105807624D01*
X180091383Y-105601067D01*
X180135000Y-105381788D01*
X180135000Y-105158212D01*
X180094003Y-104952107D01*
X180198102Y-104995226D01*
X180398061Y-105035000D01*
X180601939Y-105035000D01*
X180801898Y-104995226D01*
X180990256Y-104917205D01*
X181159774Y-104803937D01*
X181303937Y-104659774D01*
X181417205Y-104490256D01*
X181495226Y-104301898D01*
X181535000Y-104101939D01*
X181535000Y-103898061D01*
X181495226Y-103698102D01*
X181417205Y-103509744D01*
X181303937Y-103340226D01*
X181159774Y-103196063D01*
X180990256Y-103082795D01*
X180801898Y-103004774D01*
X180601939Y-102965000D01*
X180398061Y-102965000D01*
X180198102Y-103004774D01*
X180009744Y-103082795D01*
X179989934Y-103096031D01*
X179951185Y-103048815D01*
X179854494Y-102969463D01*
X179744180Y-102910498D01*
X179624482Y-102874188D01*
X179500000Y-102861928D01*
X178500000Y-102861928D01*
X178375518Y-102874188D01*
X178255820Y-102910498D01*
X178166820Y-102958070D01*
X178086864Y-102922554D01*
X178031874Y-102905881D01*
X177857000Y-103032046D01*
X177857000Y-103873000D01*
X177861928Y-103873000D01*
X177861928Y-104127000D01*
X177857000Y-104127000D01*
X177857000Y-104138026D01*
X177841788Y-104135000D01*
X177618212Y-104135000D01*
X177603000Y-104138026D01*
X177603000Y-104127000D01*
X176587000Y-104127000D01*
X176587000Y-104138026D01*
X176571788Y-104135000D01*
X176348212Y-104135000D01*
X176333000Y-104138026D01*
X176333000Y-104127000D01*
X176321974Y-104127000D01*
X176325000Y-104111788D01*
X176325000Y-103888212D01*
X176321974Y-103873000D01*
X176333000Y-103873000D01*
X176333000Y-103032046D01*
X176587000Y-103032046D01*
X176587000Y-103873000D01*
X177603000Y-103873000D01*
X177603000Y-103032046D01*
X177428126Y-102905881D01*
X177373136Y-102922554D01*
X177169794Y-103012877D01*
X177095000Y-103065639D01*
X177020206Y-103012877D01*
X176816864Y-102922554D01*
X176761874Y-102905881D01*
X176587000Y-103032046D01*
X176333000Y-103032046D01*
X176158126Y-102905881D01*
X176103136Y-102922554D01*
X175899794Y-103012877D01*
X175829658Y-103062353D01*
X175727624Y-102994176D01*
X175521067Y-102908617D01*
X175301788Y-102865000D01*
X175078212Y-102865000D01*
X174858933Y-102908617D01*
X174652376Y-102994176D01*
X174555000Y-103059241D01*
X174457624Y-102994176D01*
X174251067Y-102908617D01*
X174031788Y-102865000D01*
X173808212Y-102865000D01*
X173588933Y-102908617D01*
X173382376Y-102994176D01*
X173196480Y-103118388D01*
X173038388Y-103276480D01*
X172914176Y-103462376D01*
X172828617Y-103668933D01*
X172785000Y-103888212D01*
X159660000Y-103888212D01*
X159660000Y-102398061D01*
X164965000Y-102398061D01*
X164965000Y-102601939D01*
X165004774Y-102801898D01*
X165082795Y-102990256D01*
X165196063Y-103159774D01*
X165340226Y-103303937D01*
X165509744Y-103417205D01*
X165698102Y-103495226D01*
X165898061Y-103535000D01*
X166101939Y-103535000D01*
X166301898Y-103495226D01*
X166490256Y-103417205D01*
X166659774Y-103303937D01*
X166803937Y-103159774D01*
X166917205Y-102990256D01*
X166995226Y-102801898D01*
X167035000Y-102601939D01*
X167035000Y-102398061D01*
X166995226Y-102198102D01*
X166917205Y-102009744D01*
X166803937Y-101840226D01*
X166659774Y-101696063D01*
X166490256Y-101582795D01*
X166301898Y-101504774D01*
X166101939Y-101465000D01*
X165898061Y-101465000D01*
X165698102Y-101504774D01*
X165509744Y-101582795D01*
X165340226Y-101696063D01*
X165196063Y-101840226D01*
X165082795Y-102009744D01*
X165004774Y-102198102D01*
X164965000Y-102398061D01*
X159660000Y-102398061D01*
X159660000Y-100898061D01*
X174965000Y-100898061D01*
X174965000Y-101101939D01*
X175004774Y-101301898D01*
X175082795Y-101490256D01*
X175196063Y-101659774D01*
X175340226Y-101803937D01*
X175509744Y-101917205D01*
X175698102Y-101995226D01*
X175898061Y-102035000D01*
X176101939Y-102035000D01*
X176301898Y-101995226D01*
X176490256Y-101917205D01*
X176659774Y-101803937D01*
X176803937Y-101659774D01*
X176917205Y-101490256D01*
X176995226Y-101301898D01*
X177035000Y-101101939D01*
X177035000Y-100898061D01*
X176995226Y-100698102D01*
X176917205Y-100509744D01*
X176803937Y-100340226D01*
X176659774Y-100196063D01*
X176490256Y-100082795D01*
X176301898Y-100004774D01*
X176101939Y-99965000D01*
X175898061Y-99965000D01*
X175698102Y-100004774D01*
X175509744Y-100082795D01*
X175340226Y-100196063D01*
X175196063Y-100340226D01*
X175082795Y-100509744D01*
X175004774Y-100698102D01*
X174965000Y-100898061D01*
X159660000Y-100898061D01*
X159660000Y-97550000D01*
X160311928Y-97550000D01*
X160324188Y-97674482D01*
X160360498Y-97794180D01*
X160419463Y-97904494D01*
X160498815Y-98001185D01*
X160595506Y-98080537D01*
X160705820Y-98139502D01*
X160825518Y-98175812D01*
X160950000Y-98188072D01*
X161514250Y-98185000D01*
X161673000Y-98026250D01*
X161673000Y-96827000D01*
X161927000Y-96827000D01*
X161927000Y-98026250D01*
X162085750Y-98185000D01*
X162650000Y-98188072D01*
X162774482Y-98175812D01*
X162894180Y-98139502D01*
X163004494Y-98080537D01*
X163101185Y-98001185D01*
X163180537Y-97904494D01*
X163239502Y-97794180D01*
X163275812Y-97674482D01*
X163288072Y-97550000D01*
X163287245Y-97398061D01*
X169465000Y-97398061D01*
X169465000Y-97601939D01*
X169504774Y-97801898D01*
X169582795Y-97990256D01*
X169696063Y-98159774D01*
X169840226Y-98303937D01*
X170009744Y-98417205D01*
X170198102Y-98495226D01*
X170398061Y-98535000D01*
X170601939Y-98535000D01*
X170801898Y-98495226D01*
X170990256Y-98417205D01*
X171159774Y-98303937D01*
X171303937Y-98159774D01*
X171417205Y-97990256D01*
X171495226Y-97801898D01*
X171535000Y-97601939D01*
X171535000Y-97398061D01*
X171495226Y-97198102D01*
X171417205Y-97009744D01*
X171303937Y-96840226D01*
X171159774Y-96696063D01*
X170990256Y-96582795D01*
X170943889Y-96563589D01*
X172615000Y-96563589D01*
X172615000Y-96836411D01*
X172668225Y-97103989D01*
X172772629Y-97356043D01*
X172924201Y-97582886D01*
X173117114Y-97775799D01*
X173343957Y-97927371D01*
X173596011Y-98031775D01*
X173863589Y-98085000D01*
X174136411Y-98085000D01*
X174403989Y-98031775D01*
X174656043Y-97927371D01*
X174882886Y-97775799D01*
X175075799Y-97582886D01*
X175227371Y-97356043D01*
X175331775Y-97103989D01*
X175385000Y-96836411D01*
X175385000Y-96563589D01*
X177495000Y-96563589D01*
X177495000Y-96836411D01*
X177548225Y-97103989D01*
X177652629Y-97356043D01*
X177804201Y-97582886D01*
X177997114Y-97775799D01*
X178223957Y-97927371D01*
X178476011Y-98031775D01*
X178743589Y-98085000D01*
X179016411Y-98085000D01*
X179283989Y-98031775D01*
X179536043Y-97927371D01*
X179762886Y-97775799D01*
X179955799Y-97582886D01*
X179977772Y-97550000D01*
X190791928Y-97550000D01*
X190804188Y-97674482D01*
X190840498Y-97794180D01*
X190899463Y-97904494D01*
X190978815Y-98001185D01*
X191075506Y-98080537D01*
X191185820Y-98139502D01*
X191305518Y-98175812D01*
X191430000Y-98188072D01*
X191994250Y-98185000D01*
X192153000Y-98026250D01*
X192153000Y-96827000D01*
X192407000Y-96827000D01*
X192407000Y-98026250D01*
X192565750Y-98185000D01*
X193130000Y-98188072D01*
X193254482Y-98175812D01*
X193374180Y-98139502D01*
X193484494Y-98080537D01*
X193581185Y-98001185D01*
X193660537Y-97904494D01*
X193719502Y-97794180D01*
X193755812Y-97674482D01*
X193768072Y-97550000D01*
X193765000Y-96985750D01*
X193606250Y-96827000D01*
X192407000Y-96827000D01*
X192153000Y-96827000D01*
X190953750Y-96827000D01*
X190795000Y-96985750D01*
X190791928Y-97550000D01*
X179977772Y-97550000D01*
X180107371Y-97356043D01*
X180211775Y-97103989D01*
X180265000Y-96836411D01*
X180265000Y-96563589D01*
X180211775Y-96296011D01*
X180107371Y-96043957D01*
X179955799Y-95817114D01*
X179762886Y-95624201D01*
X179536043Y-95472629D01*
X179283989Y-95368225D01*
X179016411Y-95315000D01*
X178743589Y-95315000D01*
X178476011Y-95368225D01*
X178223957Y-95472629D01*
X177997114Y-95624201D01*
X177804201Y-95817114D01*
X177652629Y-96043957D01*
X177548225Y-96296011D01*
X177495000Y-96563589D01*
X175385000Y-96563589D01*
X175331775Y-96296011D01*
X175227371Y-96043957D01*
X175075799Y-95817114D01*
X174882886Y-95624201D01*
X174656043Y-95472629D01*
X174403989Y-95368225D01*
X174136411Y-95315000D01*
X173863589Y-95315000D01*
X173596011Y-95368225D01*
X173343957Y-95472629D01*
X173117114Y-95624201D01*
X172924201Y-95817114D01*
X172772629Y-96043957D01*
X172668225Y-96296011D01*
X172615000Y-96563589D01*
X170943889Y-96563589D01*
X170801898Y-96504774D01*
X170601939Y-96465000D01*
X170398061Y-96465000D01*
X170198102Y-96504774D01*
X170009744Y-96582795D01*
X169840226Y-96696063D01*
X169696063Y-96840226D01*
X169582795Y-97009744D01*
X169504774Y-97198102D01*
X169465000Y-97398061D01*
X163287245Y-97398061D01*
X163285000Y-96985750D01*
X163126250Y-96827000D01*
X161927000Y-96827000D01*
X161673000Y-96827000D01*
X160473750Y-96827000D01*
X160315000Y-96985750D01*
X160311928Y-97550000D01*
X159660000Y-97550000D01*
X159660000Y-95850000D01*
X160311928Y-95850000D01*
X160315000Y-96414250D01*
X160473750Y-96573000D01*
X161673000Y-96573000D01*
X161673000Y-96553000D01*
X161927000Y-96553000D01*
X161927000Y-96573000D01*
X163126250Y-96573000D01*
X163285000Y-96414250D01*
X163288072Y-95850000D01*
X163275812Y-95725518D01*
X163239502Y-95605820D01*
X163180537Y-95495506D01*
X163101185Y-95398815D01*
X163004494Y-95319463D01*
X162894180Y-95260498D01*
X162821620Y-95238487D01*
X162953475Y-95106632D01*
X163115990Y-94863411D01*
X163227932Y-94593158D01*
X163266739Y-94398061D01*
X166365000Y-94398061D01*
X166365000Y-94601939D01*
X166404774Y-94801898D01*
X166482795Y-94990256D01*
X166596063Y-95159774D01*
X166740226Y-95303937D01*
X166909744Y-95417205D01*
X167098102Y-95495226D01*
X167298061Y-95535000D01*
X167501939Y-95535000D01*
X167701898Y-95495226D01*
X167890256Y-95417205D01*
X168059774Y-95303937D01*
X168203937Y-95159774D01*
X168317205Y-94990256D01*
X168395226Y-94801898D01*
X168435000Y-94601939D01*
X168435000Y-94398061D01*
X168395226Y-94198102D01*
X168317205Y-94009744D01*
X168203937Y-93840226D01*
X168059774Y-93696063D01*
X167890256Y-93582795D01*
X167701898Y-93504774D01*
X167501939Y-93465000D01*
X167298061Y-93465000D01*
X167098102Y-93504774D01*
X166909744Y-93582795D01*
X166740226Y-93696063D01*
X166596063Y-93840226D01*
X166482795Y-94009744D01*
X166404774Y-94198102D01*
X166365000Y-94398061D01*
X163266739Y-94398061D01*
X163285000Y-94306260D01*
X163285000Y-94013740D01*
X163227932Y-93726842D01*
X163115990Y-93456589D01*
X162953475Y-93213368D01*
X162746632Y-93006525D01*
X162584305Y-92898061D01*
X172465000Y-92898061D01*
X172465000Y-93101939D01*
X172504774Y-93301898D01*
X172582795Y-93490256D01*
X172696063Y-93659774D01*
X172840226Y-93803937D01*
X173009744Y-93917205D01*
X173198102Y-93995226D01*
X173398061Y-94035000D01*
X173601939Y-94035000D01*
X173801898Y-93995226D01*
X173990256Y-93917205D01*
X174159774Y-93803937D01*
X174303937Y-93659774D01*
X174417205Y-93490256D01*
X174495226Y-93301898D01*
X174535000Y-93101939D01*
X174535000Y-92898061D01*
X174495226Y-92698102D01*
X174417205Y-92509744D01*
X174303937Y-92340226D01*
X174159774Y-92196063D01*
X173990256Y-92082795D01*
X173801898Y-92004774D01*
X173601939Y-91965000D01*
X173398061Y-91965000D01*
X173198102Y-92004774D01*
X173009744Y-92082795D01*
X172840226Y-92196063D01*
X172696063Y-92340226D01*
X172582795Y-92509744D01*
X172504774Y-92698102D01*
X172465000Y-92898061D01*
X162584305Y-92898061D01*
X162572240Y-92890000D01*
X162746632Y-92773475D01*
X162953475Y-92566632D01*
X163115990Y-92323411D01*
X163227932Y-92053158D01*
X163263926Y-91872202D01*
X176469878Y-91872202D01*
X176469878Y-92076080D01*
X176509652Y-92276039D01*
X176587673Y-92464397D01*
X176700941Y-92633915D01*
X176845104Y-92778078D01*
X177014622Y-92891346D01*
X177202980Y-92969367D01*
X177402939Y-93009141D01*
X177606817Y-93009141D01*
X177806776Y-92969367D01*
X177995134Y-92891346D01*
X178164652Y-92778078D01*
X178308815Y-92633915D01*
X178422083Y-92464397D01*
X178500104Y-92276039D01*
X178539878Y-92076080D01*
X178539878Y-91872202D01*
X178500104Y-91672243D01*
X178422083Y-91483885D01*
X178308815Y-91314367D01*
X178164652Y-91170204D01*
X177995134Y-91056936D01*
X177806776Y-90978915D01*
X177606817Y-90939141D01*
X177402939Y-90939141D01*
X177202980Y-90978915D01*
X177014622Y-91056936D01*
X176845104Y-91170204D01*
X176700941Y-91314367D01*
X176587673Y-91483885D01*
X176509652Y-91672243D01*
X176469878Y-91872202D01*
X163263926Y-91872202D01*
X163285000Y-91766260D01*
X163285000Y-91473740D01*
X163227932Y-91186842D01*
X163115990Y-90916589D01*
X162953475Y-90673368D01*
X162746632Y-90466525D01*
X162572240Y-90350000D01*
X162746632Y-90233475D01*
X162953475Y-90026632D01*
X163039383Y-89898061D01*
X166465000Y-89898061D01*
X166465000Y-90101939D01*
X166504774Y-90301898D01*
X166582795Y-90490256D01*
X166696063Y-90659774D01*
X166840226Y-90803937D01*
X167009744Y-90917205D01*
X167198102Y-90995226D01*
X167398061Y-91035000D01*
X167601939Y-91035000D01*
X167801898Y-90995226D01*
X167990256Y-90917205D01*
X168159774Y-90803937D01*
X168303937Y-90659774D01*
X168417205Y-90490256D01*
X168495226Y-90301898D01*
X168535000Y-90101939D01*
X168535000Y-89898061D01*
X171965000Y-89898061D01*
X171965000Y-90101939D01*
X172004774Y-90301898D01*
X172082795Y-90490256D01*
X172196063Y-90659774D01*
X172340226Y-90803937D01*
X172509744Y-90917205D01*
X172698102Y-90995226D01*
X172898061Y-91035000D01*
X173101939Y-91035000D01*
X173301898Y-90995226D01*
X173490256Y-90917205D01*
X173659774Y-90803937D01*
X173750000Y-90713711D01*
X173840226Y-90803937D01*
X174009744Y-90917205D01*
X174198102Y-90995226D01*
X174398061Y-91035000D01*
X174601939Y-91035000D01*
X174801898Y-90995226D01*
X174990256Y-90917205D01*
X175159774Y-90803937D01*
X175303937Y-90659774D01*
X175411989Y-90498061D01*
X179965000Y-90498061D01*
X179965000Y-90701939D01*
X180004774Y-90901898D01*
X180082795Y-91090256D01*
X180196063Y-91259774D01*
X180340226Y-91403937D01*
X180509744Y-91517205D01*
X180698102Y-91595226D01*
X180898061Y-91635000D01*
X181101939Y-91635000D01*
X181301898Y-91595226D01*
X181490256Y-91517205D01*
X181659774Y-91403937D01*
X181803937Y-91259774D01*
X181917205Y-91090256D01*
X181995226Y-90901898D01*
X182035000Y-90701939D01*
X182035000Y-90498061D01*
X181995226Y-90298102D01*
X181917205Y-90109744D01*
X181803937Y-89940226D01*
X181659774Y-89796063D01*
X181490256Y-89682795D01*
X181301898Y-89604774D01*
X181101939Y-89565000D01*
X180898061Y-89565000D01*
X180698102Y-89604774D01*
X180509744Y-89682795D01*
X180340226Y-89796063D01*
X180196063Y-89940226D01*
X180082795Y-90109744D01*
X180004774Y-90298102D01*
X179965000Y-90498061D01*
X175411989Y-90498061D01*
X175417205Y-90490256D01*
X175495226Y-90301898D01*
X175535000Y-90101939D01*
X175535000Y-89898061D01*
X175495226Y-89698102D01*
X175417205Y-89509744D01*
X175303937Y-89340226D01*
X175159774Y-89196063D01*
X174990256Y-89082795D01*
X174801898Y-89004774D01*
X174601939Y-88965000D01*
X174398061Y-88965000D01*
X174198102Y-89004774D01*
X174009744Y-89082795D01*
X173840226Y-89196063D01*
X173750000Y-89286289D01*
X173659774Y-89196063D01*
X173490256Y-89082795D01*
X173301898Y-89004774D01*
X173101939Y-88965000D01*
X172898061Y-88965000D01*
X172698102Y-89004774D01*
X172509744Y-89082795D01*
X172340226Y-89196063D01*
X172196063Y-89340226D01*
X172082795Y-89509744D01*
X172004774Y-89698102D01*
X171965000Y-89898061D01*
X168535000Y-89898061D01*
X168495226Y-89698102D01*
X168417205Y-89509744D01*
X168303937Y-89340226D01*
X168159774Y-89196063D01*
X167990256Y-89082795D01*
X167801898Y-89004774D01*
X167601939Y-88965000D01*
X167398061Y-88965000D01*
X167198102Y-89004774D01*
X167009744Y-89082795D01*
X166840226Y-89196063D01*
X166696063Y-89340226D01*
X166582795Y-89509744D01*
X166504774Y-89698102D01*
X166465000Y-89898061D01*
X163039383Y-89898061D01*
X163115990Y-89783411D01*
X163227932Y-89513158D01*
X163285000Y-89226260D01*
X163285000Y-88933740D01*
X163227932Y-88646842D01*
X163124884Y-88398061D01*
X180965000Y-88398061D01*
X180965000Y-88601939D01*
X181004774Y-88801898D01*
X181082795Y-88990256D01*
X181196063Y-89159774D01*
X181340226Y-89303937D01*
X181509744Y-89417205D01*
X181698102Y-89495226D01*
X181898061Y-89535000D01*
X182101939Y-89535000D01*
X182301898Y-89495226D01*
X182490256Y-89417205D01*
X182659774Y-89303937D01*
X182803937Y-89159774D01*
X182917205Y-88990256D01*
X182995226Y-88801898D01*
X183035000Y-88601939D01*
X183035000Y-88398061D01*
X182995226Y-88198102D01*
X182917205Y-88009744D01*
X182803937Y-87840226D01*
X182659774Y-87696063D01*
X182490256Y-87582795D01*
X182301898Y-87504774D01*
X182101939Y-87465000D01*
X181898061Y-87465000D01*
X181698102Y-87504774D01*
X181509744Y-87582795D01*
X181340226Y-87696063D01*
X181196063Y-87840226D01*
X181082795Y-88009744D01*
X181004774Y-88198102D01*
X180965000Y-88398061D01*
X163124884Y-88398061D01*
X163115990Y-88376589D01*
X162953475Y-88133368D01*
X162746632Y-87926525D01*
X162572240Y-87810000D01*
X162746632Y-87693475D01*
X162953475Y-87486632D01*
X163115990Y-87243411D01*
X163227932Y-86973158D01*
X163285000Y-86686260D01*
X163285000Y-86393740D01*
X163227932Y-86106842D01*
X163115990Y-85836589D01*
X162953475Y-85593368D01*
X162746632Y-85386525D01*
X162572240Y-85270000D01*
X162746632Y-85153475D01*
X162953475Y-84946632D01*
X163115990Y-84703411D01*
X163227932Y-84433158D01*
X163285000Y-84146260D01*
X163285000Y-83898061D01*
X169465000Y-83898061D01*
X169465000Y-84101939D01*
X169504774Y-84301898D01*
X169582795Y-84490256D01*
X169696063Y-84659774D01*
X169840226Y-84803937D01*
X170009744Y-84917205D01*
X170198102Y-84995226D01*
X170398061Y-85035000D01*
X170601939Y-85035000D01*
X170801898Y-84995226D01*
X170990256Y-84917205D01*
X171159774Y-84803937D01*
X171303937Y-84659774D01*
X171417205Y-84490256D01*
X171495226Y-84301898D01*
X171535000Y-84101939D01*
X171535000Y-83898061D01*
X171495226Y-83698102D01*
X171417205Y-83509744D01*
X171303937Y-83340226D01*
X171159774Y-83196063D01*
X170990256Y-83082795D01*
X170801898Y-83004774D01*
X170601939Y-82965000D01*
X170398061Y-82965000D01*
X170198102Y-83004774D01*
X170009744Y-83082795D01*
X169840226Y-83196063D01*
X169696063Y-83340226D01*
X169582795Y-83509744D01*
X169504774Y-83698102D01*
X169465000Y-83898061D01*
X163285000Y-83898061D01*
X163285000Y-83853740D01*
X163227932Y-83566842D01*
X163115990Y-83296589D01*
X162953475Y-83053368D01*
X162746632Y-82846525D01*
X162572240Y-82730000D01*
X162746632Y-82613475D01*
X162953475Y-82406632D01*
X163115990Y-82163411D01*
X163227932Y-81893158D01*
X163285000Y-81606260D01*
X163285000Y-81313740D01*
X163227932Y-81026842D01*
X163115990Y-80756589D01*
X162953475Y-80513368D01*
X162746632Y-80306525D01*
X162572240Y-80190000D01*
X162746632Y-80073475D01*
X162953475Y-79866632D01*
X163115990Y-79623411D01*
X163227932Y-79353158D01*
X163285000Y-79066260D01*
X163285000Y-78773740D01*
X163227932Y-78486842D01*
X163115990Y-78216589D01*
X162953475Y-77973368D01*
X162878168Y-77898061D01*
X166605000Y-77898061D01*
X166605000Y-78101939D01*
X166644774Y-78301898D01*
X166722795Y-78490256D01*
X166836063Y-78659774D01*
X166980226Y-78803937D01*
X167149744Y-78917205D01*
X167338102Y-78995226D01*
X167538061Y-79035000D01*
X167741939Y-79035000D01*
X167941898Y-78995226D01*
X168130256Y-78917205D01*
X168299774Y-78803937D01*
X168443937Y-78659774D01*
X168557205Y-78490256D01*
X168595393Y-78398061D01*
X169965000Y-78398061D01*
X169965000Y-78601939D01*
X170004774Y-78801898D01*
X170082795Y-78990256D01*
X170196063Y-79159774D01*
X170340226Y-79303937D01*
X170509744Y-79417205D01*
X170698102Y-79495226D01*
X170898061Y-79535000D01*
X171101939Y-79535000D01*
X171146556Y-79526125D01*
X171009744Y-79582795D01*
X170840226Y-79696063D01*
X170696063Y-79840226D01*
X170582795Y-80009744D01*
X170504774Y-80198102D01*
X170465000Y-80398061D01*
X170465000Y-80601939D01*
X170504774Y-80801898D01*
X170582795Y-80990256D01*
X170696063Y-81159774D01*
X170840226Y-81303937D01*
X171009744Y-81417205D01*
X171198102Y-81495226D01*
X171398061Y-81535000D01*
X171601939Y-81535000D01*
X171801898Y-81495226D01*
X171990256Y-81417205D01*
X172018907Y-81398061D01*
X173965000Y-81398061D01*
X173965000Y-81601939D01*
X174004774Y-81801898D01*
X174082795Y-81990256D01*
X174196063Y-82159774D01*
X174340226Y-82303937D01*
X174509744Y-82417205D01*
X174698102Y-82495226D01*
X174898061Y-82535000D01*
X175101939Y-82535000D01*
X175146556Y-82526125D01*
X175009744Y-82582795D01*
X174840226Y-82696063D01*
X174696063Y-82840226D01*
X174582795Y-83009744D01*
X174504774Y-83198102D01*
X174465000Y-83398061D01*
X174465000Y-83601939D01*
X174504774Y-83801898D01*
X174582795Y-83990256D01*
X174696063Y-84159774D01*
X174840226Y-84303937D01*
X175009744Y-84417205D01*
X175198102Y-84495226D01*
X175398061Y-84535000D01*
X175601939Y-84535000D01*
X175801898Y-84495226D01*
X175990256Y-84417205D01*
X176159774Y-84303937D01*
X176303937Y-84159774D01*
X176417205Y-83990256D01*
X176495226Y-83801898D01*
X176535000Y-83601939D01*
X176535000Y-83398061D01*
X176495226Y-83198102D01*
X176417205Y-83009744D01*
X176303937Y-82840226D01*
X176159774Y-82696063D01*
X176125349Y-82673061D01*
X176465000Y-82673061D01*
X176465000Y-82876939D01*
X176504774Y-83076898D01*
X176582795Y-83265256D01*
X176696063Y-83434774D01*
X176840226Y-83578937D01*
X176927872Y-83637500D01*
X176840226Y-83696063D01*
X176696063Y-83840226D01*
X176582795Y-84009744D01*
X176504774Y-84198102D01*
X176465000Y-84398061D01*
X176465000Y-84601939D01*
X176504774Y-84801898D01*
X176582795Y-84990256D01*
X176696063Y-85159774D01*
X176786289Y-85250000D01*
X176696063Y-85340226D01*
X176582795Y-85509744D01*
X176504774Y-85698102D01*
X176465000Y-85898061D01*
X176465000Y-86101939D01*
X176504774Y-86301898D01*
X176582795Y-86490256D01*
X176696063Y-86659774D01*
X176840226Y-86803937D01*
X177009744Y-86917205D01*
X177198102Y-86995226D01*
X177398061Y-87035000D01*
X177601939Y-87035000D01*
X177801898Y-86995226D01*
X177990256Y-86917205D01*
X178039035Y-86884612D01*
X178082795Y-86990256D01*
X178196063Y-87159774D01*
X178340226Y-87303937D01*
X178509744Y-87417205D01*
X178698102Y-87495226D01*
X178898061Y-87535000D01*
X179101939Y-87535000D01*
X179301898Y-87495226D01*
X179490256Y-87417205D01*
X179659774Y-87303937D01*
X179803937Y-87159774D01*
X179917205Y-86990256D01*
X179995226Y-86801898D01*
X180035000Y-86601939D01*
X180035000Y-86398061D01*
X179995226Y-86198102D01*
X179917205Y-86009744D01*
X179803937Y-85840226D01*
X179659774Y-85696063D01*
X179490256Y-85582795D01*
X179301898Y-85504774D01*
X179101939Y-85465000D01*
X178898061Y-85465000D01*
X178698102Y-85504774D01*
X178509744Y-85582795D01*
X178460965Y-85615388D01*
X178417205Y-85509744D01*
X178303937Y-85340226D01*
X178213711Y-85250000D01*
X178303937Y-85159774D01*
X178417205Y-84990256D01*
X178495226Y-84801898D01*
X178535000Y-84601939D01*
X178535000Y-84398061D01*
X178495226Y-84198102D01*
X178417205Y-84009744D01*
X178303937Y-83840226D01*
X178159774Y-83696063D01*
X178072128Y-83637500D01*
X178159774Y-83578937D01*
X178296903Y-83441808D01*
X178409744Y-83517205D01*
X178598102Y-83595226D01*
X178798061Y-83635000D01*
X179001939Y-83635000D01*
X179201898Y-83595226D01*
X179390256Y-83517205D01*
X179559774Y-83403937D01*
X179703937Y-83259774D01*
X179817205Y-83090256D01*
X179895226Y-82901898D01*
X179935000Y-82701939D01*
X179935000Y-82498061D01*
X179895226Y-82298102D01*
X179817205Y-82109744D01*
X179703937Y-81940226D01*
X179559774Y-81796063D01*
X179390256Y-81682795D01*
X179201898Y-81604774D01*
X179001939Y-81565000D01*
X178798061Y-81565000D01*
X178598102Y-81604774D01*
X178409744Y-81682795D01*
X178240226Y-81796063D01*
X178103097Y-81933192D01*
X177990256Y-81857795D01*
X177801898Y-81779774D01*
X177601939Y-81740000D01*
X177398061Y-81740000D01*
X177198102Y-81779774D01*
X177009744Y-81857795D01*
X176840226Y-81971063D01*
X176696063Y-82115226D01*
X176582795Y-82284744D01*
X176504774Y-82473102D01*
X176465000Y-82673061D01*
X176125349Y-82673061D01*
X175990256Y-82582795D01*
X175801898Y-82504774D01*
X175601939Y-82465000D01*
X175398061Y-82465000D01*
X175353444Y-82473875D01*
X175490256Y-82417205D01*
X175659774Y-82303937D01*
X175803937Y-82159774D01*
X175917205Y-81990256D01*
X175995226Y-81801898D01*
X176035000Y-81601939D01*
X176035000Y-81398061D01*
X175995226Y-81198102D01*
X175917205Y-81009744D01*
X175803937Y-80840226D01*
X175659774Y-80696063D01*
X175490256Y-80582795D01*
X175301898Y-80504774D01*
X175101939Y-80465000D01*
X174898061Y-80465000D01*
X174698102Y-80504774D01*
X174509744Y-80582795D01*
X174340226Y-80696063D01*
X174196063Y-80840226D01*
X174082795Y-81009744D01*
X174004774Y-81198102D01*
X173965000Y-81398061D01*
X172018907Y-81398061D01*
X172159774Y-81303937D01*
X172303937Y-81159774D01*
X172417205Y-80990256D01*
X172495226Y-80801898D01*
X172535000Y-80601939D01*
X172535000Y-80398061D01*
X172495226Y-80198102D01*
X172417205Y-80009744D01*
X172342582Y-79898061D01*
X188965000Y-79898061D01*
X188965000Y-80101939D01*
X189004774Y-80301898D01*
X189082795Y-80490256D01*
X189196063Y-80659774D01*
X189340226Y-80803937D01*
X189509744Y-80917205D01*
X189698102Y-80995226D01*
X189898061Y-81035000D01*
X190101939Y-81035000D01*
X190301898Y-80995226D01*
X190490256Y-80917205D01*
X190659774Y-80803937D01*
X190803937Y-80659774D01*
X190917205Y-80490256D01*
X190995226Y-80301898D01*
X191035000Y-80101939D01*
X191035000Y-79898061D01*
X190995226Y-79698102D01*
X190964741Y-79624505D01*
X191126525Y-79866632D01*
X191333368Y-80073475D01*
X191507760Y-80190000D01*
X191333368Y-80306525D01*
X191126525Y-80513368D01*
X190964010Y-80756589D01*
X190852068Y-81026842D01*
X190795000Y-81313740D01*
X190795000Y-81606260D01*
X190852068Y-81893158D01*
X190964010Y-82163411D01*
X191126525Y-82406632D01*
X191333368Y-82613475D01*
X191507760Y-82730000D01*
X191333368Y-82846525D01*
X191126525Y-83053368D01*
X190964010Y-83296589D01*
X190852068Y-83566842D01*
X190795000Y-83853740D01*
X190795000Y-84146260D01*
X190852068Y-84433158D01*
X190964010Y-84703411D01*
X191126525Y-84946632D01*
X191333368Y-85153475D01*
X191507760Y-85270000D01*
X191333368Y-85386525D01*
X191126525Y-85593368D01*
X190964010Y-85836589D01*
X190852068Y-86106842D01*
X190795000Y-86393740D01*
X190795000Y-86686260D01*
X190852068Y-86973158D01*
X190964010Y-87243411D01*
X191126525Y-87486632D01*
X191333368Y-87693475D01*
X191507760Y-87810000D01*
X191333368Y-87926525D01*
X191126525Y-88133368D01*
X190964010Y-88376589D01*
X190852068Y-88646842D01*
X190795000Y-88933740D01*
X190795000Y-89226260D01*
X190852068Y-89513158D01*
X190964010Y-89783411D01*
X191126525Y-90026632D01*
X191333368Y-90233475D01*
X191507760Y-90350000D01*
X191333368Y-90466525D01*
X191126525Y-90673368D01*
X190964010Y-90916589D01*
X190852068Y-91186842D01*
X190795000Y-91473740D01*
X190795000Y-91766260D01*
X190852068Y-92053158D01*
X190964010Y-92323411D01*
X191126525Y-92566632D01*
X191333368Y-92773475D01*
X191507760Y-92890000D01*
X191333368Y-93006525D01*
X191126525Y-93213368D01*
X190964010Y-93456589D01*
X190852068Y-93726842D01*
X190795000Y-94013740D01*
X190795000Y-94306260D01*
X190852068Y-94593158D01*
X190964010Y-94863411D01*
X191126525Y-95106632D01*
X191258380Y-95238487D01*
X191185820Y-95260498D01*
X191075506Y-95319463D01*
X190978815Y-95398815D01*
X190899463Y-95495506D01*
X190840498Y-95605820D01*
X190804188Y-95725518D01*
X190791928Y-95850000D01*
X190795000Y-96414250D01*
X190953750Y-96573000D01*
X192153000Y-96573000D01*
X192153000Y-96553000D01*
X192407000Y-96553000D01*
X192407000Y-96573000D01*
X193606250Y-96573000D01*
X193765000Y-96414250D01*
X193768072Y-95850000D01*
X193755812Y-95725518D01*
X193719502Y-95605820D01*
X193660537Y-95495506D01*
X193581185Y-95398815D01*
X193484494Y-95319463D01*
X193374180Y-95260498D01*
X193301620Y-95238487D01*
X193433475Y-95106632D01*
X193595990Y-94863411D01*
X193707932Y-94593158D01*
X193765000Y-94306260D01*
X193765000Y-94013740D01*
X193707932Y-93726842D01*
X193595990Y-93456589D01*
X193433475Y-93213368D01*
X193226632Y-93006525D01*
X193052240Y-92890000D01*
X193226632Y-92773475D01*
X193433475Y-92566632D01*
X193595990Y-92323411D01*
X193707932Y-92053158D01*
X193765000Y-91766260D01*
X193765000Y-91473740D01*
X193707932Y-91186842D01*
X193595990Y-90916589D01*
X193433475Y-90673368D01*
X193226632Y-90466525D01*
X193052240Y-90350000D01*
X193226632Y-90233475D01*
X193433475Y-90026632D01*
X193595990Y-89783411D01*
X193707932Y-89513158D01*
X193765000Y-89226260D01*
X193765000Y-88933740D01*
X193707932Y-88646842D01*
X193595990Y-88376589D01*
X193433475Y-88133368D01*
X193226632Y-87926525D01*
X193052240Y-87810000D01*
X193226632Y-87693475D01*
X193433475Y-87486632D01*
X193595990Y-87243411D01*
X193707932Y-86973158D01*
X193765000Y-86686260D01*
X193765000Y-86393740D01*
X193707932Y-86106842D01*
X193595990Y-85836589D01*
X193433475Y-85593368D01*
X193226632Y-85386525D01*
X193052240Y-85270000D01*
X193226632Y-85153475D01*
X193433475Y-84946632D01*
X193595990Y-84703411D01*
X193707932Y-84433158D01*
X193765000Y-84146260D01*
X193765000Y-83853740D01*
X193707932Y-83566842D01*
X193595990Y-83296589D01*
X193433475Y-83053368D01*
X193226632Y-82846525D01*
X193052240Y-82730000D01*
X193226632Y-82613475D01*
X193433475Y-82406632D01*
X193595990Y-82163411D01*
X193707932Y-81893158D01*
X193765000Y-81606260D01*
X193765000Y-81313740D01*
X193707932Y-81026842D01*
X193595990Y-80756589D01*
X193433475Y-80513368D01*
X193226632Y-80306525D01*
X193052240Y-80190000D01*
X193226632Y-80073475D01*
X193433475Y-79866632D01*
X193595990Y-79623411D01*
X193707932Y-79353158D01*
X193765000Y-79066260D01*
X193765000Y-78773740D01*
X193707932Y-78486842D01*
X193595990Y-78216589D01*
X193433475Y-77973368D01*
X193226632Y-77766525D01*
X193052240Y-77650000D01*
X193226632Y-77533475D01*
X193433475Y-77326632D01*
X193595990Y-77083411D01*
X193707932Y-76813158D01*
X193765000Y-76526260D01*
X193765000Y-76233740D01*
X193707932Y-75946842D01*
X193595990Y-75676589D01*
X193433475Y-75433368D01*
X193226632Y-75226525D01*
X193052240Y-75110000D01*
X193226632Y-74993475D01*
X193433475Y-74786632D01*
X193595990Y-74543411D01*
X193707932Y-74273158D01*
X193765000Y-73986260D01*
X193765000Y-73693740D01*
X193707932Y-73406842D01*
X193595990Y-73136589D01*
X193433475Y-72893368D01*
X193226632Y-72686525D01*
X192983411Y-72524010D01*
X192713158Y-72412068D01*
X192426260Y-72355000D01*
X192133740Y-72355000D01*
X191846842Y-72412068D01*
X191576589Y-72524010D01*
X191333368Y-72686525D01*
X191126525Y-72893368D01*
X190964010Y-73136589D01*
X190852068Y-73406842D01*
X190795000Y-73693740D01*
X190795000Y-73986260D01*
X190852068Y-74273158D01*
X190964010Y-74543411D01*
X191126525Y-74786632D01*
X191333368Y-74993475D01*
X191507760Y-75110000D01*
X191333368Y-75226525D01*
X191126525Y-75433368D01*
X190964010Y-75676589D01*
X190852068Y-75946842D01*
X190795000Y-76233740D01*
X190795000Y-76526260D01*
X190852068Y-76813158D01*
X190964010Y-77083411D01*
X191126525Y-77326632D01*
X191333368Y-77533475D01*
X191507760Y-77650000D01*
X191333368Y-77766525D01*
X191126525Y-77973368D01*
X190964010Y-78216589D01*
X190852068Y-78486842D01*
X190795000Y-78773740D01*
X190795000Y-79066260D01*
X190852068Y-79353158D01*
X190916476Y-79508652D01*
X190803937Y-79340226D01*
X190659774Y-79196063D01*
X190490256Y-79082795D01*
X190301898Y-79004774D01*
X190101939Y-78965000D01*
X189898061Y-78965000D01*
X189698102Y-79004774D01*
X189509744Y-79082795D01*
X189340226Y-79196063D01*
X189196063Y-79340226D01*
X189082795Y-79509744D01*
X189004774Y-79698102D01*
X188965000Y-79898061D01*
X172342582Y-79898061D01*
X172303937Y-79840226D01*
X172159774Y-79696063D01*
X171990256Y-79582795D01*
X171801898Y-79504774D01*
X171601939Y-79465000D01*
X171398061Y-79465000D01*
X171353444Y-79473875D01*
X171490256Y-79417205D01*
X171659774Y-79303937D01*
X171803937Y-79159774D01*
X171917205Y-78990256D01*
X171995226Y-78801898D01*
X172035000Y-78601939D01*
X172035000Y-78398061D01*
X171995226Y-78198102D01*
X171917205Y-78009744D01*
X171803937Y-77840226D01*
X171659774Y-77696063D01*
X171490256Y-77582795D01*
X171301898Y-77504774D01*
X171101939Y-77465000D01*
X170898061Y-77465000D01*
X170698102Y-77504774D01*
X170509744Y-77582795D01*
X170340226Y-77696063D01*
X170196063Y-77840226D01*
X170082795Y-78009744D01*
X170004774Y-78198102D01*
X169965000Y-78398061D01*
X168595393Y-78398061D01*
X168635226Y-78301898D01*
X168675000Y-78101939D01*
X168675000Y-77898061D01*
X168635226Y-77698102D01*
X168557205Y-77509744D01*
X168443937Y-77340226D01*
X168299774Y-77196063D01*
X168130256Y-77082795D01*
X167941898Y-77004774D01*
X167741939Y-76965000D01*
X167538061Y-76965000D01*
X167338102Y-77004774D01*
X167149744Y-77082795D01*
X166980226Y-77196063D01*
X166836063Y-77340226D01*
X166722795Y-77509744D01*
X166644774Y-77698102D01*
X166605000Y-77898061D01*
X162878168Y-77898061D01*
X162746632Y-77766525D01*
X162572240Y-77650000D01*
X162746632Y-77533475D01*
X162953475Y-77326632D01*
X163115990Y-77083411D01*
X163227932Y-76813158D01*
X163285000Y-76526260D01*
X163285000Y-76233740D01*
X163227932Y-75946842D01*
X163207727Y-75898061D01*
X181465000Y-75898061D01*
X181465000Y-76101939D01*
X181504774Y-76301898D01*
X181582795Y-76490256D01*
X181696063Y-76659774D01*
X181840226Y-76803937D01*
X182009744Y-76917205D01*
X182198102Y-76995226D01*
X182398061Y-77035000D01*
X182601939Y-77035000D01*
X182801898Y-76995226D01*
X182990256Y-76917205D01*
X183159774Y-76803937D01*
X183303937Y-76659774D01*
X183417205Y-76490256D01*
X183495226Y-76301898D01*
X183535000Y-76101939D01*
X183535000Y-75898061D01*
X183495226Y-75698102D01*
X183417205Y-75509744D01*
X183303937Y-75340226D01*
X183159774Y-75196063D01*
X182990256Y-75082795D01*
X182801898Y-75004774D01*
X182601939Y-74965000D01*
X182398061Y-74965000D01*
X182198102Y-75004774D01*
X182009744Y-75082795D01*
X181840226Y-75196063D01*
X181696063Y-75340226D01*
X181582795Y-75509744D01*
X181504774Y-75698102D01*
X181465000Y-75898061D01*
X163207727Y-75898061D01*
X163115990Y-75676589D01*
X162953475Y-75433368D01*
X162746632Y-75226525D01*
X162572240Y-75110000D01*
X162746632Y-74993475D01*
X162953475Y-74786632D01*
X163115990Y-74543411D01*
X163227932Y-74273158D01*
X163285000Y-73986260D01*
X163285000Y-73693740D01*
X163227932Y-73406842D01*
X163115990Y-73136589D01*
X162953475Y-72893368D01*
X162746632Y-72686525D01*
X162503411Y-72524010D01*
X162233158Y-72412068D01*
X161946260Y-72355000D01*
X161653740Y-72355000D01*
X161366842Y-72412068D01*
X161096589Y-72524010D01*
X160853368Y-72686525D01*
X160646525Y-72893368D01*
X160484010Y-73136589D01*
X160372068Y-73406842D01*
X160315000Y-73693740D01*
X160315000Y-73986260D01*
X160372068Y-74273158D01*
X160484010Y-74543411D01*
X160646525Y-74786632D01*
X160853368Y-74993475D01*
X161027760Y-75110000D01*
X160853368Y-75226525D01*
X160646525Y-75433368D01*
X160484010Y-75676589D01*
X160372068Y-75946842D01*
X160315000Y-76233740D01*
X160315000Y-76526260D01*
X160372068Y-76813158D01*
X160484010Y-77083411D01*
X160646525Y-77326632D01*
X160853368Y-77533475D01*
X161027760Y-77650000D01*
X160853368Y-77766525D01*
X160646525Y-77973368D01*
X160484010Y-78216589D01*
X160372068Y-78486842D01*
X160315000Y-78773740D01*
X160315000Y-79066260D01*
X160372068Y-79353158D01*
X160484010Y-79623411D01*
X160646525Y-79866632D01*
X160853368Y-80073475D01*
X161027760Y-80190000D01*
X160853368Y-80306525D01*
X160646525Y-80513368D01*
X160484010Y-80756589D01*
X160372068Y-81026842D01*
X160315000Y-81313740D01*
X160315000Y-81606260D01*
X160372068Y-81893158D01*
X160484010Y-82163411D01*
X160646525Y-82406632D01*
X160853368Y-82613475D01*
X161027760Y-82730000D01*
X160853368Y-82846525D01*
X160646525Y-83053368D01*
X160484010Y-83296589D01*
X160372068Y-83566842D01*
X160315000Y-83853740D01*
X160315000Y-84146260D01*
X160372068Y-84433158D01*
X160484010Y-84703411D01*
X160646525Y-84946632D01*
X160853368Y-85153475D01*
X161027760Y-85270000D01*
X160853368Y-85386525D01*
X160646525Y-85593368D01*
X160484010Y-85836589D01*
X160372068Y-86106842D01*
X160315000Y-86393740D01*
X160315000Y-86686260D01*
X160372068Y-86973158D01*
X160484010Y-87243411D01*
X160646525Y-87486632D01*
X160853368Y-87693475D01*
X161027760Y-87810000D01*
X160853368Y-87926525D01*
X160646525Y-88133368D01*
X160484010Y-88376589D01*
X160372068Y-88646842D01*
X160315000Y-88933740D01*
X160315000Y-89226260D01*
X160372068Y-89513158D01*
X160484010Y-89783411D01*
X160646525Y-90026632D01*
X160853368Y-90233475D01*
X161027760Y-90350000D01*
X160853368Y-90466525D01*
X160646525Y-90673368D01*
X160484010Y-90916589D01*
X160372068Y-91186842D01*
X160315000Y-91473740D01*
X160315000Y-91766260D01*
X160372068Y-92053158D01*
X160484010Y-92323411D01*
X160646525Y-92566632D01*
X160853368Y-92773475D01*
X161027760Y-92890000D01*
X160853368Y-93006525D01*
X160646525Y-93213368D01*
X160484010Y-93456589D01*
X160372068Y-93726842D01*
X160315000Y-94013740D01*
X160315000Y-94306260D01*
X160372068Y-94593158D01*
X160484010Y-94863411D01*
X160646525Y-95106632D01*
X160778380Y-95238487D01*
X160705820Y-95260498D01*
X160595506Y-95319463D01*
X160498815Y-95398815D01*
X160419463Y-95495506D01*
X160360498Y-95605820D01*
X160324188Y-95725518D01*
X160311928Y-95850000D01*
X159660000Y-95850000D01*
X159660000Y-70998061D01*
X183965000Y-70998061D01*
X183965000Y-71201939D01*
X184004774Y-71401898D01*
X184082795Y-71590256D01*
X184196063Y-71759774D01*
X184340226Y-71903937D01*
X184509744Y-72017205D01*
X184698102Y-72095226D01*
X184898061Y-72135000D01*
X185101939Y-72135000D01*
X185301898Y-72095226D01*
X185490256Y-72017205D01*
X185659774Y-71903937D01*
X185803937Y-71759774D01*
X185917205Y-71590256D01*
X185995226Y-71401898D01*
X186035000Y-71201939D01*
X186035000Y-70998061D01*
X185995226Y-70798102D01*
X185917205Y-70609744D01*
X185803937Y-70440226D01*
X185659774Y-70296063D01*
X185490256Y-70182795D01*
X185301898Y-70104774D01*
X185101939Y-70065000D01*
X184898061Y-70065000D01*
X184698102Y-70104774D01*
X184509744Y-70182795D01*
X184340226Y-70296063D01*
X184196063Y-70440226D01*
X184082795Y-70609744D01*
X184004774Y-70798102D01*
X183965000Y-70998061D01*
X159660000Y-70998061D01*
X159660000Y-67898061D01*
X169465000Y-67898061D01*
X169465000Y-68101939D01*
X169504774Y-68301898D01*
X169582795Y-68490256D01*
X169696063Y-68659774D01*
X169840226Y-68803937D01*
X170009744Y-68917205D01*
X170198102Y-68995226D01*
X170398061Y-69035000D01*
X170601939Y-69035000D01*
X170801898Y-68995226D01*
X170990256Y-68917205D01*
X171159774Y-68803937D01*
X171303937Y-68659774D01*
X171417205Y-68490256D01*
X171495226Y-68301898D01*
X171535000Y-68101939D01*
X171535000Y-67898061D01*
X171495226Y-67698102D01*
X171417205Y-67509744D01*
X171303937Y-67340226D01*
X171159774Y-67196063D01*
X170990256Y-67082795D01*
X170801898Y-67004774D01*
X170601939Y-66965000D01*
X170398061Y-66965000D01*
X170198102Y-67004774D01*
X170009744Y-67082795D01*
X169840226Y-67196063D01*
X169696063Y-67340226D01*
X169582795Y-67509744D01*
X169504774Y-67698102D01*
X169465000Y-67898061D01*
X159660000Y-67898061D01*
X159660000Y-63898061D01*
X170965000Y-63898061D01*
X170965000Y-64101939D01*
X171004774Y-64301898D01*
X171082795Y-64490256D01*
X171196063Y-64659774D01*
X171340226Y-64803937D01*
X171509744Y-64917205D01*
X171698102Y-64995226D01*
X171898061Y-65035000D01*
X172101939Y-65035000D01*
X172301898Y-64995226D01*
X172490256Y-64917205D01*
X172659774Y-64803937D01*
X172803937Y-64659774D01*
X172917205Y-64490256D01*
X172995226Y-64301898D01*
X173035000Y-64101939D01*
X173035000Y-63898061D01*
X172995226Y-63698102D01*
X172965689Y-63626793D01*
X173420000Y-63626793D01*
X173420000Y-64143206D01*
X173437147Y-64317299D01*
X173504906Y-64540673D01*
X173614942Y-64746535D01*
X173763025Y-64926975D01*
X173943464Y-65075058D01*
X174149326Y-65185094D01*
X174372700Y-65252853D01*
X174605000Y-65275733D01*
X174837299Y-65252853D01*
X175060673Y-65185094D01*
X175266535Y-65075058D01*
X175446975Y-64926975D01*
X175595058Y-64746536D01*
X175705094Y-64540674D01*
X175772853Y-64317300D01*
X175790000Y-64143207D01*
X175790000Y-63626794D01*
X175790000Y-63626793D01*
X178260000Y-63626793D01*
X178260000Y-64143206D01*
X178277147Y-64317299D01*
X178344906Y-64540673D01*
X178454942Y-64746535D01*
X178603025Y-64926975D01*
X178783464Y-65075058D01*
X178915611Y-65145692D01*
X178840226Y-65196063D01*
X178696063Y-65340226D01*
X178582795Y-65509744D01*
X178504774Y-65698102D01*
X178465000Y-65898061D01*
X178465000Y-66101939D01*
X178504774Y-66301898D01*
X178582795Y-66490256D01*
X178696063Y-66659774D01*
X178840226Y-66803937D01*
X179009744Y-66917205D01*
X179198102Y-66995226D01*
X179398061Y-67035000D01*
X179601939Y-67035000D01*
X179801898Y-66995226D01*
X179990256Y-66917205D01*
X180159774Y-66803937D01*
X180303937Y-66659774D01*
X180417205Y-66490256D01*
X180495226Y-66301898D01*
X180535000Y-66101939D01*
X180535000Y-65898061D01*
X180495226Y-65698102D01*
X180417205Y-65509744D01*
X180303937Y-65340226D01*
X180159774Y-65196063D01*
X180035501Y-65113027D01*
X180106535Y-65075058D01*
X180286975Y-64926975D01*
X180435058Y-64746536D01*
X180545094Y-64540674D01*
X180612853Y-64317300D01*
X180630000Y-64143207D01*
X180630000Y-63626794D01*
X180612853Y-63452701D01*
X180545094Y-63229327D01*
X180435058Y-63023464D01*
X180286975Y-62843025D01*
X180106536Y-62694942D01*
X179900674Y-62584906D01*
X179677300Y-62517147D01*
X179445000Y-62494267D01*
X179212701Y-62517147D01*
X178989327Y-62584906D01*
X178783465Y-62694942D01*
X178603026Y-62843025D01*
X178454943Y-63023464D01*
X178344906Y-63229326D01*
X178277147Y-63452700D01*
X178260000Y-63626793D01*
X175790000Y-63626793D01*
X175772853Y-63452701D01*
X175705094Y-63229327D01*
X175595058Y-63023464D01*
X175446975Y-62843025D01*
X175266536Y-62694942D01*
X175060674Y-62584906D01*
X174837300Y-62517147D01*
X174605000Y-62494267D01*
X174372701Y-62517147D01*
X174149327Y-62584906D01*
X173943465Y-62694942D01*
X173763026Y-62843025D01*
X173614943Y-63023464D01*
X173504906Y-63229326D01*
X173437147Y-63452700D01*
X173420000Y-63626793D01*
X172965689Y-63626793D01*
X172917205Y-63509744D01*
X172803937Y-63340226D01*
X172659774Y-63196063D01*
X172490256Y-63082795D01*
X172301898Y-63004774D01*
X172101939Y-62965000D01*
X171898061Y-62965000D01*
X171698102Y-63004774D01*
X171509744Y-63082795D01*
X171340226Y-63196063D01*
X171196063Y-63340226D01*
X171082795Y-63509744D01*
X171004774Y-63698102D01*
X170965000Y-63898061D01*
X159660000Y-63898061D01*
X159660000Y-60032279D01*
X159669580Y-59934576D01*
X159688580Y-59871644D01*
X159719445Y-59813595D01*
X159760989Y-59762657D01*
X159811644Y-59720752D01*
X159869471Y-59689485D01*
X159932272Y-59670044D01*
X160027835Y-59660000D01*
X173509465Y-59660000D01*
X173364209Y-59779208D01*
G04 #@! TA.AperFunction,Conductor*
D19*
G36*
X173364209Y-59779208D02*
G01*
X173200505Y-59978682D01*
X173078862Y-60206259D01*
X173003955Y-60453195D01*
X172985000Y-60645649D01*
X172985000Y-61124350D01*
X173003955Y-61316804D01*
X173078862Y-61563740D01*
X173200505Y-61791317D01*
X173364208Y-61990792D01*
X173563682Y-62154495D01*
X173791259Y-62276138D01*
X174038195Y-62351045D01*
X174295000Y-62376338D01*
X174551804Y-62351045D01*
X174798740Y-62276138D01*
X175026317Y-62154495D01*
X175225792Y-61990792D01*
X175389495Y-61791318D01*
X175511138Y-61563741D01*
X175586045Y-61316805D01*
X175605000Y-61124351D01*
X175605000Y-60645650D01*
X175586045Y-60453196D01*
X175511138Y-60206260D01*
X175389495Y-59978682D01*
X175225792Y-59779208D01*
X175080536Y-59660000D01*
X178969465Y-59660000D01*
X178824209Y-59779208D01*
X178660505Y-59978682D01*
X178538862Y-60206259D01*
X178463955Y-60453195D01*
X178445000Y-60645649D01*
X178445000Y-61124350D01*
X178463955Y-61316804D01*
X178538862Y-61563740D01*
X178660505Y-61791317D01*
X178824208Y-61990792D01*
X179023682Y-62154495D01*
X179251259Y-62276138D01*
X179498195Y-62351045D01*
X179755000Y-62376338D01*
X180011804Y-62351045D01*
X180258740Y-62276138D01*
X180486317Y-62154495D01*
X180685792Y-61990792D01*
X180849495Y-61791318D01*
X180971138Y-61563741D01*
X181046045Y-61316805D01*
X181065000Y-61124351D01*
X181065000Y-60645650D01*
X181046045Y-60453196D01*
X180971138Y-60206260D01*
X180849495Y-59978682D01*
X180685792Y-59779208D01*
X180540536Y-59660000D01*
X193967721Y-59660000D01*
X194065424Y-59669580D01*
X194128356Y-59688580D01*
X194186405Y-59719445D01*
X194237343Y-59760989D01*
X194279248Y-59811644D01*
X194310515Y-59869471D01*
X194329956Y-59932272D01*
X194340001Y-60027845D01*
X194340000Y-107967721D01*
X194330420Y-108065424D01*
X194311420Y-108128357D01*
X194280554Y-108186406D01*
X194239011Y-108237343D01*
X194188356Y-108279248D01*
X194130529Y-108310515D01*
X194067728Y-108329956D01*
X193972165Y-108340000D01*
X160032279Y-108340000D01*
X159934576Y-108330420D01*
X159871643Y-108311420D01*
X159813594Y-108280554D01*
X159762657Y-108239011D01*
X159720752Y-108188356D01*
X159689485Y-108130529D01*
X159670044Y-108067728D01*
X159660000Y-107972165D01*
X159660000Y-103888212D01*
X172785000Y-103888212D01*
X172785000Y-104111788D01*
X172828617Y-104331067D01*
X172914176Y-104537624D01*
X172979241Y-104635000D01*
X172914176Y-104732376D01*
X172828617Y-104938933D01*
X172785000Y-105158212D01*
X172785000Y-105381788D01*
X172828617Y-105601067D01*
X172914176Y-105807624D01*
X173038388Y-105993520D01*
X173196480Y-106151612D01*
X173382376Y-106275824D01*
X173588933Y-106361383D01*
X173808212Y-106405000D01*
X174031788Y-106405000D01*
X174251067Y-106361383D01*
X174457624Y-106275824D01*
X174555000Y-106210759D01*
X174652376Y-106275824D01*
X174858933Y-106361383D01*
X175078212Y-106405000D01*
X175301788Y-106405000D01*
X175521067Y-106361383D01*
X175727624Y-106275824D01*
X175825000Y-106210759D01*
X175922376Y-106275824D01*
X176128933Y-106361383D01*
X176348212Y-106405000D01*
X176571788Y-106405000D01*
X176791067Y-106361383D01*
X176997624Y-106275824D01*
X177095000Y-106210759D01*
X177192376Y-106275824D01*
X177398933Y-106361383D01*
X177618212Y-106405000D01*
X177841788Y-106405000D01*
X178061067Y-106361383D01*
X178267624Y-106275824D01*
X178365000Y-106210759D01*
X178462376Y-106275824D01*
X178668933Y-106361383D01*
X178888212Y-106405000D01*
X179111788Y-106405000D01*
X179331067Y-106361383D01*
X179537624Y-106275824D01*
X179723520Y-106151612D01*
X179881612Y-105993520D01*
X180005824Y-105807624D01*
X180091383Y-105601067D01*
X180135000Y-105381788D01*
X180135000Y-105158212D01*
X180094003Y-104952107D01*
X180198102Y-104995226D01*
X180398061Y-105035000D01*
X180601939Y-105035000D01*
X180801898Y-104995226D01*
X180990256Y-104917205D01*
X181159774Y-104803937D01*
X181303937Y-104659774D01*
X181417205Y-104490256D01*
X181495226Y-104301898D01*
X181535000Y-104101939D01*
X181535000Y-103898061D01*
X181495226Y-103698102D01*
X181417205Y-103509744D01*
X181303937Y-103340226D01*
X181159774Y-103196063D01*
X180990256Y-103082795D01*
X180801898Y-103004774D01*
X180601939Y-102965000D01*
X180398061Y-102965000D01*
X180198102Y-103004774D01*
X180009744Y-103082795D01*
X179989934Y-103096031D01*
X179951185Y-103048815D01*
X179854494Y-102969463D01*
X179744180Y-102910498D01*
X179624482Y-102874188D01*
X179500000Y-102861928D01*
X178500000Y-102861928D01*
X178375518Y-102874188D01*
X178255820Y-102910498D01*
X178166820Y-102958070D01*
X178086864Y-102922554D01*
X178031874Y-102905881D01*
X177857000Y-103032046D01*
X177857000Y-103873000D01*
X177861928Y-103873000D01*
X177861928Y-104127000D01*
X177857000Y-104127000D01*
X177857000Y-104138026D01*
X177841788Y-104135000D01*
X177618212Y-104135000D01*
X177603000Y-104138026D01*
X177603000Y-104127000D01*
X176587000Y-104127000D01*
X176587000Y-104138026D01*
X176571788Y-104135000D01*
X176348212Y-104135000D01*
X176333000Y-104138026D01*
X176333000Y-104127000D01*
X176321974Y-104127000D01*
X176325000Y-104111788D01*
X176325000Y-103888212D01*
X176321974Y-103873000D01*
X176333000Y-103873000D01*
X176333000Y-103032046D01*
X176587000Y-103032046D01*
X176587000Y-103873000D01*
X177603000Y-103873000D01*
X177603000Y-103032046D01*
X177428126Y-102905881D01*
X177373136Y-102922554D01*
X177169794Y-103012877D01*
X177095000Y-103065639D01*
X177020206Y-103012877D01*
X176816864Y-102922554D01*
X176761874Y-102905881D01*
X176587000Y-103032046D01*
X176333000Y-103032046D01*
X176158126Y-102905881D01*
X176103136Y-102922554D01*
X175899794Y-103012877D01*
X175829658Y-103062353D01*
X175727624Y-102994176D01*
X175521067Y-102908617D01*
X175301788Y-102865000D01*
X175078212Y-102865000D01*
X174858933Y-102908617D01*
X174652376Y-102994176D01*
X174555000Y-103059241D01*
X174457624Y-102994176D01*
X174251067Y-102908617D01*
X174031788Y-102865000D01*
X173808212Y-102865000D01*
X173588933Y-102908617D01*
X173382376Y-102994176D01*
X173196480Y-103118388D01*
X173038388Y-103276480D01*
X172914176Y-103462376D01*
X172828617Y-103668933D01*
X172785000Y-103888212D01*
X159660000Y-103888212D01*
X159660000Y-102398061D01*
X164965000Y-102398061D01*
X164965000Y-102601939D01*
X165004774Y-102801898D01*
X165082795Y-102990256D01*
X165196063Y-103159774D01*
X165340226Y-103303937D01*
X165509744Y-103417205D01*
X165698102Y-103495226D01*
X165898061Y-103535000D01*
X166101939Y-103535000D01*
X166301898Y-103495226D01*
X166490256Y-103417205D01*
X166659774Y-103303937D01*
X166803937Y-103159774D01*
X166917205Y-102990256D01*
X166995226Y-102801898D01*
X167035000Y-102601939D01*
X167035000Y-102398061D01*
X166995226Y-102198102D01*
X166917205Y-102009744D01*
X166803937Y-101840226D01*
X166659774Y-101696063D01*
X166490256Y-101582795D01*
X166301898Y-101504774D01*
X166101939Y-101465000D01*
X165898061Y-101465000D01*
X165698102Y-101504774D01*
X165509744Y-101582795D01*
X165340226Y-101696063D01*
X165196063Y-101840226D01*
X165082795Y-102009744D01*
X165004774Y-102198102D01*
X164965000Y-102398061D01*
X159660000Y-102398061D01*
X159660000Y-100898061D01*
X174965000Y-100898061D01*
X174965000Y-101101939D01*
X175004774Y-101301898D01*
X175082795Y-101490256D01*
X175196063Y-101659774D01*
X175340226Y-101803937D01*
X175509744Y-101917205D01*
X175698102Y-101995226D01*
X175898061Y-102035000D01*
X176101939Y-102035000D01*
X176301898Y-101995226D01*
X176490256Y-101917205D01*
X176659774Y-101803937D01*
X176803937Y-101659774D01*
X176917205Y-101490256D01*
X176995226Y-101301898D01*
X177035000Y-101101939D01*
X177035000Y-100898061D01*
X176995226Y-100698102D01*
X176917205Y-100509744D01*
X176803937Y-100340226D01*
X176659774Y-100196063D01*
X176490256Y-100082795D01*
X176301898Y-100004774D01*
X176101939Y-99965000D01*
X175898061Y-99965000D01*
X175698102Y-100004774D01*
X175509744Y-100082795D01*
X175340226Y-100196063D01*
X175196063Y-100340226D01*
X175082795Y-100509744D01*
X175004774Y-100698102D01*
X174965000Y-100898061D01*
X159660000Y-100898061D01*
X159660000Y-97550000D01*
X160311928Y-97550000D01*
X160324188Y-97674482D01*
X160360498Y-97794180D01*
X160419463Y-97904494D01*
X160498815Y-98001185D01*
X160595506Y-98080537D01*
X160705820Y-98139502D01*
X160825518Y-98175812D01*
X160950000Y-98188072D01*
X161514250Y-98185000D01*
X161673000Y-98026250D01*
X161673000Y-96827000D01*
X161927000Y-96827000D01*
X161927000Y-98026250D01*
X162085750Y-98185000D01*
X162650000Y-98188072D01*
X162774482Y-98175812D01*
X162894180Y-98139502D01*
X163004494Y-98080537D01*
X163101185Y-98001185D01*
X163180537Y-97904494D01*
X163239502Y-97794180D01*
X163275812Y-97674482D01*
X163288072Y-97550000D01*
X163287245Y-97398061D01*
X169465000Y-97398061D01*
X169465000Y-97601939D01*
X169504774Y-97801898D01*
X169582795Y-97990256D01*
X169696063Y-98159774D01*
X169840226Y-98303937D01*
X170009744Y-98417205D01*
X170198102Y-98495226D01*
X170398061Y-98535000D01*
X170601939Y-98535000D01*
X170801898Y-98495226D01*
X170990256Y-98417205D01*
X171159774Y-98303937D01*
X171303937Y-98159774D01*
X171417205Y-97990256D01*
X171495226Y-97801898D01*
X171535000Y-97601939D01*
X171535000Y-97398061D01*
X171495226Y-97198102D01*
X171417205Y-97009744D01*
X171303937Y-96840226D01*
X171159774Y-96696063D01*
X170990256Y-96582795D01*
X170943889Y-96563589D01*
X172615000Y-96563589D01*
X172615000Y-96836411D01*
X172668225Y-97103989D01*
X172772629Y-97356043D01*
X172924201Y-97582886D01*
X173117114Y-97775799D01*
X173343957Y-97927371D01*
X173596011Y-98031775D01*
X173863589Y-98085000D01*
X174136411Y-98085000D01*
X174403989Y-98031775D01*
X174656043Y-97927371D01*
X174882886Y-97775799D01*
X175075799Y-97582886D01*
X175227371Y-97356043D01*
X175331775Y-97103989D01*
X175385000Y-96836411D01*
X175385000Y-96563589D01*
X177495000Y-96563589D01*
X177495000Y-96836411D01*
X177548225Y-97103989D01*
X177652629Y-97356043D01*
X177804201Y-97582886D01*
X177997114Y-97775799D01*
X178223957Y-97927371D01*
X178476011Y-98031775D01*
X178743589Y-98085000D01*
X179016411Y-98085000D01*
X179283989Y-98031775D01*
X179536043Y-97927371D01*
X179762886Y-97775799D01*
X179955799Y-97582886D01*
X179977772Y-97550000D01*
X190791928Y-97550000D01*
X190804188Y-97674482D01*
X190840498Y-97794180D01*
X190899463Y-97904494D01*
X190978815Y-98001185D01*
X191075506Y-98080537D01*
X191185820Y-98139502D01*
X191305518Y-98175812D01*
X191430000Y-98188072D01*
X191994250Y-98185000D01*
X192153000Y-98026250D01*
X192153000Y-96827000D01*
X192407000Y-96827000D01*
X192407000Y-98026250D01*
X192565750Y-98185000D01*
X193130000Y-98188072D01*
X193254482Y-98175812D01*
X193374180Y-98139502D01*
X193484494Y-98080537D01*
X193581185Y-98001185D01*
X193660537Y-97904494D01*
X193719502Y-97794180D01*
X193755812Y-97674482D01*
X193768072Y-97550000D01*
X193765000Y-96985750D01*
X193606250Y-96827000D01*
X192407000Y-96827000D01*
X192153000Y-96827000D01*
X190953750Y-96827000D01*
X190795000Y-96985750D01*
X190791928Y-97550000D01*
X179977772Y-97550000D01*
X180107371Y-97356043D01*
X180211775Y-97103989D01*
X180265000Y-96836411D01*
X180265000Y-96563589D01*
X180211775Y-96296011D01*
X180107371Y-96043957D01*
X179955799Y-95817114D01*
X179762886Y-95624201D01*
X179536043Y-95472629D01*
X179283989Y-95368225D01*
X179016411Y-95315000D01*
X178743589Y-95315000D01*
X178476011Y-95368225D01*
X178223957Y-95472629D01*
X177997114Y-95624201D01*
X177804201Y-95817114D01*
X177652629Y-96043957D01*
X177548225Y-96296011D01*
X177495000Y-96563589D01*
X175385000Y-96563589D01*
X175331775Y-96296011D01*
X175227371Y-96043957D01*
X175075799Y-95817114D01*
X174882886Y-95624201D01*
X174656043Y-95472629D01*
X174403989Y-95368225D01*
X174136411Y-95315000D01*
X173863589Y-95315000D01*
X173596011Y-95368225D01*
X173343957Y-95472629D01*
X173117114Y-95624201D01*
X172924201Y-95817114D01*
X172772629Y-96043957D01*
X172668225Y-96296011D01*
X172615000Y-96563589D01*
X170943889Y-96563589D01*
X170801898Y-96504774D01*
X170601939Y-96465000D01*
X170398061Y-96465000D01*
X170198102Y-96504774D01*
X170009744Y-96582795D01*
X169840226Y-96696063D01*
X169696063Y-96840226D01*
X169582795Y-97009744D01*
X169504774Y-97198102D01*
X169465000Y-97398061D01*
X163287245Y-97398061D01*
X163285000Y-96985750D01*
X163126250Y-96827000D01*
X161927000Y-96827000D01*
X161673000Y-96827000D01*
X160473750Y-96827000D01*
X160315000Y-96985750D01*
X160311928Y-97550000D01*
X159660000Y-97550000D01*
X159660000Y-95850000D01*
X160311928Y-95850000D01*
X160315000Y-96414250D01*
X160473750Y-96573000D01*
X161673000Y-96573000D01*
X161673000Y-96553000D01*
X161927000Y-96553000D01*
X161927000Y-96573000D01*
X163126250Y-96573000D01*
X163285000Y-96414250D01*
X163288072Y-95850000D01*
X163275812Y-95725518D01*
X163239502Y-95605820D01*
X163180537Y-95495506D01*
X163101185Y-95398815D01*
X163004494Y-95319463D01*
X162894180Y-95260498D01*
X162821620Y-95238487D01*
X162953475Y-95106632D01*
X163115990Y-94863411D01*
X163227932Y-94593158D01*
X163266739Y-94398061D01*
X166365000Y-94398061D01*
X166365000Y-94601939D01*
X166404774Y-94801898D01*
X166482795Y-94990256D01*
X166596063Y-95159774D01*
X166740226Y-95303937D01*
X166909744Y-95417205D01*
X167098102Y-95495226D01*
X167298061Y-95535000D01*
X167501939Y-95535000D01*
X167701898Y-95495226D01*
X167890256Y-95417205D01*
X168059774Y-95303937D01*
X168203937Y-95159774D01*
X168317205Y-94990256D01*
X168395226Y-94801898D01*
X168435000Y-94601939D01*
X168435000Y-94398061D01*
X168395226Y-94198102D01*
X168317205Y-94009744D01*
X168203937Y-93840226D01*
X168059774Y-93696063D01*
X167890256Y-93582795D01*
X167701898Y-93504774D01*
X167501939Y-93465000D01*
X167298061Y-93465000D01*
X167098102Y-93504774D01*
X166909744Y-93582795D01*
X166740226Y-93696063D01*
X166596063Y-93840226D01*
X166482795Y-94009744D01*
X166404774Y-94198102D01*
X166365000Y-94398061D01*
X163266739Y-94398061D01*
X163285000Y-94306260D01*
X163285000Y-94013740D01*
X163227932Y-93726842D01*
X163115990Y-93456589D01*
X162953475Y-93213368D01*
X162746632Y-93006525D01*
X162584305Y-92898061D01*
X172465000Y-92898061D01*
X172465000Y-93101939D01*
X172504774Y-93301898D01*
X172582795Y-93490256D01*
X172696063Y-93659774D01*
X172840226Y-93803937D01*
X173009744Y-93917205D01*
X173198102Y-93995226D01*
X173398061Y-94035000D01*
X173601939Y-94035000D01*
X173801898Y-93995226D01*
X173990256Y-93917205D01*
X174159774Y-93803937D01*
X174303937Y-93659774D01*
X174417205Y-93490256D01*
X174495226Y-93301898D01*
X174535000Y-93101939D01*
X174535000Y-92898061D01*
X174495226Y-92698102D01*
X174417205Y-92509744D01*
X174303937Y-92340226D01*
X174159774Y-92196063D01*
X173990256Y-92082795D01*
X173801898Y-92004774D01*
X173601939Y-91965000D01*
X173398061Y-91965000D01*
X173198102Y-92004774D01*
X173009744Y-92082795D01*
X172840226Y-92196063D01*
X172696063Y-92340226D01*
X172582795Y-92509744D01*
X172504774Y-92698102D01*
X172465000Y-92898061D01*
X162584305Y-92898061D01*
X162572240Y-92890000D01*
X162746632Y-92773475D01*
X162953475Y-92566632D01*
X163115990Y-92323411D01*
X163227932Y-92053158D01*
X163263926Y-91872202D01*
X176469878Y-91872202D01*
X176469878Y-92076080D01*
X176509652Y-92276039D01*
X176587673Y-92464397D01*
X176700941Y-92633915D01*
X176845104Y-92778078D01*
X177014622Y-92891346D01*
X177202980Y-92969367D01*
X177402939Y-93009141D01*
X177606817Y-93009141D01*
X177806776Y-92969367D01*
X177995134Y-92891346D01*
X178164652Y-92778078D01*
X178308815Y-92633915D01*
X178422083Y-92464397D01*
X178500104Y-92276039D01*
X178539878Y-92076080D01*
X178539878Y-91872202D01*
X178500104Y-91672243D01*
X178422083Y-91483885D01*
X178308815Y-91314367D01*
X178164652Y-91170204D01*
X177995134Y-91056936D01*
X177806776Y-90978915D01*
X177606817Y-90939141D01*
X177402939Y-90939141D01*
X177202980Y-90978915D01*
X177014622Y-91056936D01*
X176845104Y-91170204D01*
X176700941Y-91314367D01*
X176587673Y-91483885D01*
X176509652Y-91672243D01*
X176469878Y-91872202D01*
X163263926Y-91872202D01*
X163285000Y-91766260D01*
X163285000Y-91473740D01*
X163227932Y-91186842D01*
X163115990Y-90916589D01*
X162953475Y-90673368D01*
X162746632Y-90466525D01*
X162572240Y-90350000D01*
X162746632Y-90233475D01*
X162953475Y-90026632D01*
X163039383Y-89898061D01*
X166465000Y-89898061D01*
X166465000Y-90101939D01*
X166504774Y-90301898D01*
X166582795Y-90490256D01*
X166696063Y-90659774D01*
X166840226Y-90803937D01*
X167009744Y-90917205D01*
X167198102Y-90995226D01*
X167398061Y-91035000D01*
X167601939Y-91035000D01*
X167801898Y-90995226D01*
X167990256Y-90917205D01*
X168159774Y-90803937D01*
X168303937Y-90659774D01*
X168417205Y-90490256D01*
X168495226Y-90301898D01*
X168535000Y-90101939D01*
X168535000Y-89898061D01*
X171965000Y-89898061D01*
X171965000Y-90101939D01*
X172004774Y-90301898D01*
X172082795Y-90490256D01*
X172196063Y-90659774D01*
X172340226Y-90803937D01*
X172509744Y-90917205D01*
X172698102Y-90995226D01*
X172898061Y-91035000D01*
X173101939Y-91035000D01*
X173301898Y-90995226D01*
X173490256Y-90917205D01*
X173659774Y-90803937D01*
X173750000Y-90713711D01*
X173840226Y-90803937D01*
X174009744Y-90917205D01*
X174198102Y-90995226D01*
X174398061Y-91035000D01*
X174601939Y-91035000D01*
X174801898Y-90995226D01*
X174990256Y-90917205D01*
X175159774Y-90803937D01*
X175303937Y-90659774D01*
X175411989Y-90498061D01*
X179965000Y-90498061D01*
X179965000Y-90701939D01*
X180004774Y-90901898D01*
X180082795Y-91090256D01*
X180196063Y-91259774D01*
X180340226Y-91403937D01*
X180509744Y-91517205D01*
X180698102Y-91595226D01*
X180898061Y-91635000D01*
X181101939Y-91635000D01*
X181301898Y-91595226D01*
X181490256Y-91517205D01*
X181659774Y-91403937D01*
X181803937Y-91259774D01*
X181917205Y-91090256D01*
X181995226Y-90901898D01*
X182035000Y-90701939D01*
X182035000Y-90498061D01*
X181995226Y-90298102D01*
X181917205Y-90109744D01*
X181803937Y-89940226D01*
X181659774Y-89796063D01*
X181490256Y-89682795D01*
X181301898Y-89604774D01*
X181101939Y-89565000D01*
X180898061Y-89565000D01*
X180698102Y-89604774D01*
X180509744Y-89682795D01*
X180340226Y-89796063D01*
X180196063Y-89940226D01*
X180082795Y-90109744D01*
X180004774Y-90298102D01*
X179965000Y-90498061D01*
X175411989Y-90498061D01*
X175417205Y-90490256D01*
X175495226Y-90301898D01*
X175535000Y-90101939D01*
X175535000Y-89898061D01*
X175495226Y-89698102D01*
X175417205Y-89509744D01*
X175303937Y-89340226D01*
X175159774Y-89196063D01*
X174990256Y-89082795D01*
X174801898Y-89004774D01*
X174601939Y-88965000D01*
X174398061Y-88965000D01*
X174198102Y-89004774D01*
X174009744Y-89082795D01*
X173840226Y-89196063D01*
X173750000Y-89286289D01*
X173659774Y-89196063D01*
X173490256Y-89082795D01*
X173301898Y-89004774D01*
X173101939Y-88965000D01*
X172898061Y-88965000D01*
X172698102Y-89004774D01*
X172509744Y-89082795D01*
X172340226Y-89196063D01*
X172196063Y-89340226D01*
X172082795Y-89509744D01*
X172004774Y-89698102D01*
X171965000Y-89898061D01*
X168535000Y-89898061D01*
X168495226Y-89698102D01*
X168417205Y-89509744D01*
X168303937Y-89340226D01*
X168159774Y-89196063D01*
X167990256Y-89082795D01*
X167801898Y-89004774D01*
X167601939Y-88965000D01*
X167398061Y-88965000D01*
X167198102Y-89004774D01*
X167009744Y-89082795D01*
X166840226Y-89196063D01*
X166696063Y-89340226D01*
X166582795Y-89509744D01*
X166504774Y-89698102D01*
X166465000Y-89898061D01*
X163039383Y-89898061D01*
X163115990Y-89783411D01*
X163227932Y-89513158D01*
X163285000Y-89226260D01*
X163285000Y-88933740D01*
X163227932Y-88646842D01*
X163124884Y-88398061D01*
X180965000Y-88398061D01*
X180965000Y-88601939D01*
X181004774Y-88801898D01*
X181082795Y-88990256D01*
X181196063Y-89159774D01*
X181340226Y-89303937D01*
X181509744Y-89417205D01*
X181698102Y-89495226D01*
X181898061Y-89535000D01*
X182101939Y-89535000D01*
X182301898Y-89495226D01*
X182490256Y-89417205D01*
X182659774Y-89303937D01*
X182803937Y-89159774D01*
X182917205Y-88990256D01*
X182995226Y-88801898D01*
X183035000Y-88601939D01*
X183035000Y-88398061D01*
X182995226Y-88198102D01*
X182917205Y-88009744D01*
X182803937Y-87840226D01*
X182659774Y-87696063D01*
X182490256Y-87582795D01*
X182301898Y-87504774D01*
X182101939Y-87465000D01*
X181898061Y-87465000D01*
X181698102Y-87504774D01*
X181509744Y-87582795D01*
X181340226Y-87696063D01*
X181196063Y-87840226D01*
X181082795Y-88009744D01*
X181004774Y-88198102D01*
X180965000Y-88398061D01*
X163124884Y-88398061D01*
X163115990Y-88376589D01*
X162953475Y-88133368D01*
X162746632Y-87926525D01*
X162572240Y-87810000D01*
X162746632Y-87693475D01*
X162953475Y-87486632D01*
X163115990Y-87243411D01*
X163227932Y-86973158D01*
X163285000Y-86686260D01*
X163285000Y-86393740D01*
X163227932Y-86106842D01*
X163115990Y-85836589D01*
X162953475Y-85593368D01*
X162746632Y-85386525D01*
X162572240Y-85270000D01*
X162746632Y-85153475D01*
X162953475Y-84946632D01*
X163115990Y-84703411D01*
X163227932Y-84433158D01*
X163285000Y-84146260D01*
X163285000Y-83898061D01*
X169465000Y-83898061D01*
X169465000Y-84101939D01*
X169504774Y-84301898D01*
X169582795Y-84490256D01*
X169696063Y-84659774D01*
X169840226Y-84803937D01*
X170009744Y-84917205D01*
X170198102Y-84995226D01*
X170398061Y-85035000D01*
X170601939Y-85035000D01*
X170801898Y-84995226D01*
X170990256Y-84917205D01*
X171159774Y-84803937D01*
X171303937Y-84659774D01*
X171417205Y-84490256D01*
X171495226Y-84301898D01*
X171535000Y-84101939D01*
X171535000Y-83898061D01*
X171495226Y-83698102D01*
X171417205Y-83509744D01*
X171303937Y-83340226D01*
X171159774Y-83196063D01*
X170990256Y-83082795D01*
X170801898Y-83004774D01*
X170601939Y-82965000D01*
X170398061Y-82965000D01*
X170198102Y-83004774D01*
X170009744Y-83082795D01*
X169840226Y-83196063D01*
X169696063Y-83340226D01*
X169582795Y-83509744D01*
X169504774Y-83698102D01*
X169465000Y-83898061D01*
X163285000Y-83898061D01*
X163285000Y-83853740D01*
X163227932Y-83566842D01*
X163115990Y-83296589D01*
X162953475Y-83053368D01*
X162746632Y-82846525D01*
X162572240Y-82730000D01*
X162746632Y-82613475D01*
X162953475Y-82406632D01*
X163115990Y-82163411D01*
X163227932Y-81893158D01*
X163285000Y-81606260D01*
X163285000Y-81313740D01*
X163227932Y-81026842D01*
X163115990Y-80756589D01*
X162953475Y-80513368D01*
X162746632Y-80306525D01*
X162572240Y-80190000D01*
X162746632Y-80073475D01*
X162953475Y-79866632D01*
X163115990Y-79623411D01*
X163227932Y-79353158D01*
X163285000Y-79066260D01*
X163285000Y-78773740D01*
X163227932Y-78486842D01*
X163115990Y-78216589D01*
X162953475Y-77973368D01*
X162878168Y-77898061D01*
X166605000Y-77898061D01*
X166605000Y-78101939D01*
X166644774Y-78301898D01*
X166722795Y-78490256D01*
X166836063Y-78659774D01*
X166980226Y-78803937D01*
X167149744Y-78917205D01*
X167338102Y-78995226D01*
X167538061Y-79035000D01*
X167741939Y-79035000D01*
X167941898Y-78995226D01*
X168130256Y-78917205D01*
X168299774Y-78803937D01*
X168443937Y-78659774D01*
X168557205Y-78490256D01*
X168595393Y-78398061D01*
X169965000Y-78398061D01*
X169965000Y-78601939D01*
X170004774Y-78801898D01*
X170082795Y-78990256D01*
X170196063Y-79159774D01*
X170340226Y-79303937D01*
X170509744Y-79417205D01*
X170698102Y-79495226D01*
X170898061Y-79535000D01*
X171101939Y-79535000D01*
X171146556Y-79526125D01*
X171009744Y-79582795D01*
X170840226Y-79696063D01*
X170696063Y-79840226D01*
X170582795Y-80009744D01*
X170504774Y-80198102D01*
X170465000Y-80398061D01*
X170465000Y-80601939D01*
X170504774Y-80801898D01*
X170582795Y-80990256D01*
X170696063Y-81159774D01*
X170840226Y-81303937D01*
X171009744Y-81417205D01*
X171198102Y-81495226D01*
X171398061Y-81535000D01*
X171601939Y-81535000D01*
X171801898Y-81495226D01*
X171990256Y-81417205D01*
X172018907Y-81398061D01*
X173965000Y-81398061D01*
X173965000Y-81601939D01*
X174004774Y-81801898D01*
X174082795Y-81990256D01*
X174196063Y-82159774D01*
X174340226Y-82303937D01*
X174509744Y-82417205D01*
X174698102Y-82495226D01*
X174898061Y-82535000D01*
X175101939Y-82535000D01*
X175146556Y-82526125D01*
X175009744Y-82582795D01*
X174840226Y-82696063D01*
X174696063Y-82840226D01*
X174582795Y-83009744D01*
X174504774Y-83198102D01*
X174465000Y-83398061D01*
X174465000Y-83601939D01*
X174504774Y-83801898D01*
X174582795Y-83990256D01*
X174696063Y-84159774D01*
X174840226Y-84303937D01*
X175009744Y-84417205D01*
X175198102Y-84495226D01*
X175398061Y-84535000D01*
X175601939Y-84535000D01*
X175801898Y-84495226D01*
X175990256Y-84417205D01*
X176159774Y-84303937D01*
X176303937Y-84159774D01*
X176417205Y-83990256D01*
X176495226Y-83801898D01*
X176535000Y-83601939D01*
X176535000Y-83398061D01*
X176495226Y-83198102D01*
X176417205Y-83009744D01*
X176303937Y-82840226D01*
X176159774Y-82696063D01*
X176125349Y-82673061D01*
X176465000Y-82673061D01*
X176465000Y-82876939D01*
X176504774Y-83076898D01*
X176582795Y-83265256D01*
X176696063Y-83434774D01*
X176840226Y-83578937D01*
X176927872Y-83637500D01*
X176840226Y-83696063D01*
X176696063Y-83840226D01*
X176582795Y-84009744D01*
X176504774Y-84198102D01*
X176465000Y-84398061D01*
X176465000Y-84601939D01*
X176504774Y-84801898D01*
X176582795Y-84990256D01*
X176696063Y-85159774D01*
X176786289Y-85250000D01*
X176696063Y-85340226D01*
X176582795Y-85509744D01*
X176504774Y-85698102D01*
X176465000Y-85898061D01*
X176465000Y-86101939D01*
X176504774Y-86301898D01*
X176582795Y-86490256D01*
X176696063Y-86659774D01*
X176840226Y-86803937D01*
X177009744Y-86917205D01*
X177198102Y-86995226D01*
X177398061Y-87035000D01*
X177601939Y-87035000D01*
X177801898Y-86995226D01*
X177990256Y-86917205D01*
X178039035Y-86884612D01*
X178082795Y-86990256D01*
X178196063Y-87159774D01*
X178340226Y-87303937D01*
X178509744Y-87417205D01*
X178698102Y-87495226D01*
X178898061Y-87535000D01*
X179101939Y-87535000D01*
X179301898Y-87495226D01*
X179490256Y-87417205D01*
X179659774Y-87303937D01*
X179803937Y-87159774D01*
X179917205Y-86990256D01*
X179995226Y-86801898D01*
X180035000Y-86601939D01*
X180035000Y-86398061D01*
X179995226Y-86198102D01*
X179917205Y-86009744D01*
X179803937Y-85840226D01*
X179659774Y-85696063D01*
X179490256Y-85582795D01*
X179301898Y-85504774D01*
X179101939Y-85465000D01*
X178898061Y-85465000D01*
X178698102Y-85504774D01*
X178509744Y-85582795D01*
X178460965Y-85615388D01*
X178417205Y-85509744D01*
X178303937Y-85340226D01*
X178213711Y-85250000D01*
X178303937Y-85159774D01*
X178417205Y-84990256D01*
X178495226Y-84801898D01*
X178535000Y-84601939D01*
X178535000Y-84398061D01*
X178495226Y-84198102D01*
X178417205Y-84009744D01*
X178303937Y-83840226D01*
X178159774Y-83696063D01*
X178072128Y-83637500D01*
X178159774Y-83578937D01*
X178296903Y-83441808D01*
X178409744Y-83517205D01*
X178598102Y-83595226D01*
X178798061Y-83635000D01*
X179001939Y-83635000D01*
X179201898Y-83595226D01*
X179390256Y-83517205D01*
X179559774Y-83403937D01*
X179703937Y-83259774D01*
X179817205Y-83090256D01*
X179895226Y-82901898D01*
X179935000Y-82701939D01*
X179935000Y-82498061D01*
X179895226Y-82298102D01*
X179817205Y-82109744D01*
X179703937Y-81940226D01*
X179559774Y-81796063D01*
X179390256Y-81682795D01*
X179201898Y-81604774D01*
X179001939Y-81565000D01*
X178798061Y-81565000D01*
X178598102Y-81604774D01*
X178409744Y-81682795D01*
X178240226Y-81796063D01*
X178103097Y-81933192D01*
X177990256Y-81857795D01*
X177801898Y-81779774D01*
X177601939Y-81740000D01*
X177398061Y-81740000D01*
X177198102Y-81779774D01*
X177009744Y-81857795D01*
X176840226Y-81971063D01*
X176696063Y-82115226D01*
X176582795Y-82284744D01*
X176504774Y-82473102D01*
X176465000Y-82673061D01*
X176125349Y-82673061D01*
X175990256Y-82582795D01*
X175801898Y-82504774D01*
X175601939Y-82465000D01*
X175398061Y-82465000D01*
X175353444Y-82473875D01*
X175490256Y-82417205D01*
X175659774Y-82303937D01*
X175803937Y-82159774D01*
X175917205Y-81990256D01*
X175995226Y-81801898D01*
X176035000Y-81601939D01*
X176035000Y-81398061D01*
X175995226Y-81198102D01*
X175917205Y-81009744D01*
X175803937Y-80840226D01*
X175659774Y-80696063D01*
X175490256Y-80582795D01*
X175301898Y-80504774D01*
X175101939Y-80465000D01*
X174898061Y-80465000D01*
X174698102Y-80504774D01*
X174509744Y-80582795D01*
X174340226Y-80696063D01*
X174196063Y-80840226D01*
X174082795Y-81009744D01*
X174004774Y-81198102D01*
X173965000Y-81398061D01*
X172018907Y-81398061D01*
X172159774Y-81303937D01*
X172303937Y-81159774D01*
X172417205Y-80990256D01*
X172495226Y-80801898D01*
X172535000Y-80601939D01*
X172535000Y-80398061D01*
X172495226Y-80198102D01*
X172417205Y-80009744D01*
X172342582Y-79898061D01*
X188965000Y-79898061D01*
X188965000Y-80101939D01*
X189004774Y-80301898D01*
X189082795Y-80490256D01*
X189196063Y-80659774D01*
X189340226Y-80803937D01*
X189509744Y-80917205D01*
X189698102Y-80995226D01*
X189898061Y-81035000D01*
X190101939Y-81035000D01*
X190301898Y-80995226D01*
X190490256Y-80917205D01*
X190659774Y-80803937D01*
X190803937Y-80659774D01*
X190917205Y-80490256D01*
X190995226Y-80301898D01*
X191035000Y-80101939D01*
X191035000Y-79898061D01*
X190995226Y-79698102D01*
X190964741Y-79624505D01*
X191126525Y-79866632D01*
X191333368Y-80073475D01*
X191507760Y-80190000D01*
X191333368Y-80306525D01*
X191126525Y-80513368D01*
X190964010Y-80756589D01*
X190852068Y-81026842D01*
X190795000Y-81313740D01*
X190795000Y-81606260D01*
X190852068Y-81893158D01*
X190964010Y-82163411D01*
X191126525Y-82406632D01*
X191333368Y-82613475D01*
X191507760Y-82730000D01*
X191333368Y-82846525D01*
X191126525Y-83053368D01*
X190964010Y-83296589D01*
X190852068Y-83566842D01*
X190795000Y-83853740D01*
X190795000Y-84146260D01*
X190852068Y-84433158D01*
X190964010Y-84703411D01*
X191126525Y-84946632D01*
X191333368Y-85153475D01*
X191507760Y-85270000D01*
X191333368Y-85386525D01*
X191126525Y-85593368D01*
X190964010Y-85836589D01*
X190852068Y-86106842D01*
X190795000Y-86393740D01*
X190795000Y-86686260D01*
X190852068Y-86973158D01*
X190964010Y-87243411D01*
X191126525Y-87486632D01*
X191333368Y-87693475D01*
X191507760Y-87810000D01*
X191333368Y-87926525D01*
X191126525Y-88133368D01*
X190964010Y-88376589D01*
X190852068Y-88646842D01*
X190795000Y-88933740D01*
X190795000Y-89226260D01*
X190852068Y-89513158D01*
X190964010Y-89783411D01*
X191126525Y-90026632D01*
X191333368Y-90233475D01*
X191507760Y-90350000D01*
X191333368Y-90466525D01*
X191126525Y-90673368D01*
X190964010Y-90916589D01*
X190852068Y-91186842D01*
X190795000Y-91473740D01*
X190795000Y-91766260D01*
X190852068Y-92053158D01*
X190964010Y-92323411D01*
X191126525Y-92566632D01*
X191333368Y-92773475D01*
X191507760Y-92890000D01*
X191333368Y-93006525D01*
X191126525Y-93213368D01*
X190964010Y-93456589D01*
X190852068Y-93726842D01*
X190795000Y-94013740D01*
X190795000Y-94306260D01*
X190852068Y-94593158D01*
X190964010Y-94863411D01*
X191126525Y-95106632D01*
X191258380Y-95238487D01*
X191185820Y-95260498D01*
X191075506Y-95319463D01*
X190978815Y-95398815D01*
X190899463Y-95495506D01*
X190840498Y-95605820D01*
X190804188Y-95725518D01*
X190791928Y-95850000D01*
X190795000Y-96414250D01*
X190953750Y-96573000D01*
X192153000Y-96573000D01*
X192153000Y-96553000D01*
X192407000Y-96553000D01*
X192407000Y-96573000D01*
X193606250Y-96573000D01*
X193765000Y-96414250D01*
X193768072Y-95850000D01*
X193755812Y-95725518D01*
X193719502Y-95605820D01*
X193660537Y-95495506D01*
X193581185Y-95398815D01*
X193484494Y-95319463D01*
X193374180Y-95260498D01*
X193301620Y-95238487D01*
X193433475Y-95106632D01*
X193595990Y-94863411D01*
X193707932Y-94593158D01*
X193765000Y-94306260D01*
X193765000Y-94013740D01*
X193707932Y-93726842D01*
X193595990Y-93456589D01*
X193433475Y-93213368D01*
X193226632Y-93006525D01*
X193052240Y-92890000D01*
X193226632Y-92773475D01*
X193433475Y-92566632D01*
X193595990Y-92323411D01*
X193707932Y-92053158D01*
X193765000Y-91766260D01*
X193765000Y-91473740D01*
X193707932Y-91186842D01*
X193595990Y-90916589D01*
X193433475Y-90673368D01*
X193226632Y-90466525D01*
X193052240Y-90350000D01*
X193226632Y-90233475D01*
X193433475Y-90026632D01*
X193595990Y-89783411D01*
X193707932Y-89513158D01*
X193765000Y-89226260D01*
X193765000Y-88933740D01*
X193707932Y-88646842D01*
X193595990Y-88376589D01*
X193433475Y-88133368D01*
X193226632Y-87926525D01*
X193052240Y-87810000D01*
X193226632Y-87693475D01*
X193433475Y-87486632D01*
X193595990Y-87243411D01*
X193707932Y-86973158D01*
X193765000Y-86686260D01*
X193765000Y-86393740D01*
X193707932Y-86106842D01*
X193595990Y-85836589D01*
X193433475Y-85593368D01*
X193226632Y-85386525D01*
X193052240Y-85270000D01*
X193226632Y-85153475D01*
X193433475Y-84946632D01*
X193595990Y-84703411D01*
X193707932Y-84433158D01*
X193765000Y-84146260D01*
X193765000Y-83853740D01*
X193707932Y-83566842D01*
X193595990Y-83296589D01*
X193433475Y-83053368D01*
X193226632Y-82846525D01*
X193052240Y-82730000D01*
X193226632Y-82613475D01*
X193433475Y-82406632D01*
X193595990Y-82163411D01*
X193707932Y-81893158D01*
X193765000Y-81606260D01*
X193765000Y-81313740D01*
X193707932Y-81026842D01*
X193595990Y-80756589D01*
X193433475Y-80513368D01*
X193226632Y-80306525D01*
X193052240Y-80190000D01*
X193226632Y-80073475D01*
X193433475Y-79866632D01*
X193595990Y-79623411D01*
X193707932Y-79353158D01*
X193765000Y-79066260D01*
X193765000Y-78773740D01*
X193707932Y-78486842D01*
X193595990Y-78216589D01*
X193433475Y-77973368D01*
X193226632Y-77766525D01*
X193052240Y-77650000D01*
X193226632Y-77533475D01*
X193433475Y-77326632D01*
X193595990Y-77083411D01*
X193707932Y-76813158D01*
X193765000Y-76526260D01*
X193765000Y-76233740D01*
X193707932Y-75946842D01*
X193595990Y-75676589D01*
X193433475Y-75433368D01*
X193226632Y-75226525D01*
X193052240Y-75110000D01*
X193226632Y-74993475D01*
X193433475Y-74786632D01*
X193595990Y-74543411D01*
X193707932Y-74273158D01*
X193765000Y-73986260D01*
X193765000Y-73693740D01*
X193707932Y-73406842D01*
X193595990Y-73136589D01*
X193433475Y-72893368D01*
X193226632Y-72686525D01*
X192983411Y-72524010D01*
X192713158Y-72412068D01*
X192426260Y-72355000D01*
X192133740Y-72355000D01*
X191846842Y-72412068D01*
X191576589Y-72524010D01*
X191333368Y-72686525D01*
X191126525Y-72893368D01*
X190964010Y-73136589D01*
X190852068Y-73406842D01*
X190795000Y-73693740D01*
X190795000Y-73986260D01*
X190852068Y-74273158D01*
X190964010Y-74543411D01*
X191126525Y-74786632D01*
X191333368Y-74993475D01*
X191507760Y-75110000D01*
X191333368Y-75226525D01*
X191126525Y-75433368D01*
X190964010Y-75676589D01*
X190852068Y-75946842D01*
X190795000Y-76233740D01*
X190795000Y-76526260D01*
X190852068Y-76813158D01*
X190964010Y-77083411D01*
X191126525Y-77326632D01*
X191333368Y-77533475D01*
X191507760Y-77650000D01*
X191333368Y-77766525D01*
X191126525Y-77973368D01*
X190964010Y-78216589D01*
X190852068Y-78486842D01*
X190795000Y-78773740D01*
X190795000Y-79066260D01*
X190852068Y-79353158D01*
X190916476Y-79508652D01*
X190803937Y-79340226D01*
X190659774Y-79196063D01*
X190490256Y-79082795D01*
X190301898Y-79004774D01*
X190101939Y-78965000D01*
X189898061Y-78965000D01*
X189698102Y-79004774D01*
X189509744Y-79082795D01*
X189340226Y-79196063D01*
X189196063Y-79340226D01*
X189082795Y-79509744D01*
X189004774Y-79698102D01*
X188965000Y-79898061D01*
X172342582Y-79898061D01*
X172303937Y-79840226D01*
X172159774Y-79696063D01*
X171990256Y-79582795D01*
X171801898Y-79504774D01*
X171601939Y-79465000D01*
X171398061Y-79465000D01*
X171353444Y-79473875D01*
X171490256Y-79417205D01*
X171659774Y-79303937D01*
X171803937Y-79159774D01*
X171917205Y-78990256D01*
X171995226Y-78801898D01*
X172035000Y-78601939D01*
X172035000Y-78398061D01*
X171995226Y-78198102D01*
X171917205Y-78009744D01*
X171803937Y-77840226D01*
X171659774Y-77696063D01*
X171490256Y-77582795D01*
X171301898Y-77504774D01*
X171101939Y-77465000D01*
X170898061Y-77465000D01*
X170698102Y-77504774D01*
X170509744Y-77582795D01*
X170340226Y-77696063D01*
X170196063Y-77840226D01*
X170082795Y-78009744D01*
X170004774Y-78198102D01*
X169965000Y-78398061D01*
X168595393Y-78398061D01*
X168635226Y-78301898D01*
X168675000Y-78101939D01*
X168675000Y-77898061D01*
X168635226Y-77698102D01*
X168557205Y-77509744D01*
X168443937Y-77340226D01*
X168299774Y-77196063D01*
X168130256Y-77082795D01*
X167941898Y-77004774D01*
X167741939Y-76965000D01*
X167538061Y-76965000D01*
X167338102Y-77004774D01*
X167149744Y-77082795D01*
X166980226Y-77196063D01*
X166836063Y-77340226D01*
X166722795Y-77509744D01*
X166644774Y-77698102D01*
X166605000Y-77898061D01*
X162878168Y-77898061D01*
X162746632Y-77766525D01*
X162572240Y-77650000D01*
X162746632Y-77533475D01*
X162953475Y-77326632D01*
X163115990Y-77083411D01*
X163227932Y-76813158D01*
X163285000Y-76526260D01*
X163285000Y-76233740D01*
X163227932Y-75946842D01*
X163207727Y-75898061D01*
X181465000Y-75898061D01*
X181465000Y-76101939D01*
X181504774Y-76301898D01*
X181582795Y-76490256D01*
X181696063Y-76659774D01*
X181840226Y-76803937D01*
X182009744Y-76917205D01*
X182198102Y-76995226D01*
X182398061Y-77035000D01*
X182601939Y-77035000D01*
X182801898Y-76995226D01*
X182990256Y-76917205D01*
X183159774Y-76803937D01*
X183303937Y-76659774D01*
X183417205Y-76490256D01*
X183495226Y-76301898D01*
X183535000Y-76101939D01*
X183535000Y-75898061D01*
X183495226Y-75698102D01*
X183417205Y-75509744D01*
X183303937Y-75340226D01*
X183159774Y-75196063D01*
X182990256Y-75082795D01*
X182801898Y-75004774D01*
X182601939Y-74965000D01*
X182398061Y-74965000D01*
X182198102Y-75004774D01*
X182009744Y-75082795D01*
X181840226Y-75196063D01*
X181696063Y-75340226D01*
X181582795Y-75509744D01*
X181504774Y-75698102D01*
X181465000Y-75898061D01*
X163207727Y-75898061D01*
X163115990Y-75676589D01*
X162953475Y-75433368D01*
X162746632Y-75226525D01*
X162572240Y-75110000D01*
X162746632Y-74993475D01*
X162953475Y-74786632D01*
X163115990Y-74543411D01*
X163227932Y-74273158D01*
X163285000Y-73986260D01*
X163285000Y-73693740D01*
X163227932Y-73406842D01*
X163115990Y-73136589D01*
X162953475Y-72893368D01*
X162746632Y-72686525D01*
X162503411Y-72524010D01*
X162233158Y-72412068D01*
X161946260Y-72355000D01*
X161653740Y-72355000D01*
X161366842Y-72412068D01*
X161096589Y-72524010D01*
X160853368Y-72686525D01*
X160646525Y-72893368D01*
X160484010Y-73136589D01*
X160372068Y-73406842D01*
X160315000Y-73693740D01*
X160315000Y-73986260D01*
X160372068Y-74273158D01*
X160484010Y-74543411D01*
X160646525Y-74786632D01*
X160853368Y-74993475D01*
X161027760Y-75110000D01*
X160853368Y-75226525D01*
X160646525Y-75433368D01*
X160484010Y-75676589D01*
X160372068Y-75946842D01*
X160315000Y-76233740D01*
X160315000Y-76526260D01*
X160372068Y-76813158D01*
X160484010Y-77083411D01*
X160646525Y-77326632D01*
X160853368Y-77533475D01*
X161027760Y-77650000D01*
X160853368Y-77766525D01*
X160646525Y-77973368D01*
X160484010Y-78216589D01*
X160372068Y-78486842D01*
X160315000Y-78773740D01*
X160315000Y-79066260D01*
X160372068Y-79353158D01*
X160484010Y-79623411D01*
X160646525Y-79866632D01*
X160853368Y-80073475D01*
X161027760Y-80190000D01*
X160853368Y-80306525D01*
X160646525Y-80513368D01*
X160484010Y-80756589D01*
X160372068Y-81026842D01*
X160315000Y-81313740D01*
X160315000Y-81606260D01*
X160372068Y-81893158D01*
X160484010Y-82163411D01*
X160646525Y-82406632D01*
X160853368Y-82613475D01*
X161027760Y-82730000D01*
X160853368Y-82846525D01*
X160646525Y-83053368D01*
X160484010Y-83296589D01*
X160372068Y-83566842D01*
X160315000Y-83853740D01*
X160315000Y-84146260D01*
X160372068Y-84433158D01*
X160484010Y-84703411D01*
X160646525Y-84946632D01*
X160853368Y-85153475D01*
X161027760Y-85270000D01*
X160853368Y-85386525D01*
X160646525Y-85593368D01*
X160484010Y-85836589D01*
X160372068Y-86106842D01*
X160315000Y-86393740D01*
X160315000Y-86686260D01*
X160372068Y-86973158D01*
X160484010Y-87243411D01*
X160646525Y-87486632D01*
X160853368Y-87693475D01*
X161027760Y-87810000D01*
X160853368Y-87926525D01*
X160646525Y-88133368D01*
X160484010Y-88376589D01*
X160372068Y-88646842D01*
X160315000Y-88933740D01*
X160315000Y-89226260D01*
X160372068Y-89513158D01*
X160484010Y-89783411D01*
X160646525Y-90026632D01*
X160853368Y-90233475D01*
X161027760Y-90350000D01*
X160853368Y-90466525D01*
X160646525Y-90673368D01*
X160484010Y-90916589D01*
X160372068Y-91186842D01*
X160315000Y-91473740D01*
X160315000Y-91766260D01*
X160372068Y-92053158D01*
X160484010Y-92323411D01*
X160646525Y-92566632D01*
X160853368Y-92773475D01*
X161027760Y-92890000D01*
X160853368Y-93006525D01*
X160646525Y-93213368D01*
X160484010Y-93456589D01*
X160372068Y-93726842D01*
X160315000Y-94013740D01*
X160315000Y-94306260D01*
X160372068Y-94593158D01*
X160484010Y-94863411D01*
X160646525Y-95106632D01*
X160778380Y-95238487D01*
X160705820Y-95260498D01*
X160595506Y-95319463D01*
X160498815Y-95398815D01*
X160419463Y-95495506D01*
X160360498Y-95605820D01*
X160324188Y-95725518D01*
X160311928Y-95850000D01*
X159660000Y-95850000D01*
X159660000Y-70998061D01*
X183965000Y-70998061D01*
X183965000Y-71201939D01*
X184004774Y-71401898D01*
X184082795Y-71590256D01*
X184196063Y-71759774D01*
X184340226Y-71903937D01*
X184509744Y-72017205D01*
X184698102Y-72095226D01*
X184898061Y-72135000D01*
X185101939Y-72135000D01*
X185301898Y-72095226D01*
X185490256Y-72017205D01*
X185659774Y-71903937D01*
X185803937Y-71759774D01*
X185917205Y-71590256D01*
X185995226Y-71401898D01*
X186035000Y-71201939D01*
X186035000Y-70998061D01*
X185995226Y-70798102D01*
X185917205Y-70609744D01*
X185803937Y-70440226D01*
X185659774Y-70296063D01*
X185490256Y-70182795D01*
X185301898Y-70104774D01*
X185101939Y-70065000D01*
X184898061Y-70065000D01*
X184698102Y-70104774D01*
X184509744Y-70182795D01*
X184340226Y-70296063D01*
X184196063Y-70440226D01*
X184082795Y-70609744D01*
X184004774Y-70798102D01*
X183965000Y-70998061D01*
X159660000Y-70998061D01*
X159660000Y-67898061D01*
X169465000Y-67898061D01*
X169465000Y-68101939D01*
X169504774Y-68301898D01*
X169582795Y-68490256D01*
X169696063Y-68659774D01*
X169840226Y-68803937D01*
X170009744Y-68917205D01*
X170198102Y-68995226D01*
X170398061Y-69035000D01*
X170601939Y-69035000D01*
X170801898Y-68995226D01*
X170990256Y-68917205D01*
X171159774Y-68803937D01*
X171303937Y-68659774D01*
X171417205Y-68490256D01*
X171495226Y-68301898D01*
X171535000Y-68101939D01*
X171535000Y-67898061D01*
X171495226Y-67698102D01*
X171417205Y-67509744D01*
X171303937Y-67340226D01*
X171159774Y-67196063D01*
X170990256Y-67082795D01*
X170801898Y-67004774D01*
X170601939Y-66965000D01*
X170398061Y-66965000D01*
X170198102Y-67004774D01*
X170009744Y-67082795D01*
X169840226Y-67196063D01*
X169696063Y-67340226D01*
X169582795Y-67509744D01*
X169504774Y-67698102D01*
X169465000Y-67898061D01*
X159660000Y-67898061D01*
X159660000Y-63898061D01*
X170965000Y-63898061D01*
X170965000Y-64101939D01*
X171004774Y-64301898D01*
X171082795Y-64490256D01*
X171196063Y-64659774D01*
X171340226Y-64803937D01*
X171509744Y-64917205D01*
X171698102Y-64995226D01*
X171898061Y-65035000D01*
X172101939Y-65035000D01*
X172301898Y-64995226D01*
X172490256Y-64917205D01*
X172659774Y-64803937D01*
X172803937Y-64659774D01*
X172917205Y-64490256D01*
X172995226Y-64301898D01*
X173035000Y-64101939D01*
X173035000Y-63898061D01*
X172995226Y-63698102D01*
X172965689Y-63626793D01*
X173420000Y-63626793D01*
X173420000Y-64143206D01*
X173437147Y-64317299D01*
X173504906Y-64540673D01*
X173614942Y-64746535D01*
X173763025Y-64926975D01*
X173943464Y-65075058D01*
X174149326Y-65185094D01*
X174372700Y-65252853D01*
X174605000Y-65275733D01*
X174837299Y-65252853D01*
X175060673Y-65185094D01*
X175266535Y-65075058D01*
X175446975Y-64926975D01*
X175595058Y-64746536D01*
X175705094Y-64540674D01*
X175772853Y-64317300D01*
X175790000Y-64143207D01*
X175790000Y-63626794D01*
X175790000Y-63626793D01*
X178260000Y-63626793D01*
X178260000Y-64143206D01*
X178277147Y-64317299D01*
X178344906Y-64540673D01*
X178454942Y-64746535D01*
X178603025Y-64926975D01*
X178783464Y-65075058D01*
X178915611Y-65145692D01*
X178840226Y-65196063D01*
X178696063Y-65340226D01*
X178582795Y-65509744D01*
X178504774Y-65698102D01*
X178465000Y-65898061D01*
X178465000Y-66101939D01*
X178504774Y-66301898D01*
X178582795Y-66490256D01*
X178696063Y-66659774D01*
X178840226Y-66803937D01*
X179009744Y-66917205D01*
X179198102Y-66995226D01*
X179398061Y-67035000D01*
X179601939Y-67035000D01*
X179801898Y-66995226D01*
X179990256Y-66917205D01*
X180159774Y-66803937D01*
X180303937Y-66659774D01*
X180417205Y-66490256D01*
X180495226Y-66301898D01*
X180535000Y-66101939D01*
X180535000Y-65898061D01*
X180495226Y-65698102D01*
X180417205Y-65509744D01*
X180303937Y-65340226D01*
X180159774Y-65196063D01*
X180035501Y-65113027D01*
X180106535Y-65075058D01*
X180286975Y-64926975D01*
X180435058Y-64746536D01*
X180545094Y-64540674D01*
X180612853Y-64317300D01*
X180630000Y-64143207D01*
X180630000Y-63626794D01*
X180612853Y-63452701D01*
X180545094Y-63229327D01*
X180435058Y-63023464D01*
X180286975Y-62843025D01*
X180106536Y-62694942D01*
X179900674Y-62584906D01*
X179677300Y-62517147D01*
X179445000Y-62494267D01*
X179212701Y-62517147D01*
X178989327Y-62584906D01*
X178783465Y-62694942D01*
X178603026Y-62843025D01*
X178454943Y-63023464D01*
X178344906Y-63229326D01*
X178277147Y-63452700D01*
X178260000Y-63626793D01*
X175790000Y-63626793D01*
X175772853Y-63452701D01*
X175705094Y-63229327D01*
X175595058Y-63023464D01*
X175446975Y-62843025D01*
X175266536Y-62694942D01*
X175060674Y-62584906D01*
X174837300Y-62517147D01*
X174605000Y-62494267D01*
X174372701Y-62517147D01*
X174149327Y-62584906D01*
X173943465Y-62694942D01*
X173763026Y-62843025D01*
X173614943Y-63023464D01*
X173504906Y-63229326D01*
X173437147Y-63452700D01*
X173420000Y-63626793D01*
X172965689Y-63626793D01*
X172917205Y-63509744D01*
X172803937Y-63340226D01*
X172659774Y-63196063D01*
X172490256Y-63082795D01*
X172301898Y-63004774D01*
X172101939Y-62965000D01*
X171898061Y-62965000D01*
X171698102Y-63004774D01*
X171509744Y-63082795D01*
X171340226Y-63196063D01*
X171196063Y-63340226D01*
X171082795Y-63509744D01*
X171004774Y-63698102D01*
X170965000Y-63898061D01*
X159660000Y-63898061D01*
X159660000Y-60032279D01*
X159669580Y-59934576D01*
X159688580Y-59871644D01*
X159719445Y-59813595D01*
X159760989Y-59762657D01*
X159811644Y-59720752D01*
X159869471Y-59689485D01*
X159932272Y-59670044D01*
X160027835Y-59660000D01*
X173509465Y-59660000D01*
X173364209Y-59779208D01*
G37*
G04 #@! TD.AperFunction*
M02*
